<svg width="725" height="725" viewBox="0 0 725 725" fill="none" xmlns="http://www.w3.org/2000/svg">
<path d="M361.847 148.552C257.23 195.634 352.19 279.516 291.783 325.206C231.376 370.895 67.1494 318.072 129.746 436.725C203.29 576.085 525.349 556.8 594.79 385.801C664.23 214.803 466.465 101.5 361.847 148.552Z" fill="#D4AF38"/>
<path opacity="0.9" d="M361.847 148.552C257.23 195.634 352.19 279.516 291.783 325.206C231.376 370.895 67.1494 318.072 129.746 436.725C203.29 576.085 525.349 556.8 594.79 385.801C664.23 214.803 466.465 101.5 361.847 148.552Z" fill="white"/>
<path d="M362.5 619.962C517.769 619.962 643.64 612.613 643.64 603.548C643.64 594.483 517.769 587.134 362.5 587.134C207.23 587.134 81.3594 594.483 81.3594 603.548C81.3594 612.613 207.23 619.962 362.5 619.962Z" fill="#F5F5F5"/>
<path d="M553.972 540.299C553.972 540.299 542.72 526.93 535.528 533.165C528.336 539.4 531.976 552.638 540.27 553.073C545.189 553.339 550.043 551.855 553.972 548.883V540.299Z" fill="#D4AF38"/>
<path opacity="0.2" d="M553.972 540.299C553.972 540.299 542.72 526.93 535.528 533.165C528.336 539.4 531.976 552.638 540.27 553.073C545.189 553.339 550.043 551.855 553.972 548.883V540.299Z" fill="white"/>
<path d="M599.836 506.369C599.836 506.369 609.275 496.48 615.119 498.162C620.962 499.844 620.368 523.464 602.228 513.894L599.836 506.369Z" fill="#D4AF38"/>
<path opacity="0.3" d="M599.836 506.369C599.836 506.369 609.275 496.48 615.119 498.162C620.962 499.844 620.368 523.464 602.228 513.894L599.836 506.369Z" fill="white"/>
<path d="M566.109 580.159C566.109 580.159 535.079 537.718 560.309 529.119C585.539 520.521 589.99 563.267 582.798 575.171C575.606 587.076 566.109 580.159 566.109 580.159Z" fill="#D4AF38"/>
<path d="M580.493 493.261C580.493 493.261 599.749 448.572 571.242 447.223C542.735 445.875 539.617 491.535 572.431 498.162L580.493 493.261Z" fill="#D4AF38"/>
<path opacity="0.3" d="M566.109 580.159C566.109 580.159 535.079 537.718 560.309 529.119C585.539 520.521 589.99 563.267 582.798 575.171C575.606 587.076 566.109 580.159 566.109 580.159Z" fill="white"/>
<path opacity="0.3" d="M580.493 493.261C580.493 493.261 599.749 448.572 571.242 447.223C542.735 445.875 539.617 491.535 572.431 498.162L580.493 493.261Z" fill="white"/>
<path d="M573.664 529.844C573.664 529.844 564.311 490.39 582.364 487.243C600.416 484.097 618.106 519.752 580.914 537.674C580.827 537.674 574.447 533.716 573.664 529.844Z" fill="#D4AF38"/>
<path opacity="0.2" d="M573.664 529.844C573.664 529.844 564.311 490.39 582.364 487.243C600.416 484.097 618.106 519.752 580.914 537.674C580.827 537.674 574.447 533.716 573.664 529.844Z" fill="white"/>
<path d="M543.779 574.142H595.863L591.513 607.477H548.129L543.779 574.142Z" fill="#263238"/>
<path d="M570.865 490.1C560.135 482.255 552.697 467.088 559.033 454.314C558.772 455.503 558.453 456.793 558.163 457.982C556.046 470.09 562.687 481.646 570.865 490.1Z" fill="#D4AF38"/>
<path d="M564.05 451.719C576.419 454.227 581.885 467.35 580.45 478.906C580.174 480.545 579.942 482.154 579.609 483.764C579.771 480.526 579.737 477.282 579.507 474.048C578.739 464.522 573.49 455.199 564.05 451.719Z" fill="#D4AF38"/>
<path d="M585.8 490.1C592.746 492.55 597.096 500.177 597.11 507.398C597.11 513.691 593.63 519.404 589.744 524.102C586.911 527.514 583.673 530.567 580.102 533.194C583.256 530.167 586.166 526.894 588.802 523.406C592.035 519.056 594.877 514.344 595.588 508.979C596.197 501.526 592.557 493.58 585.728 490.129L585.8 490.1Z" fill="#D4AF38"/>
<path d="M580.493 493.261C582.349 499.061 584.002 505.949 580.986 511.633C578.463 515.316 578.202 520.129 578.086 524.523C578.086 526.06 578.086 527.583 578.187 529.12C577.447 526.108 577.111 523.012 577.187 519.912C577.137 516.718 578.008 513.577 579.695 510.864C582.479 505.557 581.145 498.988 580.435 493.261H580.493Z" fill="#D4AF38"/>
<path d="M567.849 533.165C575.099 536.892 577.999 561.919 577.723 569.792C577.506 568.197 577.259 566.617 576.955 565.036C575.577 557.148 574.142 549.231 572.054 541.503C571.082 538.603 570.459 535.036 567.849 533.165Z" fill="#D4AF38"/>
<path d="M559.033 534.542C557.286 540.224 557.019 546.258 558.257 552.071C559.496 557.885 562.198 563.286 566.109 567.762C564.958 566.776 563.869 565.72 562.846 564.601C559.343 560.512 557.114 555.485 556.436 550.143C555.759 544.801 556.661 539.377 559.033 534.542Z" fill="#D4AF38"/>
<path d="M607.158 511.183C610.464 510.298 613.277 509.501 615.684 507.065C615.09 510.762 610.392 512.502 607.158 511.183Z" fill="#D4AF38"/>
<path d="M605.23 504.672C606.781 501.511 612.088 499.539 614.336 502.976C611.16 501.598 608.072 503.324 605.23 504.672Z" fill="#D4AF38"/>
<path d="M548.839 542.3C545.214 539.748 541.459 535.398 536.775 537.674C540.589 533.15 546.998 538.211 548.839 542.3Z" fill="#D4AF38"/>
<path d="M548.839 548.883C544.098 550.623 534.629 550.753 534.049 544.127C536.761 549.535 543.677 548.346 548.839 548.883Z" fill="#D4AF38"/>
<path d="M457.692 578.55C457.941 578.045 458.064 577.487 458.05 576.925C458.036 576.362 457.886 575.811 457.612 575.319C457.338 574.827 456.949 574.409 456.478 574.1C456.007 573.792 455.469 573.602 454.909 573.548C455.389 572.112 455.42 570.565 454.998 569.111C454.575 567.658 453.72 566.368 452.545 565.413C452.266 565.144 451.902 564.981 451.516 564.949C451.105 564.993 450.72 565.166 450.413 565.442L443.903 570.126C443.374 570.443 442.927 570.88 442.598 571.402C441.264 573.983 446.078 577.289 444.048 579.42C443.482 580.044 442.598 580.16 441.859 580.609C440.307 581.581 440.118 583.712 439.393 585.394C438.668 587.076 436.145 588.367 435.174 586.844C435.899 585.235 433.724 583.843 431.984 583.64C430.244 583.437 428.403 583.335 427.446 581.697C424.952 583.872 419.398 577.811 419.514 575.375C418.535 575.551 417.636 576.028 416.941 576.741C416.247 577.453 415.793 578.364 415.642 579.348C415.359 581.365 415.286 583.406 415.425 585.438C415.425 589.396 414.091 593.268 414.163 597.226C414.163 600.3 415.41 603.708 418.223 604.955C419.617 605.451 421.099 605.649 422.573 605.535L454.662 605.332C455.435 605.391 456.212 605.262 456.924 604.955C458.374 604.201 458.679 602.301 458.809 600.677C459.37 593.707 459.945 586.738 460.534 579.768L457.692 578.55Z" fill="#D4AF38"/>
<path opacity="0.3" d="M457.692 578.55C457.941 578.045 458.064 577.487 458.05 576.925C458.036 576.362 457.886 575.811 457.612 575.319C457.338 574.827 456.949 574.409 456.478 574.1C456.007 573.792 455.469 573.602 454.909 573.548C455.389 572.112 455.42 570.565 454.998 569.111C454.575 567.658 453.72 566.368 452.545 565.413C452.266 565.144 451.902 564.981 451.516 564.949C451.105 564.993 450.72 565.166 450.413 565.442L443.903 570.126C443.374 570.443 442.927 570.88 442.598 571.402C441.264 573.983 446.078 577.289 444.048 579.42C443.482 580.044 442.598 580.16 441.859 580.609C440.307 581.581 440.118 583.712 439.393 585.394C438.668 587.076 436.145 588.367 435.174 586.844C435.899 585.235 433.724 583.843 431.984 583.64C430.244 583.437 428.403 583.335 427.446 581.697C424.952 583.872 419.398 577.811 419.514 575.375C418.535 575.551 417.636 576.028 416.941 576.741C416.247 577.453 415.793 578.364 415.642 579.348C415.359 581.365 415.286 583.406 415.425 585.438C415.425 589.396 414.091 593.268 414.163 597.226C414.163 600.3 415.41 603.708 418.223 604.955C419.617 605.451 421.099 605.649 422.573 605.535L454.662 605.332C455.435 605.391 456.212 605.262 456.924 604.955C458.374 604.201 458.679 602.301 458.809 600.677C459.37 593.707 459.945 586.738 460.534 579.768L457.692 578.55Z" fill="white"/>
<path d="M459.65 544.562H409.784L410.19 549.594L410.495 553.19L411.249 562.528L411.684 567.907L412.249 575.041L412.496 578.115L412.583 579.028L412.873 582.625L413.279 587.569L413.525 590.628L413.772 593.746L414.062 597.342L414.294 600.068L414.54 603.128L414.642 604.462H460.331L460.433 603.128L460.679 600.083L460.911 597.328L461.201 593.732L461.448 590.628L461.694 587.569L462.1 582.61L462.39 579.028L462.463 578.115L462.709 575.041L463.289 567.907L463.724 562.542L464.478 553.19L464.768 549.594L465.174 544.562H459.65ZM462.637 547.868L461.68 546.897H462.724L462.637 547.868ZM462.39 550.913L462.303 552.131L457.837 556.583L452.733 551.478L457.301 546.897H458.374L462.39 550.913ZM461.1 566.863L457.837 570.126L452.733 565.007L457.837 559.918L461.375 563.441L461.1 566.863ZM413.728 563.441L417.266 559.918L422.37 565.007L417.266 570.126L414.018 566.863L413.728 563.441ZM456.126 558.25L450.95 563.354L445.904 558.25L451.008 553.146L456.126 558.25ZM448.05 546.897H453.85L450.95 549.797L448.05 546.897ZM449.326 564.993L444.222 570.111L439.103 564.993L444.222 559.903L449.326 564.993ZM432.346 571.764L437.465 566.66L442.554 571.764L437.465 576.868L432.346 571.764ZM435.797 578.521L430.65 583.64L425.618 578.55L430.722 573.432L435.797 578.521ZM444.222 573.417L449.355 578.55L444.251 583.654L439.132 578.55L444.222 573.417ZM437.465 563.354L432.375 558.25L437.494 553.146L442.583 558.25L437.465 563.354ZM435.797 564.993L430.693 570.111L425.589 564.993L430.693 559.903L435.797 564.993ZM423.922 563.354L418.847 558.25L423.951 553.146L429.069 558.25L423.922 563.354ZM423.922 566.66L429.04 571.764L423.922 576.868L418.818 571.764L423.922 566.66ZM429.04 585.293L423.922 590.397L418.818 585.293L423.922 580.189L429.04 585.293ZM430.679 586.946L435.797 592.05L430.693 597.168L425.589 592.05L430.679 586.946ZM432.346 585.293L437.465 580.189L442.554 585.293L437.465 590.397L432.346 585.293ZM444.222 586.946L449.326 592.05L444.222 597.168L439.103 592.05L444.222 586.946ZM450.979 593.703L456.097 598.821L452.777 602.127H449.21L445.904 598.85L450.979 593.703ZM445.875 585.293L450.979 580.189L456.097 585.293L450.95 590.397L445.875 585.293ZM445.875 571.764L450.95 566.66L456.068 571.764L450.95 576.868L445.875 571.764ZM449.326 551.464L444.222 556.568L439.103 551.464L443.685 546.882H444.758L449.326 551.464ZM437.465 549.811L434.565 546.911H440.365L437.465 549.811ZM435.797 551.464L430.693 556.568L425.589 551.464L430.157 546.882H431.23L435.797 551.464ZM426.851 546.882L423.951 549.782L421.051 546.882H426.851ZM417.701 546.882L422.269 551.464L417.165 556.568L412.713 552.116L412.626 550.899L416.628 546.882H417.701ZM413.351 546.882L412.409 547.839L412.322 546.882H413.351ZM413.032 555.727L415.541 558.221L413.409 560.353L413.032 555.727ZM414.482 572.852L414.294 570.43L415.599 571.75L414.482 572.852ZM414.729 575.94L417.252 573.403L422.356 578.521L417.252 583.625L415.193 581.566L414.729 575.94ZM415.497 585.38V585.162L415.613 585.278L415.512 585.38H415.497ZM416.382 596.269L415.744 588.439L417.194 586.989L422.298 592.093L417.194 597.197L416.324 596.327L416.382 596.269ZM416.846 602.069L416.759 600.895L417.252 600.402L418.905 602.069H416.846ZM418.905 598.763L424.009 593.645L429.127 598.763L425.807 602.069H422.211L418.905 598.763ZM429.127 602.069L430.78 600.402L432.448 602.069H429.127ZM435.739 602.069L432.375 598.85L437.494 593.732L442.583 598.85L439.35 602.127L435.739 602.069ZM442.641 602.069L444.309 600.402L445.962 602.069H442.641ZM458.229 602.069H456.17L457.823 600.402L458.316 600.895L458.229 602.069ZM458.707 596.269L457.823 597.139L452.719 592.035L457.823 586.931L459.273 588.381L458.707 596.269ZM459.606 585.147V585.38L459.505 585.278L459.635 585.147H459.606ZM459.896 581.566L457.823 583.625L452.661 578.55L457.765 573.432L460.302 575.969L459.896 581.566ZM460.607 572.866L459.476 571.75L460.795 570.43L460.607 572.866ZM462.057 555.713L461.68 560.367L459.418 558.25L461.941 555.741L462.057 555.713Z" fill="#D4AF38"/>
<g opacity="0.6">
<path d="M459.65 544.562H409.784L410.19 549.594L410.495 553.19L411.249 562.528L411.684 567.907L412.249 575.041L412.496 578.115L412.583 579.028L412.873 582.625L413.279 587.569L413.525 590.628L413.772 593.746L414.062 597.342L414.294 600.068L414.54 603.128L414.642 604.462H460.331L460.433 603.128L460.679 600.083L460.911 597.328L461.201 593.732L461.448 590.628L461.694 587.569L462.1 582.61L462.39 579.028L462.463 578.115L462.709 575.041L463.289 567.907L463.724 562.542L464.478 553.19L464.768 549.594L465.174 544.562H459.65ZM462.637 547.868L461.68 546.897H462.724L462.637 547.868ZM462.39 550.913L462.303 552.131L457.837 556.583L452.733 551.478L457.301 546.897H458.374L462.39 550.913ZM461.1 566.863L457.837 570.126L452.733 565.007L457.837 559.918L461.375 563.441L461.1 566.863ZM413.728 563.441L417.266 559.918L422.37 565.007L417.266 570.126L414.018 566.863L413.728 563.441ZM456.126 558.25L450.95 563.354L445.904 558.25L451.008 553.146L456.126 558.25ZM448.05 546.897H453.85L450.95 549.797L448.05 546.897ZM449.326 564.993L444.222 570.111L439.103 564.993L444.222 559.903L449.326 564.993ZM432.346 571.764L437.465 566.66L442.554 571.764L437.465 576.868L432.346 571.764ZM435.797 578.521L430.65 583.64L425.618 578.55L430.722 573.432L435.797 578.521ZM444.222 573.417L449.355 578.55L444.251 583.654L439.132 578.55L444.222 573.417ZM437.465 563.354L432.375 558.25L437.494 553.146L442.583 558.25L437.465 563.354ZM435.797 564.993L430.693 570.111L425.589 564.993L430.693 559.903L435.797 564.993ZM423.922 563.354L418.847 558.25L423.951 553.146L429.069 558.25L423.922 563.354ZM423.922 566.66L429.04 571.764L423.922 576.868L418.818 571.764L423.922 566.66ZM429.04 585.293L423.922 590.397L418.818 585.293L423.922 580.189L429.04 585.293ZM430.679 586.946L435.797 592.05L430.693 597.168L425.589 592.05L430.679 586.946ZM432.346 585.293L437.465 580.189L442.554 585.293L437.465 590.397L432.346 585.293ZM444.222 586.946L449.326 592.05L444.222 597.168L439.103 592.05L444.222 586.946ZM450.979 593.703L456.097 598.821L452.777 602.127H449.21L445.904 598.85L450.979 593.703ZM445.875 585.293L450.979 580.189L456.097 585.293L450.95 590.397L445.875 585.293ZM445.875 571.764L450.95 566.66L456.068 571.764L450.95 576.868L445.875 571.764ZM449.326 551.464L444.222 556.568L439.103 551.464L443.685 546.882H444.758L449.326 551.464ZM437.465 549.811L434.565 546.911H440.365L437.465 549.811ZM435.797 551.464L430.693 556.568L425.589 551.464L430.157 546.882H431.23L435.797 551.464ZM426.851 546.882L423.951 549.782L421.051 546.882H426.851ZM417.701 546.882L422.269 551.464L417.165 556.568L412.713 552.116L412.626 550.899L416.628 546.882H417.701ZM413.351 546.882L412.409 547.839L412.322 546.882H413.351ZM413.032 555.727L415.541 558.221L413.409 560.353L413.032 555.727ZM414.482 572.852L414.294 570.43L415.599 571.75L414.482 572.852ZM414.729 575.94L417.252 573.403L422.356 578.521L417.252 583.625L415.193 581.566L414.729 575.94ZM415.497 585.38V585.162L415.613 585.278L415.512 585.38H415.497ZM416.382 596.269L415.744 588.439L417.194 586.989L422.298 592.093L417.194 597.197L416.324 596.327L416.382 596.269ZM416.846 602.069L416.759 600.895L417.252 600.402L418.905 602.069H416.846ZM418.905 598.763L424.009 593.645L429.127 598.763L425.807 602.069H422.211L418.905 598.763ZM429.127 602.069L430.78 600.402L432.448 602.069H429.127ZM435.739 602.069L432.375 598.85L437.494 593.732L442.583 598.85L439.35 602.127L435.739 602.069ZM442.641 602.069L444.309 600.402L445.962 602.069H442.641ZM458.229 602.069H456.17L457.823 600.402L458.316 600.895L458.229 602.069ZM458.707 596.269L457.823 597.139L452.719 592.035L457.823 586.931L459.273 588.381L458.707 596.269ZM459.606 585.147V585.38L459.505 585.278L459.635 585.147H459.606ZM459.896 581.566L457.823 583.625L452.661 578.55L457.765 573.432L460.302 575.969L459.896 581.566ZM460.607 572.866L459.476 571.75L460.795 570.43L460.607 572.866ZM462.057 555.713L461.68 560.367L459.418 558.25L461.941 555.741L462.057 555.713Z" fill="white"/>
</g>
<path d="M408.973 548.999H465.987C467.3 548.999 468.365 547.934 468.365 546.621V544.867C468.365 543.553 467.3 542.489 465.987 542.489H408.973C407.659 542.489 406.595 543.553 406.595 544.867V546.621C406.595 547.934 407.659 548.999 408.973 548.999Z" fill="#D4AF38"/>
<path d="M461.535 600.967H413.439C412.125 600.967 411.061 602.032 411.061 603.345V605.1C411.061 606.413 412.125 607.478 413.439 607.478H461.535C462.848 607.478 463.913 606.413 463.913 605.1V603.345C463.913 602.032 462.848 600.967 461.535 600.967Z" fill="#D4AF38"/>
<path d="M628.633 215.499H339.141V412.598H628.633V215.499Z" fill="#D4AF38"/>
<path opacity="0.6" d="M628.633 215.499H339.141V412.598H628.633V215.499Z" fill="white"/>
<path opacity="0.1" d="M525.538 215.499C525.538 215.499 442.25 293.48 339.141 295.336V215.499H525.538Z" fill="white"/>
<path opacity="0.1" d="M628.619 318.391C628.619 318.391 571.416 312.431 514.823 345.303C458.229 378.175 401.723 409.103 339.141 394.603V412.583H628.619V318.391Z" fill="white"/>
<path d="M541.235 260.057H426.51C419.964 260.057 414.657 265.365 414.657 271.911C414.657 278.458 419.964 283.765 426.51 283.765H541.235C547.781 283.765 553.088 278.458 553.088 271.911C553.088 265.365 547.781 260.057 541.235 260.057Z" fill="white"/>
<path d="M541.235 293.683H426.51C419.964 293.683 414.657 298.99 414.657 305.537C414.657 312.083 419.964 317.39 426.51 317.39H541.234C547.781 317.39 553.088 312.083 553.088 305.537C553.088 298.99 547.781 293.683 541.235 293.683Z" fill="white"/>
<g opacity="0.4">
<path d="M427.054 274.224V274.848H422.24V268.047H426.909V268.67H422.965V271.15H426.474V271.759H422.965V274.282L427.054 274.224Z" fill="#263238"/>
<path d="M428.011 271.904H430.563V272.513H428.011V271.904Z" fill="#263238"/>
<path d="M440.525 271.875V274.847H439.843V271.947C439.843 270.874 439.292 270.323 438.393 270.323C438.153 270.308 437.913 270.347 437.689 270.436C437.466 270.525 437.265 270.663 437.102 270.839C436.938 271.015 436.815 271.225 436.743 271.455C436.67 271.684 436.65 271.927 436.682 272.165V274.847H435.986V271.947C435.986 270.874 435.45 270.323 434.536 270.323C434.298 270.313 434.061 270.355 433.84 270.446C433.62 270.537 433.422 270.675 433.26 270.85C433.099 271.026 432.978 271.234 432.905 271.461C432.832 271.688 432.81 271.928 432.84 272.165V274.847H432.1V269.7H432.767V270.642C432.961 270.326 433.238 270.068 433.568 269.897C433.897 269.726 434.267 269.648 434.638 269.671C435.013 269.643 435.389 269.731 435.713 269.923C436.037 270.115 436.294 270.401 436.45 270.744C436.659 270.4 436.956 270.119 437.311 269.93C437.665 269.742 438.064 269.652 438.466 269.671C438.755 269.645 439.047 269.686 439.319 269.79C439.59 269.894 439.834 270.059 440.033 270.271C440.231 270.483 440.379 270.738 440.464 271.016C440.549 271.294 440.57 271.588 440.525 271.875Z" fill="#263238"/>
<path d="M446.252 271.672V274.848H445.585V274.05C445.395 274.334 445.131 274.562 444.823 274.71C444.514 274.858 444.172 274.921 443.831 274.891C442.671 274.891 441.975 274.297 441.975 273.441C441.975 272.586 442.468 271.991 443.932 271.991H445.556V271.672C445.574 271.481 445.549 271.289 445.481 271.11C445.413 270.931 445.304 270.77 445.164 270.64C445.024 270.509 444.855 270.413 444.672 270.358C444.489 270.303 444.295 270.292 444.106 270.324C443.481 270.314 442.874 270.53 442.395 270.933L442.091 270.411C442.682 269.95 443.415 269.709 444.164 269.729C444.436 269.686 444.713 269.706 444.976 269.786C445.239 269.866 445.48 270.005 445.681 270.193C445.882 270.38 446.038 270.61 446.137 270.867C446.236 271.123 446.275 271.398 446.252 271.672ZM445.556 273.311V272.47H443.961C442.975 272.47 442.642 272.861 442.642 273.383C442.642 273.905 443.12 274.355 443.932 274.355C444.279 274.377 444.624 274.288 444.916 274.1C445.208 273.912 445.433 273.635 445.556 273.311Z" fill="#263238"/>
<path d="M447.963 268.12C447.96 268.019 447.987 267.919 448.041 267.834C448.095 267.748 448.174 267.681 448.266 267.64C448.359 267.6 448.461 267.588 448.56 267.606C448.66 267.623 448.752 267.671 448.824 267.741C448.896 267.811 448.946 267.902 448.967 268.001C448.988 268.099 448.979 268.202 448.941 268.296C448.903 268.389 448.838 268.469 448.754 268.526C448.67 268.582 448.572 268.612 448.471 268.613C448.405 268.614 448.339 268.603 448.277 268.579C448.216 268.555 448.16 268.519 448.113 268.473C448.065 268.427 448.028 268.372 448.002 268.312C447.976 268.251 447.963 268.186 447.963 268.12ZM448.123 269.729H448.804V274.848H448.123V269.729Z" fill="#263238"/>
<path d="M450.733 267.641H451.414V274.891H450.733V267.641Z" fill="#263238"/>
</g>
<g opacity="0.4">
<path d="M427.562 304.022C427.562 305.472 426.518 306.356 424.792 306.356H422.965V308.502H422.24V301.702H424.85C426.518 301.702 427.562 302.572 427.562 304.022ZM426.851 304.022C426.851 302.934 426.126 302.325 424.763 302.325H422.965V305.718H424.763C426.126 305.718 426.851 305.095 426.851 304.022Z" fill="#263238"/>
<path d="M432.767 305.327V308.502H432.1V307.705C431.909 307.988 431.645 308.215 431.337 308.362C431.029 308.51 430.687 308.573 430.346 308.545C429.186 308.545 428.475 307.936 428.475 307.095C428.475 306.254 428.983 305.645 430.447 305.645H432.1V305.327C432.1 304.457 431.607 303.978 430.65 303.978C430.03 303.968 429.426 304.184 428.954 304.587L428.635 304.065C429.232 303.604 429.969 303.364 430.723 303.383C430.991 303.345 431.265 303.368 431.524 303.451C431.782 303.533 432.019 303.673 432.215 303.86C432.412 304.047 432.564 304.276 432.659 304.53C432.755 304.784 432.792 305.056 432.767 305.327ZM432.1 306.965V306.124H430.491C429.505 306.124 429.186 306.516 429.186 307.038C429.186 307.56 429.664 307.995 430.476 307.995C430.821 308.016 431.164 307.928 431.455 307.743C431.747 307.558 431.973 307.286 432.1 306.965Z" fill="#263238"/>
<path d="M433.927 307.908L434.246 307.371C434.775 307.747 435.41 307.945 436.059 307.937C437.03 307.937 437.422 307.618 437.422 307.11C437.422 305.776 434.116 306.82 434.116 304.805C434.116 303.964 434.841 303.355 436.131 303.355C436.767 303.34 437.394 303.501 437.944 303.819L437.639 304.384C437.213 304.091 436.707 303.934 436.189 303.935C435.276 303.935 434.87 304.297 434.87 304.79C434.87 306.24 438.176 305.124 438.176 307.081C438.176 307.966 437.393 308.531 436.073 308.531C435.308 308.57 434.552 308.351 433.927 307.908Z" fill="#263238"/>
<path d="M438.683 307.908L438.988 307.371C439.518 307.744 440.152 307.942 440.8 307.937C441.772 307.937 442.178 307.618 442.178 307.11C442.178 305.776 438.857 306.82 438.857 304.805C438.857 303.964 439.582 303.355 440.887 303.355C441.518 303.342 442.14 303.503 442.685 303.819L442.381 304.384C441.956 304.088 441.449 303.931 440.931 303.935C440.003 303.935 439.597 304.297 439.597 304.79C439.597 306.24 442.903 305.124 442.903 307.081C442.903 307.966 442.134 308.531 440.8 308.531C440.045 308.567 439.299 308.348 438.683 307.908Z" fill="#263238"/>
<path d="M451.53 303.384L449.602 308.502H448.949L447.34 304.312L445.73 308.502H445.15L443.222 303.384H443.889L445.484 307.734L447.122 303.384H447.717L449.355 307.734L450.979 303.384H451.53Z" fill="#263238"/>
<path d="M451.907 305.95C451.91 305.437 452.065 304.937 452.352 304.512C452.639 304.087 453.045 303.757 453.519 303.562C453.994 303.368 454.515 303.319 455.018 303.421C455.52 303.522 455.981 303.771 456.343 304.134C456.705 304.498 456.95 304.96 457.049 305.463C457.148 305.967 457.096 306.488 456.899 306.961C456.702 307.435 456.37 307.839 455.943 308.124C455.517 308.408 455.015 308.56 454.503 308.56C454.157 308.572 453.813 308.513 453.492 308.386C453.17 308.259 452.879 308.067 452.635 307.822C452.391 307.577 452.201 307.284 452.075 306.962C451.95 306.64 451.893 306.295 451.907 305.95ZM456.402 305.95C456.382 305.579 456.254 305.223 456.034 304.924C455.813 304.625 455.51 304.397 455.162 304.269C454.814 304.141 454.435 304.117 454.074 304.202C453.712 304.286 453.383 304.475 453.128 304.744C452.872 305.013 452.701 305.351 452.636 305.717C452.57 306.082 452.613 306.459 452.76 306.8C452.906 307.141 453.149 307.432 453.459 307.637C453.768 307.841 454.131 307.951 454.503 307.951C454.762 307.956 455.02 307.906 455.259 307.806C455.498 307.706 455.714 307.557 455.893 307.369C456.071 307.18 456.209 306.957 456.297 306.713C456.384 306.469 456.42 306.209 456.402 305.95Z" fill="#263238"/>
<path d="M461.1 303.355V304.022H460.941C460.697 304.008 460.453 304.049 460.226 304.142C460 304.234 459.797 304.376 459.632 304.556C459.467 304.736 459.344 304.951 459.272 305.184C459.2 305.418 459.181 305.665 459.215 305.907V308.517H458.534V303.398H459.186V304.398C459.363 304.052 459.64 303.766 459.981 303.58C460.323 303.394 460.713 303.315 461.1 303.355Z" fill="#263238"/>
<path d="M466.9 301.296V308.546H466.233V307.531C466.03 307.865 465.742 308.139 465.398 308.325C465.054 308.511 464.667 308.602 464.276 308.589C463.587 308.589 462.927 308.316 462.44 307.829C461.954 307.342 461.68 306.682 461.68 305.994C461.68 305.305 461.954 304.645 462.44 304.158C462.927 303.672 463.587 303.398 464.276 303.398C464.656 303.385 465.033 303.471 465.371 303.646C465.709 303.821 465.995 304.08 466.204 304.399V301.339L466.9 301.296ZM466.219 305.936C466.199 305.564 466.07 305.207 465.849 304.908C465.628 304.609 465.324 304.381 464.975 304.253C464.626 304.126 464.247 304.103 463.885 304.189C463.523 304.274 463.194 304.464 462.939 304.735C462.684 305.005 462.514 305.345 462.451 305.711C462.387 306.078 462.432 306.455 462.58 306.795C462.729 307.136 462.974 307.426 463.286 307.629C463.597 307.832 463.962 307.939 464.334 307.937C464.593 307.943 464.851 307.896 465.091 307.797C465.331 307.699 465.548 307.551 465.728 307.364C465.908 307.178 466.047 306.955 466.137 306.712C466.226 306.468 466.264 306.209 466.248 305.95L466.219 305.936Z" fill="#263238"/>
</g>
<path opacity="0.2" d="M542.684 341.562H427.96C421.414 341.562 416.107 346.869 416.107 353.416C416.107 359.962 421.414 365.27 427.96 365.27H542.684C549.231 365.27 554.538 359.962 554.538 353.416C554.538 346.869 549.231 341.562 542.684 341.562Z" fill="black"/>
<g opacity="0.5">
<path d="M433.391 331.746L432.463 330.455H431.013V331.731H430.65V327.7H432.1C433.13 327.7 433.753 328.222 433.753 329.15C433.767 329.437 433.682 329.719 433.513 329.951C433.345 330.183 433.102 330.351 432.825 330.426L433.811 331.804L433.391 331.746ZM433.391 329.092C433.391 328.44 432.956 328.063 432.144 328.063H431.071V330.107H432.1C432.941 330.107 433.376 329.73 433.376 329.15L433.391 329.092Z" fill="black"/>
<path d="M437.378 330.354H434.826C434.835 330.502 434.874 330.648 434.939 330.781C435.005 330.915 435.096 331.034 435.208 331.133C435.32 331.231 435.45 331.306 435.591 331.354C435.732 331.402 435.881 331.422 436.03 331.412C436.206 331.418 436.381 331.386 436.543 331.318C436.706 331.251 436.852 331.149 436.972 331.021L437.204 331.282C437.054 331.446 436.87 331.575 436.664 331.66C436.459 331.745 436.237 331.784 436.015 331.775C435.804 331.796 435.591 331.772 435.39 331.702C435.19 331.632 435.007 331.52 434.855 331.372C434.703 331.224 434.585 331.044 434.51 330.846C434.435 330.647 434.404 330.435 434.42 330.223C434.408 330.025 434.437 329.827 434.504 329.641C434.572 329.455 434.677 329.285 434.813 329.141C434.949 328.997 435.113 328.882 435.294 328.804C435.476 328.726 435.672 328.686 435.87 328.686C436.068 328.686 436.264 328.726 436.446 328.804C436.628 328.882 436.792 328.997 436.927 329.141C437.063 329.285 437.168 329.455 437.236 329.641C437.303 329.827 437.332 330.025 437.32 330.223C437.32 330.223 437.378 330.31 437.378 330.354ZM434.826 330.049H437.001C437.001 329.761 436.887 329.484 436.683 329.28C436.479 329.076 436.202 328.962 435.914 328.962C435.625 328.962 435.349 329.076 435.145 329.28C434.941 329.484 434.826 329.761 434.826 330.049Z" fill="black"/>
<path d="M443.265 329.991V331.746H442.845V330.02C442.845 329.382 442.526 329.049 441.975 329.049C441.832 329.041 441.689 329.065 441.556 329.119C441.424 329.173 441.305 329.255 441.208 329.36C441.111 329.466 441.038 329.591 440.995 329.728C440.952 329.864 440.94 330.009 440.96 330.151V331.746H440.539V330.02C440.539 329.382 440.22 329.049 439.669 329.049C439.526 329.041 439.382 329.065 439.249 329.119C439.116 329.173 438.996 329.255 438.898 329.36C438.8 329.465 438.726 329.59 438.681 329.727C438.637 329.863 438.623 330.008 438.64 330.151V331.746H438.234V328.701H438.625V329.266C438.741 329.077 438.906 328.923 439.103 328.821C439.299 328.718 439.52 328.672 439.742 328.686C439.967 328.666 440.192 328.717 440.387 328.831C440.582 328.946 440.737 329.118 440.829 329.324C440.953 329.118 441.13 328.95 441.342 328.838C441.554 328.725 441.793 328.673 442.033 328.686C442.205 328.671 442.378 328.695 442.539 328.757C442.7 328.818 442.846 328.915 442.964 329.041C443.083 329.166 443.171 329.317 443.223 329.481C443.276 329.646 443.29 329.82 443.265 329.991Z" fill="black"/>
<path d="M447.05 330.354H444.498C444.507 330.502 444.545 330.648 444.611 330.781C444.676 330.915 444.768 331.034 444.879 331.133C444.991 331.231 445.121 331.306 445.262 331.354C445.403 331.402 445.552 331.422 445.701 331.412C445.875 331.419 446.048 331.387 446.209 331.319C446.369 331.252 446.512 331.15 446.629 331.021L446.861 331.282C446.642 331.51 446.361 331.668 446.052 331.737C445.743 331.807 445.421 331.783 445.125 331.67C444.83 331.557 444.574 331.36 444.39 331.102C444.207 330.845 444.103 330.539 444.092 330.223C444.092 329.829 444.248 329.451 444.527 329.172C444.806 328.893 445.184 328.737 445.578 328.737C445.972 328.737 446.35 328.893 446.629 329.172C446.907 329.451 447.064 329.829 447.064 330.223C447.064 330.223 447.05 330.31 447.05 330.354ZM444.498 330.049H446.6C446.596 329.912 446.566 329.777 446.51 329.652C446.454 329.526 446.374 329.413 446.274 329.319C446.174 329.225 446.057 329.151 445.929 329.102C445.801 329.053 445.664 329.03 445.527 329.034C445.26 329.045 445.006 329.154 444.816 329.342C444.625 329.53 444.512 329.782 444.498 330.049Z" fill="black"/>
<path d="M452.937 329.991V331.746H452.516V330.02C452.516 329.382 452.197 329.049 451.646 329.049C451.503 329.041 451.36 329.065 451.228 329.119C451.095 329.173 450.976 329.255 450.879 329.36C450.782 329.466 450.709 329.591 450.667 329.728C450.624 329.864 450.612 330.009 450.631 330.151V331.746H450.211V330.02C450.211 329.382 449.892 329.049 449.326 329.049C449.184 329.043 449.042 329.069 448.911 329.124C448.779 329.179 448.661 329.261 448.565 329.366C448.468 329.471 448.396 329.595 448.352 329.73C448.308 329.866 448.294 330.009 448.311 330.151V331.746H447.905V328.701H448.297V329.266C448.412 329.077 448.577 328.923 448.774 328.821C448.971 328.718 449.192 328.672 449.413 328.686C449.638 328.666 449.864 328.717 450.059 328.831C450.254 328.946 450.408 329.118 450.501 329.324C450.624 329.118 450.802 328.95 451.014 328.838C451.226 328.725 451.464 328.673 451.704 328.686C451.876 328.671 452.049 328.695 452.21 328.757C452.372 328.818 452.517 328.915 452.636 329.041C452.754 329.166 452.843 329.317 452.895 329.481C452.947 329.646 452.961 329.82 452.937 329.991Z" fill="black"/>
<path d="M457.142 330.223C457.156 330.422 457.129 330.621 457.062 330.809C456.995 330.997 456.891 331.169 456.755 331.315C456.619 331.46 456.454 331.576 456.271 331.655C456.088 331.734 455.891 331.775 455.692 331.775C455.459 331.782 455.227 331.729 455.021 331.62C454.815 331.51 454.641 331.349 454.517 331.151V331.746H454.126V327.396H454.532V329.223C454.659 329.033 454.832 328.88 455.035 328.776C455.238 328.672 455.464 328.621 455.692 328.628C455.895 328.627 456.096 328.669 456.282 328.75C456.468 328.832 456.635 328.952 456.772 329.103C456.909 329.253 457.012 329.43 457.076 329.623C457.14 329.817 457.162 330.021 457.142 330.223ZM456.736 330.223C456.727 329.999 456.653 329.781 456.522 329.599C456.391 329.416 456.209 329.276 455.999 329.196C455.789 329.116 455.561 329.1 455.341 329.149C455.122 329.198 454.922 329.31 454.766 329.472C454.61 329.634 454.505 329.838 454.465 330.059C454.424 330.28 454.449 330.508 454.537 330.714C454.625 330.921 454.771 331.098 454.959 331.222C455.146 331.346 455.366 331.412 455.59 331.412C455.746 331.416 455.901 331.388 456.046 331.329C456.19 331.271 456.321 331.183 456.43 331.071C456.539 330.96 456.624 330.827 456.679 330.681C456.734 330.535 456.758 330.379 456.75 330.223H456.736Z" fill="black"/>
<path d="M460.636 330.354H458.084C458.093 330.502 458.132 330.648 458.197 330.781C458.263 330.915 458.354 331.034 458.466 331.133C458.578 331.231 458.708 331.306 458.849 331.354C458.99 331.402 459.139 331.422 459.288 331.412C459.463 331.417 459.638 331.385 459.801 331.317C459.963 331.25 460.11 331.149 460.23 331.021L460.448 331.282C460.302 331.448 460.121 331.578 459.917 331.664C459.714 331.749 459.494 331.787 459.273 331.775C459.062 331.796 458.849 331.772 458.648 331.702C458.448 331.632 458.265 331.52 458.113 331.372C457.961 331.224 457.843 331.044 457.768 330.846C457.693 330.647 457.662 330.435 457.678 330.223C457.666 330.025 457.695 329.827 457.763 329.641C457.83 329.455 457.935 329.285 458.071 329.141C458.207 328.997 458.371 328.882 458.552 328.804C458.734 328.726 458.93 328.686 459.128 328.686C459.326 328.686 459.522 328.726 459.704 328.804C459.886 328.882 460.05 328.997 460.186 329.141C460.321 329.285 460.426 329.455 460.494 329.641C460.561 329.827 460.59 330.025 460.578 330.223C460.578 330.223 460.636 330.31 460.636 330.354ZM458.084 330.049H460.245C460.241 329.912 460.21 329.777 460.154 329.652C460.098 329.526 460.018 329.413 459.919 329.319C459.819 329.225 459.702 329.151 459.573 329.102C459.445 329.053 459.309 329.03 459.172 329.034C458.894 329.03 458.626 329.133 458.424 329.323C458.221 329.512 458.099 329.772 458.084 330.049Z" fill="black"/>
<path d="M463.029 328.686V329.15H462.927C462.782 329.142 462.638 329.167 462.503 329.221C462.369 329.276 462.248 329.36 462.15 329.466C462.052 329.573 461.978 329.7 461.934 329.838C461.891 329.976 461.878 330.123 461.898 330.266V331.818H461.492V328.773H461.883V329.367C461.979 329.149 462.141 328.965 462.347 328.843C462.552 328.721 462.791 328.666 463.029 328.686Z" fill="black"/>
<path d="M470.366 329.991V331.746H469.96V330.02C469.96 329.382 469.626 329.049 469.075 329.049C468.932 329.041 468.789 329.065 468.657 329.119C468.524 329.173 468.405 329.255 468.308 329.36C468.211 329.466 468.139 329.591 468.096 329.728C468.053 329.864 468.041 330.009 468.06 330.151V331.746H467.64V330.02C467.64 329.382 467.321 329.049 466.77 329.049C466.626 329.041 466.483 329.065 466.35 329.119C466.217 329.173 466.097 329.255 465.999 329.36C465.901 329.465 465.827 329.59 465.782 329.727C465.737 329.863 465.723 330.008 465.74 330.151V331.746H465.334V328.701H465.726V329.266C465.841 329.077 466.007 328.923 466.203 328.821C466.4 328.718 466.621 328.672 466.842 328.686C467.067 328.666 467.293 328.717 467.488 328.831C467.683 328.946 467.837 329.118 467.93 329.324C468.053 329.118 468.231 328.95 468.443 328.838C468.655 328.725 468.894 328.673 469.133 328.686C469.305 328.671 469.478 328.695 469.64 328.757C469.801 328.818 469.946 328.915 470.065 329.041C470.183 329.166 470.272 329.317 470.324 329.481C470.376 329.646 470.39 329.82 470.366 329.991Z" fill="black"/>
<path d="M474.15 330.354H471.598C471.607 330.502 471.646 330.648 471.711 330.781C471.777 330.915 471.868 331.034 471.98 331.133C472.092 331.231 472.222 331.306 472.363 331.354C472.504 331.402 472.653 331.422 472.802 331.412C472.976 331.419 473.149 331.387 473.309 331.319C473.469 331.252 473.613 331.15 473.73 331.021L473.962 331.282C473.816 331.448 473.635 331.578 473.431 331.664C473.228 331.749 473.007 331.787 472.787 331.775C472.576 331.796 472.363 331.772 472.162 331.702C471.962 331.632 471.779 331.52 471.627 331.372C471.475 331.224 471.357 331.044 471.282 330.846C471.207 330.647 471.176 330.435 471.192 330.223C471.18 330.025 471.209 329.827 471.276 329.641C471.344 329.455 471.449 329.285 471.585 329.141C471.721 328.997 471.885 328.882 472.066 328.804C472.248 328.726 472.444 328.686 472.642 328.686C472.84 328.686 473.036 328.726 473.218 328.804C473.4 328.882 473.564 328.997 473.699 329.141C473.835 329.285 473.94 329.455 474.008 329.641C474.075 329.827 474.104 330.025 474.092 330.223C474.092 330.223 474.15 330.31 474.15 330.354ZM471.598 330.049H473.759C473.755 329.912 473.724 329.777 473.668 329.652C473.612 329.526 473.532 329.413 473.432 329.319C473.333 329.225 473.216 329.151 473.087 329.102C472.959 329.053 472.823 329.03 472.686 329.034C472.408 329.03 472.14 329.133 471.937 329.323C471.735 329.512 471.613 329.772 471.598 330.049Z" fill="black"/>
</g>
<path d="M543.235 341.112H428.51C421.964 341.112 416.657 346.419 416.657 352.966C416.657 359.512 421.964 364.82 428.51 364.82H543.234C549.781 364.82 555.088 359.512 555.088 352.966C555.088 346.419 549.781 341.112 543.235 341.112Z" fill="#D4AF38"/>
<g opacity="0.5">
<path d="M458.882 378.885V380.465H460.984V380.842H458.882V382.568H458.447V378.45H461.231V378.827L458.882 378.885Z" fill="black"/>
<path d="M461.622 381.046C461.622 380.739 461.713 380.439 461.883 380.184C462.054 379.928 462.296 379.73 462.58 379.612C462.863 379.495 463.175 379.464 463.476 379.524C463.777 379.584 464.054 379.731 464.271 379.948C464.488 380.165 464.635 380.442 464.695 380.743C464.755 381.044 464.724 381.356 464.607 381.639C464.489 381.923 464.291 382.165 464.036 382.336C463.78 382.506 463.48 382.597 463.174 382.597C462.966 382.612 462.757 382.582 462.562 382.51C462.367 382.437 462.19 382.323 462.043 382.176C461.896 382.029 461.782 381.852 461.709 381.657C461.637 381.462 461.607 381.253 461.622 381.046ZM464.305 381.046C464.305 380.746 464.185 380.458 463.973 380.246C463.761 380.034 463.473 379.915 463.174 379.915C462.874 379.915 462.586 380.034 462.374 380.246C462.162 380.458 462.043 380.746 462.043 381.046C462.043 381.345 462.162 381.633 462.374 381.845C462.586 382.057 462.874 382.177 463.174 382.177C463.473 382.177 463.761 382.057 463.973 381.845C464.185 381.633 464.305 381.345 464.305 381.046Z" fill="black"/>
<path d="M467.103 379.494V379.9H467.001C466.363 379.9 465.986 380.306 465.986 381.031V382.582H465.566V379.537H465.957V380.132C466.062 379.922 466.227 379.749 466.431 379.636C466.636 379.522 466.87 379.472 467.103 379.494Z" fill="black"/>
<path d="M470.641 379.523V382.191C470.673 382.398 470.656 382.61 470.591 382.81C470.526 383.009 470.414 383.19 470.266 383.338C470.118 383.487 469.936 383.598 469.737 383.663C469.538 383.728 469.326 383.746 469.118 383.713C468.594 383.744 468.078 383.579 467.668 383.249L467.872 382.93C468.21 383.209 468.637 383.359 469.075 383.351C469.843 383.351 470.206 383.003 470.206 382.249V381.857C470.07 382.044 469.89 382.196 469.684 382.299C469.477 382.402 469.248 382.455 469.017 382.452C468.819 382.464 468.621 382.435 468.435 382.368C468.249 382.3 468.079 382.195 467.935 382.059C467.791 381.923 467.676 381.76 467.598 381.578C467.52 381.396 467.48 381.2 467.48 381.002C467.48 380.804 467.52 380.608 467.598 380.426C467.676 380.244 467.791 380.08 467.935 379.945C468.079 379.809 468.249 379.704 468.435 379.636C468.621 379.569 468.819 379.54 469.017 379.552C469.253 379.54 469.488 379.59 469.699 379.697C469.91 379.804 470.09 379.964 470.221 380.161V379.581L470.641 379.523ZM470.249 380.973C470.255 380.742 470.192 380.515 470.068 380.321C469.944 380.126 469.765 379.973 469.554 379.881C469.342 379.789 469.108 379.761 468.881 379.803C468.655 379.844 468.445 379.952 468.28 380.113C468.115 380.274 468.002 380.481 467.954 380.707C467.907 380.933 467.928 381.167 468.015 381.381C468.102 381.595 468.251 381.777 468.442 381.906C468.633 382.035 468.859 382.104 469.09 382.104C469.243 382.112 469.396 382.088 469.54 382.034C469.683 381.979 469.814 381.895 469.923 381.788C470.032 381.68 470.117 381.55 470.174 381.408C470.23 381.265 470.256 381.112 470.249 380.958V380.973Z" fill="black"/>
<path d="M471.497 381.046C471.497 380.634 471.66 380.239 471.951 379.948C472.242 379.657 472.637 379.494 473.048 379.494C473.46 379.494 473.854 379.657 474.145 379.948C474.436 380.239 474.6 380.634 474.6 381.046C474.6 381.457 474.436 381.852 474.145 382.143C473.854 382.434 473.46 382.597 473.048 382.597C472.637 382.597 472.242 382.434 471.951 382.143C471.66 381.852 471.497 381.457 471.497 381.046ZM474.179 381.046C474.197 380.885 474.181 380.723 474.132 380.569C474.083 380.416 474.003 380.274 473.895 380.154C473.788 380.033 473.656 379.937 473.509 379.871C473.362 379.805 473.202 379.771 473.041 379.771C472.88 379.771 472.72 379.805 472.573 379.871C472.426 379.937 472.294 380.033 472.187 380.154C472.079 380.274 471.998 380.416 471.949 380.569C471.9 380.723 471.884 380.885 471.903 381.046C471.895 381.2 471.918 381.355 471.973 381.5C472.027 381.645 472.11 381.777 472.218 381.888C472.325 382 472.454 382.088 472.597 382.148C472.74 382.207 472.893 382.237 473.048 382.234C473.2 382.233 473.35 382.2 473.488 382.139C473.627 382.077 473.752 381.988 473.855 381.877C473.958 381.766 474.037 381.635 474.088 381.492C474.139 381.349 474.16 381.197 474.15 381.046H474.179Z" fill="black"/>
<path d="M477.05 382.38C476.87 382.526 476.644 382.603 476.412 382.597C476.292 382.611 476.17 382.597 476.056 382.558C475.942 382.518 475.838 382.454 475.752 382.369C475.666 382.284 475.6 382.181 475.558 382.068C475.517 381.954 475.502 381.833 475.513 381.713V379.9H474.977V379.552H475.513V378.885H475.934V379.552H476.862V379.9H475.934V381.713C475.922 381.785 475.927 381.859 475.949 381.929C475.971 381.999 476.008 382.063 476.059 382.117C476.109 382.17 476.171 382.211 476.24 382.236C476.309 382.262 476.383 382.271 476.456 382.264C476.618 382.272 476.778 382.22 476.905 382.119L477.05 382.38Z" fill="black"/>
<path d="M482.574 379.9C482.574 380.755 481.951 381.35 480.907 381.35H479.819V382.626H479.399V378.45H480.849C481.951 378.45 482.574 379.03 482.574 379.9ZM482.139 379.9C482.139 379.247 481.719 378.885 480.907 378.885H479.819V380.9H480.907C481.719 380.9 482.139 380.538 482.139 379.9Z" fill="black"/>
<path d="M485.75 380.683V382.568H485.359V382.09C485.244 382.262 485.086 382.4 484.899 382.489C484.713 382.579 484.506 382.616 484.3 382.597C483.619 382.597 483.184 382.235 483.184 381.713C483.184 381.191 483.488 380.843 484.373 380.843H485.33V380.654C485.33 380.132 485.04 379.857 484.474 379.857C484.105 379.849 483.746 379.973 483.459 380.205L483.271 379.9C483.626 379.623 484.067 379.48 484.518 379.494C484.681 379.471 484.847 379.486 485.004 379.537C485.161 379.588 485.305 379.674 485.423 379.788C485.542 379.903 485.633 380.043 485.69 380.198C485.746 380.353 485.767 380.519 485.75 380.683ZM485.33 381.655V381.147H484.3C483.72 381.147 483.517 381.379 483.517 381.698C483.517 382.017 483.807 382.264 484.3 382.264C484.506 382.281 484.712 382.23 484.887 382.121C485.062 382.011 485.197 381.847 485.272 381.655H485.33Z" fill="black"/>
<path d="M486.388 382.22L486.576 381.886C486.885 382.119 487.263 382.242 487.649 382.234C488.229 382.234 488.476 382.031 488.476 381.741C488.476 380.944 486.489 381.567 486.489 380.364C486.489 379.871 486.924 379.494 487.707 379.494C488.086 379.484 488.459 379.585 488.78 379.784L488.592 380.103C488.333 379.922 488.023 379.83 487.707 379.842C487.156 379.842 486.91 380.059 486.91 380.349C486.91 381.176 488.882 380.552 488.882 381.727C488.882 382.249 488.418 382.597 487.62 382.597C487.179 382.61 486.746 382.477 486.388 382.22Z" fill="black"/>
<path d="M489.216 382.22L489.404 381.886C489.718 382.119 490.101 382.242 490.492 382.234C491.072 382.234 491.304 382.031 491.304 381.741C491.304 380.944 489.332 381.567 489.332 380.364C489.332 379.871 489.767 379.494 490.535 379.494C490.914 379.482 491.287 379.583 491.608 379.784L491.434 380.103C491.172 379.919 490.855 379.827 490.535 379.842C489.984 379.842 489.738 380.059 489.738 380.349C489.738 381.176 491.724 380.552 491.724 381.727C491.724 382.249 491.26 382.597 490.463 382.597C490.017 382.61 489.579 382.477 489.216 382.22Z" fill="black"/>
<path d="M496.901 379.523L495.741 382.568H495.349L494.392 380.074L493.435 382.568H493L491.854 379.523H492.246L493.203 382.104L494.189 379.523H494.537L495.509 382.104L496.48 379.523H496.901Z" fill="black"/>
<path d="M497.132 381.046C497.132 380.739 497.223 380.439 497.394 380.184C497.564 379.928 497.807 379.73 498.09 379.612C498.374 379.495 498.686 379.464 498.987 379.524C499.288 379.584 499.564 379.731 499.781 379.948C499.998 380.165 500.146 380.442 500.206 380.743C500.266 381.044 500.235 381.356 500.117 381.639C500 381.923 499.801 382.165 499.546 382.336C499.291 382.506 498.991 382.597 498.684 382.597C498.476 382.612 498.268 382.582 498.073 382.51C497.878 382.437 497.701 382.323 497.553 382.176C497.406 382.029 497.292 381.852 497.22 381.657C497.147 381.462 497.117 381.253 497.132 381.046ZM499.815 381.046C499.833 380.885 499.817 380.723 499.768 380.569C499.719 380.416 499.638 380.274 499.531 380.154C499.424 380.033 499.292 379.937 499.145 379.871C498.997 379.805 498.838 379.771 498.677 379.771C498.515 379.771 498.356 379.805 498.209 379.871C498.062 379.937 497.93 380.033 497.822 380.154C497.715 380.274 497.634 380.416 497.585 380.569C497.536 380.723 497.52 380.885 497.538 381.046C497.531 381.2 497.554 381.355 497.609 381.5C497.663 381.645 497.746 381.777 497.854 381.888C497.961 382 498.09 382.088 498.233 382.148C498.376 382.207 498.529 382.237 498.684 382.234C498.838 382.237 498.991 382.207 499.133 382.148C499.275 382.088 499.404 381.999 499.51 381.888C499.616 381.776 499.698 381.643 499.751 381.499C499.803 381.354 499.825 381.199 499.815 381.046Z" fill="black"/>
<path d="M502.599 379.494V379.9H502.512C502.366 379.892 502.22 379.916 502.084 379.972C501.949 380.027 501.827 380.112 501.729 380.221C501.63 380.329 501.557 380.458 501.514 380.598C501.472 380.738 501.461 380.886 501.483 381.031V382.582H501.077V379.537H501.468V380.132C501.57 379.924 501.733 379.751 501.935 379.637C502.136 379.523 502.368 379.473 502.599 379.494Z" fill="black"/>
<path d="M506.05 378.261V382.611H505.658V382.002C505.535 382.205 505.36 382.371 505.151 382.483C504.942 382.595 504.706 382.649 504.469 382.641C504.058 382.641 503.663 382.477 503.372 382.186C503.081 381.895 502.918 381.5 502.918 381.089C502.918 380.678 503.081 380.283 503.372 379.992C503.663 379.701 504.058 379.537 504.469 379.537C504.698 379.528 504.925 379.577 505.128 379.682C505.331 379.786 505.504 379.941 505.629 380.132V378.305L506.05 378.261ZM505.644 381.045C505.662 380.885 505.646 380.723 505.597 380.569C505.548 380.416 505.467 380.274 505.36 380.154C505.253 380.033 505.121 379.937 504.974 379.871C504.826 379.805 504.667 379.771 504.506 379.771C504.344 379.771 504.185 379.805 504.038 379.871C503.891 379.937 503.759 380.033 503.651 380.154C503.544 380.274 503.463 380.416 503.414 380.569C503.365 380.723 503.349 380.885 503.367 381.045C503.349 381.206 503.365 381.368 503.414 381.522C503.463 381.675 503.544 381.817 503.651 381.937C503.759 382.058 503.891 382.154 504.038 382.22C504.185 382.286 504.344 382.32 504.506 382.32C504.667 382.32 504.826 382.286 504.974 382.22C505.121 382.154 505.253 382.058 505.36 381.937C505.467 381.817 505.548 381.675 505.597 381.522C505.646 381.368 505.662 381.206 505.644 381.045Z" fill="black"/>
<path d="M509.095 379.538C509.095 379.132 508.762 378.842 508.167 378.842C507.96 378.828 507.752 378.863 507.561 378.943C507.37 379.024 507.2 379.148 507.065 379.306L506.76 379.074C506.94 378.869 507.164 378.709 507.415 378.605C507.667 378.502 507.939 378.459 508.21 378.479C509.022 378.479 509.545 378.856 509.545 379.48C509.545 380.466 508.486 380.524 508.486 381.35H508.051C508.037 380.393 509.095 380.306 509.095 379.538ZM507.95 382.293C507.949 382.253 507.957 382.214 507.973 382.178C507.988 382.142 508.011 382.109 508.04 382.082C508.068 382.055 508.102 382.034 508.139 382.02C508.175 382.007 508.215 382.001 508.254 382.003C508.293 382.001 508.333 382.007 508.369 382.02C508.406 382.034 508.44 382.055 508.469 382.082C508.497 382.109 508.52 382.142 508.535 382.178C508.551 382.214 508.559 382.253 508.559 382.293C508.559 382.373 508.526 382.451 508.469 382.508C508.412 382.565 508.335 382.597 508.254 382.597C508.174 382.593 508.099 382.56 508.043 382.504C507.986 382.448 507.953 382.372 507.95 382.293Z" fill="black"/>
</g>
<path d="M422.748 325.38H415.715V332.413H422.748V325.38Z" fill="white"/>
<path d="M468.597 347.536H469.757V354.641H474.107V355.642H468.553L468.597 347.536Z" fill="white"/>
<path d="M474.672 352.568C474.661 351.931 474.839 351.306 475.184 350.772C475.529 350.237 476.025 349.817 476.61 349.566C477.194 349.314 477.84 349.243 478.466 349.36C479.091 349.477 479.667 349.777 480.121 350.223C480.575 350.669 480.886 351.24 481.015 351.863C481.143 352.486 481.083 353.133 480.842 353.722C480.602 354.311 480.191 354.815 479.663 355.17C479.135 355.524 478.513 355.714 477.877 355.714C477.456 355.734 477.035 355.667 476.641 355.517C476.247 355.367 475.888 355.137 475.587 354.841C475.286 354.546 475.049 354.191 474.892 353.8C474.735 353.409 474.66 352.989 474.672 352.568ZM479.936 352.568C479.916 352.162 479.777 351.771 479.537 351.443C479.297 351.115 478.966 350.866 478.585 350.725C478.203 350.584 477.789 350.558 477.394 350.65C476.998 350.742 476.638 350.949 476.359 351.244C476.08 351.539 475.893 351.909 475.823 352.309C475.752 352.71 475.801 353.122 475.962 353.494C476.124 353.867 476.392 354.184 476.732 354.406C477.072 354.628 477.47 354.745 477.877 354.743C478.16 354.752 478.442 354.701 478.705 354.593C478.967 354.486 479.204 354.324 479.4 354.119C479.596 353.914 479.746 353.669 479.841 353.402C479.936 353.135 479.973 352.85 479.95 352.568H479.936Z" fill="white"/>
<path d="M488.491 349.45V354.772C488.553 355.203 488.513 355.643 488.374 356.056C488.235 356.469 488 356.844 487.69 357.15C487.38 357.456 487.002 357.685 486.587 357.819C486.172 357.952 485.731 357.986 485.301 357.918C484.258 357.955 483.234 357.632 482.401 357.005L482.937 356.149C483.613 356.673 484.445 356.954 485.301 356.947C486.751 356.947 487.418 356.28 487.418 354.888V354.395C487.138 354.704 486.796 354.95 486.413 355.115C486.03 355.28 485.616 355.361 485.199 355.352C484.79 355.38 484.38 355.324 483.994 355.187C483.608 355.051 483.254 354.836 482.954 354.556C482.654 354.277 482.415 353.939 482.252 353.563C482.088 353.187 482.004 352.782 482.004 352.372C482.004 351.962 482.088 351.557 482.252 351.181C482.415 350.805 482.654 350.467 482.954 350.187C483.254 349.908 483.608 349.693 483.994 349.556C484.38 349.419 484.79 349.363 485.199 349.392C485.63 349.381 486.058 349.467 486.452 349.642C486.846 349.818 487.196 350.079 487.476 350.407V349.45H488.491ZM487.403 352.35C487.426 351.927 487.322 351.507 487.104 351.144C486.886 350.781 486.564 350.492 486.18 350.313C485.796 350.135 485.367 350.076 484.949 350.145C484.531 350.213 484.143 350.405 483.835 350.696C483.527 350.986 483.314 351.363 483.222 351.776C483.131 352.19 483.165 352.621 483.322 353.015C483.478 353.409 483.749 353.746 484.099 353.985C484.449 354.223 484.863 354.35 485.286 354.351C485.56 354.373 485.835 354.338 486.095 354.247C486.354 354.156 486.591 354.011 486.791 353.823C486.991 353.634 487.148 353.405 487.254 353.152C487.359 352.898 487.41 352.625 487.403 352.35Z" fill="white"/>
<path d="M490.419 347.594C490.413 347.444 490.453 347.295 490.532 347.168C490.611 347.04 490.727 346.939 490.864 346.877C491.001 346.816 491.153 346.796 491.302 346.822C491.45 346.848 491.587 346.917 491.695 347.022C491.803 347.126 491.878 347.26 491.91 347.407C491.941 347.554 491.928 347.707 491.872 347.846C491.816 347.986 491.719 348.105 491.595 348.19C491.47 348.274 491.323 348.319 491.173 348.319C491.075 348.323 490.978 348.307 490.887 348.272C490.795 348.238 490.712 348.185 490.642 348.117C490.571 348.049 490.515 347.968 490.477 347.878C490.439 347.788 490.419 347.692 490.419 347.594ZM490.608 349.494H491.724V355.642H490.608V349.494Z" fill="white"/>
<path d="M499.685 352.104V355.642H498.568V352.234C498.568 351.031 497.959 350.436 496.915 350.436C496.645 350.415 496.374 350.454 496.12 350.55C495.867 350.647 495.639 350.798 495.451 350.994C495.264 351.19 495.122 351.424 495.037 351.682C494.952 351.939 494.925 352.212 494.958 352.481V355.642H493.856V349.45H494.914V350.378C495.179 350.049 495.518 349.788 495.904 349.616C496.29 349.445 496.711 349.368 497.133 349.392C497.489 349.365 497.846 349.418 498.179 349.547C498.512 349.676 498.812 349.878 499.057 350.138C499.301 350.398 499.485 350.709 499.594 351.05C499.702 351.39 499.733 351.75 499.685 352.104Z" fill="white"/>
<path d="M418.601 330.832L417.049 329.15L417.571 328.657L418.601 329.773L420.921 327.381L421.443 327.874L418.601 330.832Z" fill="#263238"/>
<g opacity="0.4">
<path d="M539.951 309.923C538.669 309.866 537.421 309.496 536.316 308.843C535.211 308.191 534.284 307.277 533.615 306.182L533.47 305.979L533.615 305.776C534.242 304.643 535.161 303.698 536.276 303.041C537.392 302.383 538.663 302.036 539.958 302.036C541.254 302.036 542.525 302.383 543.641 303.041C544.756 303.698 545.675 304.643 546.302 305.776L546.447 305.979L546.302 306.182C545.631 307.278 544.701 308.193 543.593 308.845C542.486 309.497 541.235 309.867 539.951 309.923ZM534.354 305.95C534.924 306.931 535.742 307.745 536.725 308.311C537.709 308.877 538.824 309.175 539.958 309.175C541.093 309.175 542.208 308.877 543.192 308.311C544.175 307.745 544.993 306.931 545.563 305.95C544.993 304.969 544.175 304.155 543.192 303.589C542.208 303.023 541.093 302.725 539.958 302.725C538.824 302.725 537.709 303.023 536.725 303.589C535.742 304.155 534.924 304.969 534.354 305.95Z" fill="#263238"/>
<path d="M539.951 308.661C539.417 308.661 538.895 308.503 538.451 308.206C538.008 307.909 537.662 307.487 537.458 306.993C537.255 306.5 537.202 305.957 537.307 305.433C537.413 304.909 537.671 304.429 538.049 304.052C538.428 303.676 538.91 303.42 539.434 303.318C539.958 303.215 540.501 303.271 540.994 303.477C541.486 303.683 541.906 304.031 542.201 304.477C542.495 304.922 542.651 305.445 542.648 305.979C542.648 306.332 542.578 306.682 542.443 307.009C542.307 307.335 542.108 307.632 541.858 307.881C541.607 308.13 541.309 308.327 540.982 308.461C540.655 308.595 540.305 308.663 539.951 308.661ZM539.951 304.007C539.561 304.007 539.18 304.123 538.856 304.339C538.531 304.556 538.279 304.864 538.129 305.224C537.98 305.585 537.941 305.981 538.017 306.364C538.093 306.746 538.281 307.098 538.557 307.373C538.833 307.649 539.184 307.837 539.567 307.913C539.949 307.989 540.346 307.95 540.706 307.801C541.066 307.652 541.374 307.399 541.591 307.075C541.808 306.75 541.923 306.369 541.923 305.979C541.923 305.456 541.716 304.954 541.346 304.585C540.976 304.215 540.474 304.007 539.951 304.007Z" fill="#263238"/>
<path d="M543.979 301.449L535.428 310L535.941 310.513L544.492 301.962L543.979 301.449Z" fill="#263238"/>
</g>
<g opacity="0.5">
<path d="M466.973 249.284L467.277 248.704C467.923 249.279 468.762 249.59 469.626 249.574C470.946 249.574 471.526 249.009 471.526 248.313C471.526 246.37 467.176 247.559 467.176 244.934C467.176 243.89 467.988 242.977 469.8 242.977C470.582 242.966 471.349 243.188 472.004 243.615L471.758 244.209C471.174 243.829 470.496 243.618 469.8 243.6C468.495 243.6 467.915 244.166 467.915 244.876C467.915 246.834 472.265 245.659 472.265 248.24C472.265 249.284 471.439 250.183 469.626 250.183C468.661 250.224 467.715 249.903 466.973 249.284Z" fill="black"/>
<path d="M473.585 243.122C473.587 243.053 473.602 242.985 473.63 242.923C473.658 242.86 473.698 242.804 473.748 242.757C473.798 242.71 473.856 242.673 473.92 242.648C473.984 242.624 474.053 242.612 474.121 242.614C474.196 242.601 474.273 242.605 474.346 242.625C474.419 242.645 474.487 242.681 474.545 242.73C474.603 242.779 474.65 242.84 474.681 242.909C474.713 242.978 474.73 243.053 474.73 243.129C474.73 243.205 474.713 243.28 474.681 243.349C474.65 243.417 474.603 243.478 474.545 243.527C474.487 243.576 474.419 243.612 474.346 243.632C474.273 243.652 474.196 243.656 474.121 243.644C474.051 243.645 473.982 243.633 473.917 243.608C473.852 243.583 473.793 243.545 473.743 243.496C473.693 243.447 473.653 243.389 473.626 243.325C473.599 243.26 473.585 243.191 473.585 243.122ZM473.744 244.804H474.469V250.154H473.744V244.804Z" fill="black"/>
<path d="M481.4 244.804V249.502C481.454 249.864 481.422 250.235 481.307 250.583C481.192 250.931 480.997 251.248 480.738 251.507C480.478 251.766 480.162 251.961 479.814 252.076C479.465 252.191 479.095 252.223 478.732 252.17C477.83 252.209 476.944 251.92 476.238 251.358L476.601 250.807C477.193 251.292 477.938 251.549 478.703 251.532C480.052 251.532 480.675 250.908 480.675 249.589V248.907C480.444 249.244 480.132 249.517 479.766 249.699C479.401 249.882 478.995 249.969 478.587 249.951C478.231 249.978 477.873 249.931 477.536 249.813C477.199 249.695 476.89 249.508 476.628 249.265C476.366 249.022 476.157 248.728 476.014 248.401C475.872 248.073 475.798 247.72 475.798 247.363C475.798 247.006 475.872 246.652 476.014 246.325C476.157 245.998 476.366 245.703 476.628 245.46C476.89 245.217 477.199 245.031 477.536 244.913C477.873 244.795 478.231 244.748 478.587 244.775C479.001 244.755 479.413 244.842 479.784 245.028C480.155 245.213 480.471 245.49 480.704 245.833V244.804H481.4ZM480.69 247.356C480.704 246.951 480.597 246.552 480.383 246.209C480.169 245.865 479.858 245.594 479.488 245.429C479.119 245.264 478.708 245.214 478.31 245.284C477.912 245.354 477.543 245.541 477.252 245.822C476.961 246.103 476.76 246.464 476.676 246.86C476.591 247.255 476.627 247.667 476.778 248.042C476.93 248.417 477.19 248.739 477.525 248.965C477.86 249.192 478.255 249.313 478.66 249.313C478.927 249.333 479.195 249.298 479.447 249.208C479.699 249.118 479.93 248.976 480.124 248.792C480.318 248.607 480.471 248.384 480.574 248.137C480.676 247.889 480.726 247.623 480.719 247.356H480.69Z" fill="black"/>
<path d="M488.36 247.051V250.154H487.635V247.123C487.678 246.898 487.667 246.666 487.603 246.446C487.539 246.226 487.424 246.024 487.267 245.857C487.11 245.69 486.916 245.563 486.7 245.485C486.484 245.408 486.253 245.383 486.026 245.412C485.77 245.396 485.514 245.436 485.275 245.529C485.037 245.622 484.822 245.766 484.645 245.952C484.468 246.137 484.334 246.358 484.252 246.601C484.17 246.843 484.142 247.101 484.17 247.355V250.154H483.445V244.804H484.126V245.789C484.348 245.456 484.654 245.187 485.013 245.009C485.372 244.831 485.771 244.75 486.171 244.774C486.472 244.751 486.774 244.795 487.056 244.902C487.339 245.009 487.594 245.178 487.803 245.396C488.012 245.613 488.171 245.875 488.267 246.161C488.364 246.447 488.395 246.751 488.36 247.051Z" fill="black"/>
<path d="M492.812 243.122C492.833 242.996 492.897 242.882 492.994 242.8C493.091 242.718 493.214 242.673 493.341 242.673C493.468 242.673 493.591 242.718 493.688 242.8C493.785 242.882 493.849 242.996 493.87 243.122C493.872 243.193 493.86 243.263 493.833 243.329C493.807 243.395 493.768 243.455 493.718 243.505C493.667 243.556 493.607 243.595 493.541 243.621C493.475 243.648 493.405 243.66 493.334 243.658C493.264 243.658 493.195 243.644 493.131 243.617C493.066 243.59 493.008 243.55 492.959 243.5C492.911 243.45 492.873 243.391 492.847 243.326C492.822 243.261 492.81 243.191 492.812 243.122ZM492.971 244.804H493.696V250.154H493L492.971 244.804Z" fill="black"/>
<path d="M500.613 247.051V250.154H499.902V247.124C499.945 246.898 499.935 246.666 499.871 246.446C499.807 246.226 499.691 246.024 499.534 245.857C499.377 245.69 499.183 245.563 498.967 245.486C498.751 245.408 498.52 245.383 498.293 245.413C498.037 245.397 497.78 245.436 497.541 245.529C497.302 245.622 497.086 245.766 496.908 245.951C496.73 246.136 496.594 246.357 496.511 246.6C496.427 246.842 496.397 247.1 496.422 247.356V250.154H495.697V244.804H496.393V245.79C496.612 245.457 496.915 245.187 497.272 245.009C497.628 244.831 498.025 244.75 498.423 244.775C498.725 244.748 499.029 244.79 499.312 244.896C499.596 245.003 499.852 245.172 500.062 245.39C500.272 245.608 500.43 245.871 500.526 246.158C500.621 246.445 500.651 246.751 500.613 247.051Z" fill="black"/>
</g>
<path d="M262.856 214.977H221.198C217.794 214.977 214.53 216.329 212.124 218.736C209.717 221.142 208.365 224.406 208.365 227.809V264.059C208.365 267.463 209.717 270.727 212.124 273.133C214.53 275.54 217.794 276.892 221.198 276.892H233.348L223.198 297.032L242.048 276.892H262.914C264.599 276.892 266.266 276.56 267.823 275.915C269.379 275.27 270.792 274.324 271.983 273.133C273.173 271.941 274.117 270.526 274.76 268.969C275.404 267.412 275.734 265.744 275.732 264.059V227.809C275.734 226.12 275.402 224.447 274.755 222.886C274.108 221.326 273.159 219.908 271.962 218.716C270.766 217.523 269.345 216.579 267.782 215.937C266.22 215.296 264.545 214.969 262.856 214.977Z" fill="#D4AF38"/>
<path opacity="0.7" d="M262.856 214.977H221.198C217.794 214.977 214.53 216.329 212.124 218.736C209.717 221.142 208.365 224.406 208.365 227.809V264.059C208.365 267.463 209.717 270.727 212.124 273.133C214.53 275.54 217.794 276.892 221.198 276.892H233.348L223.198 297.032L242.048 276.892H262.914C264.599 276.892 266.266 276.56 267.823 275.915C269.379 275.27 270.792 274.324 271.983 273.133C273.173 271.941 274.117 270.526 274.76 268.969C275.404 267.412 275.734 265.744 275.732 264.059V227.809C275.734 226.12 275.402 224.447 274.755 222.886C274.108 221.326 273.159 219.908 271.962 218.716C270.766 217.523 269.345 216.579 267.782 215.937C266.22 215.296 264.545 214.969 262.856 214.977Z" fill="white"/>
<path d="M239.859 255.011C239.583 255.012 239.311 254.953 239.061 254.838C238.81 254.722 238.588 254.554 238.409 254.344L230.289 244.789C230.127 244.599 230.004 244.378 229.928 244.14C229.851 243.902 229.822 243.652 229.842 243.403C229.862 243.154 229.931 242.911 230.045 242.688C230.159 242.466 230.316 242.268 230.506 242.106C230.891 241.78 231.39 241.619 231.893 241.66C232.142 241.68 232.385 241.749 232.607 241.863C232.829 241.977 233.027 242.134 233.189 242.324L239.859 250.183L250.85 237.205C251.012 237.015 251.21 236.858 251.432 236.744C251.654 236.63 251.897 236.561 252.146 236.541C252.395 236.521 252.646 236.55 252.884 236.627C253.122 236.703 253.342 236.826 253.532 236.988C253.723 237.15 253.88 237.348 253.994 237.57C254.108 237.792 254.177 238.035 254.197 238.284C254.217 238.533 254.188 238.784 254.111 239.022C254.035 239.26 253.912 239.48 253.75 239.67L241.294 254.344C241.119 254.554 240.899 254.722 240.651 254.837C240.403 254.953 240.132 255.012 239.859 255.011Z" fill="white"/>
<path d="M256.637 260.398C264.712 252.323 264.712 239.231 256.637 231.156C248.562 223.081 235.47 223.081 227.396 231.156C219.321 239.231 219.321 252.323 227.395 260.398C235.47 268.473 248.562 268.473 256.637 260.398Z" fill="#D4AF38"/>
<path d="M297.25 604.824H381.64C382.082 604.824 382.506 604.648 382.819 604.336C383.132 604.023 383.307 603.599 383.307 603.157V597.777C383.304 597.337 383.126 596.917 382.814 596.607C382.502 596.298 382.08 596.124 381.64 596.124H301.6V423.835H380.277C381.078 423.835 381.847 423.518 382.415 422.953C382.983 422.387 383.304 421.62 383.307 420.819V415.135H297.25C296.096 415.135 294.99 415.593 294.174 416.409C293.358 417.225 292.9 418.331 292.9 419.485V600.474C292.9 601.628 293.358 602.734 294.174 603.55C294.99 604.366 296.096 604.824 297.25 604.824Z" fill="#263238"/>
<g opacity="0.3">
<path d="M292.9 419.485V600.46C292.9 601.613 293.358 602.72 294.174 603.535C294.99 604.351 296.096 604.81 297.25 604.81H381.64C382.078 604.81 382.499 604.635 382.809 604.325C383.119 604.015 383.293 603.595 383.293 603.157V597.777C383.293 597.337 383.119 596.915 382.81 596.603C382.5 596.291 382.08 596.113 381.64 596.11H301.6V423.835H380.277C381.078 423.831 381.845 423.51 382.41 422.942C382.976 422.374 383.293 421.606 383.293 420.805V415.135H297.25C296.096 415.135 294.99 415.593 294.174 416.409C293.358 417.225 292.9 418.331 292.9 419.485Z" fill="white"/>
</g>
<path opacity="0.2" d="M292.9 419.485V465.639C295.8 466.373 298.7 467.084 301.6 467.77V423.835H380.277C381.078 423.831 381.845 423.51 382.41 422.942C382.976 422.374 383.293 421.606 383.293 420.805V415.135H297.25C296.096 415.135 294.99 415.593 294.174 416.409C293.358 417.225 292.9 418.331 292.9 419.485Z" fill="black"/>
<path d="M140.288 580.537L174.885 577.521V532.15H187.05V577.578L221.85 580.537C223.327 580.681 224.697 581.369 225.694 582.468C226.691 583.567 227.244 584.998 227.244 586.482V591.093H134.85V586.482C134.851 584.991 135.41 583.554 136.416 582.454C137.422 581.354 138.803 580.67 140.288 580.537Z" fill="#263238"/>
<path opacity="0.1" d="M140.288 580.537L174.885 577.521V532.15H187.05V577.578L221.85 580.537C223.327 580.681 224.697 581.369 225.694 582.468C226.691 583.567 227.244 584.998 227.244 586.482V591.093H134.85V586.482C134.851 584.991 135.41 583.554 136.416 582.454C137.422 581.354 138.803 580.67 140.288 580.537Z" fill="white"/>
<path d="M215.963 596.82C215.963 598.394 216.43 599.934 217.304 601.243C218.179 602.552 219.422 603.572 220.877 604.175C222.332 604.777 223.932 604.935 225.476 604.628C227.021 604.32 228.439 603.562 229.552 602.449C230.666 601.336 231.424 599.917 231.731 598.373C232.038 596.829 231.88 595.228 231.278 593.774C230.675 592.319 229.655 591.076 228.346 590.201C227.037 589.326 225.498 588.86 223.923 588.86C222.877 588.858 221.841 589.062 220.875 589.462C219.908 589.861 219.03 590.447 218.29 591.187C217.551 591.926 216.964 592.805 216.565 593.771C216.166 594.738 215.961 595.774 215.963 596.82Z" fill="#263238"/>
<path d="M146.088 596.82C146.087 598.395 145.62 599.935 144.745 601.244C143.87 602.554 142.625 603.574 141.17 604.176C139.715 604.778 138.113 604.935 136.569 604.626C135.024 604.318 133.606 603.559 132.493 602.444C131.38 601.329 130.623 599.909 130.318 598.364C130.012 596.819 130.172 595.218 130.777 593.764C131.381 592.309 132.404 591.067 133.715 590.194C135.026 589.321 136.566 588.857 138.141 588.86C139.186 588.86 140.221 589.066 141.186 589.466C142.151 589.866 143.027 590.453 143.765 591.192C144.503 591.931 145.088 592.809 145.487 593.775C145.885 594.74 146.089 595.775 146.088 596.82Z" fill="#263238"/>
<path d="M183.758 541.358H178.176C176.749 541.358 175.381 540.791 174.372 539.782C173.363 538.773 172.796 537.405 172.796 535.978V496.828H189.138V535.978C189.138 537.405 188.571 538.773 187.562 539.782C186.553 540.791 185.185 541.358 183.758 541.358Z" fill="#263238"/>
<path opacity="0.2" d="M183.758 541.358H178.176C176.749 541.358 175.381 540.791 174.372 539.782C173.363 538.773 172.796 537.405 172.796 535.978V496.828H189.138V535.978C189.138 537.405 188.571 538.773 187.562 539.782C186.553 540.791 185.185 541.358 183.758 541.358Z" fill="white"/>
<path d="M145.087 406.957C145.087 406.957 148.828 482.111 165.01 495.045H147.697C147.697 495.045 132.269 469.438 131.124 406.957H145.087Z" fill="#263238"/>
<path opacity="0.1" d="M145.087 406.957C145.087 406.957 148.828 482.111 165.01 495.045H147.697C147.697 495.045 132.269 469.438 131.124 406.957H145.087Z" fill="white"/>
<path d="M143.681 488.81H220.4C222.127 488.81 223.783 489.496 225.004 490.716C226.225 491.937 226.911 493.593 226.911 495.32V501.265H137.156V495.32C137.156 494.464 137.324 493.616 137.652 492.825C137.981 492.034 138.461 491.316 139.068 490.711C139.674 490.107 140.393 489.627 141.185 489.301C141.976 488.975 142.824 488.808 143.681 488.81Z" fill="#D4AF38"/>
<path d="M227.723 495.045H136.373C134.923 495.045 133.748 496.22 133.748 497.669V498.641C133.748 500.09 134.923 501.265 136.373 501.265H227.723C229.172 501.265 230.347 500.09 230.347 498.641V497.669C230.347 496.22 229.172 495.045 227.723 495.045Z" fill="#263238"/>
<path opacity="0.6" d="M227.723 495.045H136.373C134.923 495.045 133.748 496.22 133.748 497.669V498.641C133.748 500.09 134.923 501.265 136.373 501.265H227.723C229.172 501.265 230.347 500.09 230.347 498.641V497.669C230.347 496.22 229.172 495.045 227.723 495.045Z" fill="white"/>
<path d="M128.079 423.4H155.817C163.937 423.4 169.795 416.15 168.867 407.088L167.693 395.082C166.794 386.077 159.5 378.769 151.38 378.769H123.685C115.565 378.769 109.707 386.019 110.635 395.082L111.81 407.088C112.651 416.15 119.959 423.4 128.079 423.4Z" fill="#D4AF38"/>
<path d="M219.617 358.571C221.343 364.037 223.373 369.736 225.606 374.956C227.491 379.306 230.173 384.845 233.233 387.759C236.017 390.239 242.643 391.181 246.95 391.747C252.75 392.486 258.927 392.762 264.944 393.008L266.017 401.128C259.638 402.84 253.096 403.875 246.5 404.217C239.134 404.478 230.55 404.217 224.17 399.693C214.905 392.443 210.874 382.786 206.77 372.592C205.61 369.359 204.566 366.401 203.682 363.008L219.632 358.571H219.617Z" fill="#B65B52"/>
<path d="M212.498 350.9C217.065 352.466 221.198 359.035 232.696 385.381C232.696 385.381 234.567 388.6 243.89 390.616L243.035 405.406C243.035 405.406 229.724 404.826 226.635 402.694C223.547 400.563 205.03 370.098 205.03 370.098L212.498 350.9Z" fill="#263238"/>
<path opacity="0.2" d="M243.89 390.645L243.035 405.435C243.035 405.435 232.363 404.971 227.911 403.332C227.462 403.182 227.034 402.977 226.635 402.723C224.852 401.476 217.935 390.761 212.353 381.945C208.307 375.536 205.103 370.127 205.103 370.127L212.498 350.9C217.065 352.466 221.198 359.035 232.711 385.367C232.711 385.396 234.567 388.6 243.89 390.645Z" fill="white"/>
<path opacity="0.2" d="M227.911 403.332C227.462 403.182 227.034 402.977 226.635 402.723C224.852 401.476 217.935 390.761 212.353 381.945C213.806 376.946 215.524 372.028 217.5 367.213C217.5 367.213 228.114 388.484 227.911 403.332Z" fill="black"/>
<path d="M261.783 393.748L272.179 390.007L270.903 403.927C270.903 403.927 261.362 405.145 260.188 400.128L261.783 393.748Z" fill="#B55B52"/>
<path d="M280.793 392.82L279.198 404.289L270.904 403.927L272.18 390.007L280.793 392.82Z" fill="#B55B52"/>
<path d="M243.963 390.007L249.27 391.602L247.327 405.986L242.02 406.899L243.963 390.007Z" fill="#263238"/>
<path d="M220.023 442.38C220.023 442.38 290.188 470.061 306.501 481.632C322.813 493.203 363.95 571.213 363.95 571.213L346.941 584.263C346.941 584.263 297.873 513.01 291.841 508.181C285.809 503.353 207.741 479.384 207.741 479.384L220.023 442.38Z" fill="#D4AF38"/>
<path opacity="0.4" d="M363.95 571.213L346.941 584.263C346.941 584.263 335.486 567.632 322.973 549.898C309.589 530.918 294.988 510.748 291.885 508.182C287.535 504.644 244.542 490.869 221.763 483.735C213.382 481.096 207.741 479.385 207.741 479.385L220.008 442.337C220.008 442.337 290.159 470.018 306.486 481.589C322.813 493.16 363.95 571.213 363.95 571.213Z" fill="white"/>
<path d="M367.068 599.125L375.26 590.889L361.862 570.169L353.684 578.405L367.068 599.125Z" fill="#B55B52"/>
<path opacity="0.2" d="M353.684 578.405L361.862 570.184L369.518 582.03L361.05 589.831L353.684 578.405Z" fill="black"/>
<path d="M376.681 589.991C376.681 589.991 376.681 589.991 376.782 589.991C377.747 589.636 378.671 589.179 379.537 588.628C380.213 588.266 380.729 587.667 380.987 586.946C381.041 586.675 381.016 586.395 380.916 586.138C380.816 585.881 380.644 585.658 380.422 585.496C380.302 585.371 380.153 585.279 379.988 585.228C379.823 585.178 379.648 585.17 379.479 585.206C378.682 585.394 377.899 586.525 377.304 587.613C377.43 586.597 377.194 585.571 376.637 584.713C376.475 584.548 376.262 584.445 376.032 584.418C375.803 584.392 375.571 584.445 375.376 584.568C375.194 584.653 375.035 584.78 374.911 584.939C374.788 585.098 374.704 585.284 374.665 585.481C374.332 587.047 376.434 589.57 376.536 589.715L376.681 589.57L376.55 589.73C376.55 589.73 376.449 589.889 376.449 589.903C376.471 589.944 376.506 589.975 376.549 589.99C376.591 590.006 376.638 590.007 376.681 589.991ZM376.753 588.918C376.753 589.005 376.681 589.092 376.652 589.164C376.014 588.265 375.071 586.685 375.274 585.757C375.291 585.648 375.331 585.544 375.391 585.451C375.451 585.359 375.53 585.28 375.622 585.22H375.724C376.072 585.046 376.26 585.148 376.376 585.22C376.931 586.37 377.065 587.679 376.753 588.918ZM377.246 589.266C377.884 587.816 378.943 585.931 379.74 585.757C379.824 585.735 379.911 585.738 379.993 585.763C380.075 585.789 380.148 585.837 380.204 585.902C380.34 586.006 380.446 586.144 380.512 586.301C380.578 586.459 380.602 586.631 380.581 586.801C380.422 587.555 379.189 588.454 377.246 589.266Z" fill="#D4AF38"/>
<path d="M375.1 589.251L364.283 596.501C364.19 596.556 364.108 596.629 364.044 596.717C363.979 596.804 363.933 596.903 363.907 597.008C363.881 597.114 363.877 597.223 363.894 597.33C363.912 597.438 363.95 597.54 364.008 597.632L369.228 606.55C369.527 607.001 369.992 607.315 370.522 607.424C371.052 607.532 371.603 607.427 372.055 607.13C375.782 604.534 377.435 603.113 382.205 599.88C386.549 597.208 390.701 594.238 394.632 590.991C398.199 587.671 394.82 584.234 393.022 585.322C388.672 587.888 381.306 588.99 377.159 588.686C376.428 588.628 375.7 588.828 375.1 589.251Z" fill="#263238"/>
<path d="M347.739 590.02L368.982 575.882L364.081 565.891L341.069 581.856L347.739 590.02Z" fill="#D4AF38"/>
<path opacity="0.2" d="M347.739 590.02L368.982 575.882L364.081 565.891L341.069 581.856L347.739 590.02Z" fill="white"/>
<path opacity="0.2" d="M323.002 549.956C309.618 530.975 295.017 510.806 291.914 508.24C287.564 504.702 244.571 490.926 221.792 483.792L219.138 456.242L227.461 454.792L228.404 456.909C228.404 456.909 280.401 468.698 295.104 476.064C304.572 480.719 317.289 527.234 323.002 549.956Z" fill="black"/>
<path d="M319.885 592.746C319.901 592.752 319.918 592.756 319.935 592.756C319.953 592.756 319.97 592.752 319.986 592.746C321.016 592.734 322.042 592.612 323.046 592.383C323.813 592.274 324.512 591.881 325.003 591.281C325.147 591.051 325.224 590.784 325.224 590.513C325.224 590.241 325.147 589.975 325.003 589.744C324.931 589.586 324.82 589.448 324.681 589.344C324.541 589.24 324.378 589.173 324.206 589.15C323.394 589.048 322.277 589.875 321.306 590.701C321.75 589.802 321.858 588.773 321.61 587.801C321.513 587.593 321.349 587.423 321.143 587.321C320.938 587.218 320.704 587.188 320.479 587.236C320.281 587.266 320.09 587.336 319.921 587.444C319.751 587.551 319.605 587.693 319.493 587.859C318.667 589.237 319.812 592.311 319.87 592.485L320.044 592.383L319.87 592.499C319.87 592.499 319.711 592.615 319.725 592.63L319.885 592.746ZM320.32 591.745L320.131 591.948C319.681 590.77 319.62 589.48 319.957 588.265C320.012 588.171 320.085 588.089 320.172 588.024C320.259 587.959 320.359 587.913 320.465 587.888H320.595C320.972 587.888 321.117 588.004 321.175 588.149C321.321 589.411 321.018 590.684 320.32 591.745ZM320.653 592.238C321.741 591.078 323.365 589.657 324.177 589.759C324.262 589.767 324.343 589.799 324.412 589.85C324.481 589.901 324.535 589.97 324.568 590.049C324.649 590.198 324.692 590.365 324.692 590.534C324.692 590.704 324.649 590.871 324.568 591.02C324.22 591.673 322.77 592.122 320.653 592.238Z" fill="#D4AF38"/>
<path d="M307.791 598.169L318.246 593.108L312.025 568.197L301.585 573.258L307.791 598.169Z" fill="#B55B52"/>
<path opacity="0.2" d="M301.585 573.258L312.025 568.212L315.578 582.451L304.993 586.989L301.585 573.258Z" fill="black"/>
<path d="M318.637 591.513L306.022 594.775C305.916 594.796 305.815 594.838 305.725 594.898C305.635 594.959 305.558 595.036 305.499 595.127C305.439 595.217 305.399 595.319 305.379 595.425C305.359 595.532 305.361 595.641 305.384 595.747L307.356 605.897C307.499 606.414 307.838 606.855 308.302 607.126C308.765 607.397 309.315 607.476 309.836 607.347C314.186 606.129 316.245 605.332 321.784 603.853C326.749 602.793 331.634 601.383 336.4 599.633C340.866 597.69 338.821 593.325 336.762 593.76C331.861 594.761 324.481 593.326 320.682 591.658C320.033 591.392 319.317 591.341 318.637 591.513Z" fill="#263238"/>
<path d="M317.115 572.924C317.115 572.924 299.425 484.169 295.8 478.891C289.913 470.191 219.124 456.17 219.124 456.17L227.432 454.72L217.833 429.2L154.802 431.679C154.802 431.679 156.121 473.323 162.53 484.488C168.939 495.653 263.755 500.786 269.917 503.338C276.08 505.89 294.886 575.505 294.886 575.505L317.115 572.924Z" fill="#D4AF38"/>
<path opacity="0.4" d="M317.115 572.924C317.115 572.924 299.425 484.169 295.8 478.891C289.913 470.191 219.124 456.17 219.124 456.17L227.432 454.72L217.833 429.2L154.802 431.679C154.802 431.679 156.121 473.323 162.53 484.488C168.939 495.653 263.755 500.786 269.917 503.338C276.08 505.89 294.886 575.505 294.886 575.505L317.115 572.924Z" fill="white"/>
<path d="M295.264 583.364L320.001 577.071L318.681 566.022L291.682 573.46L295.264 583.364Z" fill="#D4AF38"/>
<path opacity="0.2" d="M295.264 583.364L320.001 577.071L318.681 566.022L291.682 573.46L295.264 583.364Z" fill="white"/>
<path d="M174.754 432.651L156.484 432.347L156.093 437.871L175.537 438.335L174.754 432.651Z" fill="#263238"/>
<path d="M177.567 432.55L178.365 438.292L219.139 437.712L217.819 432.477L177.567 432.55Z" fill="#263238"/>
<path d="M197.2 433.55L197.722 437.334C197.798 437.797 198.038 438.216 198.397 438.517C198.756 438.817 199.211 438.979 199.68 438.973L206.205 438.77C206.421 438.774 206.635 438.73 206.831 438.64C207.028 438.551 207.202 438.418 207.341 438.253C207.48 438.088 207.58 437.893 207.635 437.684C207.689 437.475 207.696 437.257 207.655 437.045L207.118 433.246C207.041 432.785 206.801 432.367 206.442 432.069C206.082 431.77 205.628 431.612 205.161 431.622L198.65 431.824C198.434 431.821 198.22 431.865 198.023 431.954C197.827 432.044 197.652 432.176 197.513 432.341C197.375 432.507 197.274 432.701 197.22 432.91C197.166 433.119 197.159 433.338 197.2 433.55Z" fill="white"/>
<path d="M156.397 431.535H216.282C216.999 431.539 217.692 431.278 218.228 430.801C218.763 430.324 219.103 429.666 219.182 428.954C226.577 370.954 212.454 350.929 212.454 350.929C207.077 349.393 201.589 348.274 196.04 347.58C187.932 346.942 179.794 346.767 171.665 347.058C166.128 347.207 160.609 347.754 155.15 348.696C152.25 349.958 149.248 362.877 152.25 403.129C153.033 413.671 153.149 422.777 153.076 428.113C153.065 429.006 153.408 429.868 154.03 430.509C154.652 431.151 155.503 431.519 156.397 431.535Z" fill="#263238"/>
<path d="M204.102 371.447H215.644L216.514 385.222L210.323 389.238L204.102 386.164V371.447Z" fill="#263238"/>
<path opacity="0.2" d="M219.226 428.954C219.147 429.666 218.807 430.324 218.271 430.801C217.736 431.278 217.042 431.539 216.326 431.535H156.441C155.992 431.536 155.547 431.449 155.133 431.277C154.719 431.106 154.342 430.853 154.027 430.535C153.711 430.216 153.462 429.838 153.293 429.422C153.125 429.006 153.042 428.561 153.048 428.113C153.048 422.777 153.048 413.613 152.236 403.129C151.82 397.329 151.515 392.09 151.322 387.411C150.849 378.851 150.898 370.271 151.467 361.717C152.192 353.017 153.686 349.349 155.194 348.667C160.671 347.723 166.21 347.176 171.767 347.029C179.89 346.738 188.024 346.913 196.127 347.551C201.661 348.247 207.134 349.367 212.498 350.9C212.498 350.9 226.621 371.011 219.226 428.954Z" fill="white"/>
<path d="M172.26 346.463L191.603 353.061L192.386 347.522C190.501 344.216 190.022 342.128 191.617 338.285L178.713 323.452C179.046 331.05 177.669 341.432 172.26 346.463Z" fill="#B55B52"/>
<path d="M184.498 355.932L188.297 357.512L191.603 359.586C191.603 359.586 196.026 384.903 194.793 406.276L198.505 409.321L202.42 406.174C202.42 406.174 197.548 366.923 195.794 359.281L196.562 357.44L198.346 353.641L195.054 351.915L189.82 353.061H186.166L184.498 355.932Z" fill="white"/>
<path opacity="0.2" d="M183.962 329.498L191.603 338.285C191.029 339.632 190.569 341.024 190.226 342.447C186.992 341.475 182.976 337.169 183.164 333.66C183.175 332.235 183.445 330.825 183.962 329.498Z" fill="black"/>
<path d="M173.464 342.954C178.923 346.589 184.756 349.627 190.864 352.016C191.531 349.317 191.531 346.495 190.864 343.795L199.404 348.058C199.404 348.058 200.115 354.684 198.157 358.208L191.879 353.611L184.832 359.411C184.832 359.411 171.492 354.264 169.404 347.275L173.464 342.954Z" fill="#263238"/>
<path opacity="0.2" d="M216.978 394.4L197.2 410.35C168.809 416.672 156.325 398.968 151.308 387.368C150.835 378.808 150.883 370.227 151.453 361.674C158.268 361.355 166.75 361.355 169.041 363.124C173.029 366.183 186.92 387.629 188.993 389.224C191.067 390.819 216.978 394.4 216.978 394.4Z" fill="black"/>
<path d="M228.23 393.646L238.627 389.891L237.351 403.81C237.351 403.81 227.81 405.028 226.635 400.011L228.23 393.646Z" fill="#B55B52"/>
<path d="M247.225 392.703L245.645 404.173L237.351 403.81L238.627 389.891L247.225 392.703Z" fill="#B55B52"/>
<path d="M167.751 365.56C170.817 371.618 174.205 377.509 177.901 383.206C180.174 386.932 183.022 390.274 186.34 393.11C186.59 393.328 186.881 393.495 187.195 393.603C190.827 394.563 194.576 395.002 198.331 394.908C208.858 395.009 219.574 394.038 230.144 393.139L231.87 401.143C224.788 403.45 217.567 405.305 210.25 406.696C202.319 408.146 195.083 409.234 186.644 408.422C183.922 408.137 181.279 407.335 178.858 406.058C169.462 400.563 163.705 391.674 158.253 382.858C156.296 379.436 154.512 376.246 152.859 372.592L167.794 365.531L167.751 365.56Z" fill="#B65B52"/>
<path d="M155.15 348.696C136.445 355.439 160.704 402.042 170.912 407.262C181.12 412.482 198.346 410.35 198.346 410.35L199.564 394.154C199.564 394.154 190.632 393.066 187.964 392.428C183.715 391.413 175.131 372.65 169.346 362.457C166.152 356.511 161.192 351.703 155.15 348.696Z" fill="#263238"/>
<path opacity="0.2" d="M155.15 348.696C136.445 355.439 160.704 402.042 170.912 407.262C181.12 412.482 198.346 410.35 198.346 410.35L199.564 394.154C199.564 394.154 190.632 393.066 187.964 392.428C183.715 391.413 175.131 372.65 169.346 362.457C166.152 356.511 161.192 351.703 155.15 348.696Z" fill="white"/>
<path d="M197.156 392.936L195.648 411.742L201.013 410.742L202.42 393.936L197.156 392.936Z" fill="#263238"/>
<path d="M211.961 308.169C212.701 312.519 210.83 320.958 205.393 317.391C199.955 313.824 210.671 300.716 211.961 308.169Z" fill="#263238"/>
<path d="M181.25 309.72C179.162 320.334 177.393 326.438 181.25 333.137C187.05 343.2 201.304 341.664 206.538 331.876C211.251 323.045 213.875 307.226 204.697 300.455C202.664 298.973 200.289 298.029 197.794 297.711C195.299 297.392 192.763 297.71 190.424 298.635C188.084 299.56 186.016 301.061 184.412 302.999C182.809 304.937 181.721 307.249 181.25 309.72Z" fill="#B55B52"/>
<path d="M176.146 298.019L188.167 297.468L188.486 304.37L187.775 303.978C187.775 303.978 187.021 314.128 181.265 317.507C173.478 311.562 171.187 301.832 176.146 298.019Z" fill="#263238"/>
<path d="M174.899 317.376C174.974 318.715 175.314 320.026 175.899 321.233C176.484 322.44 177.302 323.52 178.307 324.409C181.018 326.772 183.947 324.728 184.513 321.364C185.02 318.333 184.223 313.447 180.873 312.374C180.133 312.157 179.352 312.126 178.597 312.283C177.843 312.441 177.139 312.782 176.548 313.277C175.957 313.772 175.497 314.405 175.21 315.12C174.922 315.835 174.815 316.61 174.899 317.376Z" fill="#B55B52"/>
<path d="M196.359 316.636C196.127 317.492 196.359 318.29 196.968 318.435C197.577 318.58 198.157 318 198.418 317.144C198.679 316.289 198.418 315.491 197.809 315.361C197.2 315.23 196.576 315.795 196.359 316.636Z" fill="#263238"/>
<path d="M206.001 319.072C205.784 319.913 206.001 320.725 206.61 320.856C207.219 320.986 207.814 320.421 208.06 319.58C208.307 318.739 208.06 317.927 207.451 317.782C206.842 317.637 206.233 318.217 206.001 319.072Z" fill="#263238"/>
<path d="M202.826 318.724C203.219 321.502 204 324.211 205.146 326.772C204.454 327.017 203.718 327.115 202.986 327.057C202.254 327 201.543 326.789 200.897 326.438L202.826 318.724Z" fill="#A02724"/>
<path d="M195.475 328.541C195.827 328.69 196.191 328.811 196.562 328.904C196.629 328.917 196.699 328.906 196.758 328.871C196.817 328.836 196.861 328.781 196.881 328.715C196.89 328.682 196.892 328.647 196.887 328.613C196.882 328.579 196.871 328.546 196.853 328.516C196.836 328.487 196.813 328.461 196.785 328.44C196.757 328.419 196.726 328.405 196.693 328.396C195.628 328.159 194.636 327.67 193.799 326.971C192.961 326.273 192.303 325.384 191.879 324.38C191.853 324.316 191.804 324.265 191.743 324.236C191.681 324.206 191.611 324.201 191.545 324.22C191.511 324.23 191.48 324.246 191.454 324.269C191.427 324.291 191.405 324.319 191.39 324.351C191.375 324.382 191.367 324.417 191.366 324.452C191.365 324.487 191.372 324.521 191.386 324.554C191.754 325.465 192.308 326.29 193.012 326.976C193.716 327.663 194.554 328.195 195.475 328.541Z" fill="#263238"/>
<path d="M194.198 312.794C194.283 312.826 194.375 312.835 194.464 312.82C194.553 312.804 194.637 312.765 194.706 312.707C195.207 312.29 195.798 311.996 196.432 311.847C197.066 311.699 197.726 311.7 198.36 311.851C198.425 311.874 198.493 311.883 198.561 311.878C198.63 311.874 198.696 311.855 198.757 311.824C198.818 311.793 198.872 311.75 198.916 311.697C198.96 311.644 198.993 311.584 199.012 311.518C199.035 311.455 199.045 311.389 199.041 311.322C199.037 311.255 199.019 311.19 198.989 311.131C198.96 311.071 198.918 311.018 198.867 310.975C198.816 310.932 198.757 310.9 198.693 310.88C197.896 310.667 197.06 310.65 196.255 310.829C195.45 311.008 194.699 311.379 194.068 311.909C194.014 311.951 193.968 312.002 193.934 312.061C193.9 312.121 193.879 312.186 193.871 312.254C193.862 312.321 193.868 312.39 193.887 312.455C193.906 312.521 193.938 312.582 193.981 312.634C194.041 312.703 194.115 312.758 194.198 312.794Z" fill="#263238"/>
<path d="M211.033 316.811C211.121 316.842 211.216 316.85 211.308 316.834C211.401 316.818 211.487 316.777 211.559 316.717C211.631 316.657 211.686 316.579 211.718 316.491C211.75 316.403 211.759 316.308 211.743 316.216C211.59 315.411 211.247 314.654 210.743 314.009C210.239 313.363 209.587 312.847 208.843 312.504C208.714 312.456 208.572 312.459 208.445 312.513C208.318 312.567 208.217 312.667 208.162 312.794C208.114 312.921 208.118 313.062 208.172 313.186C208.226 313.311 208.326 313.409 208.452 313.461C209.029 313.73 209.534 314.134 209.922 314.639C210.311 315.143 210.573 315.734 210.685 316.361C210.697 316.46 210.735 316.555 210.797 316.634C210.858 316.713 210.94 316.774 211.033 316.811Z" fill="#263238"/>
<path d="M184.063 306.559C184.294 306.754 184.541 306.929 184.802 307.081C185.499 307.497 186.288 307.733 187.099 307.766C187.909 307.799 188.715 307.628 189.442 307.27C192.429 305.82 193.372 297.294 201.869 301.629C202.803 301.404 203.781 301.454 204.687 301.773C205.593 302.092 206.387 302.667 206.973 303.427C209.163 306.109 207.654 315.897 212.323 314.548C216.992 313.2 216.18 311.75 216.18 311.75C216.18 311.75 214.876 312.576 214.107 311.924C214.799 311.342 215.293 310.558 215.519 309.682C215.745 308.807 215.692 307.882 215.369 307.038C215.369 307.038 214.237 308.386 213.483 308.125C214.262 304.165 213.812 300.062 212.193 296.366C209.481 289.609 192.893 291.117 192.893 291.117C192.893 291.117 190.805 287.622 183.309 290.058C175.812 292.494 172.39 301.528 173.579 305.457" fill="#263238"/>
<path d="M283.04 402.723L281.967 398.677H237.989L217.747 400.693L216.978 402.723H283.04Z" fill="#263238"/>
<path opacity="0.5" d="M283.04 402.723L281.967 398.677H237.989L217.747 400.693L216.978 402.723H283.04Z" fill="white"/>
<path opacity="0.2" d="M237.989 398.677V402.723H283.04L281.967 398.677H237.989Z" fill="black"/>
<path d="M252.865 379.305C252.808 379.796 252.855 380.293 253.005 380.764C253.155 381.234 253.404 381.667 253.735 382.034C254.065 382.401 254.471 382.692 254.924 382.889C255.376 383.086 255.866 383.185 256.36 383.177H323.727C324.78 383.152 325.788 382.745 326.564 382.033C327.34 381.322 327.831 380.352 327.946 379.305L331.948 336.182C331.987 335.765 331.957 335.344 331.861 334.935C331.677 334.176 331.239 333.501 330.619 333.024C330 332.547 329.236 332.295 328.454 332.311H261.087C260.034 332.336 259.026 332.743 258.25 333.455C257.474 334.166 256.983 335.136 256.867 336.182L252.865 379.305Z" fill="#263238"/>
<path opacity="0.5" d="M252.865 379.305C252.808 379.796 252.855 380.293 253.005 380.764C253.155 381.234 253.404 381.667 253.735 382.034C254.065 382.401 254.471 382.692 254.924 382.889C255.376 383.086 255.866 383.185 256.36 383.177H323.727C324.78 383.152 325.788 382.745 326.564 382.033C327.34 381.322 327.831 380.352 327.946 379.305L331.948 336.182C331.987 335.765 331.957 335.344 331.861 334.935C331.677 334.176 331.239 333.501 330.619 333.024C330 332.547 329.236 332.295 328.454 332.311H261.087C260.034 332.336 259.026 332.743 258.25 333.455C257.474 334.166 256.983 335.136 256.867 336.182L252.865 379.305Z" fill="white"/>
<path opacity="0.1" d="M256.65 383.177H323.771C324.823 383.152 325.831 382.746 326.607 382.034C327.383 381.322 327.874 380.352 327.99 379.306L331.992 336.183C332.03 335.765 332.001 335.344 331.905 334.936H264.77C263.72 334.964 262.715 335.372 261.942 336.084C261.169 336.795 260.68 337.763 260.565 338.807L256.563 381.93C256.517 382.348 256.547 382.77 256.65 383.177Z" fill="black"/>
<path d="M302.876 356.729H288.941L292.653 396.633L270.628 399.939V402.723H317.042V399.939L307.53 396.633L302.876 356.729Z" fill="#263238"/>
<path opacity="0.5" d="M302.876 356.729H288.941L292.653 396.633L270.628 399.939V402.723H317.042V399.939L307.53 396.633L302.876 356.729Z" fill="white"/>
<path opacity="0.2" d="M288.941 356.729L299.265 402.085L307.53 401.839L302.876 356.729H288.941Z" fill="white"/>
<path d="M173.913 604.824H258.303C258.521 604.824 258.737 604.781 258.939 604.697C259.14 604.613 259.323 604.49 259.477 604.335C259.631 604.18 259.752 603.996 259.834 603.794C259.917 603.591 259.958 603.375 259.956 603.157V597.777C259.956 597.339 259.782 596.918 259.472 596.608C259.162 596.298 258.741 596.124 258.303 596.124H178.263V423.835H256.94C257.74 423.835 258.507 423.517 259.073 422.952C259.638 422.386 259.956 421.619 259.956 420.819V415.135H173.913C172.759 415.135 171.653 415.593 170.837 416.409C170.021 417.225 169.563 418.331 169.563 419.485V600.474C169.563 601.628 170.021 602.734 170.837 603.55C171.653 604.366 172.759 604.824 173.913 604.824Z" fill="#263238"/>
<g opacity="0.4">
<path d="M173.913 604.824H258.303C258.521 604.824 258.737 604.781 258.939 604.697C259.14 604.613 259.323 604.49 259.477 604.335C259.631 604.18 259.752 603.996 259.834 603.794C259.917 603.591 259.958 603.375 259.956 603.157V597.777C259.956 597.339 259.782 596.918 259.472 596.608C259.162 596.298 258.741 596.124 258.303 596.124H178.263V423.835H256.94C257.74 423.835 258.507 423.517 259.073 422.952C259.638 422.386 259.956 421.619 259.956 420.819V415.135H173.913C172.759 415.135 171.653 415.593 170.837 416.409C170.021 417.225 169.563 418.331 169.563 419.485V600.474C169.563 601.628 170.021 602.734 170.837 603.55C171.653 604.366 172.759 604.824 173.913 604.824Z" fill="white"/>
</g>
<path d="M385.555 416.585H163.096C162.35 416.585 161.634 416.289 161.107 415.761C160.579 415.234 160.283 414.518 160.283 413.772V406.928H388.368V413.787C388.364 414.53 388.066 415.242 387.539 415.766C387.012 416.291 386.298 416.585 385.555 416.585Z" fill="#D4AF38"/>
<path opacity="0.2" d="M160.283 411.742H388.368V406.913H160.283V411.742Z" fill="black"/>
<path d="M155.513 408.161H393.168C393.888 408.161 394.579 407.875 395.09 407.367C395.601 406.859 395.89 406.169 395.894 405.449C395.894 404.726 395.606 404.033 395.095 403.521C394.584 403.01 393.891 402.723 393.168 402.723H155.513C154.79 402.723 154.096 403.01 153.585 403.521C153.074 404.033 152.787 404.726 152.787 405.449C152.79 406.169 153.079 406.859 153.59 407.367C154.101 407.875 154.792 408.161 155.513 408.161Z" fill="#D4AF38"/>
</svg>
