<svg width="725" height="627" viewBox="0 0 725 627" fill="none" xmlns="http://www.w3.org/2000/svg">
<g clip-path="url(#clip0_3335_25172)">
<path d="M725 551.008H0V551.429H725V551.008Z" fill="#EBEBEB"/>
<path d="M457.722 562.468H420.805V562.888H457.722V562.468Z" fill="#EBEBEB"/>
<path d="M660.388 571.571H572.909V571.992H660.388V571.571Z" fill="#EBEBEB"/>
<path d="M412.946 562.669H322.567V563.09H412.946V562.669Z" fill="#EBEBEB"/>
<path d="M263.958 575.256H245.05V575.677H263.958V575.256Z" fill="#EBEBEB"/>
<path d="M368.43 575.256H282.329V575.677H368.43V575.256Z" fill="#EBEBEB"/>
<path d="M131.82 568.155H76.0674V568.576H131.82V568.155Z" fill="#EBEBEB"/>
<path d="M343.65 475.959H63.6693C61.476 475.954 59.3738 474.94 57.8242 473.138C56.2746 471.337 55.4043 468.896 55.4043 466.35V9.60833C55.4234 7.07755 56.3021 4.65772 57.8496 2.87443C59.3972 1.09115 61.4885 0.0884418 63.6693 0.0841064H343.65C345.846 0.0841064 347.952 1.09641 349.504 2.89833C351.057 4.70025 351.929 7.14417 351.929 9.69246V466.35C351.929 468.899 351.057 471.342 349.504 473.144C347.952 474.946 345.846 475.959 343.65 475.959ZM63.6693 0.420653C61.5721 0.42511 59.5621 1.39506 58.0805 3.1176C56.5989 4.84014 55.7668 7.17452 55.7668 9.60833V466.35C55.7668 468.784 56.5989 471.118 58.0805 472.841C59.5621 474.564 61.5721 475.533 63.6693 475.538H343.65C345.748 475.533 347.76 474.564 349.244 472.842C350.728 471.12 351.563 468.786 351.567 466.35V9.60833C351.563 7.17297 350.728 4.83863 349.244 3.11657C347.76 1.39451 345.748 0.425101 343.65 0.420653H63.6693Z" fill="#EBEBEB"/>
<path d="M657.3 475.959H377.305C375.11 475.954 373.007 474.94 371.455 473.139C369.903 471.339 369.029 468.897 369.025 466.35V9.60833C369.048 7.07602 369.93 4.6562 371.48 2.87338C373.03 1.09056 375.123 0.0883945 377.305 0.0841064H657.3C659.478 0.0928642 661.566 1.09753 663.11 2.88034C664.655 4.66315 665.531 7.08046 665.55 9.60833V466.35C665.55 468.893 664.682 471.332 663.136 473.133C661.589 474.933 659.491 475.95 657.3 475.959ZM377.305 0.420653C375.206 0.425101 373.195 1.39451 371.711 3.11657C370.227 4.83863 369.392 7.17297 369.388 9.60833V466.35C369.392 468.786 370.227 471.12 371.711 472.842C373.195 474.564 375.206 475.533 377.305 475.538H657.3C659.398 475.533 661.41 474.564 662.894 472.842C664.378 471.12 665.213 468.786 665.217 466.35V9.60833C665.213 7.17297 664.378 4.83863 662.894 3.11657C661.41 1.39451 659.398 0.425101 657.3 0.420653H377.305Z" fill="#EBEBEB"/>
<path d="M284.142 405.049H187.862L182.019 326.802H278.299L284.142 405.049Z" fill="#E6E6E6"/>
<path d="M289.13 405.049H192.85L187.007 326.802H283.287L289.13 405.049Z" fill="#F0F0F0"/>
<path d="M206.016 388.255L202.797 343.612H270.12L273.339 388.255H206.016Z" fill="white"/>
<path d="M305.791 405.049H294.495V550.991H305.791V405.049Z" fill="#E6E6E6"/>
<path d="M309.357 405.049H301.513V550.991H309.357V405.049Z" fill="#F0F0F0"/>
<path d="M200.013 421.152H309.357V405.049H200.013V421.152Z" fill="#F0F0F0"/>
<path d="M203.87 421.169H192.574V551.008H203.87V421.169Z" fill="#E6E6E6"/>
<path d="M207.437 421.169H199.593V551.008H207.437V421.169Z" fill="#F0F0F0"/>
<path d="M123.467 421.169H112.172V551.008H123.467V421.169Z" fill="#E6E6E6"/>
<path d="M127.035 421.169H119.19V551.008H127.035V421.169Z" fill="#F0F0F0"/>
<path d="M234.305 421.169H223.01V551.008H234.305V421.169Z" fill="#E6E6E6"/>
<path d="M237.858 421.169H230.014V551.008H237.858V421.169Z" fill="#F0F0F0"/>
<path d="M200.013 405.049H112.172V421.152H200.013V405.049Z" fill="#E6E6E6"/>
<path d="M527.568 41.1594H187.789V260.688H527.568V41.1594Z" fill="#E0E0E0"/>
<path d="M546.23 41.1594H189.501V260.688H546.23V41.1594Z" fill="#F5F5F5"/>
<path d="M540.4 253.923V47.924L195.329 47.924V253.923L540.4 253.923Z" fill="white"/>
<path d="M335.052 253.923L400.2 47.924H292.683L227.534 253.923H335.052Z" fill="#F5F5F5"/>
<path d="M438.538 253.923L503.686 47.924H422.573L357.425 253.923H438.538Z" fill="#F5F5F5"/>
<path d="M635.259 341.341H606.375V551.008H635.259V341.341Z" fill="#E6E6E6"/>
<path d="M627.662 551.008H635.26V534.854H619.701L627.662 551.008Z" fill="#FAFAFA"/>
<path d="M368.952 341.341H340.068V551.008H368.952V341.341Z" fill="#E6E6E6"/>
<path d="M635.26 341.341H362.326V546.65H635.26V341.341Z" fill="#FAFAFA"/>
<path d="M630.098 407.59H367.503V349.603H630.098V407.59ZM368.953 405.907H628.648V351.286H368.953V405.907Z" fill="#E6E6E6"/>
<path d="M583.872 377.755H418.818C411.162 377.755 403.782 370.586 398.518 358.067L398.025 356.872H604.65L604.157 358.067C598.85 370.586 591.6 377.755 583.872 377.755ZM400.403 358.504C405.304 369.661 412.003 376.022 418.818 376.022H583.872C590.716 376.022 597.386 369.661 602.287 358.504H400.403Z" fill="#E6E6E6"/>
<path d="M369.924 551.008H362.326V534.854H377.885L369.924 551.008Z" fill="#FAFAFA"/>
<path d="M630.098 472.93H367.503V415.01H630.098V472.93ZM368.953 471.247H628.648V416.693H368.953V471.247Z" fill="#E6E6E6"/>
<path d="M583.872 443.162H418.818C411.162 443.162 403.782 435.977 398.518 423.474L398.025 422.263H604.65L604.157 423.474C598.85 435.91 591.6 443.162 583.872 443.162ZM400.403 423.946C405.304 435.102 412.003 441.48 418.818 441.48H583.872C590.716 441.48 597.386 435.102 602.287 423.946H400.403Z" fill="#E6E6E6"/>
<path d="M630.098 538.388H367.503V480.401H630.098V538.388ZM368.953 536.705H628.648V482.084H368.953V536.705Z" fill="#E6E6E6"/>
<path d="M583.872 508.553H418.818C411.162 508.553 403.782 501.385 398.518 488.882L398.025 487.67H604.65L604.157 488.882C598.85 501.385 591.6 508.553 583.872 508.553ZM400.403 489.353C405.304 500.51 412.003 506.87 418.818 506.87H583.872C590.716 506.87 597.386 500.51 602.287 489.353H400.403Z" fill="#E6E6E6"/>
<path d="M175.421 369.072V373.144H173.188L171.332 405.049H144.014L142.172 373.144H139.925V369.072H175.421Z" fill="#E6E6E6"/>
<path d="M166.431 289.866C164.198 270.851 142.085 265.433 114.028 264.726C87.3333 264.07 78.7783 253.115 78.7783 253.115C78.7783 253.115 78.8653 297.489 117.334 313.576C153.859 328.821 168.678 308.915 166.431 289.866Z" fill="#E6E6E6"/>
<path d="M152.801 332.961C153.265 325.153 164.024 310.782 189.907 317.311C208.612 322.04 215.572 310.782 215.572 310.782C215.572 310.782 213.832 342.552 185.702 352.093C158.978 361.163 151.975 346.725 152.801 332.961Z" fill="#E6E6E6"/>
<path d="M158.703 381.053C158.848 381.055 158.993 381.019 159.125 380.95C159.258 380.88 159.376 380.777 159.471 380.649C161.342 378.075 159.805 371.916 157.688 363.384C154.962 352.447 151.569 338.817 154.44 328.939C156.031 323.721 157.89 318.619 160.008 313.66C164.068 303.698 167.577 295.15 164.648 286.097C164.602 285.953 164.532 285.821 164.442 285.708C164.352 285.596 164.244 285.505 164.124 285.441C164.003 285.378 163.873 285.342 163.741 285.338C163.609 285.333 163.477 285.358 163.354 285.413C163.23 285.467 163.117 285.549 163.021 285.655C162.925 285.761 162.848 285.887 162.794 286.027C162.741 286.168 162.711 286.319 162.709 286.472C162.706 286.626 162.729 286.778 162.777 286.921C165.402 294.982 162.226 302.789 158.195 312.684C156.051 317.723 154.163 322.903 152.54 328.199C149.481 338.766 152.961 352.783 155.759 364.024C157.412 370.755 159.123 377.486 157.949 379.168C157.856 379.285 157.784 379.422 157.739 379.572C157.694 379.722 157.677 379.881 157.687 380.039C157.698 380.198 157.738 380.352 157.803 380.491C157.867 380.631 157.957 380.754 158.065 380.851C158.25 381.004 158.476 381.076 158.703 381.053Z" fill="#E6E6E6"/>
<path d="M362.5 627C517.77 627 643.64 618.472 643.64 607.952C643.64 597.431 517.77 588.903 362.5 588.903C207.23 588.903 81.3594 597.431 81.3594 607.952C81.3594 618.472 207.23 627 362.5 627Z" fill="#F5F5F5"/>
<path d="M362.442 515.082H156.542L145.275 130.798H351.175L362.442 515.082Z" fill="#E2C97A"/>
<path d="M372.722 503.151H166.822L155.541 118.868H361.441L372.722 503.151Z" fill="#E2C97A"/>
<path opacity="0.3" d="M372.722 503.151H166.822L155.541 118.868H361.441L372.722 503.151Z" fill="white"/>
<path d="M303.736 276.983C325.782 250.957 324.844 208.401 301.641 181.93C278.438 155.46 241.756 155.099 219.71 181.125C197.664 207.151 198.602 249.707 221.805 276.178C245.008 302.648 281.69 303.009 303.736 276.983Z" fill="#E2C97A"/>
<path d="M309.532 229.086C309.828 238.243 308.106 247.336 304.529 255.505C300.668 264.308 294.77 271.689 287.496 276.819C280.222 281.949 271.861 284.626 263.349 284.549C254.638 284.494 246.092 281.782 238.568 276.684C231.045 271.586 224.81 264.282 220.487 255.505C216.457 247.462 214.205 238.385 213.933 229.086C213.666 221.876 214.664 214.678 216.868 207.929C219.072 201.18 222.435 195.022 226.753 189.828C231.071 184.635 236.254 180.514 241.987 177.717C247.719 174.919 253.882 173.504 260.101 173.556C272.912 173.661 285.196 179.49 294.401 189.831C303.606 200.172 309.025 214.23 309.532 229.086Z" fill="white"/>
<path opacity="0.6" d="M304.5 255.505C300.639 264.308 294.741 271.689 287.467 276.819C280.193 281.949 271.832 284.626 263.32 284.549C254.608 284.494 246.063 281.782 238.539 276.684C231.016 271.586 224.781 264.282 220.458 255.505C232.721 245.803 247.231 240.645 262.073 240.714C277.154 240.752 291.898 245.892 304.5 255.505Z" fill="#E2C97A"/>
<path opacity="0.6" d="M276.619 227.702C284.726 218.132 284.381 202.484 275.849 192.751C267.317 183.017 253.829 182.885 245.722 192.455C237.616 202.025 237.96 217.673 246.492 227.407C255.024 237.14 268.513 237.272 276.619 227.702Z" fill="#E2C97A"/>
<path d="M331.353 363.99H200.012L199.128 333.701H330.469L331.353 363.99Z" fill="white"/>
<path d="M332.949 418.123H201.593L200.709 387.834H332.064L332.949 418.123Z" fill="white"/>
<path d="M282.257 392.008L250.604 397.056C250.302 397.096 250.01 397.208 249.747 397.385C249.484 397.562 249.256 397.8 249.076 398.085C248.896 398.369 248.769 398.694 248.703 399.038C248.636 399.382 248.632 399.738 248.69 400.085L252.851 424.703C252.988 425.425 253.352 426.063 253.872 426.489C254.393 426.916 255.032 427.101 255.664 427.008L287.318 421.96C287.619 421.916 287.909 421.8 288.171 421.621C288.432 421.441 288.659 421.201 288.837 420.915C289.015 420.63 289.141 420.305 289.206 419.961C289.271 419.616 289.275 419.26 289.217 418.914L285.07 394.296C284.934 393.575 284.569 392.939 284.048 392.515C283.527 392.092 282.888 391.91 282.257 392.008ZM273.166 416.946L267.366 417.837L266.8 409.895C266.203 409.595 265.676 409.133 265.265 408.547C264.853 407.961 264.569 407.269 264.437 406.53C264.33 405.956 264.329 405.364 264.432 404.79C264.535 404.216 264.741 403.673 265.036 403.198C265.331 402.722 265.709 402.323 266.146 402.028C266.582 401.732 267.067 401.546 267.569 401.481C268.599 401.328 269.641 401.628 270.489 402.323C271.338 403.017 271.931 404.056 272.151 405.234C272.277 405.945 272.238 406.682 272.039 407.371C271.841 408.059 271.489 408.675 271.02 409.155L273.166 416.946Z" fill="#E2C97A"/>
<path d="M279.125 390.678C278.566 390.761 278 390.598 277.538 390.221C277.077 389.844 276.753 389.281 276.631 388.642L276.225 386.236C275.646 382.952 274.06 380.024 271.761 377.994C269.463 375.964 266.608 374.97 263.726 375.197C262.272 375.293 260.853 375.752 259.565 376.541C258.277 377.33 257.15 378.432 256.262 379.771C255.373 381.11 254.743 382.656 254.415 384.303C254.087 385.949 254.068 387.659 254.359 389.315L254.823 392.092C254.877 392.399 254.875 392.717 254.818 393.023C254.76 393.33 254.648 393.62 254.488 393.873C254.328 394.126 254.125 394.338 253.89 394.495C253.656 394.652 253.396 394.75 253.127 394.784C252.566 394.875 251.997 394.715 251.534 394.337C251.071 393.959 250.749 393.391 250.633 392.748L250.241 390.409C249.843 388.223 249.83 385.966 250.203 383.774C250.575 381.582 251.326 379.5 252.409 377.653C253.493 375.806 254.887 374.233 256.508 373.027C258.129 371.821 259.943 371.008 261.841 370.637C265.958 369.835 270.182 370.903 273.638 373.619C277.094 376.336 279.516 380.492 280.401 385.226L280.865 387.986C280.919 388.297 280.916 388.619 280.856 388.929C280.796 389.238 280.679 389.53 280.515 389.784C280.351 390.039 280.142 390.25 279.903 390.404C279.663 390.558 279.398 390.651 279.125 390.678Z" fill="#E2C97A"/>
<path d="M311.271 460.545H225.765L225.199 440.823H310.691L311.271 460.545Z" fill="#E2C97A"/>
<path d="M270.019 348.846C270.045 349.565 269.944 350.283 269.724 350.956C269.503 351.629 269.167 352.242 268.736 352.76C268.305 353.278 267.787 353.688 267.215 353.967C266.643 354.246 266.029 354.387 265.408 354.382C264.13 354.37 262.904 353.789 261.984 352.759C261.064 351.729 260.52 350.328 260.464 348.846C260.438 348.126 260.539 347.408 260.76 346.736C260.98 346.063 261.316 345.449 261.747 344.931C262.179 344.414 262.696 344.003 263.268 343.724C263.84 343.445 264.454 343.304 265.075 343.309C266.354 343.317 267.582 343.896 268.503 344.927C269.424 345.959 269.967 347.362 270.019 348.846Z" fill="#263238"/>
<path d="M249.4 348.846C249.428 349.566 249.329 350.284 249.109 350.958C248.889 351.632 248.553 352.247 248.122 352.765C247.69 353.283 247.172 353.694 246.599 353.972C246.026 354.25 245.41 354.389 244.789 354.382C243.512 354.37 242.288 353.789 241.37 352.758C240.452 351.727 239.911 350.327 239.859 348.846C239.834 348.126 239.934 347.408 240.155 346.736C240.376 346.063 240.712 345.449 241.143 344.931C241.574 344.414 242.091 344.003 242.663 343.724C243.235 343.445 243.85 343.304 244.47 343.309C245.749 343.317 246.975 343.897 247.893 344.929C248.812 345.96 249.352 347.363 249.4 348.846Z" fill="#263238"/>
<path d="M228.911 348.846C228.937 349.565 228.836 350.283 228.615 350.956C228.395 351.629 228.059 352.242 227.628 352.76C227.196 353.278 226.679 353.688 226.107 353.967C225.535 354.246 224.92 354.387 224.3 354.382C223.022 354.374 221.796 353.794 220.877 352.763C219.959 351.731 219.419 350.328 219.37 348.846C219.345 348.126 219.445 347.408 219.666 346.736C219.886 346.063 220.223 345.449 220.654 344.931C221.085 344.414 221.602 344.003 222.174 343.724C222.746 343.445 223.361 343.304 223.981 343.309C225.259 343.317 226.486 343.897 227.404 344.929C228.323 345.96 228.863 347.363 228.911 348.846Z" fill="#263238"/>
<path d="M290.565 348.846C290.591 349.565 290.49 350.283 290.27 350.956C290.049 351.629 289.713 352.242 289.282 352.76C288.851 353.278 288.333 353.688 287.761 353.967C287.189 354.246 286.575 354.387 285.954 354.382C284.676 354.374 283.45 353.794 282.531 352.763C281.613 351.731 281.073 350.328 281.024 348.846C281.003 348.128 281.107 347.414 281.33 346.744C281.554 346.075 281.892 345.466 282.324 344.953C282.757 344.44 283.275 344.034 283.846 343.76C284.418 343.487 285.031 343.35 285.65 343.36C286.918 343.371 288.135 343.946 289.049 344.967C289.963 345.987 290.506 347.375 290.565 348.846Z" fill="#263238"/>
<path d="M311.112 348.846C311.14 349.566 311.041 350.284 310.821 350.958C310.601 351.632 310.265 352.247 309.833 352.765C309.402 353.283 308.884 353.694 308.311 353.972C307.738 354.25 307.122 354.389 306.501 354.382C305.224 354.37 304 353.789 303.082 352.758C302.164 351.727 301.623 350.327 301.571 348.846C301.546 348.126 301.646 347.408 301.867 346.736C302.088 346.063 302.424 345.449 302.855 344.931C303.286 344.414 303.803 344.003 304.375 343.724C304.947 343.445 305.562 343.304 306.182 343.309C307.46 343.317 308.687 343.897 309.605 344.929C310.524 345.96 311.064 347.363 311.112 348.846Z" fill="#263238"/>
<path d="M484.169 200.799C486.098 204.4 487.707 207.833 489.36 211.417C491.013 215.002 492.507 218.603 493.971 222.288C496.959 229.75 499.432 237.475 501.366 245.392C501.627 246.384 501.816 247.445 502.033 248.471L502.352 250.036L502.512 250.81L502.7 252.089C503.027 254.99 502.875 257.937 502.251 260.772C501.25 265.173 499.727 269.392 497.727 273.308C494.148 280.424 489.823 286.998 484.851 292.878L478.746 287.527C481.81 280.99 484.536 274.247 486.91 267.334C487.967 264.288 488.712 261.109 489.128 257.861C489.262 256.869 489.222 255.856 489.012 254.882L488.432 252.829C488.2 251.988 487.983 251.147 487.707 250.288C485.502 243.346 482.95 236.559 480.066 229.961C477.166 223.23 474.048 216.499 470.931 210.071L484.169 200.799Z" fill="#FFBCBA"/>
<path d="M480.298 285.188L473.628 289.277L481.284 299.676C481.284 299.676 486.069 295.924 486.286 290.203L480.298 285.188Z" fill="#FFBCBA"/>
<path d="M464.682 295.688L472.874 303.244L481.284 299.676L473.628 289.277L464.682 295.688Z" fill="#FFBCBA"/>
<path d="M436.667 145.741C436.508 146.683 435.942 147.339 435.42 147.222C434.898 147.104 434.594 146.229 434.753 145.303C434.913 144.378 435.478 143.62 436.015 143.822C436.551 144.024 436.827 144.798 436.667 145.741Z" fill="#263238"/>
<path d="M436.015 147.356C434.555 149.992 432.788 152.381 430.766 154.457C431.243 155.032 431.822 155.48 432.463 155.77C433.104 156.06 433.791 156.187 434.478 156.14L436.015 147.356Z" fill="#FFBCBA"/>
<path d="M433.405 180.371V169.333L445.991 171.015C445.991 171.015 445.788 180.506 438.741 183.299L433.405 180.371Z" fill="#FFBCBA"/>
<path d="M437.03 161.39L445.889 164.352L446.049 171.099L433.463 169.333L437.03 161.39Z" fill="#FFBCBA"/>
<path opacity="0.2" d="M445.89 164.352L437.03 161.39L435.305 165.227C435.399 168.25 436.213 171.184 437.656 173.702C439.1 176.221 441.117 178.227 443.483 179.496C445.005 177.029 445.895 174.112 446.049 171.083L445.89 164.352Z" fill="#977C28"/>
<path d="M440.525 141.248C440.618 141.245 440.708 141.212 440.785 141.152C440.863 141.092 440.924 141.008 440.962 140.909C441 140.811 441.013 140.702 440.999 140.595C440.986 140.488 440.947 140.388 440.887 140.306C440.378 139.638 439.738 139.122 439.022 138.8C438.305 138.478 437.533 138.359 436.769 138.455C436.644 138.479 436.533 138.56 436.46 138.68C436.386 138.8 436.357 138.949 436.378 139.094C436.399 139.24 436.468 139.371 436.571 139.459C436.674 139.546 436.802 139.585 436.929 139.565C437.534 139.496 438.144 139.596 438.709 139.857C439.274 140.117 439.777 140.531 440.177 141.063C440.221 141.119 440.275 141.164 440.335 141.196C440.394 141.228 440.459 141.246 440.525 141.248Z" fill="#263238"/>
<path d="M459.055 162.77C457.605 171.436 456.706 183.434 461.955 189.206C461.955 189.206 459.925 197.989 446.005 197.989C430.766 197.989 438.683 190.282 438.683 190.282C445.019 187.994 444.961 179.631 443.511 172.9L459.055 162.77Z" fill="#FFBCBA"/>
<path d="M464.783 194.994C466.146 192.773 466.088 185.722 464.638 184.477C462.304 182.475 452.284 182.004 438.799 185.605C440.249 192.436 437.146 196.004 437.146 196.004L464.783 194.994Z" fill="#E2C97A"/>
<path d="M510.11 594.49C509.696 594.659 509.257 594.731 508.819 594.702C508.381 594.673 507.952 594.544 507.558 594.322C507.408 594.16 507.305 593.949 507.264 593.717C507.222 593.484 507.244 593.243 507.326 593.026C507.371 592.844 507.451 592.676 507.558 592.533C507.666 592.391 507.799 592.277 507.949 592.201C509.327 591.427 512.488 592.925 512.633 592.992C512.676 593.012 512.713 593.047 512.739 593.092C512.764 593.137 512.778 593.19 512.778 593.245C512.777 593.299 512.765 593.352 512.742 593.399C512.719 593.446 512.687 593.485 512.647 593.514C511.829 593.931 510.98 594.257 510.11 594.49ZM508.442 592.588C508.346 592.614 508.254 592.654 508.167 592.706C508.076 592.744 507.995 592.807 507.929 592.889C507.864 592.971 507.816 593.07 507.79 593.177C507.659 593.682 507.79 593.85 507.877 593.901C508.428 594.439 510.458 593.901 511.893 593.278C510.801 592.754 509.622 592.518 508.442 592.588Z" fill="#E2C97A"/>
<path d="M512.589 593.53H512.473C511.313 593.143 508.848 591.107 508.819 589.778C508.818 589.567 508.88 589.361 508.993 589.196C509.106 589.031 509.265 588.915 509.443 588.869C509.615 588.795 509.799 588.765 509.982 588.782C510.165 588.8 510.342 588.864 510.501 588.97C511.864 589.778 512.734 593.042 512.763 593.194C512.784 593.235 512.794 593.281 512.794 593.328C512.794 593.376 512.784 593.422 512.763 593.463C512.741 593.489 512.713 593.509 512.683 593.521C512.653 593.533 512.621 593.536 512.589 593.53ZM509.689 589.34H509.573C509.283 589.458 509.283 589.627 509.283 589.711C509.283 590.502 510.936 592.1 512.183 592.74C511.879 591.797 511.212 589.929 510.327 589.374C510.131 589.271 509.908 589.258 509.704 589.34H509.689Z" fill="#E2C97A"/>
<path d="M434.797 596.475C433.492 596.475 432.23 596.257 431.81 595.583C431.7 595.404 431.641 595.189 431.641 594.969C431.641 594.749 431.7 594.534 431.81 594.355C431.892 594.191 432.003 594.048 432.135 593.935C432.268 593.822 432.418 593.742 432.578 593.699C434.275 593.16 437.842 595.516 437.987 595.617C438.031 595.642 438.067 595.684 438.088 595.736C438.109 595.788 438.114 595.847 438.103 595.903C438.097 595.961 438.076 596.015 438.042 596.057C438.008 596.1 437.963 596.128 437.914 596.139C436.886 596.358 435.842 596.47 434.797 596.475ZM433.187 594.17C433.033 594.141 432.877 594.141 432.723 594.17C432.625 594.193 432.532 594.24 432.45 594.306C432.367 594.373 432.298 594.458 432.245 594.557C432.071 594.91 432.143 595.079 432.245 595.18C432.723 595.954 435.29 595.97 437.189 595.651C435.949 594.864 434.59 594.362 433.187 594.17Z" fill="#E2C97A"/>
<path d="M437.9 596.139H437.799C436.566 595.499 434.13 592.942 434.319 591.595C434.319 591.276 434.551 590.889 435.218 590.821C435.456 590.789 435.698 590.814 435.927 590.895C436.157 590.976 436.37 591.111 436.552 591.293C437.481 592.582 438.039 594.177 438.147 595.853C438.147 595.901 438.137 595.948 438.12 595.992C438.102 596.035 438.077 596.074 438.045 596.105C438.001 596.132 437.951 596.143 437.9 596.139ZM435.406 591.343H435.261C434.826 591.343 434.797 591.579 434.797 591.646C434.681 592.454 436.334 594.473 437.596 595.348C437.485 593.997 437.014 592.721 436.247 591.696C436.009 591.461 435.705 591.335 435.392 591.343H435.406Z" fill="#E2C97A"/>
<path d="M449.094 595.853H438.901L437.886 568.441H448.079L449.094 595.853Z" fill="#FFBCBA"/>
<path d="M523.958 590.384L513.996 592.891L503.977 567.347L513.953 564.857L523.958 590.384Z" fill="#FFBCBA"/>
<path d="M513.024 591.73L524.233 588.92C524.429 588.872 524.633 588.902 524.812 589.006C524.991 589.11 525.135 589.281 525.219 589.492L529.105 599.286C529.208 599.523 529.262 599.785 529.261 600.051C529.261 600.316 529.206 600.578 529.101 600.815C528.996 601.051 528.845 601.255 528.659 601.411C528.473 601.566 528.258 601.668 528.032 601.709C524.117 602.601 522.159 602.819 517.244 604.048C514.213 604.822 507.369 606.757 503.179 607.8C498.988 608.843 497.553 604.182 499.191 603.324C506.514 599.437 509.559 596.021 511.545 592.841C511.905 592.273 512.431 591.878 513.024 591.73Z" fill="#263238"/>
<path d="M438.973 594.49H450.109C450.311 594.491 450.507 594.572 450.665 594.718C450.823 594.865 450.933 595.069 450.979 595.297L452.994 605.814C453.053 606.069 453.06 606.335 453.014 606.593C452.969 606.851 452.871 607.093 452.73 607.299C452.589 607.505 452.408 607.67 452.202 607.781C451.996 607.891 451.771 607.944 451.544 607.935C447.528 607.851 441.728 607.581 436.682 607.581C430.766 607.581 425.676 607.952 418.745 607.952C414.555 607.952 413.395 603.038 415.149 602.584C423.124 600.564 429.649 600.346 436.537 595.415C437.26 594.853 438.103 594.533 438.973 594.49Z" fill="#263238"/>
<path d="M480.197 191.915C489.752 194.456 497.597 222.776 497.597 222.776L478.5 239.721C473.543 233.571 470.046 226.033 468.35 217.846C464.972 203.004 470.424 189.29 480.197 191.915Z" fill="#E2C97A"/>
<path opacity="0.4" d="M480.197 191.915C489.752 194.456 497.597 222.776 497.597 222.776L478.5 239.721C473.543 233.571 470.046 226.033 468.35 217.846C464.972 203.004 470.424 189.29 480.197 191.915Z" fill="#977C28"/>
<path d="M429.925 225.687C427.547 228.665 425.169 231.324 422.675 234.101C421.443 235.447 420.196 236.793 418.92 238.089L416.991 240.057L416.513 240.545L415.686 241.319C414.835 242.108 413.893 242.754 412.888 243.238C411.768 243.789 410.565 244.075 409.35 244.079C408.311 244.084 407.279 243.873 406.305 243.457C405.223 242.979 404.237 242.252 403.405 241.319C402.342 240.115 401.564 238.614 401.143 236.961C400.922 236.146 400.781 235.305 400.722 234.454C400.646 233.458 400.646 232.455 400.722 231.459C400.795 230.651 400.882 229.944 400.998 229.288C401.394 226.994 401.957 224.742 402.68 222.557C403.332 220.48 404.082 218.447 404.927 216.466C405.855 214.329 406.74 212.764 407.624 210.98C411.217 204.15 415.316 197.698 419.877 191.696C424.391 185.73 429.366 180.255 434.739 175.34L440.075 181.717C436.334 187.54 432.651 193.783 429.244 199.924C425.852 206.032 422.754 212.351 419.964 218.855C419.34 220.437 418.514 222.221 418.122 223.499C417.603 224.985 417.153 226.502 416.774 228.043C416.408 229.431 416.132 230.848 415.947 232.283C415.937 232.507 415.937 232.732 415.947 232.956C415.947 233.091 415.947 233.158 415.947 232.805C415.923 232.427 415.86 232.054 415.759 231.694C415.445 230.501 414.87 229.423 414.091 228.564C413.397 227.825 412.584 227.253 411.699 226.882C410.92 226.539 410.095 226.363 409.263 226.36C408.462 226.349 407.668 226.526 406.928 226.882C406.678 227 406.435 227.141 406.203 227.302L406.754 226.713L408.509 224.862L411.974 221.093C414.265 218.586 416.571 215.91 418.746 213.42L429.925 225.687Z" fill="#FFBCBA"/>
<path opacity="0.2" d="M472.004 212.713C477.195 218.67 478.891 229.54 479.254 238.964L478.413 239.721C473.456 233.571 469.959 226.033 468.263 217.845C468.074 216.97 467.9 216.163 467.77 215.204L472.004 212.713Z" fill="#977C28"/>
<path d="M419.789 203.694C417.701 216.482 416.396 242.75 422.443 294.746H477.05C477.427 285.037 472.163 237.617 480.24 191.83C474.205 190.486 468.103 189.592 461.97 189.155C454.243 188.641 446.497 188.641 438.77 189.155C436.218 189.424 433.695 189.862 431.52 190.316C428.627 190.905 425.957 192.499 423.862 194.888C421.767 197.277 420.347 200.348 419.789 203.694Z" fill="#E2C97A"/>
<path opacity="0.4" d="M419.789 203.694C417.701 216.482 416.396 242.75 422.443 294.746H477.05C477.427 285.037 472.163 237.617 480.24 191.83C474.205 190.486 468.103 189.592 461.97 189.155C454.243 188.641 446.497 188.641 438.77 189.155C436.218 189.424 433.695 189.862 431.52 190.316C428.627 190.905 425.957 192.499 423.862 194.888C421.767 197.277 420.347 200.348 419.789 203.694Z" fill="#977C28"/>
<path opacity="0.2" d="M428.142 222.658L418.282 219.915C417.977 226.848 417.948 235.43 418.383 246.048C422.922 240.057 428.722 230.702 428.142 222.658Z" fill="#977C28"/>
<path opacity="0.2" d="M437.886 568.458L438.408 582.576H448.616L448.094 568.458H437.886Z" fill="#977C28"/>
<path opacity="0.2" d="M513.953 564.857L503.977 567.364L509.139 580.523L519.115 578.016L513.953 564.857Z" fill="#977C28"/>
<path d="M463.898 150.116C461.288 161.457 460.244 168.256 454.212 172.967C445.15 180.136 433.84 171.924 433.55 159.943C433.231 149.123 437.566 132.38 448.05 130.091C450.353 129.59 452.729 129.777 454.953 130.636C457.178 131.494 459.177 132.996 460.762 135C462.348 137.003 463.468 139.442 464.016 142.087C464.565 144.731 464.524 147.495 463.898 150.116Z" fill="#FFBCBA"/>
<path d="M441.017 150.537C440.524 149.022 438.277 137.294 440.394 134.248C442.511 131.202 466.653 133.406 470.22 137.479C476.151 144.209 472.033 150.267 465.551 158.058C460.679 163.914 460.491 170.511 458.026 171.52C453.676 173.203 447.035 171.621 445.701 166.287C444.367 160.953 441.017 150.537 441.017 150.537Z" fill="#263238"/>
<path d="M467.291 124.135C458.765 119.928 442.772 124.589 434.13 122.166C434.02 125.895 435.077 129.544 437.105 132.44C439.133 135.335 441.996 137.28 445.164 137.916C452.333 139.502 459.617 140.285 466.914 140.255C476.397 139.75 474.541 127.719 467.291 124.135Z" fill="#263238"/>
<path d="M468.626 137.832C471.74 138.188 474.877 137.492 477.659 135.829C479.254 140.306 470.482 141.534 468.626 137.832Z" fill="#263238"/>
<path d="M445.658 151.008C445.462 153.926 444.443 156.688 442.758 158.866C440.525 161.71 438.205 159.926 437.813 156.477C437.465 153.347 438.19 148.063 440.916 146.548C443.642 145.034 445.846 147.491 445.658 151.008Z" fill="#FFBCBA"/>
<path d="M441.801 294.796C441.801 294.796 453.401 385.243 459.737 419.133C466.683 456.237 504.006 578.992 504.006 578.992L522.261 574.398C522.261 574.398 496.161 474.343 490.361 422.465C485.866 382.618 477.036 294.763 477.036 294.763L441.801 294.796Z" fill="#E2C97A"/>
<path d="M499.626 571.941C499.554 571.941 503.034 579.614 503.034 579.614L523.566 574.448L521.84 567.28L499.626 571.941Z" fill="#263238"/>
<path opacity="0.3" d="M449.123 327.021C462.507 330.066 461.086 387.986 459.476 417.787C455.619 396.719 449.964 356.199 446.107 327.441C447.042 326.906 448.106 326.757 449.123 327.021Z" fill="#977C28"/>
<path d="M422.443 294.797C422.443 294.797 420.993 383.291 422.153 419.318C423.313 456.86 434.608 579.783 434.608 579.783H451.892C451.892 579.783 452.516 459.047 453.342 422.179C454.183 381.995 458.359 294.729 458.359 294.729L422.443 294.797Z" fill="#E2C97A"/>
<path d="M431.288 571.874C431.201 571.874 432.26 580.187 432.26 580.187H453.27L453.85 572.766L431.288 571.874Z" fill="#263238"/>
<path d="M441.163 207.631C446.049 222.927 417.325 240.949 417.325 240.949L404.884 222.439C404.884 222.439 413.25 203.223 423.4 194.573C435.943 183.905 437.436 195.987 441.163 207.631Z" fill="#E2C97A"/>
<path opacity="0.4" d="M441.163 207.631C446.049 222.927 417.325 240.949 417.325 240.949L404.884 222.439C404.884 222.439 413.25 203.223 423.4 194.573C435.943 183.905 437.436 195.987 441.163 207.631Z" fill="#977C28"/>
<path d="M553.711 91.5066C582.613 91.5066 606.042 74.1788 606.042 52.8039C606.042 31.429 582.613 14.1013 553.711 14.1013C524.81 14.1013 501.381 31.429 501.381 52.8039C501.381 74.1788 524.81 91.5066 553.711 91.5066Z" fill="#E2C97A"/>
<path d="M534.832 72.2899C531.385 72.277 528.052 70.8545 525.418 68.2725C522.785 65.6905 521.02 62.1142 520.434 58.1718C519.857 53.9015 520.687 49.5357 522.759 45.9435C524.83 42.3514 527.992 39.7963 531.613 38.7868C534.585 37.9921 537.697 38.2984 540.511 39.6627C543.326 41.027 545.701 43.3807 547.302 46.3927L580.899 38.3493C582.19 38.0212 583.54 38.2703 584.68 39.0471C585.819 39.8238 586.665 41.0709 587.047 42.5393C587.222 43.3113 587.261 44.1168 587.159 44.9066C587.058 45.6964 586.818 46.4538 586.456 47.1326C586.094 47.8114 585.616 48.3974 585.052 48.8546C584.488 49.3118 583.849 49.6307 583.175 49.7918L582.305 49.9938C582.176 50.0207 582.054 50.0817 581.948 50.1722C581.843 50.2626 581.756 50.3801 581.696 50.5154C581.643 50.6529 581.615 50.802 581.615 50.9529C581.615 51.1038 581.643 51.253 581.696 51.3904L582.291 53.1741C582.49 53.7523 582.509 54.3929 582.345 54.9858C582.181 55.5786 581.844 56.0864 581.392 56.4218C581.035 56.6774 580.734 57.0239 580.51 57.435C580.287 57.8462 580.147 58.3111 580.101 58.7944C580.059 59.3491 579.866 59.874 579.551 60.2941C579.236 60.7141 578.814 61.0079 578.347 61.1334L577.665 61.3017C577.193 61.403 576.705 61.3271 576.272 61.0851C575.839 60.8431 575.484 60.4474 575.258 59.9555C574.957 59.3686 574.506 58.9053 573.967 58.6302C573.429 58.3551 572.829 58.2819 572.253 58.4208C571.677 58.5597 571.152 58.9038 570.753 59.4052C570.353 59.9065 570.098 60.5401 570.024 61.2175C569.983 61.7687 569.793 62.2907 569.48 62.7081C569.167 63.1256 568.748 63.4168 568.284 63.5397L567.602 63.708C567.13 63.8066 566.643 63.7295 566.211 63.4878C565.778 63.246 565.423 62.8519 565.195 62.3618C564.978 61.9445 564.685 61.5869 564.337 61.3137C563.989 61.0406 563.594 60.8585 563.18 60.78C562.622 60.7022 562.108 60.3908 561.734 59.9043C561.361 59.4179 561.153 58.7899 561.15 58.1381V56.2198C561.144 56.0698 561.11 55.9229 561.051 55.7894C560.991 55.6559 560.908 55.5388 560.806 55.4461C560.704 55.3534 560.586 55.2874 560.46 55.2525C560.335 55.2176 560.204 55.2146 560.077 55.2439L549.361 57.8016C548.924 61.2467 547.583 64.4519 545.52 66.9811C543.458 69.5102 540.774 71.2405 537.834 71.9365C536.846 72.1709 535.84 72.2893 534.832 72.2899ZM531.932 40.3181C528.643 41.2096 525.768 43.5141 523.884 46.7675C522.001 50.021 521.25 53.9817 521.782 57.8521C522.352 61.4529 524.014 64.698 526.467 67.0003C528.92 69.3026 532.002 70.5101 535.156 70.4044C538.309 70.2987 541.326 68.8867 543.66 66.4239C545.994 63.9611 547.492 60.6101 547.882 56.9771V56.3713L559.7 53.5948C560.039 53.4996 560.392 53.4933 560.733 53.5761C561.074 53.659 561.396 53.8291 561.673 54.074C561.951 54.3189 562.178 54.6325 562.338 54.9921C562.499 55.3516 562.588 55.748 562.6 56.1525V58.0708C562.603 58.2992 562.674 58.5193 562.801 58.6941C562.927 58.8688 563.102 58.9874 563.296 59.03C563.93 59.1354 564.534 59.4068 565.065 59.8237C565.595 60.2406 566.036 60.7921 566.355 61.4363C566.432 61.6179 566.556 61.7673 566.709 61.8637C566.862 61.9602 567.038 61.999 567.211 61.9748L567.878 61.8065C568.047 61.756 568.197 61.6436 568.307 61.486C568.417 61.3284 568.48 61.1339 568.487 60.9315C568.578 59.884 568.954 58.8973 569.56 58.114C570.167 57.3308 570.972 56.7916 571.86 56.5743C572.747 56.357 573.672 56.4729 574.499 56.9053C575.326 57.3376 576.014 58.064 576.462 58.9795C576.536 59.1598 576.657 59.3085 576.808 59.4051C576.959 59.5016 577.132 59.5411 577.303 59.518L577.999 59.3497C578.165 59.2962 578.312 59.1825 578.419 59.0251C578.526 58.8678 578.587 58.6749 578.593 58.4747C578.665 57.7359 578.881 57.0259 579.225 56.3989C579.57 55.7718 580.033 55.2444 580.58 54.8568C580.739 54.7231 580.856 54.5313 580.911 54.3118C580.966 54.0923 580.957 53.8577 580.884 53.6453L580.29 51.8616C580.167 51.4939 580.114 51.0994 580.137 50.7058C580.159 50.3122 580.254 49.929 580.417 49.5829C580.58 49.2367 580.806 48.936 581.08 48.7018C581.353 48.4676 581.668 48.3055 582.001 48.2269L582.885 48.0082C583.364 47.8897 583.817 47.6604 584.218 47.334C584.618 47.0076 584.958 46.5908 585.216 46.1085C585.475 45.6263 585.647 45.0884 585.722 44.5272C585.798 43.966 585.775 43.3929 585.655 42.8422C585.372 41.7832 584.754 40.8876 583.926 40.3352C583.097 39.7828 582.12 39.6143 581.189 39.8638L546.65 48.1932L546.389 47.6716C545.001 44.8047 542.847 42.5399 540.252 41.2193C537.657 39.8987 534.762 39.5942 532.005 40.3518L531.932 40.3181ZM534.832 66.0301C533.031 66.0534 531.263 65.4688 529.743 64.3474C527.945 62.9775 526.612 60.9263 525.971 58.5434C525.33 56.1606 525.422 53.5936 526.229 51.2802C527.037 48.9667 528.511 47.0499 530.4 45.8567C532.29 44.6634 534.477 44.2675 536.59 44.7365C538.702 45.2054 540.609 46.5101 541.986 48.4283C543.362 50.3464 544.123 52.7592 544.138 55.2552C544.153 57.7513 543.421 60.1762 542.068 62.1165C540.715 64.0568 538.824 65.3923 536.717 65.8955C536.1 66.0251 535.473 66.0815 534.847 66.0638L534.832 66.0301ZM534.832 46.1571C534.292 46.1607 533.753 46.2227 533.223 46.3422C532.212 46.592 531.255 47.0701 530.404 47.7494C529.553 48.4287 528.825 49.2959 528.263 50.3014C527.701 51.3069 527.315 52.4311 527.127 53.6097C526.94 54.7883 526.954 55.9983 527.169 57.1706C527.384 58.3429 527.796 59.4545 528.381 60.442C528.967 61.4295 529.714 62.2735 530.581 62.9259C531.447 63.5783 532.416 64.0262 533.431 64.2441C534.447 64.462 535.49 64.4457 536.5 64.196C538.016 63.8296 539.405 62.9504 540.492 61.6693C541.578 60.3881 542.314 58.7624 542.605 56.9969C542.897 55.2315 542.731 53.4054 542.13 51.7488C541.529 50.0923 540.518 48.6795 539.226 47.6884C537.942 46.6977 536.432 46.176 534.89 46.1908L534.832 46.1571Z" fill="white"/>
<path opacity="0.6" d="M511.125 114.207C520.622 114.207 528.322 108.511 528.322 101.485C528.322 94.4593 520.622 88.7637 511.125 88.7637C501.627 88.7637 493.928 94.4593 493.928 101.485C493.928 108.511 501.627 114.207 511.125 114.207Z" fill="#E2C97A"/>
<path opacity="0.3" d="M483.764 119.406C487.664 119.406 490.825 117.071 490.825 114.19C490.825 111.309 487.664 108.973 483.764 108.973C479.864 108.973 476.702 111.309 476.702 114.19C476.702 117.071 479.864 119.406 483.764 119.406Z" fill="#E2C97A"/>
</g>
<defs>
<clipPath id="clip0_3335_25172">
<rect width="725" height="627" fill="white"/>
</clipPath>
</defs>
</svg>
