<svg width="725" height="725" viewBox="0 0 725 725" fill="none" xmlns="http://www.w3.org/2000/svg">
<g clip-path="url(#clip0_3335_24190)">
<path d="M362.5 725C517.77 725 643.64 715.428 643.64 703.62C643.64 691.812 517.77 682.24 362.5 682.24C207.23 682.24 81.3594 691.812 81.3594 703.62C81.3594 715.428 207.23 725 362.5 725Z" fill="#F5F5F5"/>
<path d="M345.68 534.127H65.6994C63.5047 534.122 61.401 532.984 59.8492 530.963C58.2973 528.941 57.4238 526.201 57.4199 523.343V10.6901C57.4428 7.8478 58.3248 5.13177 59.8746 3.13071C61.4244 1.12965 63.5172 0.00481298 65.6994 0H345.68C347.873 0.00500344 349.975 1.14344 351.525 3.16539C353.075 5.18734 353.945 7.92757 353.945 10.7845V523.343C353.945 526.2 353.075 528.94 351.525 530.962C349.975 532.984 347.873 534.122 345.68 534.127ZM65.6994 0.377743C63.6009 0.382736 61.5894 1.47081 60.1055 3.40367C58.6216 5.33653 57.7863 7.95662 57.7824 10.6901V523.343C57.7863 526.076 58.6216 528.696 60.1055 530.629C61.5894 532.562 63.6009 533.65 65.6994 533.655H345.68C347.777 533.65 349.787 532.561 351.269 530.628C352.75 528.694 353.582 526.074 353.582 523.343V10.6901C353.582 7.95836 352.75 5.33823 351.269 3.40483C349.787 1.47144 347.777 0.382747 345.68 0.377743H65.6994Z" fill="#E6E6E6"/>
<path d="M659.315 534.127H379.32C377.127 534.122 375.025 532.984 373.475 530.962C371.925 528.94 371.055 526.2 371.055 523.343V10.6901C371.074 7.84952 371.953 5.13348 373.501 3.1319C375.048 1.13032 377.139 0.00486605 379.32 0H659.315C661.496 0.00486605 663.587 1.13032 665.135 3.1319C666.682 5.13348 667.561 7.84952 667.58 10.6901V523.343C667.58 526.2 666.71 528.94 665.16 530.962C663.611 532.984 661.509 534.122 659.315 534.127ZM379.32 0.377743C377.223 0.382747 375.213 1.47144 373.731 3.40483C372.25 5.33823 371.418 7.95836 371.418 10.6901V523.343C371.418 526.074 372.25 528.694 373.731 530.628C375.213 532.561 377.223 533.65 379.32 533.655H659.315C661.415 533.65 663.428 532.562 664.914 530.63C666.4 528.698 667.239 526.078 667.247 523.343V10.6901C667.239 7.95489 666.4 5.33484 664.914 3.40251C663.428 1.47019 661.415 0.382716 659.315 0.377743H379.32Z" fill="#E6E6E6"/>
<path d="M124.613 629.847H64.8584V630.319H124.613V629.847Z" fill="#E0E0E0"/>
<path d="M246.413 626.069H186.484V626.542H246.413V626.069Z" fill="#E0E0E0"/>
<path d="M324.394 626.069H309.894V626.542H324.394V626.069Z" fill="#E0E0E0"/>
<path d="M179.466 642.199H112.404V642.671H179.466V642.199Z" fill="#E0E0E0"/>
<path d="M411.423 629.601H380.103V630.073H411.423V629.601Z" fill="#E0E0E0"/>
<path d="M464.827 629.601H424.328V630.073H464.827V629.601Z" fill="#E0E0E0"/>
<path d="M660.142 637.591H569.604V638.063H660.142V637.591Z" fill="#E0E0E0"/>
<path d="M725 611.319H0V611.791H725V611.319Z" fill="#EBEBEB"/>
<path opacity="0.8" d="M485.504 39.1907L481.893 103.936C481.771 106.13 481.057 108.197 479.878 109.772C479.206 110.705 478.395 111.451 477.496 111.964C476.596 112.477 475.625 112.746 474.643 112.756H434.783C433.912 112.768 433.049 112.543 432.249 112.095C431.448 111.648 430.729 110.988 430.135 110.158C429.541 109.328 429.087 108.346 428.802 107.275C428.516 106.203 428.405 105.066 428.475 103.936L432.1 39.1907C432.248 36.8084 433.073 34.5839 434.414 32.9524C435.755 31.321 437.515 30.4003 439.35 30.3704H479.211C480.082 30.3527 480.947 30.5738 481.748 31.0192C482.55 31.4647 483.271 32.1246 483.864 32.9562C484.458 33.7878 484.91 34.7725 485.193 35.8465C485.475 36.9206 485.581 38.0599 485.504 39.1907Z" fill="#E0E0E0"/>
<path d="M467.931 71.388C469.443 61.9745 465.923 53.0495 460.068 51.4534C454.212 49.8573 448.24 56.1945 446.727 65.6081C445.215 75.0216 448.735 83.9466 454.591 85.5427C460.446 87.1388 466.418 80.8015 467.931 71.388Z" fill="white"/>
<path d="M473.251 108.299H436.769C434.449 108.299 432.854 106.844 432.796 104.823C432.709 101.877 444.541 89.1282 455.764 90.2426H456.025C462.92 90.5607 469.532 93.8864 474.802 99.6861C480.225 105.239 475.107 108.299 473.251 108.299Z" fill="white"/>
<path d="M279.85 110.395C276.038 110.376 272.367 108.511 269.551 105.164C266.735 101.817 264.974 97.2256 264.611 92.2823C264.442 89.9347 264.65 87.5669 265.221 85.3295C265.792 83.0921 266.715 81.034 267.93 79.2861C269.145 77.5382 270.626 76.1387 272.279 75.1766C273.932 74.2144 275.72 73.7107 277.53 73.6974C281.343 73.717 285.013 75.5814 287.83 78.9286C290.646 82.2758 292.406 86.8669 292.77 91.8102C292.939 94.1579 292.731 96.5257 292.159 98.7631C291.588 101 290.665 103.059 289.45 104.806C288.235 106.554 286.754 107.954 285.101 108.916C283.449 109.878 281.66 110.382 279.85 110.395ZM278.154 83.4432C277.304 83.4432 276.463 83.6749 275.686 84.1234C274.909 84.5719 274.213 85.2273 273.642 86.0474C273.071 86.8675 272.638 87.8341 272.372 88.8852C272.105 89.9362 272.01 91.0484 272.093 92.1501C272.271 94.465 273.1 96.6126 274.419 98.181C275.738 99.7495 277.455 100.628 279.241 100.649C280.09 100.647 280.929 100.413 281.704 99.9634C282.479 99.5138 283.174 98.858 283.743 98.0382C284.313 97.2184 284.744 96.2526 285.01 95.2029C285.276 94.1531 285.371 93.0426 285.288 91.9424C285.11 89.6371 284.288 87.4974 282.978 85.9302C281.668 84.3631 279.961 83.4779 278.183 83.4432H278.154Z" fill="#E0E0E0"/>
<path d="M280.575 82.0267L275.239 82.1211L272.397 37.3209L277.747 37.2454L280.575 82.0267Z" fill="#E0E0E0"/>
<path d="M282.808 39.2474L272.774 39.4174L272.339 32.4481L282.373 32.2781L282.808 39.2474Z" fill="#E0E0E0"/>
<path d="M283.388 48.1999L273.949 48.351L273.514 41.3816L282.939 41.2305L283.388 48.1999Z" fill="#E0E0E0"/>
<path d="M284.2 60.8164L275.964 60.9486L275.515 53.9982L283.751 53.866L284.2 60.8164Z" fill="#E0E0E0"/>
<path d="M114.999 491.14C115.03 491.704 115.083 492.265 115.159 492.821C115.659 496.444 117.048 499.758 119.117 502.265C121.468 505.171 124.576 506.81 127.817 506.854H250.328C253.231 506.915 256.035 505.481 258.131 502.864C260.227 500.247 261.446 496.658 261.522 492.878C261.554 490.637 261.247 488.411 260.616 486.326C259.986 484.242 259.046 482.34 257.849 480.73C256.652 479.12 255.223 477.835 253.644 476.947C252.064 476.06 250.366 475.588 248.646 475.558H126.15C124.61 475.533 123.083 475.927 121.668 476.715C120.252 477.504 118.978 478.669 117.928 480.136C116.878 481.603 116.075 483.34 115.571 485.235C115.067 487.13 114.872 489.141 114.999 491.14Z" fill="#F0F0F0"/>
<path d="M261.566 492.821C261.556 493.328 261.518 493.833 261.45 494.332C261.096 490.21 259.598 486.399 257.237 483.616C254.876 480.833 251.815 479.27 248.632 479.222L118.349 479.487C120.454 476.86 123.264 475.409 126.179 475.445H248.69C250.42 475.428 252.135 475.868 253.731 476.74C255.327 477.611 256.77 478.895 257.974 480.514C259.178 482.133 260.117 484.054 260.734 486.16C261.351 488.265 261.634 490.512 261.566 492.764V492.821Z" fill="#E0E0E0"/>
<path d="M240.598 483.037L241.004 490.592L246.5 487.929L247.747 491.707L242.15 494.2L246.065 500.602L243.6 503.02L239.786 496.372L236.741 503.02L234.03 500.602L237.205 494.2L231.405 491.801L232.232 488.024L238.032 490.592L237.626 483.037H240.598Z" fill="white"/>
<path d="M207.089 483.037L207.509 490.592L212.99 487.929L214.237 491.707L208.626 494.105L212.555 500.508L210.018 502.926L206.204 496.277L203.159 502.926L200.448 500.508L203.623 494.105L197.823 491.707L198.664 487.929L204.464 490.498L204.058 482.943L207.089 483.037Z" fill="white"/>
<path d="M173.594 483.037L174 490.592L179.495 487.929L180.742 491.707L175.131 494.105L179.046 500.508L176.508 502.926L172.695 496.277L169.65 502.926L166.938 500.508L170.114 494.105L164.314 491.707L165.155 487.929L170.955 490.498L170.549 482.943L173.594 483.037Z" fill="white"/>
<path d="M140.085 483.037L140.491 490.592L145.986 487.929L147.233 491.707L141.622 494.105L145.537 500.508L143.014 502.926L139.2 496.372L136.141 503.02L133.4 500.602L136.59 494.2L130.79 491.801L131.631 488.024L137.431 490.592L137.025 483.037H140.085Z" fill="white"/>
<path d="M221.473 469.986H215.76L215.774 468.098H221.487L221.473 469.986Z" fill="#E0E0E0"/>
<path d="M246.022 469.986H227.389L227.418 468.098H246.051L246.022 469.986Z" fill="#E0E0E0"/>
<g opacity="0.8">
<path d="M390.601 460.467L413.714 506.797L489.926 407.527C490 407.441 490.061 407.337 490.104 407.221C490.148 407.105 490.173 406.979 490.179 406.85C490.185 406.721 490.172 406.592 490.14 406.47C490.107 406.348 490.057 406.235 489.991 406.139C489.926 406.042 489.846 405.963 489.757 405.906C489.668 405.85 489.571 405.816 489.472 405.809C489.373 405.801 489.274 405.818 489.18 405.86C489.086 405.902 489 405.968 488.926 406.054L416.295 480.242L402.578 451.439L390.601 460.467Z" fill="#E0E0E0"/>
</g>
<path opacity="0.1" d="M376.797 130.736L322.074 397.347H340.475L394.589 130.736H376.797Z" fill="white"/>
<path opacity="0.1" d="M405.202 130.736L350.479 397.347H386.991L441.104 130.736H405.202Z" fill="white"/>
<path d="M602.2 371.282L613.8 157.292C613.907 155.647 613.749 153.992 613.334 152.433C612.92 150.873 612.259 149.445 611.393 148.24C610.528 147.034 609.478 146.079 608.312 145.436C607.145 144.792 605.888 144.475 604.621 144.505L317.898 144.826C315.231 144.874 312.673 146.211 310.719 148.577C308.766 150.943 307.557 154.17 307.328 157.632L295.8 371.641C295.694 373.286 295.855 374.942 296.271 376.501C296.687 378.061 297.35 379.489 298.216 380.694C299.083 381.899 300.133 382.854 301.301 383.497C302.468 384.14 303.726 384.457 304.993 384.428L591.6 384.107C594.276 384.072 596.845 382.738 598.805 380.366C600.765 377.994 601.976 374.755 602.2 371.282Z" fill="#263238"/>
<path d="M598.517 366.617L610.117 152.627C610.227 150.982 610.07 149.325 609.656 147.765C609.243 146.204 608.581 144.774 607.716 143.568C606.85 142.362 605.799 141.407 604.632 140.765C603.464 140.122 602.205 139.807 600.938 139.84L314.215 140.161C311.549 140.205 308.99 141.541 307.039 143.909C305.087 146.276 303.882 149.505 303.659 152.967L292.059 366.976C291.951 368.62 292.11 370.276 292.524 371.835C292.939 373.394 293.6 374.823 294.465 376.028C295.331 377.234 296.38 378.189 297.547 378.832C298.714 379.476 299.971 379.793 301.238 379.763L587.946 379.442C590.617 379.398 593.179 378.06 595.133 375.689C597.087 373.318 598.293 370.084 598.517 366.617Z" fill="#D4AF38"/>
<path opacity="0.6" d="M590.919 369.79C590.33 370.496 589.558 370.887 588.758 370.886L302.035 371.207C301.575 371.2 301.121 371.072 300.7 370.831C300.279 370.589 299.899 370.239 299.585 369.801C299.271 369.363 299.028 368.847 298.871 368.284C298.714 367.72 298.646 367.121 298.671 366.523L310.271 152.532C310.316 151.493 310.67 150.518 311.257 149.812C311.843 149.099 312.616 148.707 313.418 148.717L600.141 148.396C600.601 148.403 601.055 148.531 601.476 148.772C601.897 149.014 602.277 149.364 602.591 149.802C602.905 150.24 603.148 150.756 603.305 151.319C603.462 151.882 603.53 152.481 603.505 153.08L591.905 367.071C591.853 368.107 591.5 369.079 590.919 369.79Z" fill="white"/>
<path d="M495.552 252.143H394.908C394.021 252.162 393.169 252.599 392.511 253.374C391.852 254.148 391.431 255.207 391.326 256.355L389.775 275.525C389.725 276.058 389.764 276.598 389.887 277.11C390.011 277.622 390.216 278.094 390.491 278.494C390.765 278.894 391.102 279.214 391.478 279.431C391.855 279.649 392.263 279.759 392.675 279.756H493.319C494.209 279.732 495.063 279.292 495.724 278.514C496.384 277.737 496.807 276.676 496.915 275.525L498.452 256.355C498.5 255.823 498.46 255.285 498.335 254.775C498.211 254.266 498.005 253.796 497.731 253.398C497.456 253 497.12 252.682 496.745 252.466C496.369 252.249 495.963 252.139 495.552 252.143Z" fill="white"/>
<path d="M406.885 330.43H391.181C390.291 330.453 389.437 330.894 388.777 331.671C388.116 332.448 387.693 333.51 387.585 334.661L386.048 353.831C386.001 354.362 386.041 354.9 386.165 355.41C386.29 355.92 386.496 356.389 386.77 356.787C387.044 357.186 387.38 357.503 387.756 357.72C388.131 357.936 388.537 358.046 388.948 358.043H404.652C405.539 358.02 406.391 357.582 407.051 356.809C407.712 356.035 408.136 354.978 408.248 353.831L409.785 334.661C409.834 334.128 409.796 333.587 409.672 333.075C409.549 332.563 409.343 332.092 409.069 331.691C408.794 331.291 408.458 330.971 408.081 330.754C407.704 330.536 407.297 330.426 406.885 330.43Z" fill="white"/>
<path d="M434 330.43H418.296C417.406 330.453 416.553 330.894 415.892 331.671C415.232 332.448 414.808 333.51 414.7 334.661L413.163 353.831C413.116 354.362 413.156 354.9 413.28 355.41C413.405 355.92 413.611 356.389 413.885 356.787C414.159 357.186 414.495 357.503 414.871 357.72C415.246 357.936 415.653 358.046 416.063 358.043H431.767C432.655 358.02 433.506 357.582 434.167 356.809C434.827 356.035 435.252 354.978 435.363 353.831L436.9 334.661C436.949 334.128 436.911 333.587 436.788 333.075C436.664 332.563 436.458 332.092 436.184 331.691C435.91 331.291 435.573 330.971 435.196 330.754C434.82 330.536 434.412 330.426 434 330.43Z" fill="white"/>
<path d="M461.1 330.43H445.411C444.521 330.453 443.667 330.894 443.007 331.671C442.346 332.448 441.923 333.51 441.815 334.661L440.278 353.831C440.231 354.362 440.271 354.9 440.395 355.41C440.52 355.92 440.726 356.389 441 356.787C441.274 357.186 441.61 357.503 441.985 357.72C442.361 357.936 442.767 358.046 443.178 358.043H458.882C459.769 358.02 460.621 357.582 461.281 356.809C461.942 356.035 462.366 354.978 462.478 353.831L464 334.661C464.049 334.128 464.011 333.587 463.888 333.075C463.764 332.563 463.559 332.092 463.284 331.691C463.01 331.291 462.673 330.971 462.296 330.754C461.92 330.536 461.512 330.426 461.1 330.43Z" fill="white"/>
<path d="M488.23 330.43H472.526C471.636 330.453 470.783 330.894 470.122 331.671C469.461 332.448 469.038 333.51 468.93 334.661L467.393 353.831C467.346 354.362 467.386 354.9 467.51 355.41C467.635 355.92 467.841 356.389 468.115 356.787C468.389 357.186 468.725 357.503 469.101 357.72C469.476 357.936 469.883 358.046 470.293 358.043H485.997C486.885 358.02 487.736 357.582 488.397 356.809C489.057 356.035 489.482 354.978 489.593 353.831L491.13 334.661C491.179 334.128 491.141 333.587 491.018 333.075C490.894 332.563 490.688 332.092 490.414 331.691C490.14 331.291 489.803 330.971 489.426 330.754C489.05 330.536 488.642 330.426 488.23 330.43Z" fill="white"/>
<path d="M407.537 317.379H470.482C471.994 317.343 473.446 316.598 474.57 315.279C475.695 313.961 476.416 312.158 476.601 310.202L477.369 300.758C477.459 299.847 477.397 298.921 477.187 298.045C476.976 297.168 476.623 296.361 476.15 295.679C475.678 294.997 475.097 294.457 474.449 294.094C473.801 293.732 473.101 293.557 472.396 293.581H409.451C407.938 293.616 406.486 294.362 405.362 295.681C404.238 296.999 403.517 298.802 403.332 300.758L402.564 310.202C402.476 311.112 402.54 312.036 402.751 312.912C402.963 313.787 403.316 314.593 403.788 315.274C404.26 315.955 404.839 316.496 405.486 316.859C406.133 317.222 406.833 317.399 407.537 317.379Z" stroke="#D4AF38" stroke-linecap="round" stroke-linejoin="round"/>
<path d="M499.177 212.215H398.533C397.645 212.243 396.795 212.686 396.137 213.463C395.48 214.239 395.059 215.298 394.951 216.446L393.4 235.616C393.352 236.148 393.392 236.686 393.517 237.196C393.641 237.705 393.847 238.175 394.121 238.573C394.396 238.971 394.732 239.289 395.107 239.505C395.483 239.722 395.889 239.832 396.3 239.828H496.93C497.817 239.806 498.669 239.368 499.33 238.594C499.99 237.821 500.414 236.764 500.526 235.616L502.063 216.446C502.112 215.915 502.074 215.376 501.951 214.865C501.829 214.355 501.624 213.884 501.352 213.484C501.079 213.084 500.744 212.764 500.369 212.545C499.994 212.327 499.588 212.214 499.177 212.215Z" fill="white"/>
<path d="M407.146 265.949C407.207 265.357 407.168 264.755 407.033 264.184C406.898 263.613 406.67 263.087 406.364 262.642C406.058 262.197 405.682 261.843 405.261 261.605C404.841 261.368 404.385 261.252 403.927 261.265C402.942 261.296 401.998 261.785 401.266 262.644C400.535 263.504 400.064 264.676 399.939 265.949C399.883 266.541 399.925 267.141 400.063 267.71C400.2 268.279 400.431 268.802 400.737 269.245C401.044 269.687 401.42 270.039 401.841 270.275C402.261 270.511 402.715 270.627 403.173 270.614C404.155 270.588 405.097 270.102 405.826 269.245C406.556 268.389 407.024 267.219 407.146 265.949Z" fill="#263238"/>
<path d="M418.224 265.949C418.282 265.356 418.242 264.753 418.105 264.182C417.969 263.612 417.739 263.086 417.432 262.641C417.125 262.196 416.748 261.843 416.327 261.606C415.905 261.368 415.449 261.252 414.99 261.265C414.006 261.292 413.063 261.781 412.333 262.641C411.603 263.502 411.136 264.676 411.017 265.949C410.959 266.54 410.999 267.14 411.135 267.709C411.271 268.277 411.499 268.801 411.805 269.244C412.111 269.687 412.486 270.039 412.906 270.275C413.325 270.512 413.779 270.627 414.236 270.614C415.22 270.588 416.164 270.103 416.896 269.247C417.628 268.391 418.099 267.22 418.224 265.949Z" fill="#263238"/>
<path d="M429.287 265.949C429.346 265.356 429.305 264.753 429.169 264.182C429.032 263.612 428.802 263.086 428.495 262.641C428.188 262.196 427.811 261.843 427.39 261.606C426.969 261.368 426.513 261.252 426.054 261.265C425.07 261.292 424.126 261.781 423.396 262.641C422.666 263.502 422.199 264.676 422.081 265.949C422.025 266.541 422.067 267.141 422.204 267.71C422.342 268.279 422.572 268.802 422.879 269.245C423.186 269.687 423.562 270.038 423.982 270.275C424.402 270.511 424.857 270.627 425.314 270.614C426.296 270.588 427.238 270.102 427.968 269.245C428.697 268.389 429.166 267.219 429.287 265.949Z" fill="#263238"/>
<path d="M440.351 265.949C440.411 265.357 440.373 264.755 440.238 264.184C440.103 263.613 439.875 263.087 439.569 262.642C439.263 262.197 438.887 261.843 438.466 261.605C438.045 261.368 437.59 261.252 437.132 261.265C436.147 261.292 435.204 261.781 434.474 262.641C433.744 263.502 433.277 264.676 433.159 265.949C433.098 266.547 433.14 267.155 433.28 267.73C433.42 268.305 433.656 268.832 433.97 269.275C434.284 269.719 434.669 270.067 435.097 270.295C435.526 270.523 435.988 270.625 436.45 270.595C437.417 270.548 438.34 270.054 439.054 269.204C439.768 268.353 440.228 267.2 440.351 265.949Z" fill="#263238"/>
<path d="M451.646 265.949C451.705 265.356 451.664 264.753 451.528 264.182C451.391 263.612 451.161 263.086 450.854 262.641C450.547 262.196 450.17 261.843 449.749 261.606C449.328 261.368 448.872 261.252 448.413 261.265C447.429 261.292 446.485 261.781 445.755 262.641C445.025 263.502 444.558 264.676 444.44 265.949C444.381 266.54 444.421 267.14 444.557 267.709C444.693 268.277 444.922 268.801 445.227 269.244C445.533 269.687 445.908 270.039 446.328 270.275C446.748 270.512 447.202 270.627 447.659 270.614C448.642 270.588 449.586 270.103 450.318 269.247C451.05 268.391 451.521 267.22 451.646 265.949Z" fill="#263238"/>
<path d="M410.771 226.022C410.832 225.431 410.793 224.829 410.658 224.259C410.523 223.689 410.295 223.164 409.989 222.72C409.683 222.277 409.306 221.925 408.885 221.689C408.464 221.454 408.009 221.34 407.552 221.357C406.57 221.383 405.628 221.869 404.898 222.726C404.169 223.582 403.7 224.752 403.579 226.022C403.517 226.613 403.556 227.215 403.691 227.785C403.826 228.355 404.054 228.88 404.36 229.323C404.666 229.767 405.043 230.119 405.464 230.354C405.885 230.59 406.34 230.703 406.798 230.687C407.78 230.664 408.724 230.18 409.454 229.323C410.184 228.465 410.652 227.293 410.771 226.022Z" fill="#263238"/>
<path d="M421.848 226.022C421.905 225.43 421.863 224.83 421.725 224.261C421.587 223.692 421.357 223.169 421.05 222.727C420.744 222.284 420.367 221.933 419.947 221.696C419.527 221.46 419.073 221.344 418.615 221.357C417.643 221.401 416.715 221.895 415.998 222.75C415.28 223.605 414.82 224.765 414.7 226.022C414.641 226.613 414.681 227.213 414.817 227.781C414.953 228.35 415.182 228.874 415.488 229.317C415.793 229.76 416.169 230.111 416.588 230.348C417.008 230.584 417.462 230.7 417.919 230.687C418.893 230.647 419.825 230.155 420.545 229.3C421.266 228.445 421.728 227.282 421.848 226.022Z" fill="#263238"/>
<path d="M432.912 226.022C432.971 225.431 432.931 224.831 432.795 224.262C432.659 223.694 432.43 223.17 432.125 222.727C431.819 222.284 431.444 221.932 431.024 221.696C430.604 221.459 430.151 221.344 429.693 221.357C428.71 221.383 427.766 221.868 427.034 222.724C426.302 223.58 425.831 224.751 425.706 226.022C425.647 226.614 425.687 227.216 425.824 227.786C425.961 228.356 426.191 228.881 426.498 229.324C426.805 229.767 427.183 230.119 427.604 230.354C428.026 230.589 428.481 230.703 428.939 230.687C429.922 230.664 430.866 230.18 431.596 229.322C432.326 228.465 432.794 227.293 432.912 226.022Z" fill="#263238"/>
<path d="M443.976 226.022C444.037 225.431 443.998 224.829 443.863 224.259C443.728 223.689 443.5 223.164 443.194 222.72C442.888 222.277 442.511 221.925 442.09 221.689C441.67 221.454 441.214 221.34 440.757 221.357C439.775 221.383 438.833 221.869 438.103 222.726C437.374 223.582 436.905 224.752 436.784 226.022C436.723 226.613 436.761 227.215 436.896 227.785C437.031 228.355 437.259 228.88 437.565 229.323C437.872 229.767 438.248 230.119 438.669 230.354C439.09 230.59 439.545 230.703 440.003 230.687C440.986 230.664 441.929 230.18 442.659 229.323C443.389 228.465 443.857 227.293 443.976 226.022Z" fill="#263238"/>
<path d="M455.054 226.022C455.11 225.43 455.068 224.83 454.93 224.261C454.792 223.692 454.562 223.169 454.255 222.727C453.949 222.284 453.572 221.933 453.152 221.696C452.732 221.46 452.278 221.344 451.82 221.357C450.838 221.383 449.896 221.869 449.167 222.726C448.437 223.582 447.969 224.752 447.847 226.022C447.788 226.614 447.829 227.216 447.965 227.786C448.102 228.356 448.332 228.881 448.639 229.324C448.947 229.767 449.324 230.119 449.745 230.354C450.167 230.589 450.622 230.703 451.081 230.687C452.063 230.664 453.007 230.18 453.737 229.323C454.467 228.465 454.935 227.293 455.054 226.022Z" fill="#263238"/>
<path d="M466.117 226.022C466.176 225.431 466.136 224.831 466 224.262C465.864 223.694 465.635 223.17 465.329 222.727C465.024 222.284 464.648 221.932 464.229 221.696C463.809 221.459 463.355 221.344 462.898 221.357C461.914 221.383 460.971 221.868 460.239 222.724C459.507 223.58 459.035 224.751 458.91 226.022C458.852 226.614 458.892 227.216 459.029 227.786C459.166 228.356 459.396 228.881 459.703 229.324C460.01 229.767 460.387 230.119 460.809 230.354C461.23 230.589 461.686 230.703 462.144 230.687C463.127 230.664 464.07 230.18 464.8 229.322C465.531 228.465 465.998 227.293 466.117 226.022Z" fill="#263238"/>
<path d="M456.75 169.946L455.967 179.635C455.912 180.057 455.748 180.441 455.503 180.726C455.258 181.011 454.946 181.179 454.618 181.203C454.464 181.21 454.31 181.173 454.168 181.095C454.025 181.017 453.898 180.899 453.794 180.749C453.69 180.6 453.613 180.423 453.568 180.23C453.522 180.038 453.51 179.835 453.531 179.635L454.314 169.946C454.383 169.229 454.332 168.5 454.166 167.811C453.999 167.121 453.721 166.486 453.35 165.948C452.979 165.411 452.523 164.984 452.014 164.696C451.505 164.408 450.954 164.266 450.399 164.28H447.716C446.525 164.317 445.382 164.909 444.497 165.948C443.611 166.988 443.04 168.406 442.888 169.946L442.206 178.936H439.771L440.452 169.946C440.682 167.543 441.569 165.328 442.952 163.708C444.334 162.087 446.118 161.171 447.978 161.126H450.646C451.511 161.097 452.372 161.313 453.167 161.759C453.963 162.204 454.675 162.869 455.255 163.707C455.835 164.545 456.269 165.536 456.527 166.613C456.785 167.69 456.861 168.827 456.75 169.946Z" fill="#D4AF38"/>
<path d="M456.75 179.276L455.228 198.163C455.169 198.75 454.951 199.289 454.613 199.684C454.275 200.079 453.84 200.303 453.386 200.317H438.886C438.677 200.319 438.471 200.263 438.28 200.152C438.089 200.041 437.92 199.878 437.782 199.673C437.644 199.469 437.542 199.228 437.482 198.968C437.423 198.707 437.407 198.433 437.436 198.163L438.959 179.276C438.987 178.888 439.086 178.514 439.247 178.186C439.409 177.857 439.628 177.584 439.887 177.388C440.164 177.176 440.479 177.065 440.8 177.067H455.3C455.597 177.062 455.888 177.167 456.141 177.369C456.374 177.575 456.556 177.866 456.664 178.204C456.772 178.543 456.802 178.916 456.75 179.276Z" fill="#D4AF38"/>
<path d="M570.3 138.594L534.862 138.858" stroke="#263238" stroke-linecap="round" stroke-linejoin="round"/>
<path d="M589.613 138.461L577.085 138.537" stroke="#263238" stroke-linecap="round" stroke-linejoin="round"/>
<g opacity="0.3">
<path d="M340.895 148.66H381.495L340.214 371.207H307.487C306.543 371.183 305.615 370.881 304.773 370.323C303.931 369.766 303.197 368.968 302.625 367.989C302.053 367.01 301.659 365.875 301.471 364.669C301.284 363.464 301.308 362.219 301.542 361.027L340.895 148.66Z" fill="white"/>
<path d="M399.475 148.66H416.687L375.449 371.207H358.237L399.475 148.66Z" fill="white"/>
</g>
<path d="M125.642 79.1936H133.878C131.949 79.1578 130.035 79.6494 128.26 80.6365C126.486 81.6237 124.89 83.0845 123.575 84.9247C122.261 86.7649 121.257 88.9437 120.629 91.3203C120.001 93.6969 119.763 96.2187 119.929 98.7228L137.402 424.147C137.733 429.417 139.559 434.337 142.524 437.947C145.489 441.558 149.38 443.6 153.439 443.677H145.217C141.157 443.601 137.264 441.559 134.297 437.949C131.329 434.338 129.5 429.418 129.166 424.147L111.65 98.7228C111.483 96.2139 111.722 93.6873 112.353 91.3066C112.984 88.926 113.991 86.7445 115.31 84.9034C116.629 83.0623 118.231 81.6026 120.011 80.619C121.79 79.6354 123.709 79.1498 125.642 79.1936Z" fill="#D4AF38"/>
<path d="M125.642 79.1936H133.878C131.949 79.1578 130.035 79.6494 128.261 80.6365C126.486 81.6237 124.89 83.0845 123.576 84.9247C122.261 86.7649 121.258 88.9437 120.63 91.3203C120.001 93.697 119.763 96.2187 119.929 98.7228L137.402 424.147C137.733 429.417 139.559 434.337 142.524 437.947C145.489 441.558 149.38 443.601 153.439 443.677H145.217C136.938 443.677 128.586 434.932 128.006 424.147L110.533 98.7228C109.953 87.9383 117.363 79.1936 125.642 79.1936Z" fill="#263238"/>
<path d="M147.668 443.696H248.443C250.377 443.742 252.297 443.258 254.079 442.276C255.86 441.294 257.463 439.834 258.784 437.993C260.105 436.152 261.114 433.969 261.745 431.587C262.377 429.205 262.617 426.677 262.45 424.166L244.919 98.7228C244.591 93.4469 242.764 88.52 239.796 84.9049C236.828 81.2899 232.931 79.2467 228.868 79.1747H128.107C126.176 79.1387 124.261 79.6307 122.486 80.619C120.71 81.6073 119.113 83.0698 117.799 84.9122C116.484 86.7545 115.481 88.9356 114.854 91.3145C114.227 93.6934 113.99 96.2172 114.158 98.7228L131.558 424.147C131.89 429.435 133.726 434.37 136.706 437.986C139.686 441.602 143.595 443.638 147.668 443.696Z" fill="#D4AF38"/>
<g opacity="0.6">
<path d="M228.607 85.5019C231.43 85.56 234.136 86.9846 236.197 89.4983C238.258 92.012 239.527 95.4349 239.757 99.1006L257.23 424.525C257.349 426.186 257.197 427.861 256.784 429.44C256.371 431.019 255.707 432.466 254.835 433.687C253.963 434.909 252.903 435.877 251.724 436.527C250.545 437.178 249.274 437.497 247.993 437.463H147.233C144.408 437.405 141.701 435.981 139.637 433.468C137.574 430.955 136.302 427.531 136.068 423.864L118.668 98.4395C118.55 96.7868 118.7 95.1203 119.108 93.548C119.517 91.9758 120.174 90.5329 121.038 89.313C121.903 88.0931 122.954 87.1234 124.124 86.4668C125.295 85.8103 126.558 85.4815 127.832 85.5019H228.607Z" fill="white"/>
</g>
<g opacity="0.3">
<path d="M200.1 437.425H159.949L193.096 85.5019H225.446C226.843 85.4951 228.226 85.864 229.508 86.5855C230.791 87.307 231.945 88.3655 232.899 89.6949L200.1 437.425Z" fill="white"/>
<path d="M152.743 437.425H143.695L176.842 85.4641H185.89L152.743 437.425Z" fill="white"/>
</g>
<path d="M149.611 239.243H222.604" stroke="white" stroke-linecap="round" stroke-linejoin="round"/>
<path d="M159.021 253.314H216.195" stroke="white" stroke-linecap="round" stroke-linejoin="round"/>
<path d="M151.786 174.422L151.887 178.2H150.017L149.915 174.422L146.595 167.642H148.581L150.872 172.326L152.902 167.642H154.744L151.786 174.422Z" fill="#D4AF38"/>
<path d="M154.816 172.874C154.792 172.131 154.889 171.39 155.101 170.701C155.313 170.011 155.636 169.388 156.047 168.873C156.459 168.359 156.95 167.964 157.488 167.716C158.026 167.468 158.598 167.372 159.166 167.434C159.741 167.396 160.316 167.507 160.858 167.761C161.4 168.014 161.897 168.405 162.322 168.911C162.747 169.417 163.091 170.028 163.333 170.708C163.575 171.388 163.711 172.124 163.734 172.874C163.761 173.618 163.665 174.36 163.454 175.053C163.242 175.745 162.92 176.37 162.508 176.887C162.096 177.403 161.605 177.8 161.066 178.049C160.527 178.298 159.954 178.395 159.384 178.332C158.808 178.37 158.232 178.258 157.689 178.004C157.146 177.749 156.648 177.356 156.223 176.848C155.798 176.34 155.454 175.727 155.213 175.045C154.972 174.363 154.837 173.624 154.816 172.874ZM161.776 172.874C161.778 172.427 161.711 171.984 161.58 171.571C161.448 171.158 161.254 170.784 161.009 170.47C160.765 170.157 160.474 169.911 160.155 169.746C159.836 169.581 159.495 169.502 159.152 169.512C158.816 169.493 158.48 169.569 158.168 169.734C157.857 169.899 157.576 170.15 157.345 170.469C157.114 170.787 156.938 171.167 156.83 171.582C156.721 171.997 156.682 172.437 156.716 172.874C156.712 173.322 156.777 173.767 156.908 174.182C157.039 174.597 157.233 174.974 157.477 175.289C157.722 175.605 158.013 175.853 158.333 176.019C158.654 176.184 158.996 176.265 159.34 176.254C159.677 176.267 160.011 176.186 160.322 176.018C160.632 175.85 160.912 175.597 161.142 175.278C161.372 174.958 161.548 174.579 161.657 174.164C161.767 173.75 161.807 173.31 161.776 172.874Z" fill="#D4AF38"/>
<path d="M165.024 173.516L164.879 167.604H166.75L166.895 173.421C166.895 175.423 167.649 176.254 168.78 176.254C169.911 176.254 170.549 175.423 170.505 173.421L170.346 167.604H172.187L172.347 173.516C172.423 174.151 172.386 174.801 172.239 175.415C172.091 176.028 171.837 176.59 171.497 177.055C171.156 177.521 170.738 177.878 170.274 178.1C169.811 178.321 169.314 178.4 168.823 178.332C168.322 178.39 167.817 178.307 167.342 178.087C166.868 177.868 166.436 177.517 166.075 177.06C165.714 176.603 165.433 176.049 165.252 175.437C165.071 174.826 164.993 174.17 165.024 173.516Z" fill="#D4AF38"/>
<path d="M179.481 178.162L177.842 175.216H176.117L176.204 178.162H174.333L174.043 167.604H177.552C179.713 167.604 181.105 169.077 181.163 171.381C181.21 172.083 181.081 172.786 180.797 173.385C180.512 173.984 180.086 174.448 179.582 174.706L181.496 178.105L179.481 178.162ZM177.494 169.606H176.044L176.146 173.27H177.596C178.741 173.27 179.292 172.59 179.263 171.381C179.234 170.173 178.64 169.606 177.494 169.606Z" fill="#D4AF38"/>
<path d="M185.455 172.873C185.425 172.142 185.514 171.411 185.717 170.729C185.92 170.046 186.232 169.427 186.632 168.913C187.033 168.399 187.512 168.001 188.039 167.746C188.566 167.491 189.128 167.385 189.689 167.434C190.324 167.408 190.955 167.564 191.539 167.891C192.123 168.217 192.644 168.706 193.067 169.323L191.907 170.758C191.651 170.37 191.332 170.059 190.974 169.847C190.616 169.635 190.227 169.527 189.834 169.531C189.494 169.507 189.155 169.579 188.838 169.741C188.521 169.904 188.235 170.153 187.999 170.471C187.762 170.79 187.581 171.171 187.468 171.589C187.354 172.006 187.31 172.451 187.34 172.892C187.338 173.347 187.406 173.797 187.541 174.216C187.676 174.635 187.875 175.014 188.126 175.33C188.377 175.646 188.674 175.892 189 176.055C189.326 176.217 189.674 176.291 190.022 176.273C190.407 176.283 190.789 176.176 191.137 175.96C191.484 175.743 191.788 175.424 192.023 175.027L193.256 176.462C192.861 177.089 192.359 177.587 191.79 177.915C191.221 178.243 190.601 178.392 189.979 178.351C189.405 178.381 188.833 178.263 188.294 178.004C187.755 177.744 187.262 177.349 186.841 176.84C186.42 176.33 186.081 175.718 185.844 175.037C185.606 174.356 185.474 173.621 185.455 172.873Z" fill="#D4AF38"/>
<path d="M193.749 172.874C193.725 172.14 193.82 171.408 194.028 170.725C194.236 170.042 194.552 169.424 194.956 168.911C195.359 168.398 195.841 168.001 196.37 167.747C196.899 167.492 197.463 167.386 198.026 167.434C198.601 167.396 199.176 167.507 199.718 167.761C200.26 168.014 200.757 168.405 201.182 168.911C201.607 169.417 201.951 170.028 202.193 170.708C202.435 171.388 202.571 172.124 202.594 172.874C202.619 173.609 202.526 174.343 202.319 175.028C202.112 175.713 201.796 176.334 201.392 176.849C200.988 177.364 200.506 177.762 199.976 178.018C199.446 178.274 198.88 178.381 198.316 178.332C197.74 178.37 197.164 178.258 196.621 178.004C196.079 177.749 195.58 177.356 195.155 176.848C194.73 176.34 194.387 175.727 194.145 175.045C193.904 174.363 193.769 173.624 193.749 172.874ZM200.694 172.874C200.698 172.427 200.633 171.985 200.503 171.572C200.373 171.159 200.18 170.785 199.937 170.471C199.693 170.158 199.404 169.911 199.085 169.746C198.767 169.581 198.427 169.501 198.084 169.512C197.748 169.493 197.413 169.569 197.101 169.734C196.789 169.899 196.508 170.15 196.277 170.469C196.046 170.787 195.87 171.167 195.762 171.582C195.653 171.997 195.615 172.437 195.648 172.874C195.642 173.321 195.706 173.766 195.835 174.181C195.964 174.596 196.157 174.972 196.4 175.288C196.644 175.604 196.934 175.852 197.254 176.018C197.573 176.184 197.914 176.265 198.258 176.254C198.595 176.27 198.931 176.192 199.242 176.024C199.554 175.857 199.835 175.605 200.066 175.285C200.296 174.964 200.472 174.583 200.58 174.168C200.689 173.752 200.727 173.311 200.694 172.874Z" fill="#D4AF38"/>
<path d="M203.87 167.604H207.538C208.11 167.531 208.686 167.612 209.233 167.842C209.779 168.072 210.284 168.445 210.715 168.939C211.146 169.433 211.494 170.037 211.738 170.714C211.983 171.391 212.117 172.126 212.135 172.874C212.167 173.612 212.074 174.351 211.862 175.037C211.651 175.723 211.326 176.341 210.911 176.845C210.496 177.35 210.001 177.73 209.46 177.957C208.92 178.185 208.348 178.255 207.785 178.162H204.102L203.87 167.604ZM207.683 176.16C208.025 176.206 208.371 176.153 208.695 176.005C209.02 175.857 209.315 175.618 209.56 175.304C209.806 174.99 209.994 174.609 210.114 174.189C210.233 173.769 210.279 173.32 210.25 172.874C210.249 172.419 210.176 171.969 210.035 171.553C209.894 171.137 209.688 170.763 209.43 170.456C209.173 170.149 208.869 169.915 208.538 169.768C208.207 169.622 207.857 169.567 207.509 169.606H205.798L205.972 176.16H207.683Z" fill="#D4AF38"/>
<path d="M219.907 176.16V178.049H213.643L213.353 167.491H219.472V169.379H215.325V171.665H219.081V173.553H215.325V175.99L219.907 176.16Z" fill="#D4AF38"/>
<path d="M165.851 217.353V221.583H150.641V218.24L158.732 208.06C160.704 205.548 161.037 203.981 161.023 202.394C161.023 199.939 159.66 198.503 157.122 198.503C156.206 198.443 155.292 198.667 154.455 199.156C153.618 199.645 152.882 200.386 152.308 201.318L149.582 198.617C150.519 197.123 151.715 195.941 153.071 195.166C154.427 194.391 155.905 194.046 157.383 194.159C161.878 194.159 164.822 197.125 164.88 201.903C164.88 204.509 164.387 206.908 161.574 210.421L156.136 217.277L165.851 217.353Z" fill="#263238"/>
<path d="M182.7 213.5C182.7 218.033 180.177 221.961 174.623 221.961C171.826 222.026 169.085 220.935 166.793 218.845L168.403 214.954C170.15 216.71 172.301 217.648 174.507 217.617C177.248 217.617 178.857 216.031 178.857 213.537C178.857 211.044 177.407 209.515 174.304 209.515H172.419V206.096L176.9 198.824H167.489V194.631H181.612V197.993L176.682 205.775C180.641 206.379 182.7 209.439 182.7 213.5Z" fill="#263238"/>
<path d="M202.043 213.934C202.043 218.939 198.81 222.056 193.662 222.056C188.515 222.056 185.18 218.939 185.122 213.934C185.078 212.558 185.365 211.198 185.941 210.044C186.518 208.89 187.357 207.999 188.341 207.494C187.538 206.964 186.864 206.153 186.395 205.152C185.927 204.151 185.681 203 185.687 201.827C185.687 197.2 188.703 194.273 193.285 194.273C197.867 194.273 201.072 197.162 201.13 201.827C201.174 202.993 200.957 204.15 200.503 205.157C200.05 206.164 199.381 206.976 198.578 207.494C199.586 207.988 200.456 208.867 201.074 210.016C201.693 211.165 202.03 212.531 202.043 213.934ZM198.157 213.783C198.157 211.12 196.33 209.458 193.488 209.458C190.646 209.458 188.949 211.12 188.993 213.783C189.036 216.446 190.762 218.127 193.604 218.127C196.446 218.127 198.201 216.427 198.157 213.689V213.783ZM189.457 202.073C189.457 204.377 190.907 205.85 193.416 205.85C195.924 205.85 197.36 204.377 197.316 202.073C197.273 199.769 195.678 198.296 193.3 198.296C190.922 198.296 189.457 199.542 189.486 201.979L189.457 202.073Z" fill="#263238"/>
<path d="M221.328 213.934C221.328 218.939 218.094 222.056 212.947 222.056C207.799 222.056 204.45 218.845 204.45 213.934C204.408 212.559 204.696 211.2 205.272 210.047C205.849 208.893 206.686 208.001 207.669 207.494C206.865 206.966 206.192 206.155 205.725 205.153C205.259 204.152 205.018 202.999 205.03 201.827C204.957 197.2 208.031 194.273 212.613 194.273C217.195 194.273 220.4 197.162 220.458 201.827C220.503 202.993 220.285 204.15 219.832 205.157C219.378 206.164 218.709 206.976 217.906 207.494C218.906 207.997 219.767 208.88 220.377 210.028C220.987 211.177 221.318 212.538 221.328 213.934ZM217.442 213.783C217.442 211.12 215.615 209.458 212.773 209.458C209.931 209.458 208.234 211.12 208.278 213.783C208.321 216.446 210.047 218.127 212.889 218.127C215.731 218.127 217.5 216.427 217.5 213.689L217.442 213.783ZM208.742 202.073C208.742 204.377 210.264 205.85 212.7 205.85C215.136 205.85 216.644 204.377 216.615 202.073C216.586 199.769 214.962 198.296 212.599 198.296C210.235 198.296 208.8 199.542 208.8 201.979L208.742 202.073Z" fill="#263238"/>
<path d="M111.244 126.374L113.81 172.024" stroke="#D4AF38" stroke-linecap="round" stroke-linejoin="round"/>
<path d="M110.069 105.56L110.751 117.61" stroke="#D4AF38" stroke-linecap="round" stroke-linejoin="round"/>
<path d="M178.886 60.1743V32.3914" stroke="#D4AF38" stroke-linecap="round" stroke-linejoin="round"/>
<path d="M161.994 66.067L151.336 42.0049" stroke="#D4AF38" stroke-linecap="round" stroke-linejoin="round"/>
<path d="M206.436 42.0049L195.779 66.067" stroke="#D4AF38" stroke-linecap="round" stroke-linejoin="round"/>
<path d="M455.141 553.448C447.814 591.766 444.849 631.278 446.339 670.718" stroke="#D4AF38" stroke-miterlimit="10"/>
<path d="M448.369 551.824C448.369 555.337 450.863 567.822 453.575 567.727C456.286 567.633 458.244 555.035 458.171 551.503C458.155 550.665 458.012 549.839 457.751 549.072C457.49 548.306 457.115 547.614 456.649 547.036C456.182 546.458 455.633 546.006 455.032 545.704C454.431 545.403 453.791 545.259 453.147 545.28C452.503 545.301 451.869 545.487 451.281 545.827C450.692 546.168 450.161 546.655 449.718 547.263C449.274 547.871 448.926 548.586 448.695 549.369C448.464 550.152 448.353 550.986 448.369 551.824Z" fill="#D4AF38"/>
<path d="M458.911 591.468C458.911 587.936 456.417 575.471 453.72 575.546C451.023 575.622 449.051 588.238 449.109 591.77C449.124 592.609 449.266 593.435 449.526 594.202C449.786 594.969 450.16 595.661 450.626 596.24C451.092 596.819 451.641 597.273 452.241 597.575C452.842 597.877 453.482 598.023 454.126 598.003C454.769 597.983 455.404 597.799 455.992 597.459C456.581 597.12 457.113 596.633 457.557 596.027C458.002 595.42 458.35 594.705 458.582 593.923C458.814 593.141 458.926 592.307 458.911 591.468Z" fill="#D4AF38"/>
<path d="M438.422 578.455C441.134 578.455 450.704 575.206 450.631 571.675C450.559 568.143 440.902 565.593 438.19 565.687C437.547 565.707 436.912 565.892 436.324 566.231C435.735 566.57 435.203 567.057 434.759 567.664C434.314 568.271 433.966 568.986 433.734 569.768C433.502 570.55 433.39 571.384 433.405 572.222C433.42 573.061 433.562 573.887 433.823 574.654C434.083 575.421 434.457 576.113 434.923 576.692C435.389 577.271 435.937 577.724 436.538 578.027C437.138 578.329 437.779 578.475 438.422 578.455Z" fill="#D4AF38"/>
<path d="M468.857 564.781C466.16 564.781 456.576 568.029 456.648 571.542C456.721 575.055 466.392 577.624 469.104 577.548C469.747 577.527 470.382 577.341 470.97 577.001C471.558 576.661 472.09 576.173 472.533 575.565C472.977 574.957 473.324 574.242 473.556 573.459C473.787 572.677 473.898 571.842 473.882 571.004C473.865 570.166 473.723 569.34 473.461 568.573C473.2 567.807 472.826 567.115 472.359 566.537C471.892 565.959 471.343 565.507 470.742 565.205C470.141 564.904 469.501 564.76 468.857 564.781Z" fill="#D4AF38"/>
<path d="M439.147 562.477C441.119 564.913 449.601 571.505 451.472 568.936C453.342 566.367 447.876 555.715 445.918 553.241C444.978 552.071 443.72 551.436 442.42 551.475C441.12 551.514 439.885 552.224 438.987 553.449C438.089 554.673 437.602 556.312 437.632 558.006C437.662 559.699 438.207 561.307 439.147 562.477Z" fill="#D4AF38"/>
<path d="M468.132 580.797C466.175 578.361 457.692 571.788 455.822 574.338C453.951 576.887 459.403 587.559 461.361 590.052C461.827 590.631 462.377 591.085 462.978 591.387C463.579 591.69 464.22 591.835 464.865 591.815C465.509 591.795 466.144 591.609 466.733 591.27C467.322 590.93 467.855 590.442 468.299 589.835C468.744 589.227 469.092 588.511 469.324 587.728C469.557 586.945 469.668 586.11 469.653 585.271C469.637 584.432 469.495 583.605 469.234 582.837C468.973 582.069 468.599 581.376 468.132 580.797Z" fill="#D4AF38"/>
<path d="M446.6 590.524C448.471 587.955 453.517 576.906 451.559 574.47C449.602 572.033 441.409 579.154 439.495 581.704C438.597 582.931 438.11 584.572 438.142 586.267C438.173 587.962 438.72 589.571 439.662 590.741C440.604 591.911 441.864 592.545 443.166 592.504C444.467 592.463 445.702 591.751 446.6 590.524Z" fill="#D4AF38"/>
<path d="M460.679 552.769C458.809 555.318 453.748 566.367 455.72 568.804C457.692 571.24 465.87 564.139 467.77 561.589C468.214 560.983 468.563 560.268 468.796 559.486C469.028 558.704 469.14 557.87 469.126 557.032C469.111 556.194 468.969 555.367 468.709 554.6C468.449 553.833 468.076 553.14 467.61 552.561C467.145 551.982 466.596 551.528 465.996 551.225C465.396 550.922 464.755 550.776 464.112 550.795C463.468 550.814 462.834 550.999 462.245 551.337C461.656 551.676 461.124 552.162 460.679 552.769Z" fill="#D4AF38"/>
<path d="M447.832 571.826C447.861 573.318 448.229 574.767 448.89 575.987C449.55 577.208 450.473 578.146 451.543 578.683C452.612 579.221 453.78 579.334 454.899 579.007C456.017 578.68 457.037 577.929 457.828 576.849C458.619 575.768 459.147 574.407 459.344 572.936C459.541 571.465 459.4 569.951 458.937 568.585C458.474 567.218 457.711 566.062 456.743 565.26C455.776 564.459 454.648 564.049 453.502 564.082C452.739 564.104 451.987 564.322 451.289 564.723C450.59 565.125 449.96 565.702 449.433 566.421C448.907 567.14 448.494 567.988 448.219 568.916C447.945 569.843 447.813 570.832 447.832 571.826Z" fill="white"/>
<path d="M447.006 628.034C447.006 628.034 448.006 608.75 456.141 605.709C464.275 602.668 467.248 598.513 467.248 598.513C467.248 598.513 466.421 628.411 447.006 628.034Z" fill="#D4AF38"/>
<path opacity="0.5" d="M447.006 628.034C447.006 628.034 448.006 608.75 456.141 605.709C464.275 602.668 467.248 598.513 467.248 598.513C467.248 598.513 466.421 628.411 447.006 628.034Z" fill="white"/>
<path d="M445.933 642.803C445.933 642.803 444.932 623.52 436.798 620.46C428.663 617.4 425.691 613.283 425.691 613.283C425.691 613.283 426.517 643.181 445.933 642.803Z" fill="#D4AF38"/>
<path opacity="0.5" d="M445.933 642.803C445.933 642.803 444.932 623.52 436.798 620.46C428.663 617.4 425.691 613.283 425.691 613.283C425.691 613.283 426.517 643.181 445.933 642.803Z" fill="white"/>
<path d="M476.615 682.976C476.615 698.086 462.855 710.211 445.89 710.211C428.925 710.211 415.164 698.029 415.164 682.976C415.164 675.421 418.688 668.471 424.386 663.541C427.977 660.491 431.968 658.327 436.16 657.158H455.619C459.919 658.363 464.007 660.612 467.669 663.787C473.208 668.716 476.615 675.478 476.615 682.976Z" fill="#D4AF38"/>
<path opacity="0.8" d="M455.619 657.158C459.919 658.363 464.007 660.612 467.669 663.787C473.208 668.716 476.615 675.478 476.615 682.976C476.615 698.086 462.855 710.211 445.89 710.211C428.925 710.211 415.164 698.029 415.164 682.976C415.164 675.421 418.688 668.471 424.386 663.541C427.977 660.491 431.968 658.327 436.16 657.158H455.619Z" fill="white"/>
<path d="M445.977 659.67V673.136" stroke="#D4AF38" stroke-miterlimit="10"/>
<path d="M469.017 656.742L467.393 663.353L467.364 663.428H424.401L424.314 663.069L422.762 656.742H469.017Z" fill="#D4AF38"/>
<path d="M472.99 688.453C469.912 694.012 465.867 698.542 461.187 701.674C453.807 706.774 422.762 708.077 419.21 685.148C419.21 684.827 419.079 684.506 419.036 684.185C418.88 682.765 418.975 681.318 419.313 679.953C419.651 678.588 420.223 677.341 420.986 676.307C421.749 675.273 422.683 674.479 423.717 673.985C424.751 673.491 425.857 673.311 426.953 673.457C429.896 673.715 432.852 673.5 435.754 672.815C446.9 670.616 458.274 671.406 469.177 675.138C470.21 675.495 471.162 676.169 471.954 677.104C472.745 678.038 473.353 679.207 473.727 680.511C474.1 681.815 474.228 683.217 474.1 684.599C473.972 685.981 473.591 687.303 472.99 688.453Z" fill="#263238"/>
<path d="M250.14 680.823C250.411 680.685 250.651 680.461 250.839 680.17C251.026 679.88 251.155 679.533 251.213 679.161C251.268 678.937 251.276 678.697 251.235 678.468C251.194 678.238 251.106 678.027 250.981 677.858C249.864 676.347 245.326 677.423 244.818 677.556C244.759 677.562 244.703 677.593 244.659 677.644C244.614 677.695 244.584 677.763 244.572 677.839C244.56 677.912 244.565 677.989 244.585 678.059C244.606 678.129 244.641 678.19 244.688 678.235C245.592 679.096 246.564 679.831 247.588 680.426C248.376 680.944 249.279 681.084 250.14 680.823ZM250.546 678.387C250.599 678.465 250.635 678.561 250.651 678.664C250.666 678.767 250.66 678.873 250.633 678.972C250.599 679.22 250.518 679.452 250.396 679.647C250.274 679.842 250.116 679.993 249.937 680.086C249.11 680.483 247.53 679.746 245.587 678.198C247.472 677.782 249.951 677.574 250.546 678.387Z" fill="#D4AF38"/>
<path d="M244.905 678.311C246.355 678.084 249.487 675.95 249.762 674.099C249.811 673.797 249.776 673.482 249.665 673.21C249.554 672.937 249.373 672.724 249.153 672.607C248.949 672.46 248.723 672.372 248.49 672.349C248.257 672.327 248.024 672.369 247.805 672.475C246.065 673.249 244.644 677.593 244.586 677.782C244.565 677.841 244.554 677.906 244.554 677.971C244.554 678.036 244.565 678.101 244.586 678.16C244.62 678.218 244.665 678.264 244.716 678.292L244.905 678.311ZM248.849 673.287C249.197 673.533 249.211 673.778 249.182 673.948C249.008 675.081 246.877 676.838 245.383 677.386C245.92 675.969 246.964 673.608 248.008 673.193C248.24 673.069 248.501 673.069 248.733 673.193L248.849 673.287Z" fill="#D4AF38"/>
<path d="M231.145 670.7L242.948 676.913L253.257 641.387L241.44 635.173L231.145 670.7Z" fill="#FFB573"/>
<path d="M244.441 675.648L231.188 668.679C230.962 668.55 230.708 668.533 230.473 668.63C230.239 668.727 230.039 668.933 229.912 669.207L224.112 681.862C223.975 682.187 223.893 682.547 223.871 682.917C223.849 683.287 223.889 683.659 223.986 684.007C224.083 684.356 224.237 684.673 224.436 684.939C224.635 685.204 224.876 685.41 225.141 685.545C229.81 687.887 232.145 688.699 237.974 691.778C241.57 693.666 246.674 696.896 251.604 699.521C256.534 702.147 258.854 695.989 256.954 694.327C248.53 686.905 248.254 682.617 246.152 677.631C245.777 676.73 245.172 676.028 244.441 675.648Z" fill="#263238"/>
<path d="M253.097 658.82L232.594 648.016L234.479 638.233L256.476 648.715L253.097 658.82Z" fill="#D4AF38"/>
<path d="M273.629 247.61C269.468 263.305 257.157 300.248 247.66 284.855C245.95 282.136 244.553 279.108 243.513 275.865C239.496 262.927 238.496 241.963 237.988 237.373L234.755 223C234.698 222.755 234.669 222.5 234.668 222.244V214.029C234.668 210.704 236.727 208.721 239.511 209.023C239.511 209.023 244.006 208.344 244.006 211.838L244.876 224.171C245.325 228.458 244.02 234.427 244.789 238.355C247.689 253.144 251.676 253.824 254.185 269.084C257.679 258.073 263.929 239.016 263.929 239.016C268.076 239.696 274.992 242.454 273.629 247.61Z" fill="#FFB573"/>
<path d="M258.752 290.484C258.1 291.809 257.21 292.908 256.16 293.686C255.11 294.465 253.93 294.9 252.722 294.954C251.514 295.008 250.314 294.679 249.225 293.996C248.137 293.312 247.191 292.295 246.471 291.031C244.752 288.056 243.402 284.749 242.469 281.229C238.699 265.118 236.364 255.146 236.045 238.317C237.381 236.559 239.07 235.324 240.918 234.753C242.766 234.182 244.7 234.298 246.5 235.088L252.677 262.342C252.677 262.342 265.248 221.64 270.338 220.186C276.326 218.467 278.82 225.436 281.358 234.011C283.185 240.168 266.945 274.033 258.752 290.484Z" fill="#D4AF38"/>
<path d="M309.546 179.446C308.096 188.89 304.935 209.515 310.01 215.823C310.01 215.823 308.023 225.399 294.553 225.399C279.719 225.399 287.462 215.823 287.462 215.823C295.553 213.311 295.336 205.492 293.929 198.145L309.546 179.446Z" fill="#FFB573"/>
<path d="M286.882 157.273C286.969 157.291 287.057 157.291 287.143 157.273C287.277 157.177 287.377 157.017 287.423 156.827C287.469 156.637 287.457 156.432 287.39 156.253C287.002 155.168 286.419 154.221 285.689 153.494C284.959 152.767 284.105 152.282 283.199 152.079C283.124 152.066 283.047 152.073 282.974 152.099C282.9 152.125 282.832 152.171 282.772 152.233C282.713 152.294 282.663 152.371 282.627 152.458C282.591 152.545 282.568 152.641 282.561 152.74C282.551 152.838 282.556 152.938 282.577 153.034C282.597 153.129 282.632 153.219 282.679 153.296C282.726 153.374 282.785 153.438 282.852 153.485C282.919 153.533 282.993 153.562 283.069 153.571C283.782 153.752 284.453 154.152 285.025 154.736C285.597 155.32 286.055 156.073 286.36 156.933C286.416 157.045 286.494 157.135 286.586 157.195C286.678 157.254 286.78 157.281 286.882 157.273Z" fill="#263238"/>
<path d="M282.46 165.432C281.312 168.194 279.878 170.736 278.197 172.987C278.652 173.53 279.193 173.939 279.781 174.183C280.369 174.428 280.991 174.503 281.604 174.403L282.46 165.432Z" fill="#ED893E"/>
<path d="M283.62 162.675C283.837 163.921 283.489 165.092 282.866 165.262C282.242 165.432 281.546 164.563 281.343 163.373C281.14 162.183 281.474 160.956 282.112 160.767C282.75 160.578 283.417 161.409 283.62 162.675Z" fill="#263238"/>
<path d="M282.402 160.71L279.937 160.484C279.937 160.484 281.518 162.505 282.402 160.71Z" fill="#263238"/>
<path opacity="0.2" d="M273.107 239.564C275.674 236.485 277.457 237.411 278.588 239.847C279.763 246.911 272.788 261.719 270.048 267.328L273.107 239.564Z" fill="black"/>
<path d="M332.485 248.875C332.151 256.657 331.586 266.459 330.672 278.792C329.715 291.806 328.352 307.614 326.482 326.822C306.776 326.822 286.143 326.426 276.558 326.426C277.37 300.909 277.66 275.053 268.873 224.284C268.763 223.655 268.751 223.003 268.838 222.367C268.925 221.732 269.11 221.126 269.38 220.585C269.651 220.044 270.002 219.579 270.413 219.219C270.824 218.858 271.287 218.609 271.773 218.486C277.501 217.133 283.288 216.244 289.101 215.823C296.607 215.123 304.142 215.123 311.648 215.823C321.32 216.975 332.311 219.902 332.311 219.902C332.311 219.902 333.5 224.586 332.485 248.875Z" fill="#D4AF38"/>
<path opacity="0.2" d="M332.485 248.875C332.151 256.657 331.586 266.459 330.672 278.792C325.365 270.784 320.348 243.209 321.972 233.784C325.928 237.595 329.406 242.183 332.282 247.383C332.37 247.875 332.438 248.373 332.485 248.875Z" fill="black"/>
<path d="M383.656 283.439L393.806 276.035L395.691 289.501C395.691 289.501 387.136 293.789 382.641 290.786L383.656 283.439Z" fill="#FFB573"/>
<path d="M400.519 277.565L401.229 281.965C401.334 282.64 401.283 283.34 401.085 283.978C400.886 284.616 400.548 285.164 400.113 285.554L395.647 289.483L393.762 276.016L397.256 274.883C397.606 274.769 397.97 274.748 398.326 274.823C398.682 274.897 399.023 275.065 399.328 275.315C399.633 275.566 399.895 275.895 400.1 276.281C400.305 276.668 400.447 277.104 400.519 277.565Z" fill="#FFB573"/>
<path d="M322.77 235.503C326.004 244.078 337.865 276.469 343.07 283.949L344.1 285.346L344.607 286.045C344.781 286.272 344.926 286.479 345.202 286.801C346.137 287.958 347.168 288.978 348.276 289.841C350.253 291.329 352.381 292.448 354.598 293.165C358.483 294.34 362.473 294.829 366.459 294.62C373.885 294.233 381.244 292.608 388.353 289.785L387.15 281.928C383.801 282.305 380.292 282.57 376.899 282.645C373.536 282.774 370.171 282.636 366.821 282.23C363.715 281.939 360.648 281.159 357.686 279.907C356.49 279.383 355.357 278.639 354.322 277.697C353.926 277.334 353.561 276.916 353.235 276.45C353.12 276.296 353.013 276.132 352.916 275.959L352.539 275.374L351.77 274.203C347.768 267.668 337.198 236.164 334.022 228.288L322.77 235.503Z" fill="#FFB573"/>
<path d="M383.496 296.848C375.139 302.634 365.363 303.87 356.308 300.286C347.671 296.668 340.384 288.975 335.878 278.717C330.643 268.688 316.709 240.319 318.478 232.991C320.551 224.228 324.959 218.788 332.325 221.149C337.502 222.773 347.376 255.523 352.161 268.612C354.032 272.257 357.628 278.056 361.644 279.831C368.735 283.023 373.955 281.72 381.379 280.266C382.742 281.323 382.64 282.966 383.322 284.798C384.054 286.657 384.45 288.709 384.48 290.797C384.51 292.886 384.173 294.955 383.496 296.848Z" fill="#D4AF38"/>
<path d="M316.854 164.318C314.635 179.843 313.954 186.472 307.11 193.536C296.844 204.151 282.677 197.2 281.3 181.108C280.053 166.622 283.895 143.655 296.249 139.33C298.97 138.358 301.836 138.308 304.575 139.184C307.315 140.061 309.837 141.836 311.901 144.34C313.966 146.843 315.505 149.993 316.372 153.49C317.238 156.987 317.404 160.714 316.854 164.318Z" fill="#FFB573"/>
<path d="M359.165 250.273C356.888 253.654 356.178 255.618 353.002 257.45C349.827 259.282 342.954 257.677 340.764 254.183C341.475 256.902 345.622 261.737 347.797 262.172C345.342 263.925 342.502 264.536 339.745 263.905C336.987 263.273 334.478 261.436 332.63 258.697C332.933 260.4 333.567 261.973 334.471 263.266C335.375 264.559 336.518 265.529 337.792 266.081C310.01 267.026 321.711 249.99 304.311 225.757C285.055 198.938 289.231 176.764 289.231 176.764C289.277 171.242 287.95 165.848 285.447 161.39C282.663 156.744 283.475 150.473 284.359 146.96C285.65 141.804 289.579 139.991 293.349 139.689C294.016 134.608 302.049 135.534 303.021 136.384C303.992 137.234 304.108 137.064 304.993 136.384C306.95 134.741 311.88 133.041 317.158 138.593C320.377 141.993 323.828 148.037 323.944 161.031C324.06 174.498 319.116 190.495 336.226 210.95C346.303 222.962 341.475 248.856 359.165 250.273Z" fill="#263238"/>
<path d="M286.94 165.489C285.592 167.979 285.031 171.049 285.374 174.063C285.867 178.049 288.84 178.313 291 175.763C293.161 173.214 295.046 168.605 293.451 165.3C291.856 161.995 288.622 162.467 286.94 165.489Z" fill="#FFB573"/>
<path d="M313.852 326.803C313.852 326.803 307.922 435.234 301.252 506.741C299.246 528.201 294.223 548.996 286.433 568.086L253.75 648.47L236.988 639.876C236.988 639.876 248.588 563.478 271.193 521.813C271.193 521.813 254.286 397.29 276.413 326.426L313.852 326.803Z" fill="#263238"/>
<path opacity="0.2" d="M291.058 353.075C291.058 353.075 296.046 402.182 298.772 431.4C288.55 413.835 280.618 389.32 291.058 353.075Z" fill="black"/>
<path d="M356.178 691.003C356.373 690.721 356.508 690.377 356.569 690.006C356.63 689.635 356.615 689.249 356.526 688.888C356.492 688.656 356.411 688.441 356.291 688.265C356.171 688.088 356.017 687.958 355.845 687.887C354.293 687.207 350.683 690.89 350.277 691.305C350.232 691.356 350.198 691.421 350.181 691.494C350.163 691.568 350.161 691.646 350.175 691.721C350.193 691.79 350.226 691.852 350.269 691.899C350.313 691.945 350.366 691.975 350.421 691.985C351.549 692.209 352.692 692.266 353.829 692.155C354.691 692.137 355.521 691.73 356.178 691.003ZM355.642 688.623C355.719 688.653 355.788 688.712 355.84 688.793C355.891 688.873 355.923 688.972 355.931 689.077C355.995 689.312 356.01 689.566 355.974 689.811C355.939 690.057 355.854 690.285 355.728 690.474C355.148 691.324 353.495 691.627 351.233 691.324C352.712 689.889 354.83 688.246 355.642 688.623Z" fill="#D4AF38"/>
<path d="M350.639 691.929C351.784 690.89 353.829 687.094 353.394 685.299C353.325 685.001 353.179 684.742 352.981 684.567C352.783 684.391 352.545 684.31 352.306 684.336C352.075 684.328 351.846 684.384 351.633 684.501C351.421 684.619 351.23 684.794 351.074 685.016C349.812 686.754 350.146 691.438 350.16 691.645C350.169 691.713 350.189 691.776 350.219 691.832C350.249 691.887 350.289 691.933 350.334 691.967C350.387 691.984 350.441 691.984 350.494 691.967C350.544 691.974 350.595 691.96 350.639 691.929ZM352.292 685.11C352.683 685.11 352.785 685.337 352.828 685.507C353.075 686.621 351.842 689.436 350.726 690.814C350.557 688.994 350.831 687.152 351.509 685.545C351.673 685.306 351.901 685.158 352.147 685.129L352.292 685.11Z" fill="#D4AF38"/>
<path d="M335.704 693.459L348.406 691.872L344.52 654.287L331.818 655.892L335.704 693.459Z" fill="#FFB573"/>
<path d="M349.261 689.889L334.993 691.683C334.748 691.706 334.518 691.846 334.347 692.076C334.176 692.306 334.076 692.61 334.065 692.93L333.543 707.605C333.544 707.978 333.604 708.346 333.721 708.686C333.838 709.026 334.009 709.33 334.223 709.578C334.437 709.825 334.688 710.012 334.961 710.124C335.233 710.237 335.521 710.273 335.805 710.23C340.764 709.513 343.055 708.833 349.406 708.039C353.263 707.548 358.947 707.359 364.283 706.698C369.619 706.037 369.373 699.238 367.183 698.898C357.033 697.406 355.163 693.817 351.538 690.625C350.868 690.043 350.063 689.782 349.261 689.889Z" fill="#263238"/>
<path d="M326.409 326.784C326.409 326.784 342.664 456.18 345.781 532.824L346.376 670.133L333.224 673.476C333.224 673.476 314.186 585.878 311.982 535.241C306.182 400.916 272.585 400.69 292.798 326.539L326.409 326.784Z" fill="#263238"/>
<path d="M350.74 670.7L328.976 674.571L326.757 663.693L350.03 659.745L350.74 670.7Z" fill="#D4AF38"/>
<path d="M233.45 187.964H234.276C234.08 187.964 233.885 188.016 233.704 188.117C233.523 188.217 233.36 188.365 233.225 188.551C233.089 188.736 232.984 188.956 232.915 189.196C232.847 189.436 232.817 189.692 232.826 189.948L234.16 222.83C234.2 223.346 234.385 223.825 234.679 224.173C234.974 224.522 235.357 224.717 235.755 224.719H234.9C234.503 224.712 234.121 224.517 233.827 224.169C233.533 223.821 233.347 223.344 233.305 222.83L232 189.948C231.99 189.692 232.02 189.436 232.089 189.196C232.157 188.956 232.262 188.736 232.398 188.551C232.534 188.365 232.697 188.217 232.878 188.117C233.059 188.016 233.253 187.964 233.45 187.964Z" fill="#D4AF38"/>
<path opacity="0.1" d="M233.45 187.964H234.276C234.08 187.964 233.885 188.016 233.704 188.117C233.523 188.217 233.36 188.365 233.225 188.551C233.089 188.736 232.984 188.956 232.915 189.196C232.847 189.436 232.817 189.692 232.826 189.948L234.16 222.83C234.2 223.346 234.385 223.825 234.679 224.173C234.974 224.522 235.357 224.717 235.755 224.719H234.9C234.503 224.712 234.121 224.517 233.827 224.169C233.533 223.821 233.347 223.344 233.305 222.83L232 189.948C231.99 189.692 232.02 189.436 232.089 189.196C232.157 188.956 232.262 188.736 232.398 188.551C232.534 188.365 232.697 188.217 232.878 188.117C233.059 188.016 233.253 187.964 233.45 187.964Z" fill="white"/>
<path d="M235.117 224.813H245.267C245.652 224.813 246.021 224.614 246.293 224.26C246.565 223.906 246.717 223.425 246.717 222.924L245.398 190.042C245.373 189.511 245.194 189.011 244.898 188.644C244.603 188.276 244.212 188.067 243.803 188.059H233.653C233.456 188.059 233.262 188.11 233.081 188.211C232.9 188.312 232.737 188.459 232.601 188.645C232.466 188.831 232.36 189.05 232.292 189.29C232.223 189.53 232.193 189.786 232.203 190.042L233.522 222.924C233.565 223.439 233.751 223.915 234.045 224.263C234.339 224.611 234.72 224.807 235.117 224.813Z" fill="#D4AF38"/>
<path opacity="0.4" d="M235.117 224.813H245.267C245.652 224.813 246.021 224.614 246.293 224.26C246.565 223.906 246.717 223.425 246.717 222.924L245.398 190.042C245.373 189.511 245.194 189.011 244.898 188.644C244.603 188.276 244.212 188.067 243.803 188.059H233.653C233.456 188.059 233.262 188.11 233.081 188.211C232.9 188.312 232.737 188.459 232.601 188.645C232.466 188.831 232.36 189.05 232.292 189.29C232.223 189.53 232.193 189.786 232.203 190.042L233.522 222.924C233.565 223.439 233.751 223.915 234.045 224.263C234.339 224.611 234.72 224.807 235.117 224.813Z" fill="white"/>
<path d="M246.108 222.15C246.116 222.315 246.099 222.48 246.056 222.636C246.014 222.792 245.948 222.935 245.862 223.057C245.68 223.288 245.435 223.417 245.18 223.415H235.306C235.03 223.411 234.765 223.27 234.566 223.021C234.367 222.772 234.248 222.434 234.233 222.074L232.942 190.174C232.933 190.012 232.95 189.849 232.993 189.696C233.035 189.543 233.102 189.403 233.189 189.286C233.276 189.165 233.382 189.069 233.499 189.004C233.616 188.939 233.743 188.906 233.87 188.909H243.745C244.021 188.913 244.286 189.054 244.485 189.303C244.684 189.552 244.803 189.891 244.818 190.25L244.905 192.535L246.108 222.15Z" fill="#263238"/>
<g opacity="0.1">
<path d="M244.905 192.535L241.628 223.378H237.699L241.411 188.871H243.745C244.021 188.875 244.286 189.016 244.485 189.265C244.684 189.514 244.804 189.853 244.818 190.212L244.905 192.535Z" fill="white"/>
<path d="M236.278 223.416H235.393L239.105 188.909H239.99L236.278 223.416Z" fill="white"/>
</g>
<path d="M273.354 330.467C265.971 349.42 262.004 370.317 261.754 391.567C286.404 416.479 309.357 387.299 337.574 392.228C336.588 375.627 332.253 345.011 327.12 329.674C308.429 330.713 290.971 328.277 273.354 330.467Z" fill="#D4AF38"/>
<path d="M275.92 323.725C275.92 323.725 273.934 330.392 274.47 330.392H326.25C326.699 330.392 327.062 330.109 327.091 329.731L327.54 324.065C327.54 323.668 327.178 323.328 326.699 323.328H276.732C276.582 323.302 276.43 323.324 276.288 323.393C276.146 323.462 276.02 323.576 275.92 323.725Z" fill="white"/>
<path d="M283.214 331.034H281.88C281.604 331.034 281.401 330.845 281.416 330.619L282.054 323.064C282.054 322.837 282.3 322.667 282.561 322.667H283.91C284.171 322.667 284.374 322.837 284.359 323.064L283.736 330.619C283.695 330.752 283.622 330.865 283.528 330.94C283.434 331.015 283.324 331.048 283.214 331.034Z" fill="#D4AF38"/>
<path d="M315.636 331.034H314.302C314.041 331.034 313.838 330.845 313.852 330.619L314.476 323.064C314.476 322.837 314.722 322.667 314.998 322.667H316.332C316.593 322.667 316.796 322.837 316.781 323.064L316.158 330.619C316.1 330.77 315.911 331.034 315.636 331.034Z" fill="#D4AF38"/>
</g>
<defs>
<clipPath id="clip0_3335_24190">
<rect width="725" height="725" fill="white"/>
</clipPath>
</defs>
</svg>
