<svg width="30" height="30" viewBox="0 0 30 30" fill="none" xmlns="http://www.w3.org/2000/svg">
<path d="M12.9058 5.39664C13.4388 3.20112 16.5612 3.20112 17.0942 5.39664C17.4385 6.81491 19.0634 7.48797 20.3098 6.72856C22.2391 5.55299 24.447 7.76088 23.2714 9.69023C22.512 10.9366 23.1851 12.5615 24.6034 12.9058C26.7989 13.4388 26.7989 16.5612 24.6034 17.0942C23.1851 17.4385 22.512 19.0634 23.2714 20.3098C24.447 22.2391 22.2391 24.447 20.3098 23.2714C19.0634 22.512 17.4385 23.1851 17.0942 24.6034C16.5612 26.7989 13.4388 26.7989 12.9058 24.6034C12.5615 23.1851 10.9366 22.512 9.69023 23.2714C7.76088 24.447 5.55299 22.2391 6.72856 20.3098C7.48797 19.0634 6.81491 17.4385 5.39664 17.0942C3.20112 16.5612 3.20112 13.4388 5.39664 12.9058C6.81491 12.5615 7.48797 10.9366 6.72856 9.69023C5.55299 7.76088 7.76088 5.55299 9.69023 6.72856C10.9366 7.48797 12.5615 6.81491 12.9058 5.39664Z" stroke="black" stroke-width="2" stroke-linecap="round" stroke-linejoin="round"/>
<path d="M18.75 15C18.75 17.0711 17.0711 18.75 15 18.75C12.9289 18.75 11.25 17.0711 11.25 15C11.25 12.9289 12.9289 11.25 15 11.25C17.0711 11.25 18.75 12.9289 18.75 15Z" stroke="black" stroke-width="2" stroke-linecap="round" stroke-linejoin="round"/>
</svg>
