<svg width="24" height="24" viewBox="0 0 24 24" fill="none" xmlns="http://www.w3.org/2000/svg">
<g clip-path="url(#clip0_3154_11618)">
<path fill-rule="evenodd" clip-rule="evenodd" d="M3.75 0.75C2.95435 0.75 2.19129 1.06607 1.62868 1.62868C1.06607 2.19129 0.75 2.95435 0.75 3.75V8.25C0.75 9.04565 1.06607 9.80871 1.62868 10.3713C2.19129 10.9339 2.95435 11.25 3.75 11.25H8.25C9.04565 11.25 9.80871 10.9339 10.3713 10.3713C10.9339 9.80871 11.25 9.04565 11.25 8.25V3.75C11.25 2.95435 10.9339 2.19129 10.3713 1.62868C9.80871 1.06607 9.04565 0.75 8.25 0.75H3.75ZM18.7313 1.33387C18.6935 1.16818 18.6006 1.02021 18.4677 0.914231C18.3349 0.808248 18.1699 0.750529 18 0.750529C17.8301 0.750529 17.6651 0.808248 17.5323 0.914231C17.3994 1.02021 17.3065 1.16818 17.2687 1.33387L16.8536 3.15863C16.7596 3.57219 16.5505 3.95074 16.2506 4.25064C15.9507 4.55054 15.5722 4.75957 15.1586 4.85362L13.3335 5.26875C13.1678 5.30651 13.0198 5.39943 12.9139 5.53229C12.8079 5.66514 12.7502 5.83005 12.7502 6C12.7502 6.16995 12.8079 6.33486 12.9139 6.46771C13.0198 6.60057 13.1678 6.69349 13.3335 6.73125L15.1586 7.14637C15.5722 7.24043 15.9507 7.44946 16.2506 7.74936C16.5505 8.04926 16.7596 8.42781 16.8536 8.84138L17.2687 10.6661C17.3065 10.8318 17.3994 10.9798 17.5323 11.0858C17.6651 11.1918 17.8301 11.2495 18 11.2495C18.1699 11.2495 18.3349 11.1918 18.4677 11.0858C18.6006 10.9798 18.6935 10.8318 18.7313 10.6661L19.1464 8.84138C19.2404 8.42781 19.4495 8.04926 19.7494 7.74936C20.0493 7.44946 20.4278 7.24043 20.8414 7.14637L22.6665 6.73125C22.8322 6.69349 22.9802 6.60057 23.0861 6.46771C23.1921 6.33486 23.2498 6.16995 23.2498 6C23.2498 5.83005 23.1921 5.66514 23.0861 5.53229C22.9802 5.39943 22.8322 5.30651 22.6665 5.26875L20.8414 4.85362C20.4278 4.75957 20.0493 4.55054 19.7494 4.25064C19.4495 3.95074 19.2404 3.57219 19.1464 3.15863L18.7313 1.33387ZM0.75 15.75C0.75 14.9544 1.06607 14.1913 1.62868 13.6287C2.19129 13.0661 2.95435 12.75 3.75 12.75H8.25C9.04565 12.75 9.80871 13.0661 10.3713 13.6287C10.9339 14.1913 11.25 14.9544 11.25 15.75V20.25C11.25 21.0456 10.9339 21.8087 10.3713 22.3713C9.80871 22.9339 9.04565 23.25 8.25 23.25H3.75C2.95435 23.25 2.19129 22.9339 1.62868 22.3713C1.06607 21.8087 0.75 21.0456 0.75 20.25V15.75ZM15.75 12.75C14.9544 12.75 14.1913 13.0661 13.6287 13.6287C13.0661 14.1913 12.75 14.9544 12.75 15.75V20.25C12.75 21.0456 13.0661 21.8087 13.6287 22.3713C14.1913 22.9339 14.9544 23.25 15.75 23.25H20.25C21.0456 23.25 21.8087 22.9339 22.3713 22.3713C22.9339 21.8087 23.25 21.0456 23.25 20.25V15.75C23.25 14.9544 22.9339 14.1913 22.3713 13.6287C21.8087 13.0661 21.0456 12.75 20.25 12.75H15.75Z" fill="#0F0E0E"/>
</g>
<defs>
<clipPath id="clip0_3154_11618">
<rect width="24" height="24" fill="white"/>
</clipPath>
</defs>
</svg>
