<svg width="30" height="30" viewBox="0 0 30 30" fill="none" xmlns="http://www.w3.org/2000/svg">
<path d="M26.25 15H25.25C25.25 20.6609 20.6609 25.25 15 25.25V26.25V27.25C21.7655 27.25 27.25 21.7655 27.25 15H26.25ZM15 26.25V25.25C9.33908 25.25 4.75 20.6609 4.75 15H3.75H2.75C2.75 21.7655 8.23451 27.25 15 27.25V26.25ZM3.75 15H4.75C4.75 9.33908 9.33908 4.75 15 4.75V3.75V2.75C8.23451 2.75 2.75 8.23451 2.75 15H3.75ZM15 3.75V4.75C20.6609 4.75 25.25 9.33908 25.25 15H26.25H27.25C27.25 8.23451 21.7655 2.75 15 2.75V3.75ZM20 15H19C19 17.2091 17.2091 19 15 19V20V21C18.3137 21 21 18.3137 21 15H20ZM15 20V19C12.7909 19 11 17.2091 11 15H10H9C9 18.3137 11.6863 21 15 21V20ZM10 15H11C11 12.7909 12.7909 11 15 11V10V9C11.6863 9 9 11.6863 9 15H10ZM15 10V11C17.2091 11 19 12.7909 19 15H20H21C21 11.6863 18.3137 9 15 9V10ZM22.955 7.04505L22.2478 6.33794L17.8284 10.7574L18.5355 11.4645L19.2426 12.1716L23.6621 7.75216L22.955 7.04505ZM18.5355 18.5355L17.8284 19.2426L22.2478 23.6621L22.955 22.955L23.6621 22.2478L19.2426 17.8284L18.5355 18.5355ZM11.4645 11.4645L12.1716 10.7574L7.75216 6.33794L7.04505 7.04505L6.33794 7.75216L10.7574 12.1716L11.4645 11.4645ZM11.4645 18.5355L10.7574 17.8284L6.33794 22.2478L7.04505 22.955L7.75216 23.6621L12.1716 19.2426L11.4645 18.5355Z" fill="black"/>
</svg>
