<svg width="93" height="93" viewBox="0 0 93 93" fill="none" xmlns="http://www.w3.org/2000/svg">
<g style="mix-blend-mode:multiply" filter="url(#filter0_f_3182_13065)">
<circle cx="46.1836" cy="46.1826" r="19" fill="url(#paint0_linear_3182_13065)"/>
</g>
<circle cx="46.1836" cy="33.1826" r="24" fill="url(#paint1_linear_3182_13065)" stroke="#CEA07A"/>
<path fill-rule="evenodd" clip-rule="evenodd" d="M53.1836 32.1826V29.1826C53.1836 25.3166 50.0496 22.1826 46.1836 22.1826C42.3176 22.1826 39.1836 25.3166 39.1836 29.1826V32.1826C39.1836 35.4826 36.1836 36.2826 36.1836 38.1826C36.1836 39.8826 40.0836 41.1826 46.1836 41.1826C52.2836 41.1826 56.1836 39.8826 56.1836 38.1826C56.1836 36.2826 53.1836 35.4826 53.1836 32.1826Z" stroke="white" stroke-width="2" stroke-linecap="round" stroke-linejoin="round"/>
<path d="M46.1831 43.1825C45.1721 43.1825 44.2221 43.1485 43.3281 43.0825C43.7193 44.3303 44.8755 45.1795 46.1831 45.1795C47.4908 45.1795 48.647 44.3303 49.0381 43.0825C48.1441 43.1485 47.1941 43.1825 46.1831 43.1825Z" fill="white"/>
<defs>
<filter id="filter0_f_3182_13065" x="0.000776291" y="-0.000200272" width="92.3656" height="92.3656" filterUnits="userSpaceOnUse" color-interpolation-filters="sRGB">
<feFlood flood-opacity="0" result="BackgroundImageFix"/>
<feBlend mode="normal" in="SourceGraphic" in2="BackgroundImageFix" result="shape"/>
<feGaussianBlur stdDeviation="13.5914" result="effect1_foregroundBlur_3182_13065"/>
</filter>
<linearGradient id="paint0_linear_3182_13065" x1="46.1836" y1="27.1826" x2="46.1836" y2="65.1826" gradientUnits="userSpaceOnUse">
<stop stop-color="#C28859"/>
<stop offset="1" stop-color="#8C603D"/>
</linearGradient>
<linearGradient id="paint1_linear_3182_13065" x1="46.1836" y1="9.18262" x2="46.1836" y2="57.1826" gradientUnits="userSpaceOnUse">
<stop stop-color="#C28859"/>
<stop offset="1" stop-color="#8C603D"/>
</linearGradient>
</defs>
</svg>
