<svg width="726" height="705" viewBox="0 0 726 705" fill="none" xmlns="http://www.w3.org/2000/svg">
<path d="M313.088 704.332C465.756 704.332 589.518 696.621 589.518 687.111C589.518 677.6 465.756 669.89 313.088 669.89C160.421 669.89 36.6592 677.6 36.6592 687.111C36.6592 696.621 160.421 704.332 313.088 704.332Z" fill="#B5B5B5"/>
<path opacity="0.8" d="M313.088 704.332C465.756 704.332 589.518 696.621 589.518 687.111C589.518 677.6 465.756 669.89 313.088 669.89C160.421 669.89 36.6592 677.6 36.6592 687.111C36.6592 696.621 160.421 704.332 313.088 704.332Z" fill="white"/>
<path d="M520.813 32.2672H242.864C223.674 32.2672 208.118 47.8235 208.118 67.0131V653.813C208.118 673.003 223.674 688.559 242.864 688.559H520.813C540.003 688.559 555.559 673.003 555.559 653.813V67.0131C555.559 47.8235 540.003 32.2672 520.813 32.2672Z" fill="#B5B5B5"/>
<path d="M540.108 104.334H223.55V616.492H540.108V104.334Z" fill="white" stroke="#B5B5B5" stroke-width="1.33739" stroke-miterlimit="10"/>
<path d="M430.356 311.722C457.152 284.926 457.152 241.481 430.356 214.685C403.56 187.889 360.115 187.889 333.319 214.685C306.523 241.481 306.523 284.926 333.319 311.722C360.115 338.518 403.56 338.518 430.356 311.722Z" fill="#B5B5B5"/>
<path d="M471.922 584.285H291.772C291.367 584.288 290.965 584.21 290.59 584.056C290.215 583.903 289.873 583.677 289.586 583.391C289.298 583.105 289.07 582.765 288.915 582.391C288.759 582.016 288.679 581.615 288.679 581.21C288.676 580.803 288.755 580.399 288.909 580.023C289.064 579.646 289.292 579.304 289.58 579.017C289.867 578.729 290.209 578.501 290.586 578.347C290.962 578.192 291.366 578.114 291.772 578.116H471.922C472.327 578.116 472.729 578.196 473.103 578.352C473.477 578.507 473.817 578.736 474.103 579.023C474.389 579.311 474.615 579.652 474.769 580.027C474.922 580.402 475 580.804 474.998 581.21C474.998 582.025 474.674 582.808 474.097 583.385C473.52 583.961 472.738 584.285 471.922 584.285Z" fill="#B5B5B5"/>
<path d="M477.787 370.392H285.889C281.929 370.392 278.718 373.602 278.718 377.563V400.184C278.718 404.144 281.929 407.355 285.889 407.355H477.787C481.748 407.355 484.958 404.144 484.958 400.184V377.563C484.958 373.602 481.748 370.392 477.787 370.392Z" fill="#B5B5B5"/>
<path d="M477.787 439.526H285.889C281.929 439.526 278.718 442.736 278.718 446.697V469.318C278.718 473.278 281.929 476.489 285.889 476.489H477.787C481.748 476.489 484.958 473.278 484.958 469.318V446.697C484.958 442.736 481.748 439.526 477.787 439.526Z" fill="#B5B5B5"/>
<path d="M416.003 297.43L395.814 285.807V276.204C398.737 272.667 400.855 268.536 402.019 264.097C402.714 264.344 403.445 264.471 404.183 264.473C406.686 264.473 408.278 256.712 408.546 251.168C411.461 244.999 407.491 241.386 407.491 241.386C407.491 241.386 409.136 239.741 410.227 233.142C411.318 226.544 406.382 229.298 402.537 223.253C398.693 217.209 395.939 210.628 383.314 210.628C379.835 210.514 376.402 211.449 373.462 213.311C370.521 215.174 368.209 217.878 366.826 221.072C363.683 221.083 360.552 221.449 357.491 222.163C353.629 223.253 352.538 235.896 355.828 240.85C357.301 243.557 358.087 246.584 358.117 249.666C357.241 248.593 356.329 248.307 355.828 250.739C354.737 256.229 359.136 263.918 359.136 263.918L361.407 263.275C362.552 268.018 364.759 272.439 367.863 276.204V285.807L347.674 297.43C345.316 298.792 343.358 300.749 341.995 303.106C340.633 305.464 339.915 308.138 339.913 310.86V317.513C351.92 326.789 366.665 331.821 381.838 331.821C397.012 331.821 411.757 326.789 423.764 317.513V310.86C423.766 308.137 423.049 305.462 421.686 303.104C420.324 300.746 418.363 298.789 416.003 297.43Z" fill="#B5B5B5"/>
<path d="M304.845 467.297C304.382 467.291 303.939 467.105 303.611 466.779C303.435 466.621 303.294 466.428 303.199 466.213C303.103 465.997 303.055 465.763 303.056 465.527C303.062 465.204 303.155 464.889 303.325 464.615L306.543 459.465L300.267 459.661C300.03 459.676 299.793 459.641 299.571 459.558C299.349 459.475 299.148 459.345 298.979 459.179C298.687 458.851 298.526 458.428 298.526 457.989C298.526 457.551 298.687 457.128 298.979 456.8C299.144 456.628 299.345 456.493 299.567 456.407C299.79 456.32 300.028 456.284 300.267 456.3L306.454 456.532L303.271 451.4C303.098 451.12 303.005 450.799 303.003 450.47C303.001 450.234 303.049 450 303.145 449.784C303.241 449.568 303.381 449.375 303.557 449.218C303.886 448.892 304.328 448.706 304.791 448.699C305.096 448.701 305.394 448.79 305.65 448.955C305.906 449.119 306.111 449.353 306.239 449.629L309.297 455.155L312.32 449.665C312.463 449.372 312.684 449.124 312.958 448.948C313.232 448.771 313.549 448.673 313.875 448.664C314.101 448.665 314.325 448.713 314.531 448.806C314.737 448.898 314.922 449.032 315.073 449.2C315.402 449.541 315.582 449.997 315.574 450.47C315.573 450.777 315.493 451.079 315.342 451.346L312.105 456.532L318.382 456.3C318.62 456.284 318.859 456.32 319.081 456.407C319.304 456.493 319.505 456.628 319.669 456.8C319.974 457.117 320.141 457.541 320.134 457.981C320.133 458.424 319.967 458.851 319.669 459.179C319.501 459.345 319.299 459.475 319.077 459.558C318.855 459.641 318.618 459.676 318.382 459.661L312.069 459.465L315.216 464.561C315.393 464.846 315.486 465.174 315.485 465.509C315.485 465.983 315.296 466.438 314.961 466.774C314.626 467.109 314.171 467.297 313.696 467.297C313.39 467.293 313.091 467.2 312.837 467.028C312.583 466.857 312.384 466.615 312.266 466.332L309.279 460.967L306.311 466.332C306.179 466.612 305.973 466.851 305.714 467.021C305.455 467.192 305.154 467.287 304.845 467.297Z" fill="#B5B5B5"/>
<path d="M333.85 467.297C333.387 467.291 332.945 467.105 332.616 466.779C332.441 466.621 332.3 466.428 332.205 466.213C332.109 465.997 332.06 465.763 332.062 465.527C332.068 465.204 332.16 464.889 332.33 464.615L335.549 459.465L329.29 459.662C329.051 459.672 328.813 459.635 328.589 459.552C328.364 459.469 328.159 459.342 327.985 459.179C327.748 458.934 327.589 458.623 327.531 458.287C327.473 457.951 327.517 457.605 327.657 457.295C327.798 456.984 328.029 456.723 328.321 456.546C328.612 456.368 328.95 456.282 329.29 456.3L335.46 456.532L332.277 451.4C332.104 451.12 332.011 450.799 332.008 450.47C332.007 450.234 332.055 450 332.151 449.784C332.246 449.568 332.387 449.375 332.563 449.218C332.891 448.892 333.334 448.706 333.797 448.7C334.101 448.701 334.399 448.79 334.656 448.955C334.912 449.119 335.117 449.353 335.245 449.629L338.303 455.155L341.325 449.665C341.469 449.372 341.689 449.124 341.964 448.948C342.238 448.771 342.555 448.673 342.881 448.664C343.107 448.663 343.331 448.71 343.538 448.803C343.745 448.895 343.929 449.031 344.079 449.2C344.245 449.367 344.376 449.565 344.465 449.783C344.554 450.001 344.599 450.235 344.598 450.47C344.591 450.779 344.505 451.081 344.347 451.346L341.111 456.532L347.405 456.335C347.641 456.319 347.877 456.356 348.097 456.443C348.316 456.529 348.514 456.664 348.675 456.836C348.98 457.153 349.147 457.577 349.14 458.016C349.139 458.46 348.973 458.886 348.675 459.214C348.51 459.381 348.311 459.51 348.092 459.593C347.873 459.676 347.639 459.712 347.405 459.697L341.075 459.501L344.222 464.597C344.399 464.882 344.492 465.21 344.491 465.545C344.491 466.019 344.302 466.474 343.967 466.809C343.631 467.145 343.177 467.333 342.702 467.333C342.396 467.329 342.097 467.236 341.843 467.064C341.589 466.892 341.39 466.65 341.272 466.367L338.285 461.003L335.317 466.367C335.18 466.641 334.971 466.873 334.713 467.036C334.455 467.2 334.156 467.291 333.85 467.297Z" fill="#B5B5B5"/>
<path d="M362.874 467.297C362.405 467.295 361.955 467.109 361.622 466.779C361.446 466.621 361.306 466.428 361.21 466.213C361.115 465.997 361.066 465.763 361.068 465.527C361.073 465.204 361.166 464.889 361.336 464.615L364.555 459.465L358.296 459.662C357.959 459.675 357.625 459.588 357.338 459.411C357.051 459.234 356.823 458.976 356.683 458.669C356.543 458.362 356.497 458.021 356.552 457.688C356.607 457.355 356.759 457.046 356.99 456.8C357.159 456.628 357.363 456.494 357.589 456.408C357.814 456.321 358.055 456.285 358.296 456.3L364.465 456.532L361.282 451.4C361.109 451.12 361.016 450.799 361.014 450.47C361.02 450.235 361.072 450.004 361.167 449.789C361.262 449.574 361.398 449.38 361.568 449.218C361.901 448.888 362.351 448.701 362.82 448.7C363.122 448.705 363.416 448.795 363.669 448.959C363.922 449.124 364.123 449.356 364.251 449.629L367.309 455.155L370.331 449.665C370.474 449.372 370.695 449.124 370.969 448.948C371.243 448.771 371.561 448.673 371.887 448.664C372.113 448.663 372.337 448.71 372.544 448.803C372.75 448.895 372.935 449.031 373.085 449.2C373.251 449.367 373.382 449.565 373.471 449.783C373.56 450.001 373.605 450.235 373.603 450.47C373.597 450.779 373.511 451.081 373.353 451.346L370.116 456.532L376.411 456.3C376.642 456.276 376.876 456.303 377.096 456.378C377.317 456.453 377.518 456.574 377.688 456.733C377.857 456.892 377.99 457.086 378.079 457.301C378.167 457.517 378.208 457.748 378.199 457.981C378.203 458.421 378.044 458.848 377.752 459.179C377.584 459.345 377.382 459.475 377.16 459.558C376.938 459.641 376.701 459.676 376.465 459.662L370.152 459.465L373.282 464.561C373.458 464.846 373.551 465.174 373.55 465.509C373.544 465.744 373.492 465.975 373.397 466.19C373.302 466.405 373.165 466.599 372.995 466.761C372.84 466.928 372.652 467.062 372.443 467.154C372.234 467.247 372.008 467.295 371.779 467.297C371.475 467.292 371.179 467.198 370.928 467.026C370.677 466.855 370.482 466.613 370.367 466.332L367.362 460.967L364.394 466.332C364.26 466.622 364.045 466.867 363.776 467.038C363.506 467.209 363.193 467.299 362.874 467.297Z" fill="#B5B5B5"/>
<path d="M391.88 467.297C391.41 467.295 390.961 467.109 390.628 466.779C390.291 466.449 390.098 465.999 390.091 465.527C390.086 465.205 390.173 464.889 390.342 464.615L393.561 459.465L387.302 459.662C387.063 459.672 386.824 459.635 386.6 459.552C386.376 459.469 386.17 459.342 385.996 459.179C385.705 458.851 385.543 458.428 385.543 457.989C385.543 457.551 385.705 457.128 385.996 456.8C386.169 456.633 386.374 456.503 386.598 456.417C386.822 456.331 387.062 456.291 387.302 456.3L393.489 456.532L390.324 451.4C390.151 451.12 390.058 450.799 390.056 450.47C390.061 450.235 390.113 450.004 390.208 449.789C390.303 449.574 390.44 449.38 390.61 449.218C390.943 448.888 391.393 448.701 391.862 448.7C392.166 448.701 392.464 448.79 392.721 448.955C392.977 449.119 393.182 449.353 393.31 449.629L396.35 455.155L399.372 449.665C399.516 449.372 399.736 449.124 400.011 448.948C400.285 448.771 400.602 448.673 400.928 448.664C401.155 448.663 401.378 448.71 401.585 448.803C401.792 448.895 401.976 449.031 402.126 449.2C402.292 449.367 402.423 449.565 402.512 449.783C402.601 450.001 402.646 450.235 402.645 450.47C402.639 450.779 402.552 451.081 402.395 451.346L399.158 456.532L405.452 456.3C405.684 456.276 405.918 456.303 406.138 456.378C406.358 456.453 406.56 456.574 406.729 456.733C406.899 456.892 407.032 457.086 407.12 457.301C407.208 457.517 407.25 457.748 407.241 457.981C407.244 458.421 407.085 458.848 406.794 459.179C406.625 459.345 406.423 459.475 406.201 459.558C405.98 459.641 405.743 459.676 405.506 459.662L399.194 459.465L402.323 464.561C402.499 464.846 402.592 465.174 402.591 465.509C402.593 465.745 402.544 465.979 402.449 466.195C402.353 466.411 402.213 466.604 402.037 466.761C401.881 466.928 401.693 467.062 401.484 467.154C401.275 467.247 401.049 467.295 400.821 467.297C400.517 467.292 400.221 467.198 399.97 467.026C399.719 466.855 399.523 466.613 399.408 466.332L396.404 460.967L393.435 466.332C393.299 466.627 393.079 466.876 392.802 467.048C392.526 467.22 392.205 467.306 391.88 467.297Z" fill="#B5B5B5"/>
<path d="M420.885 467.297C420.416 467.295 419.966 467.109 419.633 466.779C419.356 466.498 419.18 466.134 419.131 465.743C419.083 465.351 419.165 464.955 419.365 464.615L422.566 459.465L416.307 459.662C416.068 459.672 415.83 459.635 415.605 459.552C415.381 459.469 415.176 459.342 415.002 459.179C414.71 458.851 414.549 458.428 414.549 457.989C414.549 457.551 414.71 457.128 415.002 456.8C415.174 456.633 415.379 456.503 415.603 456.417C415.828 456.331 416.067 456.291 416.307 456.3L422.494 456.532L419.311 451.4C419.138 451.12 419.045 450.799 419.043 450.47C419.05 449.998 419.243 449.548 419.579 449.218C419.913 448.888 420.362 448.701 420.831 448.7C421.136 448.701 421.434 448.79 421.69 448.955C421.947 449.119 422.151 449.353 422.28 449.629L425.32 455.155L428.342 449.665C428.485 449.372 428.706 449.124 428.98 448.948C429.254 448.771 429.572 448.673 429.898 448.664C430.127 448.663 430.353 448.71 430.563 448.802C430.773 448.895 430.96 449.03 431.114 449.2C431.442 449.541 431.622 449.997 431.614 450.47C431.608 450.779 431.522 451.081 431.364 451.346L428.127 456.532L434.422 456.3C434.653 456.276 434.887 456.303 435.107 456.378C435.328 456.453 435.529 456.574 435.699 456.733C435.868 456.892 436.002 457.086 436.09 457.301C436.178 457.517 436.219 457.748 436.21 457.981C436.214 458.421 436.055 458.848 435.763 459.179C435.595 459.345 435.393 459.475 435.171 459.558C434.949 459.641 434.712 459.676 434.476 459.662L428.163 459.465L431.293 464.561C431.469 464.846 431.562 465.174 431.561 465.509C431.563 465.745 431.514 465.979 431.418 466.195C431.323 466.411 431.182 466.604 431.006 466.761C430.851 466.928 430.663 467.062 430.454 467.154C430.245 467.247 430.019 467.295 429.79 467.297C429.486 467.292 429.19 467.198 428.939 467.026C428.688 466.855 428.493 466.613 428.378 466.332L425.373 460.967L422.405 466.332C422.271 466.622 422.056 466.867 421.787 467.038C421.517 467.209 421.204 467.299 420.885 467.297Z" fill="#B5B5B5"/>
<path d="M449.89 467.297C449.427 467.291 448.985 467.105 448.656 466.779C448.48 466.621 448.34 466.428 448.244 466.213C448.149 465.997 448.1 465.763 448.102 465.527C448.108 465.204 448.2 464.889 448.37 464.615L451.571 459.465L445.312 459.662C445.082 459.679 444.851 459.648 444.633 459.571C444.415 459.494 444.216 459.373 444.048 459.215C443.88 459.057 443.746 458.865 443.656 458.653C443.566 458.44 443.521 458.211 443.524 457.981C443.523 457.762 443.565 457.545 443.648 457.342C443.731 457.14 443.853 456.956 444.007 456.8C444.172 456.628 444.372 456.493 444.595 456.407C444.817 456.32 445.056 456.284 445.294 456.3L451.482 456.532L448.299 451.4C448.126 451.12 448.033 450.799 448.03 450.47C448.037 449.998 448.23 449.548 448.567 449.218C448.9 448.888 449.35 448.701 449.819 448.7C450.123 448.701 450.421 448.79 450.678 448.955C450.934 449.119 451.139 449.353 451.267 449.629L454.307 455.155L457.347 449.665C457.489 449.375 457.707 449.128 457.978 448.952C458.249 448.776 458.562 448.676 458.885 448.664C459.114 448.663 459.341 448.71 459.551 448.802C459.76 448.895 459.948 449.03 460.101 449.2C460.429 449.541 460.609 449.997 460.602 450.47C460.601 450.777 460.521 451.079 460.37 451.346L457.133 456.532L463.41 456.3C463.648 456.284 463.887 456.32 464.109 456.407C464.332 456.493 464.532 456.628 464.697 456.8C465.002 457.117 465.169 457.541 465.162 457.981C465.161 458.424 464.995 458.851 464.697 459.179C464.529 459.345 464.327 459.475 464.105 459.558C463.883 459.641 463.646 459.676 463.41 459.662L457.097 459.465L460.226 464.561C460.403 464.846 460.496 465.174 460.495 465.509C460.488 465.981 460.295 466.431 459.958 466.761C459.632 467.094 459.19 467.286 458.724 467.297C458.42 467.292 458.124 467.198 457.873 467.026C457.622 466.855 457.427 466.613 457.312 466.332L454.307 460.967L451.339 466.332C451.21 466.611 451.007 466.849 450.751 467.019C450.495 467.19 450.197 467.286 449.89 467.297Z" fill="#B5B5B5"/>
<g style="mix-blend-mode:multiply">
<path d="M540.108 105.014H223.55V124.845H540.108V105.014Z" fill="#B5B5B5"/>
</g>
<path d="M416.253 68.4795H347.405C346.163 68.4795 344.971 67.9859 344.092 67.1072C343.214 66.2286 342.72 65.0368 342.72 63.7942C342.72 62.5516 343.214 61.3599 344.092 60.4813C344.971 59.6026 346.163 59.109 347.405 59.109H416.253C417.496 59.109 418.688 59.6026 419.566 60.4813C420.445 61.3599 420.939 62.5516 420.939 63.7942C420.939 65.0368 420.445 66.2286 419.566 67.1072C418.688 67.9859 417.496 68.4795 416.253 68.4795Z" fill="#B5B5B5" stroke="#B5B5B5" stroke-width="1.33739" stroke-linecap="round" stroke-linejoin="round"/>
<path d="M400.606 645.426C400.61 641.711 399.511 638.078 397.449 634.987C395.387 631.897 392.455 629.487 389.023 628.064C385.592 626.641 381.815 626.267 378.171 626.991C374.527 627.715 371.179 629.504 368.552 632.131C365.925 634.758 364.137 638.105 363.413 641.749C362.689 645.393 363.062 649.17 364.485 652.602C365.909 656.034 368.318 658.966 371.409 661.028C374.499 663.09 378.132 664.188 381.847 664.185C386.821 664.18 391.59 662.202 395.107 658.685C398.624 655.168 400.601 650.4 400.606 645.426Z" fill="#B5B5B5"/>
<path d="M391.361 635.912H372.333V654.94H391.361V635.912Z" fill="#B5B5B5" stroke="#B5B5B5" stroke-width="1.33739" stroke-linecap="round" stroke-linejoin="round"/>
<path d="M608.491 429.512C608.491 429.512 583.563 366.171 605.755 358.643C628.859 350.792 627.84 392.62 626.946 413.006C625.068 456.568 620.258 464.669 616.663 454.029L608.491 429.512ZM600.998 478.921C607.847 487.862 609.779 478.599 597.422 436.772C591.628 417.101 579.038 377.312 559.725 392.244C541.181 406.55 585.315 458.41 585.315 458.41L600.998 478.921ZM587.765 515.223C594.292 521.017 594.417 513.703 578.913 483.499C571.635 469.354 556.238 440.724 543.631 454.887C531.524 468.549 572.779 501.757 572.779 501.757L587.765 515.223ZM573.459 558.391C579.986 564.203 580.111 556.871 564.607 526.686C557.329 512.54 541.932 483.893 529.325 498.073C517.29 511.771 558.42 544.98 558.42 544.98L573.459 558.391ZM614.768 470.516C604.324 474.594 612.622 479.028 656.238 478.903C676.695 478.903 718.469 477.973 709.563 455.245C701.033 433.41 638.909 461.217 638.909 461.217L614.768 470.516ZM602.876 499.558C591.824 501.471 599.085 507.48 641.86 516.028C661.906 520.051 703.018 527.472 698.816 503.51C694.792 480.405 628.376 495.319 628.376 495.319L602.876 499.558ZM589.571 535.019C580.165 536.378 586.173 541.618 622.135 549.844C638.999 553.706 673.602 560.949 670.597 540.509C667.736 520.838 611.227 531.961 611.227 531.961L589.571 535.019ZM579.467 567.869C570.258 570.212 576.785 574.79 613.444 579.153C630.612 581.192 665.787 584.733 660.655 564.722C655.701 545.516 600.694 562.522 600.694 562.522L579.467 567.869ZM633.366 434.876C628.001 446.893 639.142 445.069 677.017 412.022C694.757 396.518 730.343 364.079 702.16 347.931C675.104 332.409 646.009 407.301 646.009 407.301L633.366 434.876ZM580.862 610.662C575.194 613.971 580.755 615.258 606.756 610.072C618.952 607.658 643.755 602.293 635.369 591.707C627.25 581.514 593.988 602.973 593.988 602.973L580.862 610.662Z" fill="#B5B5B5"/>
<path opacity="0.3" d="M608.491 429.512C608.491 429.512 583.563 366.171 605.755 358.643C628.859 350.792 627.84 392.62 626.946 413.006C625.068 456.568 620.258 464.669 616.663 454.029L608.491 429.512ZM600.998 478.921C607.847 487.862 609.779 478.599 597.422 436.772C591.628 417.101 579.038 377.312 559.725 392.244C541.181 406.55 585.315 458.41 585.315 458.41L600.998 478.921ZM587.765 515.223C594.292 521.017 594.417 513.703 578.913 483.499C571.635 469.354 556.238 440.724 543.631 454.887C531.524 468.549 572.779 501.757 572.779 501.757L587.765 515.223ZM573.459 558.391C579.986 564.203 580.111 556.871 564.607 526.686C557.329 512.54 541.932 483.893 529.325 498.073C517.29 511.771 558.42 544.98 558.42 544.98L573.459 558.391ZM614.768 470.516C604.324 474.594 612.622 479.028 656.238 478.903C676.695 478.903 718.469 477.973 709.563 455.245C701.033 433.41 638.909 461.217 638.909 461.217L614.768 470.516ZM602.876 499.558C591.824 501.471 599.085 507.48 641.86 516.028C661.906 520.051 703.018 527.472 698.816 503.51C694.792 480.405 628.376 495.319 628.376 495.319L602.876 499.558ZM589.571 535.019C580.165 536.378 586.173 541.618 622.135 549.844C638.999 553.706 673.602 560.949 670.597 540.509C667.736 520.838 611.227 531.961 611.227 531.961L589.571 535.019ZM579.467 567.869C570.258 570.212 576.785 574.79 613.444 579.153C630.612 581.192 665.787 584.733 660.655 564.722C655.701 545.516 600.694 562.522 600.694 562.522L579.467 567.869ZM633.366 434.876C628.001 446.893 639.142 445.069 677.017 412.022C694.757 396.518 730.343 364.079 702.16 347.931C675.104 332.409 646.009 407.301 646.009 407.301L633.366 434.876ZM580.862 610.662C575.194 613.971 580.755 615.258 606.756 610.072C618.952 607.658 643.755 602.293 635.369 591.707C627.25 581.514 593.988 602.973 593.988 602.973L580.862 610.662Z" fill="white"/>
<path d="M619.489 459L615.143 386.701L619.489 459ZM605.737 482.855L578.269 420.677L605.737 482.855ZM676.624 464.776L610.798 474.218L676.624 464.776ZM591.502 516.367L555.862 470.641L591.502 516.367ZM597.761 502.347L646.867 504.815L597.761 502.347ZM586.138 537.415L623.691 541.135L586.138 537.415ZM577.071 559.697L558.42 531.639L577.071 559.697ZM574.925 569.604L619.077 570.015L574.925 569.604ZM565.984 652.436C566.28 652.413 566.555 652.275 566.749 652.05C566.943 651.826 567.041 651.534 567.021 651.238C564.214 609.071 580.523 540.008 606.685 483.32C623.405 447.09 688.945 375.882 689.642 375.166C689.853 374.955 689.971 374.669 689.971 374.37C689.971 374.072 689.853 373.786 689.642 373.575C689.539 373.471 689.417 373.388 689.282 373.332C689.147 373.276 689.002 373.247 688.855 373.247C688.709 373.247 688.564 373.276 688.429 373.332C688.294 373.388 688.172 373.471 688.069 373.575C687.407 374.29 621.599 445.767 604.736 482.319C578.091 540.384 561.996 608.195 564.857 651.381C564.88 651.666 565.008 651.932 565.216 652.127C565.425 652.322 565.698 652.432 565.984 652.436ZM619.471 460.109C619.767 460.09 620.043 459.956 620.241 459.735C620.438 459.514 620.541 459.224 620.526 458.928L616.252 386.593C616.245 386.446 616.209 386.302 616.146 386.168C616.083 386.035 615.993 385.916 615.883 385.818C615.774 385.72 615.645 385.644 615.506 385.596C615.366 385.548 615.219 385.528 615.072 385.538C614.776 385.557 614.499 385.691 614.302 385.912C614.105 386.133 614.002 386.422 614.017 386.718L618.362 459.018C618.376 459.302 618.499 459.571 618.705 459.767C618.912 459.964 619.186 460.073 619.471 460.073V460.109ZM606.13 483.875C606.398 483.753 606.608 483.532 606.715 483.258C606.822 482.984 606.818 482.679 606.703 482.408L579.217 420.23C579.099 419.96 578.877 419.748 578.602 419.641C578.327 419.533 578.021 419.54 577.751 419.658C577.48 419.777 577.268 419.998 577.161 420.273C577.054 420.548 577.06 420.854 577.179 421.125L604.646 483.302C604.732 483.502 604.875 483.672 605.055 483.793C605.236 483.913 605.448 483.979 605.666 483.982C605.851 483.991 606.035 483.955 606.202 483.875H606.13ZM610.887 475.291L676.677 465.885C676.836 465.881 676.993 465.845 677.136 465.777C677.28 465.709 677.407 465.611 677.511 465.49C677.614 465.369 677.69 465.228 677.735 465.075C677.78 464.923 677.792 464.763 677.77 464.605C677.749 464.448 677.694 464.297 677.61 464.162C677.526 464.027 677.414 463.912 677.282 463.823C677.15 463.734 677.001 463.675 676.844 463.648C676.688 463.621 676.527 463.628 676.373 463.667L610.583 473.073C610.289 473.092 610.015 473.227 609.82 473.449C609.626 473.67 609.527 473.96 609.546 474.254C609.565 474.548 609.7 474.822 609.921 475.017C610.143 475.211 610.432 475.31 610.726 475.291H610.887ZM592.128 517.261C592.362 517.078 592.514 516.81 592.551 516.515C592.587 516.22 592.506 515.923 592.325 515.688L556.667 469.873C556.485 469.635 556.215 469.481 555.918 469.442C555.622 469.403 555.322 469.484 555.085 469.667C554.847 469.849 554.693 470.119 554.654 470.416C554.615 470.712 554.696 471.012 554.879 471.249L590.608 517.136C590.712 517.27 590.845 517.378 590.997 517.452C591.149 517.527 591.315 517.565 591.485 517.565C591.752 517.552 592.005 517.444 592.2 517.261H592.128ZM647.851 504.869C647.86 504.573 647.753 504.285 647.552 504.068C647.352 503.85 647.073 503.72 646.778 503.706L597.761 501.221C597.486 501.24 597.227 501.359 597.034 501.556C596.841 501.754 596.727 502.015 596.713 502.291C596.7 502.566 596.789 502.837 596.962 503.052C597.135 503.267 597.382 503.411 597.654 503.456L646.76 505.942C647.056 505.951 647.343 505.844 647.561 505.644C647.778 505.443 647.908 505.164 647.922 504.869H647.851ZM624.728 541.242C624.746 541.095 624.733 540.946 624.692 540.804C624.651 540.661 624.581 540.529 624.488 540.414C624.395 540.299 624.279 540.203 624.149 540.134C624.018 540.064 623.874 540.021 623.727 540.008L586.173 536.306C586.028 536.292 585.881 536.306 585.74 536.348C585.6 536.391 585.47 536.461 585.357 536.554C585.244 536.647 585.15 536.761 585.082 536.891C585.013 537.02 584.971 537.162 584.957 537.308C584.932 537.601 585.023 537.893 585.21 538.12C585.397 538.347 585.666 538.492 585.959 538.524L623.512 542.243H623.62C623.908 542.263 624.193 542.17 624.413 541.983C624.634 541.796 624.773 541.53 624.8 541.242H624.728ZM577.608 560.627C577.856 560.463 578.029 560.207 578.09 559.915C578.15 559.624 578.092 559.32 577.93 559.071L559.367 531.013C559.198 530.771 558.941 530.605 558.651 530.548C558.361 530.492 558.06 530.549 557.812 530.709C557.563 530.873 557.39 531.129 557.33 531.421C557.269 531.712 557.327 532.016 557.49 532.265L576.052 560.323C576.158 560.476 576.3 560.602 576.465 560.689C576.63 560.776 576.813 560.822 577 560.823C577.242 560.837 577.481 560.767 577.679 560.627H577.608ZM620.204 570.015C620.2 569.721 620.082 569.439 619.875 569.23C619.669 569.02 619.39 568.898 619.095 568.889L574.943 568.477C574.649 568.477 574.367 568.594 574.159 568.802C573.951 569.01 573.834 569.292 573.834 569.586C573.83 569.734 573.855 569.881 573.909 570.019C573.962 570.156 574.044 570.282 574.147 570.387C574.251 570.492 574.375 570.576 574.512 570.632C574.649 570.688 574.795 570.715 574.943 570.713L619.095 571.124C619.246 571.131 619.397 571.108 619.539 571.056C619.681 571.003 619.81 570.923 619.92 570.82C620.031 570.716 620.119 570.592 620.18 570.453C620.241 570.315 620.273 570.166 620.276 570.015H620.204ZM560.959 636.038C561.048 635.841 568.577 615.097 591.216 610.144C591.508 610.08 591.762 609.902 591.923 609.651C592.084 609.399 592.139 609.094 592.075 608.803C592.003 608.517 591.823 608.27 591.573 608.113C591.323 607.956 591.022 607.902 590.734 607.962C566.86 613.184 558.938 635.09 558.849 635.305C558.757 635.587 558.778 635.894 558.908 636.161C559.038 636.428 559.267 636.634 559.546 636.735H559.904C560.142 636.756 560.38 636.699 560.583 636.573C560.786 636.448 560.943 636.26 561.031 636.038H560.959ZM565.984 652.436C566.28 652.413 566.555 652.275 566.749 652.05C566.943 651.826 567.041 651.534 567.021 651.238C564.214 609.071 580.523 540.008 606.685 483.32C623.405 447.09 688.945 375.882 689.642 375.166C689.853 374.955 689.971 374.669 689.971 374.37C689.971 374.072 689.853 373.786 689.642 373.575C689.539 373.471 689.417 373.388 689.282 373.332C689.147 373.276 689.002 373.247 688.855 373.247C688.709 373.247 688.564 373.276 688.429 373.332C688.294 373.388 688.172 373.471 688.069 373.575C687.407 374.29 621.599 445.767 604.736 482.319C578.091 540.384 561.996 608.195 564.857 651.381C564.88 651.666 565.008 651.932 565.216 652.127C565.425 652.322 565.698 652.432 565.984 652.436ZM619.471 460.109C619.767 460.09 620.043 459.956 620.241 459.735C620.438 459.514 620.541 459.224 620.526 458.928L616.252 386.593C616.245 386.446 616.209 386.302 616.146 386.168C616.083 386.035 615.993 385.916 615.883 385.818C615.774 385.72 615.645 385.644 615.506 385.596C615.366 385.548 615.219 385.528 615.072 385.538C614.776 385.557 614.499 385.691 614.302 385.912C614.105 386.133 614.002 386.422 614.017 386.718L618.362 459.018C618.376 459.302 618.499 459.571 618.705 459.767C618.912 459.964 619.186 460.073 619.471 460.073V460.109ZM606.13 483.875C606.398 483.753 606.608 483.532 606.715 483.258C606.822 482.984 606.818 482.679 606.703 482.408L579.217 420.23C579.099 419.96 578.877 419.748 578.602 419.641C578.327 419.533 578.021 419.54 577.751 419.658C577.48 419.777 577.268 419.998 577.161 420.273C577.054 420.548 577.06 420.854 577.179 421.125L604.646 483.302C604.732 483.502 604.875 483.672 605.055 483.793C605.236 483.913 605.448 483.979 605.666 483.982C605.851 483.991 606.035 483.955 606.202 483.875H606.13ZM610.887 475.291L676.677 465.885C676.836 465.881 676.993 465.845 677.136 465.777C677.28 465.709 677.407 465.611 677.511 465.49C677.614 465.369 677.69 465.228 677.735 465.075C677.78 464.923 677.792 464.763 677.77 464.605C677.749 464.448 677.694 464.297 677.61 464.162C677.526 464.027 677.414 463.912 677.282 463.823C677.15 463.734 677.001 463.675 676.844 463.648C676.688 463.621 676.527 463.628 676.373 463.667L610.583 473.073C610.289 473.092 610.015 473.227 609.82 473.449C609.626 473.67 609.527 473.96 609.546 474.254C609.565 474.548 609.7 474.822 609.921 475.017C610.143 475.211 610.432 475.31 610.726 475.291H610.887ZM592.128 517.261C592.362 517.078 592.514 516.81 592.551 516.515C592.587 516.22 592.506 515.923 592.325 515.688L556.667 469.873C556.577 469.755 556.464 469.657 556.336 469.583C556.207 469.509 556.065 469.461 555.918 469.442C555.772 469.423 555.622 469.433 555.479 469.471C555.336 469.51 555.202 469.576 555.085 469.667C554.967 469.757 554.869 469.87 554.795 469.998C554.721 470.127 554.673 470.269 554.654 470.416C554.635 470.563 554.645 470.712 554.684 470.855C554.722 470.998 554.788 471.132 554.879 471.249L590.608 517.136C590.712 517.27 590.845 517.378 590.997 517.452C591.149 517.527 591.315 517.565 591.485 517.565C591.752 517.552 592.005 517.444 592.2 517.261H592.128ZM647.851 504.869C647.86 504.573 647.753 504.285 647.552 504.068C647.352 503.85 647.073 503.72 646.778 503.706L597.761 501.221C597.486 501.24 597.227 501.359 597.034 501.556C596.841 501.754 596.727 502.015 596.713 502.291C596.7 502.566 596.789 502.837 596.962 503.052C597.135 503.267 597.382 503.411 597.654 503.456L646.76 505.942C647.056 505.951 647.343 505.844 647.561 505.644C647.778 505.443 647.908 505.164 647.922 504.869H647.851ZM624.728 541.242C624.746 541.095 624.733 540.946 624.692 540.804C624.651 540.661 624.581 540.529 624.488 540.414C624.395 540.299 624.279 540.203 624.149 540.134C624.018 540.064 623.874 540.021 623.727 540.008L586.173 536.306C586.028 536.292 585.881 536.306 585.74 536.348C585.6 536.391 585.47 536.461 585.357 536.554C585.244 536.647 585.15 536.761 585.082 536.891C585.013 537.02 584.971 537.162 584.957 537.308C584.932 537.601 585.023 537.893 585.21 538.12C585.397 538.347 585.666 538.492 585.959 538.524L623.512 542.243H623.62C623.908 542.263 624.193 542.17 624.413 541.983C624.634 541.796 624.773 541.53 624.8 541.242H624.728ZM577.608 560.627C577.856 560.463 578.029 560.207 578.09 559.915C578.15 559.624 578.092 559.32 577.93 559.071L559.367 531.013C559.198 530.771 558.941 530.605 558.651 530.548C558.361 530.492 558.06 530.549 557.812 530.709C557.563 530.873 557.39 531.129 557.33 531.421C557.269 531.712 557.327 532.016 557.49 532.265L576.052 560.323C576.158 560.476 576.3 560.602 576.465 560.689C576.63 560.776 576.813 560.822 577 560.823C577.242 560.837 577.481 560.767 577.679 560.627H577.608ZM620.204 570.015C620.2 569.721 620.082 569.439 619.875 569.23C619.669 569.02 619.39 568.898 619.095 568.889L574.943 568.477C574.649 568.477 574.367 568.594 574.159 568.802C573.951 569.01 573.834 569.292 573.834 569.586C573.83 569.734 573.855 569.881 573.909 570.019C573.962 570.156 574.044 570.282 574.147 570.387C574.251 570.492 574.375 570.576 574.512 570.632C574.649 570.688 574.795 570.715 574.943 570.713L619.095 571.124C619.246 571.131 619.397 571.108 619.539 571.056C619.681 571.003 619.81 570.923 619.92 570.82C620.031 570.716 620.119 570.592 620.18 570.453C620.241 570.315 620.273 570.166 620.276 570.015H620.204ZM560.959 636.038C561.048 635.841 568.577 615.097 591.216 610.144C591.508 610.08 591.762 609.902 591.923 609.651C592.084 609.399 592.139 609.094 592.075 608.803C592.003 608.517 591.823 608.27 591.573 608.113C591.323 607.956 591.022 607.902 590.734 607.962C566.86 613.184 558.938 635.09 558.849 635.305C558.757 635.587 558.778 635.894 558.908 636.161C559.038 636.428 559.267 636.634 559.546 636.735H559.904C560.142 636.756 560.38 636.699 560.583 636.573C560.786 636.448 560.943 636.26 561.031 636.038H560.959Z" fill="#B5B5B5"/>
<path opacity="0.2" d="M619.489 459L615.143 386.701L619.489 459ZM605.737 482.855L578.269 420.677L605.737 482.855ZM676.624 464.776L610.798 474.218L676.624 464.776ZM591.502 516.367L555.862 470.641L591.502 516.367ZM597.761 502.347L646.867 504.815L597.761 502.347ZM586.138 537.415L623.691 541.135L586.138 537.415ZM577.071 559.697L558.42 531.639L577.071 559.697ZM574.925 569.604L619.077 570.015L574.925 569.604ZM565.984 652.436C566.28 652.413 566.555 652.275 566.749 652.05C566.943 651.826 567.041 651.534 567.021 651.238C564.214 609.071 580.523 540.008 606.685 483.32C623.405 447.09 688.945 375.882 689.642 375.166C689.853 374.955 689.971 374.669 689.971 374.37C689.971 374.072 689.853 373.786 689.642 373.575C689.539 373.471 689.417 373.388 689.282 373.332C689.147 373.276 689.002 373.247 688.855 373.247C688.709 373.247 688.564 373.276 688.429 373.332C688.294 373.388 688.172 373.471 688.069 373.575C687.407 374.29 621.599 445.767 604.736 482.319C578.091 540.384 561.996 608.195 564.857 651.381C564.88 651.666 565.008 651.932 565.216 652.127C565.425 652.322 565.698 652.432 565.984 652.436ZM619.471 460.109C619.767 460.09 620.043 459.956 620.241 459.735C620.438 459.514 620.541 459.224 620.526 458.928L616.252 386.593C616.245 386.446 616.209 386.302 616.146 386.168C616.083 386.035 615.993 385.916 615.883 385.818C615.774 385.72 615.645 385.644 615.506 385.596C615.366 385.548 615.219 385.528 615.072 385.538C614.776 385.557 614.499 385.691 614.302 385.912C614.105 386.133 614.002 386.422 614.017 386.718L618.362 459.018C618.376 459.302 618.499 459.571 618.705 459.767C618.912 459.964 619.186 460.073 619.471 460.073V460.109ZM606.13 483.875C606.398 483.753 606.608 483.532 606.715 483.258C606.822 482.984 606.818 482.679 606.703 482.408L579.217 420.23C579.099 419.96 578.877 419.748 578.602 419.641C578.327 419.533 578.021 419.54 577.751 419.658C577.48 419.777 577.268 419.998 577.161 420.273C577.054 420.548 577.06 420.854 577.179 421.125L604.646 483.302C604.732 483.502 604.875 483.672 605.055 483.793C605.236 483.913 605.448 483.979 605.666 483.982C605.851 483.991 606.035 483.955 606.202 483.875H606.13ZM610.887 475.291L676.677 465.885C676.836 465.881 676.993 465.845 677.136 465.777C677.28 465.709 677.407 465.611 677.511 465.49C677.614 465.369 677.69 465.228 677.735 465.075C677.78 464.923 677.792 464.763 677.77 464.605C677.749 464.448 677.694 464.297 677.61 464.162C677.526 464.027 677.414 463.912 677.282 463.823C677.15 463.734 677.001 463.675 676.844 463.648C676.688 463.621 676.527 463.628 676.373 463.667L610.583 473.073C610.289 473.092 610.015 473.227 609.82 473.449C609.626 473.67 609.527 473.96 609.546 474.254C609.565 474.548 609.7 474.822 609.921 475.017C610.143 475.211 610.432 475.31 610.726 475.291H610.887ZM592.128 517.261C592.362 517.078 592.514 516.81 592.551 516.515C592.587 516.22 592.506 515.923 592.325 515.688L556.667 469.873C556.485 469.635 556.215 469.481 555.918 469.442C555.622 469.403 555.322 469.484 555.085 469.667C554.847 469.849 554.693 470.119 554.654 470.416C554.615 470.712 554.696 471.012 554.879 471.249L590.608 517.136C590.712 517.27 590.845 517.378 590.997 517.452C591.149 517.527 591.315 517.565 591.485 517.565C591.752 517.552 592.005 517.444 592.2 517.261H592.128ZM647.851 504.869C647.86 504.573 647.753 504.285 647.552 504.068C647.352 503.85 647.073 503.72 646.778 503.706L597.761 501.221C597.486 501.24 597.227 501.359 597.034 501.556C596.841 501.754 596.727 502.015 596.713 502.291C596.7 502.566 596.789 502.837 596.962 503.052C597.135 503.267 597.382 503.411 597.654 503.456L646.76 505.942C647.056 505.951 647.343 505.844 647.561 505.644C647.778 505.443 647.908 505.164 647.922 504.869H647.851ZM624.728 541.242C624.746 541.095 624.733 540.946 624.692 540.804C624.651 540.661 624.581 540.529 624.488 540.414C624.395 540.299 624.279 540.203 624.149 540.134C624.018 540.064 623.874 540.021 623.727 540.008L586.173 536.306C586.028 536.292 585.881 536.306 585.74 536.348C585.6 536.391 585.47 536.461 585.357 536.554C585.244 536.647 585.15 536.761 585.082 536.891C585.013 537.02 584.971 537.162 584.957 537.308C584.932 537.601 585.023 537.893 585.21 538.12C585.397 538.347 585.666 538.492 585.959 538.524L623.512 542.243H623.62C623.908 542.263 624.193 542.17 624.413 541.983C624.634 541.796 624.773 541.53 624.8 541.242H624.728ZM577.608 560.627C577.856 560.463 578.029 560.207 578.09 559.915C578.15 559.624 578.092 559.32 577.93 559.071L559.367 531.013C559.198 530.771 558.941 530.605 558.651 530.548C558.361 530.492 558.06 530.549 557.812 530.709C557.563 530.873 557.39 531.129 557.33 531.421C557.269 531.712 557.327 532.016 557.49 532.265L576.052 560.323C576.158 560.476 576.3 560.602 576.465 560.689C576.63 560.776 576.813 560.822 577 560.823C577.242 560.837 577.481 560.767 577.679 560.627H577.608ZM620.204 570.015C620.2 569.721 620.082 569.439 619.875 569.23C619.669 569.02 619.39 568.898 619.095 568.889L574.943 568.477C574.649 568.477 574.367 568.594 574.159 568.802C573.951 569.01 573.834 569.292 573.834 569.586C573.83 569.734 573.855 569.881 573.909 570.019C573.962 570.156 574.044 570.282 574.147 570.387C574.251 570.492 574.375 570.576 574.512 570.632C574.649 570.688 574.795 570.715 574.943 570.713L619.095 571.124C619.246 571.131 619.397 571.108 619.539 571.056C619.681 571.003 619.81 570.923 619.92 570.82C620.031 570.716 620.119 570.592 620.18 570.453C620.241 570.315 620.273 570.166 620.276 570.015H620.204ZM560.959 636.038C561.048 635.841 568.577 615.097 591.216 610.144C591.508 610.08 591.762 609.902 591.923 609.651C592.084 609.399 592.139 609.094 592.075 608.803C592.003 608.517 591.823 608.27 591.573 608.113C591.323 607.956 591.022 607.902 590.734 607.962C566.86 613.184 558.938 635.09 558.849 635.305C558.757 635.587 558.778 635.894 558.908 636.161C559.038 636.428 559.267 636.634 559.546 636.735H559.904C560.142 636.756 560.38 636.699 560.583 636.573C560.786 636.448 560.943 636.26 561.031 636.038H560.959ZM565.984 652.436C566.28 652.413 566.555 652.275 566.749 652.05C566.943 651.826 567.041 651.534 567.021 651.238C564.214 609.071 580.523 540.008 606.685 483.32C623.405 447.09 688.945 375.882 689.642 375.166C689.853 374.955 689.971 374.669 689.971 374.37C689.971 374.072 689.853 373.786 689.642 373.575C689.539 373.471 689.417 373.388 689.282 373.332C689.147 373.276 689.002 373.247 688.855 373.247C688.709 373.247 688.564 373.276 688.429 373.332C688.294 373.388 688.172 373.471 688.069 373.575C687.407 374.29 621.599 445.767 604.736 482.319C578.091 540.384 561.996 608.195 564.857 651.381C564.88 651.666 565.008 651.932 565.216 652.127C565.425 652.322 565.698 652.432 565.984 652.436ZM619.471 460.109C619.767 460.09 620.043 459.956 620.241 459.735C620.438 459.514 620.541 459.224 620.526 458.928L616.252 386.593C616.245 386.446 616.209 386.302 616.146 386.168C616.083 386.035 615.993 385.916 615.883 385.818C615.774 385.72 615.645 385.644 615.506 385.596C615.366 385.548 615.219 385.528 615.072 385.538C614.776 385.557 614.499 385.691 614.302 385.912C614.105 386.133 614.002 386.422 614.017 386.718L618.362 459.018C618.376 459.302 618.499 459.571 618.705 459.767C618.912 459.964 619.186 460.073 619.471 460.073V460.109ZM606.13 483.875C606.398 483.753 606.608 483.532 606.715 483.258C606.822 482.984 606.818 482.679 606.703 482.408L579.217 420.23C579.099 419.96 578.877 419.748 578.602 419.641C578.327 419.533 578.021 419.54 577.751 419.658C577.48 419.777 577.268 419.998 577.161 420.273C577.054 420.548 577.06 420.854 577.179 421.125L604.646 483.302C604.732 483.502 604.875 483.672 605.055 483.793C605.236 483.913 605.448 483.979 605.666 483.982C605.851 483.991 606.035 483.955 606.202 483.875H606.13ZM610.887 475.291L676.677 465.885C676.836 465.881 676.993 465.845 677.136 465.777C677.28 465.709 677.407 465.611 677.511 465.49C677.614 465.369 677.69 465.228 677.735 465.075C677.78 464.923 677.792 464.763 677.77 464.605C677.749 464.448 677.694 464.297 677.61 464.162C677.526 464.027 677.414 463.912 677.282 463.823C677.15 463.734 677.001 463.675 676.844 463.648C676.688 463.621 676.527 463.628 676.373 463.667L610.583 473.073C610.289 473.092 610.015 473.227 609.82 473.449C609.626 473.67 609.527 473.96 609.546 474.254C609.565 474.548 609.7 474.822 609.921 475.017C610.143 475.211 610.432 475.31 610.726 475.291H610.887ZM592.128 517.261C592.362 517.078 592.514 516.81 592.551 516.515C592.587 516.22 592.506 515.923 592.325 515.688L556.667 469.873C556.577 469.755 556.464 469.657 556.336 469.583C556.207 469.509 556.065 469.461 555.918 469.442C555.772 469.423 555.622 469.433 555.479 469.471C555.336 469.51 555.202 469.576 555.085 469.667C554.967 469.757 554.869 469.87 554.795 469.998C554.721 470.127 554.673 470.269 554.654 470.416C554.635 470.563 554.645 470.712 554.684 470.855C554.722 470.998 554.788 471.132 554.879 471.249L590.608 517.136C590.712 517.27 590.845 517.378 590.997 517.452C591.149 517.527 591.315 517.565 591.485 517.565C591.752 517.552 592.005 517.444 592.2 517.261H592.128ZM647.851 504.869C647.86 504.573 647.753 504.285 647.552 504.068C647.352 503.85 647.073 503.72 646.778 503.706L597.761 501.221C597.486 501.24 597.227 501.359 597.034 501.556C596.841 501.754 596.727 502.015 596.713 502.291C596.7 502.566 596.789 502.837 596.962 503.052C597.135 503.267 597.382 503.411 597.654 503.456L646.76 505.942C647.056 505.951 647.343 505.844 647.561 505.644C647.778 505.443 647.908 505.164 647.922 504.869H647.851ZM624.728 541.242C624.746 541.095 624.733 540.946 624.692 540.804C624.651 540.661 624.581 540.529 624.488 540.414C624.395 540.299 624.279 540.203 624.149 540.134C624.018 540.064 623.874 540.021 623.727 540.008L586.173 536.306C586.028 536.292 585.881 536.306 585.74 536.348C585.6 536.391 585.47 536.461 585.357 536.554C585.244 536.647 585.15 536.761 585.082 536.891C585.013 537.02 584.971 537.162 584.957 537.308C584.932 537.601 585.023 537.893 585.21 538.12C585.397 538.347 585.666 538.492 585.959 538.524L623.512 542.243H623.62C623.908 542.263 624.193 542.17 624.413 541.983C624.634 541.796 624.773 541.53 624.8 541.242H624.728ZM577.608 560.627C577.856 560.463 578.029 560.207 578.09 559.915C578.15 559.624 578.092 559.32 577.93 559.071L559.367 531.013C559.198 530.771 558.941 530.605 558.651 530.548C558.361 530.492 558.06 530.549 557.812 530.709C557.563 530.873 557.39 531.129 557.33 531.421C557.269 531.712 557.327 532.016 557.49 532.265L576.052 560.323C576.158 560.476 576.3 560.602 576.465 560.689C576.63 560.776 576.813 560.822 577 560.823C577.242 560.837 577.481 560.767 577.679 560.627H577.608ZM620.204 570.015C620.2 569.721 620.082 569.439 619.875 569.23C619.669 569.02 619.39 568.898 619.095 568.889L574.943 568.477C574.649 568.477 574.367 568.594 574.159 568.802C573.951 569.01 573.834 569.292 573.834 569.586C573.83 569.734 573.855 569.881 573.909 570.019C573.962 570.156 574.044 570.282 574.147 570.387C574.251 570.492 574.375 570.576 574.512 570.632C574.649 570.688 574.795 570.715 574.943 570.713L619.095 571.124C619.246 571.131 619.397 571.108 619.539 571.056C619.681 571.003 619.81 570.923 619.92 570.82C620.031 570.716 620.119 570.592 620.18 570.453C620.241 570.315 620.273 570.166 620.276 570.015H620.204ZM560.959 636.038C561.048 635.841 568.577 615.097 591.216 610.144C591.508 610.08 591.762 609.902 591.923 609.651C592.084 609.399 592.139 609.094 592.075 608.803C592.003 608.517 591.823 608.27 591.573 608.113C591.323 607.956 591.022 607.902 590.734 607.962C566.86 613.184 558.938 635.09 558.849 635.305C558.757 635.587 558.778 635.894 558.908 636.161C559.038 636.428 559.267 636.634 559.546 636.735H559.904C560.142 636.756 560.38 636.699 560.583 636.573C560.786 636.448 560.943 636.26 561.031 636.038H560.959Z" fill="black"/>
<path d="M595.186 620.909H544.561V631.388H548.978L558.116 688.559H581.631L590.769 631.388H595.186V620.909Z" fill="#B5B5B5"/>
<path opacity="0.3" d="M595.186 620.909H544.561V631.388H548.978L558.116 688.559H581.631L590.769 631.388H595.186V620.909Z" fill="white"/>
<path d="M139.394 304.029L80.5068 284.806L75.2672 270.964L63.3037 270.589L41.5942 266.476L44.2051 270.964L71.5297 290.796L78.2715 294.158L139.859 326.329L139.394 304.029Z" fill="white" stroke="#B5B5B5" stroke-width="1.00396" stroke-miterlimit="10"/>
<path d="M75.2675 270.964L69.6523 267.602L58.4399 271.715L60.2997 273.951L75.2675 270.964Z" fill="white" stroke="#B5B5B5" stroke-width="1.00396" stroke-linejoin="round"/>
<path d="M139.394 304.029L80.5068 284.806L75.2672 270.964L63.3037 270.589L41.5942 266.476L44.2051 270.964L71.5297 290.796L78.2715 294.158L139.859 326.329L139.394 304.029Z" fill="white"/>
<mask id="mask0_173_6163" style="mask-type:luminance" maskUnits="userSpaceOnUse" x="41" y="266" width="99" height="61">
<path d="M139.394 304.029L80.5068 284.806L75.2672 270.964L63.3037 270.589L41.5942 266.476L44.2051 270.964L71.5297 290.796L78.2715 294.158L139.859 326.329L139.394 304.029Z" fill="white"/>
</mask>
<g mask="url(#mask0_173_6163)">
<path opacity="0.5" d="M139.394 304.029L80.5068 284.806L75.2672 270.964L63.3037 270.589L41.5942 266.476L44.2051 270.964L71.5297 290.796L78.2715 294.158L139.859 326.329L139.394 304.029Z" fill="#B5B5B5" stroke="#B5B5B5" stroke-width="1.00396" stroke-miterlimit="10"/>
</g>
<path d="M139.394 304.029L80.5068 284.806L75.2672 270.964L63.3037 270.589L41.5942 266.476L44.2051 270.964L71.5297 290.796L78.2715 294.158L139.859 326.329L139.394 304.029Z" stroke="#B5B5B5" stroke-width="1.00396" stroke-miterlimit="10"/>
<path d="M75.2675 270.964L69.6523 267.602L58.4399 271.715L60.2997 273.951L75.2675 270.964Z" fill="white"/>
<mask id="mask1_173_6163" style="mask-type:luminance" maskUnits="userSpaceOnUse" x="58" y="267" width="18" height="7">
<path d="M75.2675 270.964L69.6523 267.602L58.4399 271.715L60.2997 273.951L75.2675 270.964Z" fill="white"/>
</mask>
<g mask="url(#mask1_173_6163)">
<path opacity="0.5" d="M75.2675 270.964L69.6523 267.602L58.4399 271.715L60.2997 273.951L75.2675 270.964Z" fill="#B5B5B5" stroke="#B5B5B5" stroke-width="1.00396" stroke-linejoin="round"/>
</g>
<path d="M75.2675 270.964L69.6523 267.602L58.4399 271.715L60.2997 273.951L75.2675 270.964Z" stroke="#B5B5B5" stroke-width="1.00396" stroke-linejoin="round"/>
<path d="M151.894 179.262C151.894 179.262 150.982 187.309 153.253 192.478C155.524 197.646 168.132 215.153 168.132 215.153L144.598 234.019C144.598 234.019 134.834 214.348 132.974 211.165C131.115 207.982 128.879 194.284 134.941 184.466C141.004 174.649 149.73 172.002 151.894 179.262Z" fill="white"/>
<mask id="mask2_173_6163" style="mask-type:luminance" maskUnits="userSpaceOnUse" x="130" y="175" width="39" height="60">
<path d="M151.894 179.262C151.894 179.262 150.982 187.309 153.253 192.478C155.524 197.646 168.132 215.153 168.132 215.153L144.598 234.019C144.598 234.019 134.834 214.348 132.974 211.165C131.115 207.982 128.879 194.284 134.941 184.466C141.004 174.649 149.73 172.002 151.894 179.262Z" fill="white"/>
</mask>
<g mask="url(#mask2_173_6163)">
<g style="mix-blend-mode:multiply" opacity="0.5">
<path d="M139.805 205.12L150.016 226.293L144.58 234.037L134.315 215.707L139.805 205.12Z" fill="#B5B5B5"/>
</g>
</g>
<path d="M151.894 179.262C151.894 179.262 150.982 187.309 153.253 192.478C155.524 197.646 168.132 215.153 168.132 215.153L144.598 234.019C144.598 234.019 134.834 214.348 132.974 211.165C131.115 207.982 128.879 194.284 134.941 184.466C141.004 174.649 149.73 172.002 151.894 179.262Z" stroke="#B5B5B5" stroke-width="1.00396" stroke-miterlimit="10"/>
<path d="M159.19 164.527C157.742 155.586 147.495 137.399 131.24 138.097C120.689 138.561 115.753 140.69 111.176 143.282C107.444 145.481 103.966 148.084 100.804 151.044C92.8637 160.575 90.074 163.186 91.6119 170.482C91.4858 173.392 91.9417 176.298 92.9531 179.03C95.3852 185.521 97.0483 189.759 99.1584 192.853C98.5146 195.875 96.8337 203.851 96.7442 205.675C96.6548 207.499 102.109 206.229 104.863 205.532C109.977 216.977 119.348 224.917 122.263 225.829C127.341 227.42 135.371 219.069 139.627 212.595C143.883 206.122 140.664 198.844 140.682 195.947C140.7 193.05 150.249 186.684 153.79 184.663C157.33 182.642 160.621 173.45 159.19 164.527Z" fill="white"/>
<mask id="mask3_173_6163" style="mask-type:luminance" maskUnits="userSpaceOnUse" x="91" y="138" width="69" height="89">
<path d="M159.19 164.527C157.742 155.586 147.495 137.399 131.24 138.097C120.689 138.561 115.753 140.69 111.176 143.282C107.444 145.481 103.966 148.084 100.804 151.044C92.8637 160.575 90.074 163.186 91.6119 170.482C91.4858 173.392 91.9417 176.298 92.9531 179.03C95.3852 185.521 97.0483 189.759 99.1584 192.853C98.5146 195.875 96.8337 203.851 96.7442 205.675C96.6548 207.499 102.109 206.229 104.863 205.532C109.977 216.977 119.348 224.917 122.263 225.829C127.341 227.42 135.371 219.069 139.627 212.595C143.883 206.122 140.664 198.844 140.682 195.947C140.7 193.05 150.249 186.684 153.79 184.663C157.33 182.642 160.621 173.45 159.19 164.527Z" fill="white"/>
</mask>
<g mask="url(#mask3_173_6163)">
<g style="mix-blend-mode:multiply" opacity="0.5">
<path d="M91.6834 170.482C91.5572 173.392 92.0132 176.298 93.0246 179.03C95.4566 185.521 97.1197 189.759 99.2299 192.853C98.5861 195.875 96.9051 203.851 96.8157 205.675C96.7263 207.499 102.181 206.229 104.934 205.532C110.049 216.977 119.419 224.917 122.334 225.829C127.413 227.42 135.442 219.069 139.698 212.595C140.761 210.979 141.452 209.147 141.719 207.231C141.486 206.39 141.326 205.872 141.326 205.872C141.326 205.872 138.929 215.081 134.172 213.883C129.416 212.685 122.137 203.153 118.078 199.863C114.019 196.573 115.682 192.245 114.877 187.345C114.072 182.445 102.055 178.136 101.251 175.328C100.446 172.52 103.253 160.897 103.253 160.897C103.253 160.897 107.814 154.817 106.83 157.32C106.135 159.491 105.883 161.779 106.088 164.049C106.294 166.319 106.954 168.525 108.028 170.535C108.782 172.122 109.978 173.457 111.472 174.38C112.966 175.303 114.695 175.775 116.451 175.739L120.814 154.119L111.605 146.501L100.875 150.972C92.8637 160.575 90.1276 163.186 91.6834 170.482Z" fill="#B5B5B5"/>
</g>
</g>
<path d="M159.19 164.527C157.742 155.586 147.495 137.399 131.24 138.097C120.689 138.561 115.753 140.69 111.176 143.282C107.444 145.481 103.966 148.084 100.804 151.044C92.8637 160.575 90.074 163.186 91.6119 170.482C91.4858 173.392 91.9417 176.298 92.9531 179.03C95.3852 185.521 97.0483 189.759 99.1584 192.853C98.5146 195.875 96.8337 203.851 96.7442 205.675C96.6548 207.499 102.109 206.229 104.863 205.532C109.977 216.977 119.348 224.917 122.263 225.829C127.341 227.42 135.371 219.069 139.627 212.595C143.883 206.122 140.664 198.844 140.682 195.947C140.7 193.05 150.249 186.684 153.79 184.663C157.331 182.642 160.621 173.45 159.19 164.527Z" stroke="#B5B5B5" stroke-miterlimit="10"/>
<path d="M101.376 187.453L103.164 192.567C103.164 192.567 107.009 193.837 111.694 188.722" stroke="#B5B5B5" stroke-miterlimit="10" stroke-linecap="round"/>
<path d="M114.591 211.344C114.591 211.344 118.847 210.915 120.564 204.942" stroke="#B5B5B5" stroke-miterlimit="10" stroke-linecap="round"/>
<path d="M98.3896 183.179C98.3896 183.179 99.6593 179.334 107.331 179.334" stroke="#B5B5B5" stroke-miterlimit="10" stroke-linecap="round"/>
<path d="M137.713 130.979C132.139 130.178 126.517 129.748 120.886 129.692C120.886 129.692 104.04 119.981 87.8567 130.336C71.6729 140.69 79.4519 158.823 79.4519 163.347C79.4519 167.871 74.2659 167.889 77.5027 173.719C80.7394 179.548 91.6836 176.33 91.6836 176.33C91.7992 174.131 92.3803 171.982 93.3883 170.024C94.3964 168.067 95.8084 166.345 97.5312 164.974C103.361 160.45 108.01 159.466 109.942 160.772C109.942 160.772 108.654 170.482 110.585 174.363C110.585 174.363 117.059 177.599 119.008 177.599C120.957 177.599 117.739 180.335 124.194 182.767C125.37 183.19 126.628 183.334 127.869 183.188C129.111 183.042 130.301 182.61 131.347 181.927C132.295 177.993 134.369 172.074 138.232 173.45C143.901 175.471 149.069 189.42 141.397 194.176C150.625 195.857 161.801 179.531 162.463 164.652C163.125 149.774 147.298 132.66 137.713 130.979Z" fill="#B5B5B5"/>
<path d="M110.228 154.388C110.228 154.388 114.985 151.83 120.815 157.302C126.644 162.775 137.982 170.089 153.003 166.065" stroke="white" stroke-width="0.5" stroke-linecap="round" stroke-linejoin="round"/>
<path d="M109.566 150.006C109.566 150.006 112.839 144.892 118.311 144.892C123.783 144.892 136.569 152.564 146.78 152.564" stroke="white" stroke-width="0.5" stroke-linecap="round" stroke-linejoin="round"/>
<path d="M105.847 159.86C105.847 159.86 99.6413 152.206 93.8115 158.411C87.9818 164.616 91.6835 170.482 91.6835 170.482" stroke="white" stroke-width="0.5" stroke-linecap="round" stroke-linejoin="round"/>
<path d="M81.0435 164.974C84.5994 161.767 86.8099 157.333 87.2308 152.564C87.964 144.534 98.9261 137.596 105.847 144.177" stroke="white" stroke-width="0.5" stroke-linecap="round" stroke-linejoin="round"/>
<path d="M92.3452 135.772C92.3452 135.772 103.307 125.185 112.427 138.687" stroke="white" stroke-width="0.5" stroke-linecap="round" stroke-linejoin="round"/>
<path d="M181.562 656.281C181.562 656.281 188.304 666.76 187.552 673.502L186.819 680.244C186.819 680.244 162.088 687.021 156.848 687.021C151.608 687.021 123.872 684.392 123.872 684.392L122.674 679.636C122.59 679.284 122.63 678.915 122.786 678.589C122.943 678.264 123.206 678.002 123.533 677.847L148.264 666.313L156.061 657.783L181.562 656.281Z" fill="white" stroke="#B5B5B5" stroke-width="1.00396" stroke-miterlimit="10"/>
<path d="M160.603 681.746C167.309 682.264 180.042 678.169 187.427 675.558L186.909 680.244C186.909 680.244 162.088 687.021 156.848 687.021C151.608 687.021 123.873 684.392 123.873 684.392L123.014 680.995C127.449 681.013 151.734 681.066 160.603 681.746Z" fill="#B5B5B5" stroke="#B5B5B5" stroke-width="1.00396" stroke-miterlimit="10"/>
<path d="M148.3 666.313L112.302 681.978C112.302 681.978 109.226 689.686 112.302 691.223C115.378 692.761 182.438 691.223 182.438 691.223C182.438 691.223 187.069 679.045 179.755 670.873C172.441 662.701 148.3 666.313 148.3 666.313Z" fill="white" stroke="#B5B5B5" stroke-width="1.00396" stroke-miterlimit="10"/>
<path d="M182.438 691.224C182.438 691.224 115.378 692.761 112.302 691.224C110.818 690.472 110.765 688.309 111.104 686.252H183.618C183.381 687.943 182.986 689.607 182.438 691.224Z" fill="#B5B5B5" stroke="#B5B5B5" stroke-width="1.00396" stroke-miterlimit="10"/>
<path d="M131.276 394.122C131.276 394.122 121.869 435.806 118.311 461.879C114.752 487.952 112.66 540.187 113.411 546.178C114.162 552.168 151.608 652.543 151.608 652.543L155.346 661.485L181.562 656.245C181.562 656.245 169.58 618.048 165.092 597.072C160.603 576.095 150.786 541.636 150.786 535.645C150.786 529.654 174.033 415.241 175.696 407.731C177.359 400.22 184.906 388.686 184.906 388.686L134.709 387.666L131.276 394.122Z" fill="#B5B5B5" stroke="#B5B5B5" stroke-width="1.00396" stroke-miterlimit="10"/>
<path d="M131.276 394.122C131.276 394.122 125.768 432.194 128.039 458.66C130.31 485.126 135.192 541.475 135.192 549.861C135.192 558.248 148.729 608.338 149.498 624.074C150.696 646.803 149.015 658.051 149.015 658.051L148.21 666.295C148.21 666.295 164.001 668.548 167.452 669.532C171.438 670.559 175.552 671.005 179.666 670.855C179.666 670.855 185.406 645.587 185.406 624.056C185.406 602.526 180.632 558.213 178.253 540.259C175.875 522.304 183.368 453.045 187.624 440.116C191.88 427.187 201.179 399.809 194.92 385.824C188.661 371.84 131.276 394.122 131.276 394.122Z" fill="#B5B5B5" stroke="#B5B5B5" stroke-width="1.00396" stroke-miterlimit="10"/>
<path d="M201.876 378.814L201.304 395.839C201.304 395.839 191.111 397.859 177.377 400.238C166.039 402.205 137.57 399.719 127.985 398.789C127.112 398.712 126.304 398.293 125.738 397.623C125.172 396.953 124.894 396.087 124.963 395.213L125.893 379.834L201.876 378.814Z" fill="#B5B5B5"/>
<path d="M162.034 209.108C162.034 209.108 145.94 226.508 139.877 237.327C133.815 248.146 131.419 264.723 129.148 277.778C126.877 290.832 133.028 321.483 131.294 335.556L125.804 379.887C125.804 379.887 124.623 382.892 128.576 386.182C132.528 389.472 151.823 390.671 169.258 391.547C175.625 391.869 194.634 387.774 197.745 387.577C201.501 387.344 201.626 382.57 201.787 378.814C202.538 361.164 205.721 314.115 207.813 293.622C212.123 251.83 188.536 211.487 162.034 209.108Z" fill="white" stroke="#B5B5B5" stroke-width="1.00396" stroke-miterlimit="10"/>
<g style="mix-blend-mode:multiply">
<path d="M205.846 317.388C206.561 308.106 207.277 299.684 207.903 293.622C208.082 291.833 208.189 290.045 208.278 288.257L165.521 295.41L128.79 282.892C128.794 290.492 129.224 298.086 130.078 305.639L166.111 315.724L205.846 317.388Z" fill="#B5B5B5"/>
</g>
<g style="mix-blend-mode:multiply">
<path d="M160.442 210.861C158.01 213.561 153.182 219.051 148.586 224.881L175.732 252.474L184.673 248.897L160.442 210.861Z" fill="#B5B5B5"/>
</g>
<path d="M162.034 209.108C162.034 209.108 145.939 226.508 139.877 237.327C138.08 240.615 136.624 244.079 135.532 247.663L167.899 210.271C165.987 209.691 164.022 209.302 162.034 209.108Z" fill="#B5B5B5"/>
<g style="mix-blend-mode:multiply">
<path d="M130.399 270.732L165.521 282.284L208.171 277.384C207.502 266.759 205.142 256.31 201.179 246.429L166.791 260.217L136.05 246.286C133.537 254.276 131.647 262.449 130.399 270.732Z" fill="#B5B5B5"/>
</g>
<g style="mix-blend-mode:multiply">
<path d="M190.86 361.164C173.047 364.155 154.769 362.662 137.678 356.819L129.112 353.886L126.447 375.345L136.211 378.081C154.773 383.271 174.173 384.765 193.31 382.48L201.197 381.533C201.607 380.664 201.838 379.721 201.876 378.761C202.091 373.986 202.466 367.048 202.949 359.09L190.86 361.164Z" fill="#B5B5B5"/>
</g>
<g style="mix-blend-mode:multiply">
<path d="M195.635 331.944C177.821 334.947 159.539 333.447 142.452 327.581L131.544 323.843C131.814 327.739 131.761 331.651 131.383 335.538L130.113 345.857L140.986 348.897C159.54 354.092 178.934 355.593 198.067 353.314L203.432 352.67C203.879 345.517 204.398 337.899 204.952 330.37L195.635 331.944Z" fill="#B5B5B5"/>
</g>
<path d="M27.8628 256.322L62.4395 284.122L63.9298 282.269L29.3531 254.468L27.8628 256.322Z" fill="#B5B5B5"/>
<path d="M178.683 228.404C178.683 228.404 191.361 237.041 191.647 257.445C191.773 266.386 190.843 274.738 188.786 289.383C186.73 304.029 173.962 351.722 164.019 357.516C154.076 363.31 138.643 352.366 138.643 352.366L64.0014 302.813L45.9579 288.239L37.0166 271.358L39.8242 265.993L61.8377 282.874L49.9815 271.912L52.3062 268.961L56.598 271.948L69.1159 276.633L71.8519 294.516L75.7146 297.162L147.12 323.253C147.12 323.253 146.226 284.823 146.887 277.474C147.549 270.124 148.461 251.651 156.329 238.257" fill="white"/>
<mask id="mask4_173_6163" style="mask-type:luminance" maskUnits="userSpaceOnUse" x="37" y="228" width="155" height="132">
<path d="M178.683 228.404C178.683 228.404 191.361 237.041 191.647 257.445C191.773 266.386 190.843 274.738 188.786 289.383C186.73 304.029 173.962 351.722 164.019 357.516C154.076 363.31 138.643 352.366 138.643 352.366L64.0014 302.813L45.9579 288.239L37.0166 271.358L39.8242 265.993L61.8377 282.874L49.9815 271.912L52.3062 268.961L56.598 271.948L69.1159 276.633L71.8519 294.516L75.7146 297.162L147.12 323.253C147.12 323.253 146.226 284.823 146.887 277.474C147.549 270.124 148.461 251.651 156.329 238.257" fill="white"/>
</mask>
<g mask="url(#mask4_173_6163)">
<g style="mix-blend-mode:multiply" opacity="0.5">
<path d="M146.619 294.212C146.619 307.481 147.066 323.253 147.066 323.253L75.7324 297.27L71.8698 294.623L69.1338 276.74L56.6159 272.055L52.342 269.015L50.0173 271.966L61.8377 282.874L39.8242 265.993L37.1597 271.268L46.101 288.149L64.1445 302.813L68.6867 305.835L167.309 337.613L146.619 294.212Z" fill="#B5B5B5"/>
</g>
</g>
<path d="M178.683 228.404C178.683 228.404 191.361 237.041 191.647 257.445C191.773 266.386 190.843 274.738 188.786 289.383C186.73 304.029 173.962 351.722 164.019 357.516C154.076 363.31 138.643 352.366 138.643 352.366L64.0014 302.813L45.9579 288.239L37.0166 271.358L39.8242 265.993L61.8377 282.874L49.9815 271.912L52.3062 268.961L56.598 271.948L69.1159 276.633L71.8519 294.516L75.7146 297.162L147.12 323.253C147.12 323.253 146.226 284.823 146.887 277.474C147.549 270.124 148.461 251.651 156.329 238.257" stroke="#B5B5B5" stroke-width="1.00396" stroke-miterlimit="10"/>
<path d="M147.12 323.253L174.373 342.924L181.436 330.406C181.436 330.406 186.318 326.561 187.034 323.664C187.749 320.767 186.837 316.064 187.57 313.167C188.303 310.27 191.951 307.552 192.291 300.542C192.631 293.532 192.291 287.685 192.291 287.685C192.291 287.685 198.192 263.418 197.548 252.867C196.905 242.316 186.729 223.665 178.575 223.254C170.421 222.842 159.816 224.076 151.59 236.522C143.364 248.969 145.045 285.306 143.758 287.577C142.47 289.848 144.258 301.061 144.258 301.061C143.544 301.594 142.951 302.273 142.519 303.053C142.087 303.833 141.827 304.696 141.755 305.585C141.612 308.5 144.759 315.671 144.759 315.671L147.12 323.253Z" fill="white" stroke="#B5B5B5" stroke-width="1.00396" stroke-miterlimit="10"/>
<g style="mix-blend-mode:multiply">
<path d="M144.473 278.243C144.529 281.363 144.296 284.482 143.776 287.559C142.631 289.598 143.937 298.808 144.223 300.685C159.551 305.446 175.76 306.669 191.63 304.262C191.971 303.018 192.174 301.741 192.238 300.453C192.595 293.461 192.238 287.595 192.238 287.595C192.238 287.595 192.756 285.431 193.472 282.141C177.036 283.186 160.536 281.873 144.473 278.243Z" fill="#B5B5B5"/>
</g>
<g style="mix-blend-mode:multiply">
<path d="M150.482 238.507C147.925 243.64 146.494 251.347 145.671 259.162C161.905 265.357 179.409 267.488 196.655 265.367C197.343 261.231 197.648 257.041 197.567 252.849C197.257 249.536 196.474 246.284 195.242 243.193C180.183 243.544 165.141 241.97 150.482 238.507Z" fill="#B5B5B5"/>
</g>
<path d="M144.759 315.868L147.066 323.253L174.319 342.924L181.383 330.406C181.383 330.406 186.265 326.561 186.98 323.664C187.108 323.161 187.186 322.645 187.213 322.126C172.851 321.878 158.582 319.775 144.759 315.868Z" fill="#B5B5B5"/>
<path d="M164.484 669.299C164.484 669.299 165.092 653.813 168.06 631.174C171.029 608.534 163.893 576.381 162.695 571.017C161.497 565.652 163.303 553.742 162.105 549.557C160.907 545.373 155.113 527.526 158.529 506.818C161.944 486.11 164.716 431.371 164.716 431.371C164.716 431.371 156.114 424.379 153.593 415.277C151.072 406.175 153.003 403.313 153.003 403.313" stroke="#B5B5B5" stroke-width="1.00396" stroke-miterlimit="10"/>
<path d="M168.471 404.154L165.163 422.466" stroke="#B5B5B5" stroke-width="1.00396" stroke-miterlimit="10"/>
</svg>
