<svg width="197" height="205" viewBox="0 0 197 205" fill="none" xmlns="http://www.w3.org/2000/svg">
<rect x="0.5" y="0.5" width="196" height="204" rx="98" fill="white"/>
<rect x="0.5" y="0.5" width="196" height="204" rx="98" stroke="#E7E7E7"/>
<path d="M56.1 112.76C56.86 113.72 57.24 115.14 57.24 117.02C57.24 118.86 56.52 120.36 55.08 121.52C53.68 122.64 51.74 123.2 49.26 123.2C47.82 123.2 45.98 123.04 43.74 122.72C39.34 122.04 36.5 121.7 35.22 121.7C33.98 121.7 33.1 121.74 32.58 121.82C32.06 121.86 31.38 121.92 30.54 122L37.8 82.4H50.94L44.94 115.4C45.46 115.48 45.96 115.52 46.44 115.52H47.94C51.3 115.52 54.02 114.6 56.1 112.76ZM74.3344 123.2C65.5344 123.2 61.1344 119.06 61.1344 110.78C61.1344 104.9 62.7544 100.06 65.9944 96.26C69.4344 92.22 74.1344 90.2 80.0944 90.2C84.4144 90.2 87.6744 91.2 89.8744 93.2C92.0744 95.2 93.1744 98.3 93.1744 102.5C93.1744 108.9 91.4544 113.96 88.0144 117.68C84.6544 121.36 80.0944 123.2 74.3344 123.2ZM75.8944 97.1C75.4144 98.18 74.9744 99.54 74.5744 101.18C74.2144 102.78 73.7944 104.86 73.3144 107.42C72.8344 109.98 72.5944 112.84 72.5944 116C72.5944 117.04 72.7544 117.9 73.0744 118.58C73.4344 119.26 74.0744 119.6 74.9944 119.6C75.9144 119.6 76.6544 119.38 77.2144 118.94C77.8144 118.5 78.3344 117.76 78.7744 116.72C79.5744 114.88 80.2944 112.26 80.9344 108.86C81.5744 105.42 81.9144 102.96 81.9544 101.48C82.0344 100 82.0744 98.72 82.0744 97.64C82.0744 96.52 81.9144 95.6 81.5944 94.88C81.2744 94.16 80.6544 93.8 79.7344 93.8C78.8544 93.8 78.1144 94.08 77.5144 94.64C76.9144 95.2 76.3744 96.02 75.8944 97.1ZM100.964 96.92C102.324 95 104.024 93.4 106.064 92.12C108.144 90.84 110.444 90.2 112.964 90.2C115.484 90.2 117.344 90.6 118.544 91.4L130.304 90.2L126.224 113.24C124.824 121.08 122.644 126.54 119.684 129.62C116.844 132.54 112.664 134 107.144 134C102.944 134 99.6436 133.34 97.2436 132.02C94.8436 130.7 93.6436 128.94 93.6436 126.74C93.6436 125.1 94.2636 123.8 95.5036 122.84C96.7436 121.92 98.3236 121.46 100.244 121.46C101.924 121.46 103.404 121.84 104.684 122.6C105.444 123 106.004 123.48 106.364 124.04C105.444 124.84 104.984 125.9 104.984 127.22C104.984 128.94 105.784 129.8 107.384 129.8C110.064 129.8 112.164 126.64 113.684 120.32C114.124 118.6 114.524 116.88 114.884 115.16C113.084 117.36 110.144 118.46 106.064 118.46C103.224 118.46 100.984 117.78 99.3436 116.42C97.7036 115.06 96.8836 112.78 96.8836 109.58C96.8836 107.58 97.2236 105.46 97.9036 103.22C98.5836 100.94 99.6036 98.84 100.964 96.92ZM108.764 109.76C108.764 112.48 109.464 113.84 110.864 113.84C111.824 113.84 112.764 113.32 113.684 112.28C114.404 111.44 114.904 110.4 115.184 109.16L118.244 93.74C118.044 93.7 117.844 93.64 117.644 93.56C117.244 93.4 116.784 93.32 116.264 93.32C113.824 93.32 111.884 95.32 110.444 99.32C109.324 102.44 108.764 105.92 108.764 109.76ZM145.702 123.2C136.902 123.2 132.502 119.06 132.502 110.78C132.502 104.9 134.122 100.06 137.362 96.26C140.802 92.22 145.502 90.2 151.462 90.2C155.782 90.2 159.042 91.2 161.242 93.2C163.442 95.2 164.542 98.3 164.542 102.5C164.542 108.9 162.822 113.96 159.382 117.68C156.022 121.36 151.462 123.2 145.702 123.2ZM147.262 97.1C146.782 98.18 146.342 99.54 145.942 101.18C145.582 102.78 145.162 104.86 144.682 107.42C144.202 109.98 143.962 112.84 143.962 116C143.962 117.04 144.122 117.9 144.442 118.58C144.802 119.26 145.442 119.6 146.362 119.6C147.282 119.6 148.022 119.38 148.582 118.94C149.182 118.5 149.702 117.76 150.142 116.72C150.942 114.88 151.662 112.26 152.302 108.86C152.942 105.42 153.282 102.96 153.322 101.48C153.402 100 153.442 98.72 153.442 97.64C153.442 96.52 153.282 95.6 152.962 94.88C152.642 94.16 152.022 93.8 151.102 93.8C150.222 93.8 149.482 94.08 148.882 94.64C148.282 95.2 147.742 96.02 147.262 97.1Z" fill="black"/>
</svg>
