<svg width="93" height="82" viewBox="0 0 93 82" fill="none" xmlns="http://www.w3.org/2000/svg">
<path d="M49.0711 13.0278C49.1435 13.1138 49.1727 13.2191 49.1527 13.322C49.1327 13.425 49.0651 13.5178 48.9638 13.5814C38.5758 20.0304 31.9089 28.4754 28.9631 38.9162C28.8438 39.3532 29.0108 39.6932 29.464 39.936C32.6126 41.5968 35.9758 42.4418 35.94 46.1859C35.9043 49.459 35.8685 52.7078 35.8327 55.9323C35.8337 56.0257 35.8624 56.1178 35.9162 56.2002C35.97 56.2827 36.0472 56.353 36.141 56.4048C36.2348 56.4567 36.3423 56.4886 36.4539 56.4977C36.5656 56.5067 36.6778 56.4927 36.7809 56.4567C46.3519 53.2225 64.8677 51.9113 71.0755 60.7108C71.3498 61.0993 71.7672 61.2741 72.3278 61.2352C79.1378 60.7885 84.3914 58.4478 88.0886 54.2132C98.3215 42.4563 84.2781 21.2736 70.8966 13.8145C70.7613 13.7401 70.6491 13.6412 70.5688 13.5255C70.4884 13.4099 70.4421 13.2806 70.4334 13.1479C70.4248 13.0152 70.454 12.8827 70.5188 12.7607C70.5837 12.6388 70.6824 12.5307 70.8071 12.4451C73.1328 10.8717 78.7502 7.34607 78.7323 4.75286C78.7276 3.86921 78.2925 3.02285 77.5219 2.39802C76.7513 1.77319 75.7075 1.42048 74.6177 1.41666C67.8553 1.38752 47.3716 -0.0256307 42.0763 2.52387C41.4105 2.84312 40.9262 3.36335 40.7286 3.97161C40.531 4.57987 40.636 5.22706 41.0208 5.77266C43.1854 8.87577 46.6739 10.2744 49.0711 13.0278Z" stroke="#8AD0EF" stroke-width="2"/>
<path d="M32.4685 45.501C32.4732 44.3998 30.8455 43.3391 27.9435 42.5522C25.0414 41.7652 21.1028 41.3166 16.9939 41.3049C14.9594 41.2991 12.9444 41.4008 11.0639 41.6041C9.18335 41.8075 7.4742 42.1085 6.03396 42.4899C4.59372 42.8714 3.45062 43.3259 2.66992 43.8274C1.88922 44.3289 1.4862 44.8677 1.4839 45.413C1.47919 46.5141 3.10691 47.5749 6.00896 48.3618C8.91101 49.1487 12.8497 49.5973 16.9585 49.609C18.993 49.6148 21.0081 49.5131 22.8886 49.3098C24.7691 49.1065 26.4782 48.8055 27.9185 48.424C29.3587 48.0425 30.5018 47.5881 31.2825 47.0865C32.0632 46.585 32.4662 46.0462 32.4685 45.501Z" stroke="#909DB9" stroke-width="2"/>
<path d="M3.29064 50.4681C1.72827 50.0116 1.01272 50.4535 1.14391 51.7938L1.19757 52.26C1.36454 53.9597 2.43198 55.1058 4.39985 55.6982C13.2254 58.3594 21.9437 58.2283 30.5546 55.3049C31.6757 54.9261 32.2839 54.2462 32.3794 53.2653L32.6119 50.9489C32.6954 50.1524 32.2839 49.8999 31.3775 50.1913C22.0391 53.173 12.6768 53.2653 3.29064 50.4681Z" stroke="#909DB9" stroke-width="2"/>
<path d="M67.05 61.09C67.05 59.9657 65.414 58.8873 62.5018 58.0923C59.5897 57.2972 55.6401 56.8506 51.5217 56.8506C47.4034 56.8506 43.4537 57.2972 40.5416 58.0923C37.6294 58.8873 35.9934 59.9657 35.9934 61.09C35.9934 61.6468 36.3951 62.1981 37.1754 62.7124C37.9558 63.2268 39.0996 63.6941 40.5416 64.0878C41.9835 64.4815 43.6953 64.7937 45.5793 65.0068C47.4633 65.2198 49.4825 65.3295 51.5217 65.3295C53.5609 65.3295 55.5802 65.2198 57.4641 65.0068C59.3481 64.7937 61.0599 64.4815 62.5018 64.0878C63.9438 63.6941 65.0876 63.2268 65.868 62.7124C66.6483 62.1981 67.05 61.6468 67.05 61.09Z" stroke="#909DB9" stroke-width="2"/>
<path d="M4.23933 63.5234C12.7668 65.9904 21.3121 65.9807 29.8753 63.4943C30.6477 63.2706 31.3215 62.8648 31.8118 62.3282C32.3021 61.7915 32.587 61.1479 32.6304 60.4786L32.684 59.6045C32.7675 58.2447 32.028 57.8077 30.4657 58.2933C21.3658 61.1002 12.2838 61.0662 3.21965 58.1913C1.50224 57.6474 0.780649 58.1136 1.05496 59.5899L1.25177 60.5806C1.37607 61.2454 1.71958 61.8702 2.24573 62.3885C2.77188 62.9068 3.46091 63.299 4.23933 63.5234Z" stroke="#909DB9" stroke-width="2"/>
<path d="M30.805 66.0282C21.6097 68.8157 12.4144 68.8351 3.21909 66.0865C1.82369 65.6786 1.16772 66.0719 1.25121 67.2666L1.28697 68.097C1.39431 69.7966 2.43788 70.9038 4.41767 71.4186C12.957 73.6719 21.4666 73.6039 29.9463 71.2146C31.3179 70.8261 32.105 70.0443 32.3077 68.8691L32.594 67.2083C32.8087 65.9942 32.2123 65.6009 30.805 66.0282Z" stroke="#909DB9" stroke-width="2"/>
<path d="M67.1755 68.2445L67.247 67.3412C67.3543 66.0495 66.6686 65.627 65.1897 66.0738C55.8632 68.8709 46.5784 68.8175 37.3354 65.9135C36.2501 65.5736 35.7373 65.8747 35.7969 66.8168L35.9221 68.9146C35.9491 69.3771 36.1416 69.8226 36.4756 70.1956C36.8096 70.5687 37.2704 70.8528 37.8005 71.0125C46.5665 73.6834 55.3802 73.7951 64.2415 71.3476C65.0531 71.1224 65.7646 70.7076 66.2867 70.1555C66.8087 69.6033 67.118 68.9384 67.1755 68.2445Z" stroke="#909DB9" stroke-width="2"/>
<path d="M35.7608 74.5505L35.9218 76.6629C35.9586 77.133 36.1602 77.5846 36.5026 77.9642C36.8451 78.3438 37.314 78.6354 37.8539 78.8045C46.6199 81.6016 55.4216 81.7085 64.2591 79.125C66.2151 78.552 67.1871 77.4205 67.1752 75.7305V75.2643C67.1633 74.0114 66.4298 73.5841 64.9747 73.9823C55.6363 76.5755 46.3754 76.4784 37.192 73.6909C36.1782 73.3898 35.7012 73.6763 35.7608 74.5505Z" stroke="#909DB9" stroke-width="2"/>
<path d="M1.12634 74.9151L1.35892 76.5905C1.42437 77.0785 1.65227 77.5427 2.01799 77.933C2.38372 78.3232 2.87338 78.6247 3.43413 78.8049C12.1166 81.6312 20.8468 81.7283 29.6247 79.0963C31.3063 78.5912 32.2545 77.6151 32.4692 76.168L32.5944 75.2939C32.7971 73.9439 32.1114 73.4971 30.5371 73.9536C21.294 76.5856 12.0928 76.5274 2.93322 73.7788C1.57361 73.3708 0.9713 73.7496 1.12634 74.9151Z" stroke="#909DB9" stroke-width="2"/>
<path d="M54.9391 28.9387C57.6226 25.5005 62.8106 27.3944 66.156 29.5506C67.1936 30.2207 68.261 30.2353 69.3582 29.5943C69.9188 29.2738 70.0858 28.8513 69.8591 28.3268C68.7977 25.7919 66.6927 24.0534 63.5441 23.1113C63.2913 23.0322 63.0706 22.8991 62.9064 22.7268C62.7421 22.5545 62.6408 22.3497 62.6138 22.1352C62.3872 20.5423 61.3496 19.6634 59.501 19.4983C59.1827 19.47 58.8618 19.5273 58.5872 19.6615C58.3127 19.7956 58.0995 19.9992 57.9803 20.2413C56.895 22.4071 55.0047 23.9611 52.3093 24.9032C51.892 25.0445 51.5405 25.295 51.3075 25.6171C45.6007 33.4695 54.2235 36.6309 62.1844 36.5726C62.7003 36.5661 63.2078 36.6792 63.6477 36.8988C64.0876 37.1184 64.4417 37.4353 64.6686 37.8126C64.8956 38.1899 64.9861 38.612 64.9295 39.0296C64.8729 39.4472 64.6716 39.8431 64.3491 40.1711C61.4509 43.143 56.746 41.1034 53.5795 39.4135C52.2079 38.6754 51.0451 38.6608 50.091 39.3698C49.5781 39.7486 49.4529 40.2002 49.7153 40.7247C50.896 43.0945 52.9712 44.663 55.9409 45.4303C56.2183 45.5058 56.4664 45.6382 56.6609 45.8145C56.8555 45.9908 56.9896 46.2048 57.0501 46.4355L57.5152 48.3003C57.577 48.5295 57.7351 48.7343 57.9633 48.8803C58.1914 49.0262 58.4754 49.1044 58.7675 49.1016L60.7533 49.0725C61.5524 49.053 62.0354 48.7228 62.2023 48.0818L62.5959 46.6249C62.6629 46.3951 62.795 46.1815 62.9816 46.0018C63.1681 45.822 63.4037 45.6811 63.6693 45.5906C70.8073 43.2742 72.6142 36.1793 65.673 33.2218C63.1326 32.1583 59.6978 32.202 56.7996 31.9981C56.3797 31.969 55.9761 31.8522 55.6278 31.659C55.2795 31.4658 54.9982 31.2027 54.8112 30.8952C54.6241 30.5876 54.5377 30.246 54.5601 29.9033C54.5825 29.5605 54.713 29.2283 54.9391 28.9387Z" stroke="#8AD0EF" stroke-width="2"/>
<path d="M49.0711 13.0278C46.6739 10.2744 43.1854 8.87577 41.0208 5.77266C40.636 5.22706 40.531 4.57987 40.7286 3.97161C40.9262 3.36335 41.4105 2.84312 42.0763 2.52387C47.3716 -0.0256307 67.8554 1.38752 74.6177 1.41666C75.7075 1.42048 76.7513 1.77319 77.5219 2.39802C78.2925 3.02285 78.7276 3.86921 78.7323 4.75286C78.7502 7.34607 73.1328 10.8717 70.8071 12.4451C70.6824 12.5307 70.5837 12.6388 70.5188 12.7607C70.454 12.8827 70.4248 13.0152 70.4334 13.1479C70.4421 13.2806 70.4884 13.4099 70.5688 13.5255C70.6491 13.6412 70.7613 13.7401 70.8966 13.8145C84.2781 21.2736 98.3215 42.4563 88.0886 54.2132C84.3914 58.4478 79.1378 60.7885 72.3278 61.2352C71.7672 61.2741 71.3498 61.0993 71.0755 60.7108C64.8677 51.9113 46.3519 53.2225 36.7809 56.4567C36.6778 56.4927 36.5656 56.5067 36.4539 56.4977C36.3423 56.4886 36.2348 56.4567 36.141 56.4048C36.0472 56.353 35.97 56.2827 35.9162 56.2002C35.8624 56.1178 35.8337 56.0257 35.8327 55.9323C35.8685 52.7078 35.9043 49.459 35.94 46.1859C35.9758 42.4418 32.6126 41.5968 29.464 39.936C29.0108 39.6932 28.8438 39.3532 28.9631 38.9162C31.9089 28.4754 38.5758 20.0304 48.9638 13.5814C49.0651 13.5178 49.1327 13.425 49.1527 13.322C49.1727 13.2191 49.1435 13.1138 49.0711 13.0278ZM54.939 28.9367C57.6224 25.4985 62.8104 27.3924 66.1558 29.5486C67.1934 30.2187 68.2608 30.2333 69.3581 29.5923C69.9186 29.2718 70.0856 28.8493 69.859 28.3248C68.7975 25.7899 66.6925 24.0514 63.5439 23.1093C63.2912 23.0302 63.0704 22.8971 62.9062 22.7248C62.742 22.5525 62.6407 22.3477 62.6136 22.1332C62.387 20.5403 61.3494 19.6614 59.5008 19.4963C59.1825 19.468 58.8616 19.5253 58.5871 19.6595C58.3125 19.7936 58.0993 19.9972 57.9802 20.2393C56.8949 22.4051 55.0046 23.9591 52.3092 24.9012C51.8919 25.0425 51.5403 25.2931 51.3074 25.6151C45.6005 33.4675 54.2234 36.6289 62.1843 36.5706C62.7001 36.5641 63.2077 36.6772 63.6475 36.8968C64.0874 37.1164 64.4415 37.4333 64.6685 37.8106C64.8954 38.1879 64.9859 38.61 64.9293 39.0276C64.8727 39.4452 64.6714 39.8411 64.3489 40.1691C61.4508 43.1411 56.7458 41.1015 53.5793 39.4115C52.2078 38.6734 51.0449 38.6588 50.0908 39.3678C49.578 39.7466 49.4528 40.1982 49.7151 40.7227C50.8959 43.0925 52.9711 44.661 55.9408 45.4283C56.2181 45.5038 56.4663 45.6362 56.6608 45.8125C56.8553 45.9888 56.9895 46.2028 57.0499 46.4336L57.5151 48.2983C57.5768 48.5275 57.735 48.7323 57.9631 48.8783C58.1912 49.0242 58.4753 49.1024 58.7673 49.0996L60.7531 49.0705C61.5522 49.051 62.0352 48.7208 62.2022 48.0798L62.5958 46.6229C62.6628 46.3931 62.7949 46.1795 62.9814 45.9998C63.168 45.82 63.4036 45.6791 63.6691 45.5886C70.8071 43.2722 72.614 36.1773 65.6728 33.2199C63.1325 32.1563 59.6976 32.2001 56.7995 31.9961C56.3795 31.967 55.9759 31.8502 55.6276 31.657C55.2793 31.4638 54.998 31.2007 54.811 30.8932C54.624 30.5856 54.5375 30.244 54.5599 29.9013C54.5823 29.5586 54.7129 29.2263 54.939 28.9367Z" fill="#C19F33"/>
<path d="M54.9386 28.9387C54.7126 29.2283 54.582 29.5605 54.5596 29.9033C54.5372 30.246 54.6236 30.5876 54.8107 30.8952C54.9977 31.2027 55.279 31.4658 55.6273 31.659C55.9756 31.8522 56.3792 31.969 56.7991 31.9981C59.6973 32.202 63.1321 32.1583 65.6725 33.2218C72.6137 36.1793 70.8068 43.2742 63.6688 45.5906C63.4033 45.6811 63.1676 45.822 62.9811 46.0018C62.7946 46.1815 62.6624 46.3951 62.5954 46.6249L62.2019 48.0818C62.0349 48.7228 61.5519 49.053 60.7528 49.0725L58.767 49.1016C58.4749 49.1044 58.1909 49.0262 57.9628 48.8803C57.7347 48.7343 57.5765 48.5295 57.5148 48.3003L57.0496 46.4355C56.9891 46.2048 56.855 45.9908 56.6605 45.8145C56.4659 45.6382 56.2178 45.5058 55.9405 45.4303C52.9708 44.663 50.8955 43.0945 49.7148 40.7247C49.4524 40.2002 49.5776 39.7486 50.0905 39.3698C51.0446 38.6608 52.2075 38.6754 53.579 39.4135C56.7455 41.1034 61.4505 43.143 64.3486 40.1711C64.6711 39.8431 64.8724 39.4472 64.929 39.0296C64.9856 38.612 64.8951 38.1899 64.6681 37.8126C64.4412 37.4353 64.0871 37.1184 63.6472 36.8988C63.2073 36.6792 62.6998 36.5661 62.184 36.5726C54.223 36.6309 45.6002 33.4695 51.307 25.6171C51.54 25.295 51.8915 25.0445 52.3088 24.9032C55.0042 23.9611 56.8945 22.4071 57.9799 20.2413C58.099 19.9992 58.3122 19.7956 58.5867 19.6615C58.8613 19.5273 59.1822 19.47 59.5005 19.4983C61.3491 19.6634 62.3867 20.5423 62.6133 22.1352C62.6404 22.3497 62.7416 22.5545 62.9059 22.7268C63.0701 22.8991 63.2908 23.0322 63.5436 23.1113C66.6922 24.0534 68.7972 25.7919 69.8587 28.3268C70.0853 28.8513 69.9183 29.2738 69.3577 29.5943C68.2605 30.2353 67.1931 30.2207 66.1555 29.5506C62.8101 27.3944 57.6221 25.5005 54.9386 28.9387Z" fill="white"/>
<path d="M16.9585 49.6108C25.5147 49.6351 32.4589 47.7959 32.4687 45.5028C32.4786 43.2097 25.5503 41.3311 16.9941 41.3067C8.4379 41.2824 1.49374 43.1216 1.48391 45.4147C1.47408 47.7078 8.4023 49.5865 16.9585 49.6108Z" fill="#434343"/>
<path d="M3.29064 50.4681C12.6768 53.2653 22.0391 53.173 31.3775 50.1913C32.2839 49.8999 32.6954 50.1524 32.6119 50.9489L32.3794 53.2653C32.2839 54.2462 31.6757 54.9261 30.5546 55.3049C21.9437 58.2283 13.2254 58.3594 4.39985 55.6982C2.43198 55.1058 1.36454 53.9597 1.19757 52.26L1.14391 51.7938C1.01272 50.4535 1.72827 50.0116 3.29064 50.4681Z" fill="#434343"/>
<path d="M51.5217 65.3295C60.0978 65.3295 67.05 63.4314 67.05 61.09C67.05 58.7487 60.0978 56.8506 51.5217 56.8506C42.9457 56.8506 35.9934 58.7487 35.9934 61.09C35.9934 63.4314 42.9457 65.3295 51.5217 65.3295Z" fill="#434343"/>
<path d="M4.23933 63.5234C3.46091 63.299 2.77188 62.9068 2.24573 62.3885C1.71958 61.8702 1.37607 61.2454 1.25177 60.5806L1.05496 59.5899C0.780649 58.1136 1.50224 57.6474 3.21965 58.1913C12.2838 61.0662 21.3658 61.1002 30.4657 58.2933C32.028 57.8077 32.7675 58.2447 32.684 59.6045L32.6304 60.4786C32.587 61.1479 32.3021 61.7915 31.8118 62.3282C31.3215 62.8648 30.6477 63.2706 29.8753 63.4943C21.3121 65.9807 12.7668 65.9904 4.23933 63.5234Z" fill="#434343"/>
<path d="M30.805 66.0282C32.2123 65.6009 32.8087 65.9942 32.594 67.2083L32.3077 68.8691C32.105 70.0443 31.3179 70.8261 29.9463 71.2146C21.4666 73.6039 12.957 73.6719 4.41767 71.4186C2.43788 70.9038 1.39431 69.7966 1.28697 68.097L1.25121 67.2666C1.16772 66.0719 1.82369 65.6786 3.21909 66.0865C12.4144 68.8351 21.6097 68.8157 30.805 66.0282Z" fill="#434343"/>
<path d="M64.2416 71.3476C55.3802 73.7951 46.5665 73.6834 37.8005 71.0125C37.2704 70.8528 36.8096 70.5687 36.4756 70.1956C36.1416 69.8226 35.9491 69.3771 35.9221 68.9146L35.7969 66.8168C35.7373 65.8747 36.2501 65.5736 37.3354 65.9135C46.5784 68.8175 55.8632 68.8709 65.1897 66.0738C66.6686 65.627 67.3543 66.0495 67.247 67.3412L67.1755 68.2445C67.118 68.9384 66.8087 69.6033 66.2867 70.1555C65.7646 70.7076 65.0531 71.1224 64.2416 71.3476Z" fill="#434343"/>
<path d="M37.192 73.6909C46.3754 76.4784 55.6363 76.5755 64.9747 73.9823C66.4298 73.5841 67.1633 74.0114 67.1752 75.2643V75.7305C67.1871 77.4205 66.2151 78.552 64.2591 79.125C55.4216 81.7085 46.6199 81.6016 37.8539 78.8045C37.314 78.6354 36.8451 78.3438 36.5026 77.9642C36.1602 77.5846 35.9586 77.133 35.9218 76.6629L35.7608 74.5505C35.7012 73.6763 36.1782 73.3898 37.192 73.6909Z" fill="#434343"/>
<path d="M2.93322 73.7788C12.0928 76.5274 21.294 76.5856 30.5371 73.9536C32.1114 73.4971 32.7971 73.9439 32.5944 75.2939L32.4692 76.168C32.2545 77.6151 31.3063 78.5912 29.6247 79.0963C20.8468 81.7283 12.1166 81.6312 3.43413 78.8049C2.87338 78.6247 2.38372 78.3232 2.01799 77.933C1.65227 77.5427 1.42437 77.0785 1.35892 76.5905L1.12634 74.9151C0.9713 73.7496 1.57361 73.3708 2.93322 73.7788Z" fill="#434343"/>
</svg>
