<svg width="80" height="80" viewBox="0 0 80 80" fill="none" xmlns="http://www.w3.org/2000/svg">
<path d="M30 33.3333C20.81 33.3333 13.3333 25.8567 13.3333 16.6667C13.3333 7.47667 20.81 0 30 0C39.19 0 46.6667 7.47667 46.6667 16.6667C46.6667 25.8567 39.19 33.3333 30 33.3333ZM30 5C23.5667 5 18.3333 10.2333 18.3333 16.6667C18.3333 23.1 23.5667 28.3333 30 28.3333C36.4333 28.3333 41.6667 23.1 41.6667 16.6667C41.6667 10.2333 36.4333 5 30 5ZM30.8333 70H2.5C1.83696 70 1.20107 69.7366 0.732233 69.2678C0.263392 68.7989 0 68.163 0 67.5L0 55.8333C0.00529226 51.6357 1.67514 47.6115 4.64332 44.6433C7.6115 41.6751 11.6357 40.0053 15.8333 40H44.1667C44.8297 40 45.4656 40.2634 45.9344 40.7322C46.4033 41.2011 46.6667 41.837 46.6667 42.5C46.6667 43.163 46.4033 43.7989 45.9344 44.2678C45.4656 44.7366 44.8297 45 44.1667 45H15.8333C12.9612 45.0035 10.2078 46.146 8.17691 48.1769C6.14603 50.2078 5.00353 52.9612 5 55.8333V65H30.8333C31.4964 65 32.1323 65.2634 32.6011 65.7322C33.0699 66.2011 33.3333 66.837 33.3333 67.5C33.3333 68.163 33.0699 68.7989 32.6011 69.2678C32.1323 69.7366 31.4964 70 30.8333 70ZM74.1667 80H45.8333C42.6167 80 40 77.3833 40 74.1667V59.1667C40 55.95 42.6167 53.3333 45.8333 53.3333H74.1667C77.3833 53.3333 80 55.95 80 59.1667V74.1667C80 77.3833 77.3833 80 74.1667 80ZM45.8333 58.3333C45.6123 58.3333 45.4004 58.4211 45.2441 58.5774C45.0878 58.7337 45 58.9457 45 59.1667V74.1667C45 74.6267 45.3733 75 45.8333 75H74.1667C74.3877 75 74.5996 74.9122 74.7559 74.7559C74.9122 74.5996 75 74.3877 75 74.1667V59.1667C75 58.9457 74.9122 58.7337 74.7559 58.5774C74.5996 58.4211 74.3877 58.3333 74.1667 58.3333H45.8333Z" fill="white"/>
<path d="M67.5 58.3333C66.837 58.3333 66.2011 58.0699 65.7322 57.6011C65.2634 57.1323 65 56.4964 65 55.8333V50.8333C65 50.6123 64.9122 50.4004 64.7559 50.2441C64.5996 50.0878 64.3877 50 64.1667 50H55.8333C55.6123 50 55.4004 50.0878 55.2441 50.2441C55.0878 50.4004 55 50.6123 55 50.8333V55.8333C55 56.4964 54.7366 57.1323 54.2678 57.6011C53.7989 58.0699 53.163 58.3333 52.5 58.3333C51.837 58.3333 51.2011 58.0699 50.7322 57.6011C50.2634 57.1323 50 56.4964 50 55.8333V50.8333C50 47.6167 52.6167 45 55.8333 45H64.1667C67.3833 45 70 47.6167 70 50.8333V55.8333C70 56.4964 69.7366 57.1323 69.2678 57.6011C68.7989 58.0699 68.163 58.3333 67.5 58.3333Z" fill="white"/>
<path d="M60 70C59.6285 70.0004 59.2616 69.9172 58.9266 69.7566L41.4266 61.4233C40.8277 61.1382 40.3665 60.6268 40.1446 60.0017C39.9227 59.3766 39.9582 58.6889 40.2433 58.09C40.5284 57.491 41.0398 57.0299 41.6649 56.8079C42.29 56.586 42.9777 56.6215 43.5766 56.9066L60 64.73L76.4266 56.9066C77.0208 56.6537 77.6898 56.6402 78.2937 56.869C78.8976 57.0977 79.3898 57.551 79.6673 58.1341C79.9449 58.7171 79.9864 59.3849 79.7831 59.9979C79.5799 60.6109 79.1476 61.1216 78.5766 61.4233L61.0766 69.7566C60.7404 69.9169 60.3725 70.0001 60 70Z" fill="white"/>
</svg>
