<svg width="93" height="82" viewBox="0 0 93 82" fill="none" xmlns="http://www.w3.org/2000/svg">
<path d="M72.8273 8.70671L45.3482 24.1901C43.5425 25.2016 43.1355 26.7244 44.1272 28.7584L44.3658 29.2479C44.6339 29.8073 45.0781 30.2252 45.6076 30.4163C46.1371 30.6073 46.712 30.557 47.2148 30.2757L75.171 14.5476C75.7604 14.2105 76.1908 14.3899 76.4621 15.0861L77.5428 17.8107C77.7106 18.2454 77.9839 18.6136 78.3291 18.8703C78.6744 19.127 79.0765 19.2609 79.4863 19.2557C79.8961 19.2505 80.2956 19.1064 80.6359 18.841C80.9763 18.5757 81.2426 18.2006 81.4022 17.7618L85.2897 7.22201C85.3958 6.93341 85.448 6.62194 85.4429 6.30816C85.4378 5.99438 85.3754 5.68543 85.26 5.40172C85.1446 5.118 84.9788 4.86596 84.7735 4.66225C84.5681 4.45855 84.3279 4.3078 84.0688 4.21997C81.1309 3.23016 78.0247 2.20772 74.75 1.15266C73.3746 0.717581 72.4484 1.21248 71.9712 2.63736C71.865 2.95041 71.8163 3.28513 71.8284 3.61967C71.8405 3.95421 71.9131 4.28106 72.0414 4.5789L73.2343 7.35253C73.2844 7.47245 73.3135 7.60269 73.3202 7.73577C73.3268 7.86885 73.3108 8.00215 73.273 8.12799C73.2352 8.25384 73.1763 8.36975 73.0998 8.46907C73.0233 8.56838 72.9307 8.64915 72.8273 8.70671Z" stroke="#909DB9" stroke-width="2"/>
<path d="M38.3872 25.072C38.3872 19.3083 36.4177 13.7806 32.912 9.70505C29.4063 5.62948 24.6515 3.33984 19.6936 3.33984C14.7358 3.33984 9.98093 5.62948 6.47519 9.70505C2.96946 13.7806 1 19.3083 1 25.072C1 30.8358 2.96946 36.3634 6.47519 40.439C9.98093 44.5146 14.7358 46.8042 19.6936 46.8042C24.6515 46.8042 29.4063 44.5146 32.912 40.439C36.4177 36.3634 38.3872 30.8358 38.3872 25.072Z" stroke="#8AD0EF" stroke-width="2"/>
<path d="M37.2362 73.2011V55.6131C37.2362 55.436 37.2059 55.2607 37.1472 55.0973C37.0885 54.9339 37.0025 54.7857 36.8942 54.6613C36.7858 54.5368 36.6573 54.4386 36.516 54.3723C36.3748 54.3061 36.2237 54.2731 36.0714 54.2752L22.8791 54.3079C22.6732 54.3121 22.4769 54.4086 22.3325 54.5764C22.1882 54.7442 22.1073 54.97 22.1073 55.2052L22.0932 73.1685C22.0932 73.9408 21.7657 74.3269 21.1108 74.3269L14.7252 74.4085C14.0422 74.4194 13.7007 74.0223 13.7007 73.2175L13.799 52.3663C13.799 51.6376 13.509 51.1372 12.9289 50.8653L8.81685 48.9727C8.32098 48.7443 8.073 48.9401 8.073 49.5601V77.7205C8.073 78.5859 8.36876 79.4159 8.89515 80.0279C9.42153 80.6398 10.1354 80.9836 10.8798 80.9836L88.7139 80.9999C90.7909 80.9999 91.7499 79.7926 91.5909 77.3779L91.5347 76.5621C91.493 75.9776 91.266 75.4319 90.8978 75.0309C90.5296 74.6299 90.0463 74.4023 89.5418 74.3922L83.9562 74.2616C83.7986 74.2574 83.6487 74.1816 83.5386 74.0505C83.4284 73.9194 83.3668 73.7434 83.3668 73.5601V28.5784C83.3668 27.9927 83.1676 27.4308 82.8127 27.0151C82.4578 26.5995 81.9759 26.3638 81.4721 26.3595L69.922 26.3105C69.7015 26.3106 69.4832 26.3609 69.2796 26.4587C69.0761 26.5564 68.8913 26.6997 68.736 26.8802C68.5808 27.0607 68.4581 27.2749 68.375 27.5103C68.2919 27.7458 68.25 27.9979 68.2519 28.2521L68.4484 72.8422C68.4577 73.6906 68.0928 74.1203 67.3537 74.1311L61.1084 74.1801C61.0096 74.1822 60.9114 74.161 60.8196 74.1177C60.7277 74.0744 60.644 74.0099 60.5735 73.9279C60.5029 73.8458 60.4469 73.748 60.4086 73.64C60.3703 73.532 60.3506 73.4161 60.3506 73.299L60.3646 42.055C60.3646 41.5746 60.199 41.114 59.9042 40.7744C59.6095 40.4347 59.2097 40.2439 58.7928 40.2439L46.7654 40.2113C46.5517 40.2113 46.34 40.2607 46.1425 40.3566C45.9449 40.4525 45.7655 40.5932 45.6143 40.7704C45.4631 40.9477 45.3432 41.1581 45.2614 41.3897C45.1796 41.6213 45.1374 41.8695 45.1374 42.1202L45.2216 73.2338C45.2216 73.8973 44.941 74.229 44.3796 74.229L38.1765 74.2943C38.0537 74.2964 37.9317 74.2698 37.8178 74.2158C37.7038 74.1618 37.6 74.0817 37.5125 73.9799C37.425 73.8782 37.3555 73.757 37.3081 73.6233C37.2607 73.4896 37.2362 73.3461 37.2362 73.2011Z" stroke="#909DB9" stroke-width="2"/>
<path d="M17.0125 12.9648C10.4725 15.9016 10.1638 25.6582 17.1949 27.2245C17.7282 27.3441 18.8977 27.4312 20.7035 27.4855C21.6484 27.5073 22.3268 27.7085 22.7385 28.0892C23.4776 28.7636 23.6179 29.7479 23.1595 31.0423C22.9817 31.5535 22.673 31.9179 22.2332 32.1354C17.7142 34.2891 17.5878 30.8302 14.3459 29.835C13.5506 29.5848 13.0828 29.5413 12.9425 29.7044C12.657 30.0257 12.4429 30.4218 12.3161 30.8639C12.1892 31.3059 12.1527 31.7828 12.2092 32.2596C12.2657 32.7365 12.4138 33.2013 12.6426 33.6202C12.8714 34.039 13.1753 34.4013 13.532 34.6807L17.0546 37.438C17.5037 37.7969 17.7563 38.2918 17.8124 38.9227C17.9621 40.4998 18.6919 41.1851 20.0018 40.9784C20.2232 40.9426 20.4335 40.8452 20.6145 40.6945C20.7955 40.5438 20.9416 40.3445 21.0403 40.1137C22.5981 36.4264 25.5172 35.8554 26.8925 32.9186C29.9941 26.2945 23.1735 22.0035 17.9247 22.7051C17.5062 22.758 17.0855 22.6313 16.7418 22.3489C16.398 22.0664 16.1549 21.6477 16.0581 21.1715L15.9038 20.421C15.6325 19.1048 16.0534 18.2292 17.1668 17.7942C22.4577 15.771 22.1771 20.111 25.826 20.3557C26.0747 20.37 26.3226 20.31 26.5457 20.1816C26.7688 20.0531 26.9594 19.8605 27.0992 19.6225C27.239 19.3845 27.3232 19.1091 27.3435 18.823C27.3639 18.537 27.3198 18.25 27.2154 17.9899C26.2611 15.6079 24.7173 13.9709 22.5841 13.079C22.3827 12.9938 22.2035 12.8517 22.0636 12.6661C21.9236 12.4806 21.8275 12.2577 21.7841 12.0185L21.4473 10.1259C21.4041 9.87071 21.2829 9.64182 21.1054 9.48035C20.9279 9.31887 20.7058 9.23538 20.479 9.24487L18.7527 9.31013C18.5395 9.32044 18.3369 9.41861 18.1821 9.58653C18.0274 9.75445 17.931 9.98079 17.9107 10.2238L17.7843 11.7901C17.7375 12.3666 17.4803 12.7581 17.0125 12.9648Z" stroke="#8AD0EF" stroke-width="2"/>
<path d="M73.2343 7.35253L72.0414 4.5789C71.9131 4.28106 71.8405 3.95421 71.8284 3.61967C71.8163 3.28513 71.865 2.95041 71.9712 2.63736C72.4484 1.21248 73.3746 0.717581 74.75 1.15266C78.0247 2.20772 81.1309 3.23016 84.0688 4.21997C84.3279 4.3078 84.5681 4.45855 84.7735 4.66225C84.9788 4.86596 85.1446 5.118 85.26 5.40172C85.3754 5.68543 85.4378 5.99438 85.4429 6.30816C85.448 6.62194 85.3958 6.93341 85.2897 7.22201L81.4022 17.7618C81.2426 18.2006 80.9762 18.5757 80.6359 18.841C80.2956 19.1064 79.8961 19.2505 79.4863 19.2557C79.0765 19.2609 78.6744 19.127 78.3291 18.8703C77.9839 18.6136 77.7106 18.2454 77.5428 17.8107L76.4621 15.0861C76.1908 14.3899 75.7604 14.2105 75.171 14.5476L47.2148 30.2757C46.712 30.557 46.1371 30.6073 45.6076 30.4163C45.0781 30.2252 44.6339 29.8073 44.3658 29.2479L44.1272 28.7584C43.1355 26.7244 43.5425 25.2016 45.3482 24.1901L72.8273 8.70671C72.9307 8.64915 73.0233 8.56838 73.0998 8.46907C73.1763 8.36975 73.2352 8.25384 73.273 8.12799C73.3108 8.00215 73.3268 7.86885 73.3202 7.73577C73.3135 7.60269 73.2844 7.47245 73.2343 7.35253Z" fill="#434343"/>
<path d="M38.3872 25.072C38.3872 30.8358 36.4177 36.3634 32.912 40.439C29.4063 44.5146 24.6515 46.8042 19.6936 46.8042C14.7358 46.8042 9.98093 44.5146 6.47519 40.439C2.96946 36.3634 1 30.8358 1 25.072C1 19.3083 2.96946 13.7806 6.47519 9.70505C9.98093 5.62948 14.7358 3.33984 19.6936 3.33984C24.6515 3.33984 29.4063 5.62948 32.912 9.70505C36.4177 13.7806 38.3872 19.3083 38.3872 25.072ZM17.013 12.966C10.4731 15.9027 10.1643 25.6594 17.1955 27.2257C17.7288 27.3453 18.8983 27.4323 20.7041 27.4867C21.649 27.5085 22.3274 27.7097 22.739 28.0904C23.4782 28.7648 23.6185 29.7491 23.1601 31.0435C22.9823 31.5547 22.6736 31.9191 22.2338 32.1366C17.7148 34.2903 17.5884 30.8314 14.3465 29.8361C13.5512 29.586 13.0834 29.5425 12.9431 29.7056C12.6575 30.0269 12.4435 30.423 12.3167 30.865C12.1898 31.3071 12.1533 31.784 12.2098 32.2608C12.2662 32.7377 12.4143 33.2025 12.6432 33.6213C12.872 34.0402 13.1759 34.4025 13.5326 34.6818L17.0552 37.4391C17.5043 37.7981 17.7569 38.293 17.813 38.9238C17.9627 40.501 18.6925 41.1862 20.0024 40.9796C20.2238 40.9438 20.4341 40.8464 20.6151 40.6957C20.796 40.545 20.9422 40.3456 21.0409 40.1149C22.5987 36.4276 25.5178 35.8565 26.8931 32.9198C29.9947 26.2957 23.1741 22.0047 17.9253 22.7063C17.5068 22.7592 17.0861 22.6325 16.7424 22.35C16.3986 22.0676 16.1555 21.6489 16.0587 21.1726L15.9044 20.4221C15.633 19.106 16.054 18.2304 17.1674 17.7953C22.4583 15.7722 22.1777 20.1121 25.8266 20.3569C26.0753 20.3712 26.3232 20.3112 26.5463 20.1828C26.7694 20.0543 26.96 19.8617 27.0998 19.6237C27.2396 19.3856 27.3238 19.1103 27.3441 18.8242C27.3645 18.5382 27.3203 18.2512 27.216 17.9911C26.2617 15.6091 24.7179 13.9721 22.5847 13.0802C22.3833 12.9949 22.2041 12.8528 22.0641 12.6673C21.9242 12.4817 21.8281 12.2588 21.7847 12.0197L21.4479 10.1271C21.4047 9.87188 21.2835 9.64299 21.106 9.48151C20.9285 9.32004 20.7064 9.23655 20.4796 9.24604L18.7533 9.3113C18.5401 9.32161 18.3375 9.41978 18.1827 9.5877C18.028 9.75562 17.9315 9.98196 17.9113 10.225L17.7849 11.7912C17.7381 12.3677 17.4809 12.7593 17.013 12.966Z" fill="#C19F33"/>
<path d="M17.7843 11.7901L17.9107 10.2238C17.931 9.98079 18.0274 9.75445 18.1821 9.58653C18.3369 9.41861 18.5395 9.32044 18.7527 9.31013L20.479 9.24487C20.7058 9.23538 20.9279 9.31887 21.1054 9.48035C21.2829 9.64182 21.4041 9.87071 21.4473 10.1259L21.7841 12.0185C21.8275 12.2577 21.9236 12.4806 22.0636 12.6661C22.2035 12.8517 22.3827 12.9938 22.5841 13.079C24.7173 13.9709 26.2611 15.6079 27.2154 17.9899C27.3198 18.25 27.3639 18.537 27.3435 18.823C27.3232 19.1091 27.239 19.3845 27.0992 19.6225C26.9594 19.8605 26.7688 20.0531 26.5457 20.1816C26.3226 20.31 26.0747 20.37 25.826 20.3557C22.1771 20.111 22.4577 15.771 17.1668 17.7942C16.0534 18.2292 15.6325 19.1048 15.9038 20.421L16.0581 21.1715C16.1549 21.6477 16.398 22.0664 16.7418 22.3489C17.0855 22.6313 17.5062 22.758 17.9247 22.7051C23.1735 22.0035 29.9941 26.2945 26.8925 32.9186C25.5172 35.8554 22.5981 36.4264 21.0403 40.1137C20.9416 40.3445 20.7955 40.5438 20.6145 40.6945C20.4335 40.8452 20.2232 40.9426 20.0018 40.9784C18.6919 41.1851 17.9621 40.4998 17.8124 38.9227C17.7563 38.2918 17.5037 37.7969 17.0546 37.438L13.532 34.6807C13.1753 34.4013 12.8714 34.039 12.6426 33.6202C12.4138 33.2013 12.2657 32.7365 12.2092 32.2596C12.1527 31.7828 12.1892 31.3059 12.3161 30.8639C12.4429 30.4218 12.657 30.0257 12.9425 29.7044C13.0828 29.5413 13.5506 29.5848 14.3459 29.835C17.5878 30.8302 17.7142 34.2891 22.2332 32.1354C22.673 31.9179 22.9817 31.5535 23.1595 31.0423C23.6179 29.7479 23.4776 28.7636 22.7385 28.0892C22.3268 27.7085 21.6484 27.5073 20.7035 27.4855C18.8977 27.4312 17.7282 27.3441 17.1949 27.2245C10.1638 25.6582 10.4725 15.9016 17.0125 12.9648C17.4803 12.7581 17.7375 12.3666 17.7843 11.7901Z" fill="white"/>
<path d="M37.2362 73.2011C37.2362 73.3461 37.2607 73.4896 37.3081 73.6233C37.3555 73.757 37.425 73.8782 37.5125 73.9799C37.6 74.0817 37.7038 74.1618 37.8178 74.2158C37.9317 74.2698 38.0537 74.2964 38.1765 74.2943L44.3796 74.229C44.941 74.229 45.2216 73.8973 45.2216 73.2338L45.1374 42.1202C45.1374 41.8695 45.1796 41.6213 45.2614 41.3897C45.3432 41.1581 45.4631 40.9477 45.6143 40.7704C45.7655 40.5932 45.9449 40.4525 46.1425 40.3566C46.34 40.2607 46.5517 40.2113 46.7654 40.2113L58.7928 40.2439C59.2097 40.2439 59.6095 40.4347 59.9042 40.7744C60.199 41.114 60.3646 41.5746 60.3646 42.055L60.3506 73.299C60.3506 73.4161 60.3703 73.532 60.4086 73.64C60.4469 73.748 60.5029 73.8458 60.5735 73.9279C60.644 74.0099 60.7277 74.0744 60.8196 74.1177C60.9114 74.161 61.0096 74.1822 61.1084 74.1801L67.3537 74.1311C68.0928 74.1203 68.4577 73.6906 68.4484 72.8422L68.2519 28.2521C68.25 27.9979 68.2919 27.7458 68.375 27.5103C68.4581 27.2749 68.5808 27.0607 68.736 26.8802C68.8913 26.6997 69.0761 26.5564 69.2796 26.4587C69.4832 26.3609 69.7015 26.3106 69.922 26.3105L81.4721 26.3595C81.9759 26.3638 82.4578 26.5995 82.8127 27.0151C83.1676 27.4308 83.3668 27.9927 83.3668 28.5784V73.5601C83.3668 73.7434 83.4284 73.9194 83.5386 74.0505C83.6487 74.1816 83.7986 74.2574 83.9562 74.2616L89.5418 74.3922C90.0463 74.4023 90.5296 74.6299 90.8978 75.0309C91.266 75.4319 91.493 75.9776 91.5347 76.5621L91.5909 77.3779C91.7499 79.7926 90.7909 80.9999 88.7139 80.9999L10.8798 80.9836C10.1354 80.9836 9.42153 80.6398 8.89515 80.0279C8.36876 79.4159 8.073 78.5859 8.073 77.7205V49.5601C8.073 48.9401 8.32098 48.7443 8.81685 48.9727L12.9289 50.8653C13.509 51.1372 13.799 51.6376 13.799 52.3663L13.7007 73.2175C13.7007 74.0224 14.0422 74.4194 14.7252 74.4085L21.1108 74.3269C21.7657 74.3269 22.0932 73.9408 22.0932 73.1685L22.1073 55.2052C22.1073 54.97 22.1882 54.7442 22.3325 54.5764C22.4769 54.4086 22.6732 54.3121 22.8791 54.3079L36.0714 54.2752C36.2237 54.2731 36.3748 54.3061 36.516 54.3723C36.6573 54.4386 36.7858 54.5368 36.8942 54.6613C37.0025 54.7857 37.0885 54.9339 37.1472 55.0973C37.2059 55.2607 37.2362 55.436 37.2362 55.6131V73.2011Z" fill="#434343"/>
</svg>
