<svg width="80" height="57" viewBox="0 0 80 57" fill="none" xmlns="http://www.w3.org/2000/svg">
<g clip-path="url(#clip0_173_5349)">
<path d="M15.8247 27.117C10.7069 27.117 6.54355 22.9915 6.54355 17.9222C6.54355 12.8523 10.7069 8.72669 15.8247 8.72669C20.9419 8.72669 25.1045 12.8517 25.1045 17.9222C25.1045 22.9922 20.9419 27.117 15.8247 27.117ZM15.8247 11.3073C12.1295 11.3073 9.12419 14.2749 9.12419 17.9222C9.12419 21.5689 12.1295 24.5364 15.8247 24.5364C19.5187 24.5364 22.5239 21.5689 22.5239 17.9222C22.5239 14.2749 19.5187 11.3073 15.8247 11.3073ZM19.5584 52.5757H3.37258C1.5129 52.5757 0 51.0725 0 49.2243V45.0036C0 36.3633 7.09871 29.3333 15.8247 29.3333C19.2566 29.3333 22.5234 30.4043 25.269 32.4301C25.5444 32.6334 25.7277 32.9377 25.7787 33.2762C25.8298 33.6146 25.7443 33.9595 25.5411 34.2349C25.3378 34.5101 25.0336 34.6933 24.6953 34.7443C24.357 34.7954 24.0122 34.7101 23.7368 34.5072C21.4377 32.8112 18.7021 31.9139 15.8247 31.9139C8.52194 31.9139 2.58065 37.7865 2.58065 45.0036V49.2243C2.58065 49.6489 2.93597 49.9949 3.37258 49.9949H19.559C20.271 49.9949 20.8494 50.5727 20.8494 51.2852C20.8494 51.9972 20.271 52.5756 19.5584 52.5756V52.5757ZM76.6274 51.5991H60.4416C59.7297 51.5991 59.1513 51.0214 59.1513 50.3088C59.1513 49.5969 59.7297 49.0185 60.4416 49.0185H76.6281C77.0647 49.0185 77.42 48.6733 77.42 48.2486V44.028C77.42 36.8096 71.4787 30.9381 64.176 30.9381C61.126 30.9381 58.1484 31.9885 55.7913 33.8962C55.2381 34.3443 54.426 34.2591 53.9768 33.7054C53.5289 33.1515 53.6132 32.3388 54.1684 31.8902C56.9827 29.6127 60.5368 28.3575 64.176 28.3575C72.9013 28.3575 80 35.3869 80 44.028V48.2486C80 50.0959 78.4873 51.5991 76.6274 51.5991ZM64.1753 26.4794C59.0581 26.4794 54.8955 22.3546 54.8955 17.2846C54.8955 12.2146 59.0581 8.08911 64.1753 8.08911C69.2931 8.08911 73.4565 12.2141 73.4565 17.2846C73.4565 22.3551 69.2924 26.4794 64.1753 26.4794ZM64.1753 10.6698C60.4813 10.6698 57.4761 13.6373 57.4761 17.2846C57.4761 20.9319 60.4813 23.8988 64.1753 23.8988C67.8705 23.8988 70.8758 20.9319 70.8758 17.2846C70.8758 13.6373 67.8698 10.6698 64.1753 10.6698Z" fill="white"/>
<path d="M57.5126 56.7742H22.4874C20.1606 56.7742 18.2681 54.8955 18.2681 52.5856V46.6495C18.2681 34.7858 28.016 25.1342 40 25.1342C51.984 25.1342 61.7319 34.7858 61.7319 46.6495V52.5856C61.7319 54.8953 59.8394 56.7742 57.5126 56.7742ZM40 27.7155C29.4398 27.7155 20.8487 36.2097 20.8487 46.65V52.5863C20.8487 53.4727 21.5839 54.1942 22.4874 54.1942H57.5119C58.4155 54.1942 59.1507 53.4727 59.1507 52.5863V46.65C59.1513 36.2097 50.5602 27.7155 40 27.7155ZM39.5515 23.6264C32.9763 23.6264 27.626 18.3273 27.626 11.8126C27.626 5.29871 32.9758 0 39.5516 0C46.1279 0 51.4776 5.29919 51.4776 11.8132C51.4776 18.3277 46.1273 23.6264 39.5516 23.6264H39.5515ZM39.5515 2.58065C34.3989 2.58065 30.2066 6.72258 30.2066 11.8132C30.2066 16.9047 34.3989 21.0465 39.5515 21.0465C44.7045 21.0465 48.8968 16.9045 48.8968 11.8132C48.8968 6.72258 44.7045 2.58065 39.5516 2.58065H39.5515Z" fill="white"/>
</g>
<defs>
<clipPath id="clip0_173_5349">
<rect width="80" height="56.7742" fill="white"/>
</clipPath>
</defs>
</svg>
