<svg width="93" height="82" viewBox="0 0 93 82" fill="none" xmlns="http://www.w3.org/2000/svg">
<path d="M49.0711 13.0278C49.1435 13.1138 49.1727 13.2191 49.1527 13.322C49.1327 13.425 49.0651 13.5178 48.9638 13.5814C38.5758 20.0304 31.9089 28.4754 28.9631 38.9162C28.8438 39.3532 29.0108 39.6932 29.464 39.936C32.6126 41.5968 35.9758 42.4418 35.94 46.1859C35.9043 49.459 35.8685 52.7078 35.8327 55.9323C35.8337 56.0257 35.8624 56.1178 35.9162 56.2002C35.97 56.2827 36.0472 56.353 36.141 56.4048C36.2348 56.4567 36.3423 56.4886 36.4539 56.4977C36.5656 56.5067 36.6778 56.4927 36.7809 56.4567C46.3519 53.2225 64.8677 51.9113 71.0755 60.7108C71.3498 61.0993 71.7672 61.2741 72.3278 61.2352C79.1378 60.7885 84.3914 58.4478 88.0886 54.2132C98.3215 42.4563 84.2781 21.2736 70.8966 13.8145C70.7613 13.7401 70.6491 13.6412 70.5688 13.5255C70.4884 13.4099 70.4421 13.2806 70.4334 13.1479C70.4248 13.0152 70.454 12.8827 70.5188 12.7607C70.5837 12.6388 70.6824 12.5307 70.8071 12.4451C73.1328 10.8717 78.7502 7.34607 78.7323 4.75286C78.7276 3.86921 78.2925 3.02285 77.5219 2.39802C76.7513 1.77319 75.7075 1.42048 74.6177 1.41666C67.8553 1.38752 47.3716 -0.0256307 42.0763 2.52387C41.4105 2.84312 40.9262 3.36335 40.7286 3.97161C40.531 4.57987 40.636 5.22706 41.0208 5.77266C43.1854 8.87577 46.6739 10.2744 49.0711 13.0278Z" stroke="#8AD0EF" stroke-width="2"/>
<path d="M32.468 45.5007C32.4728 44.3995 30.845 43.3388 27.943 42.5519C25.0409 41.765 21.1023 41.3164 16.9934 41.3047C14.9589 41.2989 12.9439 41.4006 11.0634 41.6039C9.18286 41.8072 7.47372 42.1082 6.03347 42.4897C4.59323 42.8711 3.45013 43.3256 2.66943 43.8272C1.88873 44.3287 1.48571 44.8675 1.48341 45.4127C1.47871 46.5139 3.10642 47.5746 6.00847 48.3615C8.91052 49.1484 12.8492 49.5971 16.958 49.6088C18.9925 49.6145 21.0076 49.5129 22.8881 49.3095C24.7686 49.1062 26.4777 48.8052 27.918 48.4238C29.3582 48.0423 30.5013 47.5878 31.282 47.0863C32.0627 46.5847 32.4657 46.046 32.468 45.5007Z" stroke="#909DB9" stroke-width="2"/>
<path d="M3.2904 50.4681C1.72803 50.0116 1.01247 50.4535 1.14366 51.7938L1.19733 52.26C1.3643 53.9597 2.43174 55.1058 4.39961 55.6982C13.2252 58.3594 21.9435 58.2283 30.5544 55.3049C31.6755 54.9261 32.2837 54.2462 32.3791 53.2653L32.6117 50.9489C32.6952 50.1524 32.2837 49.8999 31.3773 50.1913C22.0389 53.173 12.6765 53.2653 3.2904 50.4681Z" stroke="#909DB9" stroke-width="2"/>
<path d="M67.0498 61.0898C67.0498 59.9654 65.4137 58.8871 62.5016 58.092C59.5895 57.297 55.6398 56.8503 51.5215 56.8503C47.4031 56.8503 43.4534 57.297 40.5413 58.092C37.6292 58.8871 35.9932 59.9654 35.9932 61.0898C35.9932 61.6465 36.3948 62.1978 37.1752 62.7122C37.9556 63.2265 39.0994 63.6939 40.5413 64.0875C41.9833 64.4812 43.6951 64.7935 45.5791 65.0065C47.4631 65.2196 49.4823 65.3293 51.5215 65.3293C53.5607 65.3293 55.5799 65.2196 57.4639 65.0065C59.3479 64.7935 61.0597 64.4812 62.5016 64.0875C63.9435 63.6939 65.0873 63.2265 65.8677 62.7122C66.6481 62.1978 67.0498 61.6465 67.0498 61.0898Z" stroke="#909DB9" stroke-width="2"/>
<path d="M4.23908 63.5234C12.7665 65.9904 21.3119 65.9807 29.8751 63.4943C30.6475 63.2706 31.3213 62.8648 31.8116 62.3282C32.3019 61.7915 32.5867 61.1479 32.6301 60.4786L32.6838 59.6045C32.7673 58.2447 32.0278 57.8077 30.4654 58.2933C21.3655 61.1002 12.2835 61.0662 3.21941 58.1913C1.502 57.6474 0.780404 58.1136 1.05471 59.5899L1.25153 60.5806C1.37582 61.2454 1.71934 61.8702 2.24549 62.3885C2.77164 62.9068 3.46066 63.299 4.23908 63.5234Z" stroke="#909DB9" stroke-width="2"/>
<path d="M30.8045 66.0282C21.6092 68.8157 12.4139 68.8351 3.2186 66.0865C1.8232 65.6786 1.16724 66.0719 1.25072 67.2666L1.28648 68.097C1.39382 69.7966 2.43739 70.9038 4.41718 71.4186C12.9565 73.6719 21.4661 73.6039 29.9459 71.2146C31.3174 70.8261 32.1045 70.0443 32.3073 68.8691L32.5935 67.2083C32.8082 65.9942 32.2119 65.6009 30.8045 66.0282Z" stroke="#909DB9" stroke-width="2"/>
<path d="M67.1752 68.2445L67.2468 67.3412C67.3541 66.0495 66.6683 65.627 65.1895 66.0738C55.8629 68.8709 46.5782 68.8175 37.3351 65.9135C36.2498 65.5736 35.737 65.8747 35.7967 66.8168L35.9219 68.9146C35.9489 69.3771 36.1413 69.8226 36.4753 70.1956C36.8093 70.5687 37.2701 70.8528 37.8003 71.0125C46.5663 73.6834 55.3799 73.7951 64.2413 71.3476C65.0528 71.1224 65.7644 70.7076 66.2864 70.1555C66.8085 69.6033 67.1177 68.9384 67.1752 68.2445Z" stroke="#909DB9" stroke-width="2"/>
<path d="M35.7608 74.5502L35.9218 76.6626C35.9586 77.1327 36.1602 77.5843 36.5026 77.9639C36.8451 78.3435 37.314 78.6352 37.8539 78.8042C46.6199 81.6014 55.4216 81.7082 64.2591 79.1247C66.2151 78.5517 67.1871 77.4202 67.1752 75.7303V75.2641C67.1633 74.0112 66.4298 73.5838 64.9747 73.982C55.6363 76.5752 46.3754 76.4781 37.192 73.6907C36.1782 73.3896 35.7012 73.6761 35.7608 74.5502Z" stroke="#909DB9" stroke-width="2"/>
<path d="M1.12586 74.9153L1.35843 76.5907C1.42388 77.0788 1.65178 77.5429 2.0175 77.9332C2.38323 78.3235 2.87289 78.625 3.43365 78.8052C12.1161 81.6315 20.8463 81.7286 29.6242 79.0965C31.3058 78.5915 32.254 77.6154 32.4687 76.1682L32.5939 75.2941C32.7966 73.9441 32.1109 73.4973 30.5366 73.9538C21.2935 76.5859 12.0923 76.5276 2.93274 73.779C1.57312 73.3711 0.970812 73.7499 1.12586 74.9153Z" stroke="#909DB9" stroke-width="2"/>
<path d="M54.9391 28.9384C57.6226 25.5003 62.8106 27.3942 66.156 29.5503C67.1936 30.2205 68.261 30.2351 69.3582 29.594C69.9188 29.2735 70.0858 28.851 69.8591 28.3266C68.7977 25.7916 66.6927 24.0531 63.5441 23.111C63.2913 23.032 63.0706 22.8989 62.9064 22.7266C62.7421 22.5543 62.6408 22.3495 62.6138 22.1349C62.3872 20.5421 61.3496 19.6631 59.501 19.498C59.1827 19.4697 58.8618 19.5271 58.5872 19.6612C58.3127 19.7954 58.0995 19.999 57.9803 20.241C56.895 22.4069 55.0047 23.9608 52.3093 24.903C51.892 25.0443 51.5405 25.2948 51.3075 25.6168C45.6007 33.4693 54.2235 36.6307 62.1844 36.5724C62.7003 36.5659 63.2078 36.679 63.6477 36.8985C64.0876 37.1181 64.4417 37.435 64.6686 37.8124C64.8956 38.1897 64.9861 38.6118 64.9295 39.0294C64.8729 39.447 64.6716 39.8429 64.3491 40.1708C61.4509 43.1428 56.746 41.1032 53.5795 39.4132C52.2079 38.6751 51.0451 38.6605 50.091 39.3695C49.5781 39.7483 49.4529 40.2 49.7153 40.7244C50.896 43.0942 52.9712 44.6628 55.9409 45.4301C56.2183 45.5055 56.4664 45.6379 56.6609 45.8142C56.8555 45.9905 56.9896 46.2046 57.0501 46.4353L57.5152 48.3001C57.577 48.5292 57.7351 48.7341 57.9633 48.88C58.1914 49.026 58.4754 49.1041 58.7675 49.1014L60.7533 49.0722C61.5524 49.0528 62.0354 48.7226 62.2023 48.0816L62.5959 46.6247C62.6629 46.3948 62.795 46.1813 62.9816 46.0015C63.1681 45.8218 63.4037 45.6809 63.6693 45.5903C70.8073 43.2739 72.6142 36.179 65.673 33.2216C63.1326 32.1581 59.6978 32.2018 56.7996 31.9978C56.3797 31.9687 55.9761 31.8519 55.6278 31.6587C55.2795 31.4655 54.9982 31.2025 54.8112 30.8949C54.6241 30.5874 54.5377 30.2457 54.5601 29.903C54.5825 29.5603 54.713 29.2281 54.9391 28.9384Z" stroke="#8AD0EF" stroke-width="2"/>
<path d="M49.0711 13.0278C46.6739 10.2744 43.1854 8.87577 41.0208 5.77266C40.636 5.22706 40.531 4.57987 40.7286 3.97161C40.9262 3.36335 41.4105 2.84312 42.0763 2.52387C47.3716 -0.0256307 67.8554 1.38752 74.6177 1.41666C75.7075 1.42048 76.7513 1.77319 77.5219 2.39802C78.2925 3.02285 78.7276 3.86921 78.7323 4.75286C78.7502 7.34607 73.1328 10.8717 70.8071 12.4451C70.6824 12.5307 70.5837 12.6388 70.5188 12.7607C70.454 12.8827 70.4248 13.0152 70.4334 13.1479C70.4421 13.2806 70.4884 13.4099 70.5688 13.5255C70.6491 13.6412 70.7613 13.7401 70.8966 13.8145C84.2781 21.2736 98.3215 42.4563 88.0886 54.2132C84.3914 58.4478 79.1378 60.7885 72.3278 61.2352C71.7672 61.2741 71.3498 61.0993 71.0755 60.7108C64.8677 51.9113 46.3519 53.2225 36.7809 56.4567C36.6778 56.4927 36.5656 56.5067 36.4539 56.4977C36.3423 56.4886 36.2348 56.4567 36.141 56.4048C36.0472 56.353 35.97 56.2827 35.9162 56.2002C35.8624 56.1178 35.8337 56.0257 35.8327 55.9323C35.8685 52.7078 35.9043 49.459 35.94 46.1859C35.9758 42.4418 32.6126 41.5968 29.464 39.936C29.0108 39.6932 28.8438 39.3532 28.9631 38.9162C31.9089 28.4754 38.5758 20.0304 48.9638 13.5814C49.0651 13.5178 49.1327 13.425 49.1527 13.322C49.1727 13.2191 49.1435 13.1138 49.0711 13.0278ZM54.939 28.9367C57.6224 25.4985 62.8104 27.3924 66.1558 29.5486C67.1934 30.2187 68.2608 30.2333 69.3581 29.5923C69.9186 29.2718 70.0856 28.8493 69.859 28.3248C68.7975 25.7899 66.6925 24.0514 63.5439 23.1093C63.2912 23.0302 63.0704 22.8971 62.9062 22.7248C62.742 22.5525 62.6407 22.3477 62.6136 22.1332C62.387 20.5403 61.3494 19.6614 59.5008 19.4963C59.1825 19.468 58.8616 19.5253 58.5871 19.6595C58.3125 19.7936 58.0993 19.9972 57.9802 20.2393C56.8949 22.4051 55.0046 23.9591 52.3092 24.9012C51.8919 25.0425 51.5403 25.2931 51.3074 25.6151C45.6005 33.4675 54.2234 36.6289 62.1843 36.5706C62.7001 36.5641 63.2077 36.6772 63.6475 36.8968C64.0874 37.1164 64.4415 37.4333 64.6685 37.8106C64.8954 38.1879 64.9859 38.61 64.9293 39.0276C64.8727 39.4452 64.6714 39.8411 64.3489 40.1691C61.4508 43.1411 56.7458 41.1015 53.5793 39.4115C52.2078 38.6734 51.0449 38.6588 50.0908 39.3678C49.578 39.7466 49.4528 40.1982 49.7151 40.7227C50.8959 43.0925 52.9711 44.661 55.9408 45.4283C56.2181 45.5038 56.4663 45.6362 56.6608 45.8125C56.8553 45.9888 56.9895 46.2028 57.0499 46.4336L57.5151 48.2983C57.5768 48.5275 57.735 48.7323 57.9631 48.8783C58.1912 49.0242 58.4753 49.1024 58.7673 49.0996L60.7531 49.0705C61.5522 49.051 62.0352 48.7208 62.2022 48.0798L62.5958 46.6229C62.6628 46.3931 62.7949 46.1795 62.9814 45.9998C63.168 45.82 63.4036 45.6791 63.6691 45.5886C70.8071 43.2722 72.614 36.1773 65.6728 33.2199C63.1325 32.1563 59.6976 32.2001 56.7995 31.9961C56.3795 31.967 55.9759 31.8502 55.6276 31.657C55.2793 31.4638 54.998 31.2007 54.811 30.8932C54.624 30.5856 54.5375 30.244 54.5599 29.9013C54.5823 29.5586 54.7129 29.2263 54.939 28.9367Z" fill="#C19F33"/>
<path d="M54.9381 28.9384C54.7121 29.2281 54.5815 29.5603 54.5591 29.903C54.5367 30.2457 54.6231 30.5874 54.8102 30.8949C54.9972 31.2025 55.2785 31.4655 55.6268 31.6587C55.9751 31.8519 56.3787 31.9687 56.7986 31.9978C59.6968 32.2018 63.1316 32.1581 65.672 33.2216C72.6132 36.179 70.8063 43.2739 63.6683 45.5903C63.4028 45.6809 63.1671 45.8218 62.9806 46.0015C62.7941 46.1813 62.6619 46.3948 62.5949 46.6247L62.2014 48.0816C62.0344 48.7226 61.5514 49.0528 60.7523 49.0722L58.7665 49.1014C58.4744 49.1041 58.1904 49.026 57.9623 48.88C57.7342 48.7341 57.576 48.5292 57.5143 48.3001L57.0491 46.4353C56.9886 46.2046 56.8545 45.9905 56.66 45.8142C56.4654 45.6379 56.2173 45.5055 55.94 45.4301C52.9703 44.6628 50.895 43.0942 49.7143 40.7244C49.4519 40.2 49.5772 39.7483 50.09 39.3695C51.0441 38.6605 52.207 38.6751 53.5785 39.4132C56.745 41.1032 61.45 43.1428 64.3481 40.1708C64.6706 39.8429 64.8719 39.447 64.9285 39.0294C64.9851 38.6118 64.8946 38.1897 64.6677 37.8124C64.4407 37.435 64.0866 37.1181 63.6467 36.8985C63.2068 36.679 62.6993 36.5659 62.1835 36.5724C54.2225 36.6307 45.5997 33.4693 51.3065 25.6168C51.5395 25.2948 51.8911 25.0443 52.3084 24.903C55.0037 23.9608 56.8941 22.4069 57.9794 20.241C58.0985 19.999 58.3117 19.7954 58.5862 19.6612C58.8608 19.5271 59.1817 19.4697 59.5 19.498C61.3486 19.6631 62.3862 20.5421 62.6128 22.1349C62.6399 22.3495 62.7412 22.5543 62.9054 22.7266C63.0696 22.8989 63.2903 23.032 63.5431 23.111C66.6917 24.0531 68.7967 25.7916 69.8582 28.3266C70.0848 28.851 69.9178 29.2735 69.3573 29.594C68.26 30.2351 67.1926 30.2205 66.155 29.5503C62.8096 27.3942 57.6216 25.5003 54.9381 28.9384Z" fill="white"/>
<path d="M16.9583 49.611C25.5145 49.6353 32.4587 47.7961 32.4685 45.503C32.4783 43.2099 25.5501 41.3313 16.9939 41.307C8.43765 41.2827 1.4935 43.1219 1.48367 45.415C1.47384 47.7081 8.40206 49.5867 16.9583 49.611Z" fill="#E7E7E7"/>
<path d="M3.2904 50.4681C12.6765 53.2653 22.0389 53.173 31.3773 50.1913C32.2837 49.8999 32.6952 50.1524 32.6117 50.9489L32.3791 53.2653C32.2837 54.2462 31.6755 54.9261 30.5544 55.3049C21.9435 58.2283 13.2252 58.3594 4.39961 55.6982C2.43174 55.1058 1.3643 53.9597 1.19733 52.26L1.14366 51.7938C1.01247 50.4535 1.72803 50.0116 3.2904 50.4681Z" fill="#E7E7E7"/>
<path d="M51.5215 65.3293C60.0975 65.3293 67.0498 63.4312 67.0498 61.0898C67.0498 58.7484 60.0975 56.8503 51.5215 56.8503C42.9455 56.8503 35.9932 58.7484 35.9932 61.0898C35.9932 63.4312 42.9455 65.3293 51.5215 65.3293Z" fill="#E7E7E7"/>
<path d="M4.23908 63.5234C3.46066 63.299 2.77164 62.9068 2.24549 62.3885C1.71934 61.8702 1.37582 61.2454 1.25153 60.5806L1.05471 59.5899C0.780404 58.1136 1.502 57.6474 3.21941 58.1913C12.2835 61.0662 21.3655 61.1002 30.4654 58.2933C32.0278 57.8077 32.7673 58.2447 32.6838 59.6045L32.6301 60.4786C32.5867 61.1479 32.3019 61.7915 31.8116 62.3282C31.3213 62.8648 30.6475 63.2706 29.8751 63.4943C21.3119 65.9807 12.7665 65.9904 4.23908 63.5234Z" fill="#E7E7E7"/>
<path d="M30.8045 66.0282C32.2119 65.6009 32.8082 65.9942 32.5935 67.2083L32.3073 68.8691C32.1045 70.0443 31.3174 70.8261 29.9459 71.2146C21.4661 73.6039 12.9565 73.6719 4.41718 71.4186C2.43739 70.9038 1.39382 69.7966 1.28648 68.097L1.25072 67.2666C1.16724 66.0719 1.8232 65.6786 3.2186 66.0865C12.4139 68.8351 21.6092 68.8157 30.8045 66.0282Z" fill="#E7E7E7"/>
<path d="M64.2413 71.3476C55.3799 73.7951 46.5663 73.6834 37.8003 71.0125C37.2701 70.8528 36.8093 70.5687 36.4753 70.1956C36.1413 69.8226 35.9489 69.3771 35.9219 68.9146L35.7967 66.8168C35.737 65.8747 36.2498 65.5736 37.3351 65.9135C46.5782 68.8175 55.8629 68.8709 65.1895 66.0738C66.6683 65.627 67.3541 66.0495 67.2468 67.3412L67.1752 68.2445C67.1177 68.9384 66.8085 69.6033 66.2864 70.1555C65.7644 70.7076 65.0528 71.1224 64.2413 71.3476Z" fill="#E7E7E7"/>
<path d="M37.192 73.6907C46.3754 76.4781 55.6363 76.5752 64.9747 73.982C66.4298 73.5838 67.1633 74.0112 67.1752 75.2641V75.7303C67.1871 77.4202 66.2151 78.5517 64.2591 79.1247C55.4216 81.7082 46.6199 81.6014 37.8539 78.8042C37.314 78.6352 36.8451 78.3435 36.5026 77.9639C36.1602 77.5843 35.9586 77.1327 35.9218 76.6626L35.7608 74.5502C35.7012 73.6761 36.1782 73.3896 37.192 73.6907Z" fill="#E7E7E7"/>
<path d="M2.93274 73.779C12.0923 76.5276 21.2936 76.5859 30.5366 73.9538C32.1109 73.4973 32.7966 73.9441 32.5939 75.2941L32.4687 76.1682C32.254 77.6154 31.3058 78.5915 29.6242 79.0965C20.8463 81.7286 12.1161 81.6315 3.43365 78.8052C2.87289 78.625 2.38323 78.3235 2.0175 77.9332C1.65178 77.5429 1.42388 77.0788 1.35843 76.5907L1.12586 74.9153C0.970812 73.7499 1.57312 73.3711 2.93274 73.779Z" fill="#E7E7E7"/>
</svg>
