<svg width="85" height="85" viewBox="0 0 85 85" fill="none" xmlns="http://www.w3.org/2000/svg">
<rect width="85" height="85" rx="8" fill="#5186B1"/>
<path d="M37 39C31.486 39 27 34.514 27 29C27 23.486 31.486 19 37 19C42.514 19 47 23.486 47 29C47 34.514 42.514 39 37 39ZM37 22C33.14 22 30 25.14 30 29C30 32.86 33.14 36 37 36C40.86 36 44 32.86 44 29C44 25.14 40.86 22 37 22ZM37.5 61H20.5C20.1022 61 19.7206 60.842 19.4393 60.5607C19.158 60.2794 19 59.8978 19 59.5V52.5C19.0032 49.9814 20.0051 47.5669 21.786 45.786C23.5669 44.0051 25.9814 43.0032 28.5 43H45.5C45.8978 43 46.2794 43.158 46.5607 43.4393C46.842 43.7206 47 44.1022 47 44.5C47 44.8978 46.842 45.2794 46.5607 45.5607C46.2794 45.842 45.8978 46 45.5 46H28.5C26.7767 46.0021 25.1247 46.6876 23.9061 47.9061C22.6876 49.1247 22.0021 50.7767 22 52.5V58H37.5C37.8978 58 38.2794 58.158 38.5607 58.4393C38.842 58.7206 39 59.1022 39 59.5C39 59.8978 38.842 60.2794 38.5607 60.5607C38.2794 60.842 37.8978 61 37.5 61ZM63.5 67H46.5C44.57 67 43 65.43 43 63.5V54.5C43 52.57 44.57 51 46.5 51H63.5C65.43 51 67 52.57 67 54.5V63.5C67 65.43 65.43 67 63.5 67ZM46.5 54C46.3674 54 46.2402 54.0527 46.1464 54.1464C46.0527 54.2402 46 54.3674 46 54.5V63.5C46 63.776 46.224 64 46.5 64H63.5C63.6326 64 63.7598 63.9473 63.8536 63.8536C63.9473 63.7598 64 63.6326 64 63.5V54.5C64 54.3674 63.9473 54.2402 63.8536 54.1464C63.7598 54.0527 63.6326 54 63.5 54H46.5Z" fill="white"/>
<path d="M59.5 54C59.1022 54 58.7206 53.842 58.4393 53.5607C58.158 53.2794 58 52.8978 58 52.5V49.5C58 49.3674 57.9473 49.2402 57.8536 49.1464C57.7598 49.0527 57.6326 49 57.5 49H52.5C52.3674 49 52.2402 49.0527 52.1464 49.1464C52.0527 49.2402 52 49.3674 52 49.5V52.5C52 52.8978 51.842 53.2794 51.5607 53.5607C51.2794 53.842 50.8978 54 50.5 54C50.1022 54 49.7206 53.842 49.4393 53.5607C49.158 53.2794 49 52.8978 49 52.5V49.5C49 47.57 50.57 46 52.5 46H57.5C59.43 46 61 47.57 61 49.5V52.5C61 52.8978 60.842 53.2794 60.5607 53.5607C60.2794 53.842 59.8978 54 59.5 54Z" fill="white"/>
<path d="M54.9999 61.0002C54.777 61.0005 54.5569 60.9506 54.3559 60.8542L43.8559 55.8542C43.4966 55.6832 43.2199 55.3763 43.0867 55.0013C42.9536 54.6262 42.9749 54.2136 43.1459 53.8542C43.317 53.4949 43.6238 53.2182 43.9989 53.085C44.374 52.9519 44.7866 52.9732 45.1459 53.1442L54.9999 57.8382L64.8559 53.1442C65.2124 52.9925 65.6138 52.9844 65.9762 53.1216C66.3385 53.2589 66.6338 53.5308 66.8003 53.8807C66.9669 54.2305 66.9918 54.6312 66.8698 54.999C66.7479 55.3668 66.4885 55.6732 66.1459 55.8542L55.6459 60.8542C55.4442 60.9504 55.2235 61.0003 54.9999 61.0002Z" fill="white"/>
</svg>
