<svg width="64" height="64" viewBox="0 0 64 64" fill="none" xmlns="http://www.w3.org/2000/svg">
<rect width="64" height="64" rx="32" fill="#F3EAFC"/>
<path d="M29.2939 23.4358L30.0969 25.6658C30.5375 26.8883 31.2424 27.9986 32.1613 28.9174C33.0801 29.8363 34.1904 30.5412 35.4129 30.9818L37.6429 31.7848C37.6869 31.8009 37.725 31.8302 37.7518 31.8687C37.7787 31.9071 37.7931 31.9529 37.7931 31.9998C37.7931 32.0467 37.7787 32.0925 37.7518 32.1309C37.725 32.1694 37.6869 32.1987 37.6429 32.2148L35.4129 33.0178C34.1904 33.4584 33.0801 34.1633 32.1613 35.0822C31.2424 36.001 30.5375 37.1113 30.0969 38.3338L29.2939 40.5638C29.2778 40.6078 29.2485 40.6458 29.21 40.6727C29.1716 40.6996 29.1258 40.714 29.0789 40.714C29.032 40.714 28.9862 40.6996 28.9478 40.6727C28.9093 40.6458 28.8801 40.6078 28.8639 40.5638L28.0609 38.3338C27.6203 37.1113 26.9154 36.001 25.9966 35.0822C25.0777 34.1633 23.9674 33.4584 22.7449 33.0178L20.5149 32.2148C20.4709 32.1987 20.4329 32.1694 20.406 32.1309C20.3791 32.0925 20.3647 32.0467 20.3647 31.9998C20.3647 31.9529 20.3791 31.9071 20.406 31.8687C20.4329 31.8302 20.4709 31.8009 20.5149 31.7848L22.7449 30.9818C23.9674 30.5412 25.0777 29.8363 25.9966 28.9174C26.9154 27.9986 27.6203 26.8883 28.0609 25.6658L28.8639 23.4358C28.8796 23.3913 28.9087 23.3528 28.9472 23.3256C28.9857 23.2983 29.0317 23.2837 29.0789 23.2837C29.1261 23.2837 29.1721 23.2983 29.2106 23.3256C29.2491 23.3528 29.2782 23.3913 29.2939 23.4358ZM39.3319 18.0768L39.7389 19.2058C39.9622 19.8248 40.3192 20.3869 40.7845 20.8522C41.2498 21.3175 41.8119 21.6745 42.4309 21.8978L43.5599 22.3048C43.5823 22.3129 43.6016 22.3278 43.6152 22.3473C43.6289 22.3668 43.6362 22.39 43.6362 22.4138C43.6362 22.4376 43.6289 22.4608 43.6152 22.4803C43.6016 22.4998 43.5823 22.5147 43.5599 22.5228L42.4309 22.9298C41.8119 23.1531 41.2498 23.5101 40.7845 23.9754C40.3192 24.4407 39.9622 25.0028 39.7389 25.6218L39.3319 26.7508C39.3238 26.7732 39.3089 26.7925 39.2894 26.8061C39.2699 26.8198 39.2467 26.8271 39.2229 26.8271C39.1991 26.8271 39.1759 26.8198 39.1564 26.8061C39.1369 26.7925 39.122 26.7732 39.1139 26.7508L38.7069 25.6218C38.4836 25.0028 38.1266 24.4407 37.6613 23.9754C37.196 23.5101 36.6339 23.1531 36.0149 22.9298L34.8859 22.5228C34.8635 22.5147 34.8442 22.4998 34.8306 22.4803C34.8169 22.4608 34.8096 22.4376 34.8096 22.4138C34.8096 22.39 34.8169 22.3668 34.8306 22.3473C34.8442 22.3278 34.8635 22.3129 34.8859 22.3048L36.0149 21.8978C36.6339 21.6745 37.196 21.3175 37.6613 20.8522C38.1266 20.3869 38.4836 19.8248 38.7069 19.2058L39.1139 18.0768C39.122 18.0544 39.1369 18.0351 39.1564 18.0215C39.1759 18.0078 39.1991 18.0005 39.2229 18.0005C39.2467 18.0005 39.2699 18.0078 39.2894 18.0215C39.3089 18.0351 39.3238 18.0544 39.3319 18.0768ZM39.3319 37.2498L39.7389 38.3788C39.9622 38.9978 40.3192 39.5599 40.7845 40.0252C41.2498 40.4905 41.8119 40.8475 42.4309 41.0708L43.5599 41.4778C43.5823 41.4859 43.6016 41.5008 43.6152 41.5203C43.6289 41.5398 43.6362 41.563 43.6362 41.5868C43.6362 41.6106 43.6289 41.6338 43.6152 41.6533C43.6016 41.6728 43.5823 41.6877 43.5599 41.6958L42.4309 42.1028C41.8119 42.3261 41.2498 42.6831 40.7845 43.1484C40.3192 43.6137 39.9622 44.1758 39.7389 44.7948L39.3319 45.9238C39.3238 45.9462 39.3089 45.9655 39.2894 45.9791C39.2699 45.9928 39.2467 46.0001 39.2229 46.0001C39.1991 46.0001 39.1759 45.9928 39.1564 45.9791C39.1369 45.9655 39.122 45.9462 39.1139 45.9238L38.7069 44.7948C38.4836 44.1758 38.1266 43.6137 37.6613 43.1484C37.196 42.6831 36.6339 42.3261 36.0149 42.1028L34.8859 41.6958C34.8635 41.6877 34.8442 41.6728 34.8306 41.6533C34.8169 41.6338 34.8096 41.6106 34.8096 41.5868C34.8096 41.563 34.8169 41.5398 34.8306 41.5203C34.8442 41.5008 34.8635 41.4859 34.8859 41.4778L36.0149 41.0708C36.6339 40.8475 37.196 40.4905 37.6613 40.0252C38.1266 39.5599 38.4836 38.9978 38.7069 38.3788L39.1139 37.2498C39.1509 37.1478 39.2959 37.1478 39.3319 37.2498Z" fill="#A156E8"/>
</svg>
