<svg width="58" height="58" viewBox="0 0 58 58" fill="none" xmlns="http://www.w3.org/2000/svg">
<path d="M50.8491 33.9144L49.855 32.9245L44.7022 24.3199L35.8469 18.9753L29.002 12.9125C26.7715 7.39525 21.3675 3.50098 15.0507 3.50098C10.1615 3.50098 7.39835 5.75369 4.93255 8.80254C0.643838 14.1052 -0.545275 22.2472 5.34875 28.2314L11.4162 34.7808L22.4984 36.3752L24.8434 41.6919L35.6004 45.9206L37.2115 47.552C38.4667 48.8072 40.5021 48.8072 41.7573 47.552C43.0126 46.2967 43.0126 44.2614 41.7573 43.0061C42.36 43.6088 42.9789 42.9489 43.7685 42.9728C44.4172 42.9925 45.2342 43.7901 45.7968 43.4194C45.9792 43.2991 46.1489 43.1606 46.3033 43.006C47.5586 41.7507 47.5586 39.7154 46.3033 38.4601C46.8456 39.0024 47.6609 38.4634 48.3684 38.5372C49.076 38.6109 49.676 39.2974 50.2975 38.9027C50.497 38.7759 50.682 38.6274 50.8491 38.4601C52.1043 37.205 52.1043 35.1697 50.8491 33.9144Z" fill="#FFE9A1"/>
<path d="M14.0707 35.3301C10.7477 32.013 7.83298 29.103 7.83298 29.103C-1.0297 20.1047 4.59347 4.95248 16.7759 3.59899C2.53719 1.9725 -5.48097 19.1397 4.33225 29.103C4.33225 29.103 7.24697 32.013 10.57 35.3301L24.8433 41.6916L14.0707 35.3301ZM49.8493 32.9186L53.6718 29.103C62.9533 19.6796 56.3489 3.50066 42.9533 3.50066C36.6367 3.50066 32.2919 8.09037 30.0613 13.6076L28.4137 15.7459L21.9943 22.9326C21.4057 23.6907 21.4867 24.7776 22.193 25.4275C22.9219 26.0983 23.6977 26.568 25.3773 26.1958C26.8633 25.8665 28.7129 24.473 28.7129 24.473L35.847 18.9751L49.8493 32.9186ZM45.258 43.0059L32.6214 30.5131C32.159 30.0559 31.4139 30.0584 30.9546 30.5186C30.4941 30.9799 30.4941 31.7271 30.9547 32.1882L41.7572 43.0058C42.8503 44.0989 44.5346 44.2397 45.7805 43.4291C45.5921 43.3066 45.417 43.1648 45.258 43.0059Z" fill="#FFB469"/>
<path d="M49.8038 38.4599L37.3392 25.9861C37.1169 25.7637 36.8181 25.6344 36.5038 25.6246C36.1895 25.6149 35.8833 25.7253 35.6476 25.9336C35.1142 26.4048 35.0884 27.2284 35.5913 27.732L46.3031 38.4599C47.3961 39.5529 49.0805 39.6937 50.3264 38.8832C50.1379 38.7607 49.9628 38.6188 49.8038 38.4599Z" fill="#FFB469"/>
<path d="M34.6614 43.5343C33.4323 42.3052 31.4486 42.2764 30.1844 43.4693L29.8229 43.8104C31.0178 42.5567 31.0065 40.5633 29.7671 39.3238C28.538 38.0947 26.5543 38.0659 25.2901 39.2587L25.1499 39.3887C26.4673 38.1458 26.4975 36.0603 25.2169 34.7796C23.9878 33.5505 22.0041 33.5217 20.7399 34.7146L20.5172 34.9222C21.8345 33.6793 21.8648 31.5938 20.5841 30.3132C19.355 29.0841 17.3714 29.0553 16.1072 30.2481L10.222 35.8008C8.9667 37.0561 8.9667 39.0914 10.222 40.3467C11.4772 41.602 13.5126 41.602 14.7678 40.3467L14.7868 40.3387C13.6007 41.5986 13.6228 43.5811 14.8547 44.813C16.11 46.0683 18.1453 46.0683 19.4006 44.813L19.4057 44.8104L19.4049 44.8112C18.1496 46.0665 18.1496 48.1018 19.4049 49.3571C20.6602 50.6124 22.6955 50.6124 23.9508 49.3571L24.0354 49.3217C23.0521 50.5829 23.1394 52.408 24.2992 53.5678C25.5545 54.823 27.5898 54.823 28.8451 53.5678L34.5944 48.1432C35.9118 46.9005 35.942 44.815 34.6614 43.5343Z" fill="#FFDEC7"/>
<path d="M34.6613 43.5343C34.4823 43.3551 34.2828 43.1977 34.0669 43.0652C33.518 42.7288 32.7938 43.2775 32.1702 43.3013C31.4196 43.33 30.772 42.9148 30.1843 43.4693L29.8228 43.8104C31.0177 42.5567 31.0064 40.5633 29.7669 39.3238C29.6162 39.173 29.451 39.0374 29.2736 38.9192C28.6728 38.519 28.0023 39.0805 27.3076 39.1286C26.5913 39.1782 25.8516 38.7288 25.29 39.2587L25.1498 39.3886C26.4672 38.1457 26.4974 36.0602 25.2168 34.7795C25.0661 34.6287 24.9008 34.4931 24.7233 34.3749C24.127 33.9778 23.3316 34.5827 22.6419 34.6272C21.9203 34.6737 21.3053 34.1807 20.7397 34.7144L20.517 34.922C21.8343 33.6791 21.8646 31.5936 20.5839 30.3129C19.3548 29.0838 18.255 29.6885 16.9906 30.8814L11.7337 35.8755C10.4784 37.1308 9.82129 38.5957 11.0766 39.8511C12.3318 41.1064 13.5123 41.6018 14.7676 40.3465L14.7865 40.3385C13.6005 41.5984 14.4444 42.989 15.6763 44.2209C16.9316 45.4762 18.1451 46.0681 19.4004 44.8128L19.4054 44.8102L19.4047 44.811C18.1494 46.0663 19.3495 47.4669 20.6048 48.7222C21.86 49.9774 22.6953 50.6123 23.9505 49.3569L24.0351 49.3215C23.0519 50.5827 23.9134 51.6694 25.0731 52.8292C26.3284 54.0845 27.5896 54.8229 28.8448 53.5675L34.5942 48.143C35.9117 46.9005 35.9419 44.815 34.6613 43.5343Z" fill="#FFB469"/>
<path d="M13.7226 40.3464C12.4673 39.091 12.4673 37.0558 13.7226 35.8005C19.9918 29.9114 19.6201 30.1788 20.0627 29.8906C18.845 29.0979 17.2048 29.2118 16.1069 30.2478L10.2217 35.8005C8.96646 37.0558 8.96646 39.0911 10.2217 40.3464C11.3148 41.4394 12.9992 41.5802 14.245 40.7697C14.0566 40.6471 13.8815 40.5053 13.7226 40.3464ZM18.3554 44.8128C17.1002 43.5574 17.1002 41.5222 18.3554 40.267C24.6246 34.3778 24.253 34.6452 24.6956 34.3571C23.4779 33.5643 21.8377 33.6783 20.7398 34.7143L14.8546 40.267C13.5993 41.5222 13.5993 43.5576 14.8546 44.8128C15.9476 45.9059 17.632 46.0468 18.8779 45.2362C18.6895 45.1136 18.5144 44.9717 18.3554 44.8128ZM22.9056 49.3569C21.6503 48.1015 21.6503 46.0663 22.9056 44.811C29.1748 38.9219 28.8031 39.1892 29.2457 38.9011C28.0281 38.1084 26.3879 38.2223 25.2899 39.2583L19.4048 44.811C18.1495 46.0663 18.1495 48.1016 19.4048 49.3569C20.4978 50.4499 22.1822 50.5908 23.4281 49.7802C23.2396 49.6577 23.0645 49.5158 22.9056 49.3569ZM27.7999 53.5675C26.5446 52.3122 26.5446 50.2769 27.7999 49.0217C34.0529 43.1477 33.6969 43.4003 34.14 43.1118C32.9224 42.3191 31.2822 42.433 30.1843 43.469L24.2991 49.0217C23.0438 50.2769 23.0438 52.3123 24.2991 53.5675C25.3921 54.6606 27.0765 54.8015 28.3224 53.9909C28.134 53.8683 27.9589 53.7264 27.7999 53.5675Z" fill="#FF976E"/>
<path d="M43.1909 17.5801C39.4175 18.8217 36.0921 18.0162 36.0605 18.0084C35.9319 17.9758 35.7976 17.9728 35.6678 17.9996C35.5379 18.0265 35.4158 18.0825 35.3107 18.1635L30.1251 22.1598C28.37 23.5124 26.7773 24.0592 24.6539 24.5299C24.46 24.5728 24.296 24.4387 24.29 24.2604C24.2756 23.8318 24.4153 23.406 24.6839 23.0602L30.8553 15.0507L32.5029 12.9124C34.5275 7.90483 39.1665 4.23463 44.7292 3.59935C37.6256 2.81035 31.4347 6.89606 29.0022 12.9124L27.3546 15.0507L21.1832 23.0602C20.5946 23.8182 20.6755 24.9052 21.3819 25.5551C22.3736 26.4677 24.4666 26.5184 25.8007 26.0781C25.7899 26.0742 25.7798 26.0698 25.769 26.0659C27.8008 25.5631 29.4318 24.9039 31.1937 23.5461L36.0602 19.7957C37.1725 20.0013 40.2766 20.3919 43.7752 19.2305C43.8868 19.1934 43.9897 19.1343 44.0779 19.0566C44.1661 18.9788 44.2378 18.8842 44.2886 18.7781C44.3394 18.6721 44.3684 18.557 44.3737 18.4395C44.3791 18.3221 44.3607 18.2048 44.3197 18.0946C44.1537 17.6478 43.6437 17.4311 43.1909 17.5801Z" fill="#FF976E"/>
</svg>
