<svg width="58" height="58" viewBox="0 0 58 58" fill="none" xmlns="http://www.w3.org/2000/svg">
<g clip-path="url(#clip0_4494_3955)">
<path d="M58.0001 16.2382C58.0001 13.8862 56.6252 11.8556 54.6362 10.9056C55.3707 8.82665 54.907 6.41897 53.244 4.756C51.581 3.09303 49.1734 2.62937 47.0945 3.36389C46.1445 1.37489 44.1139 0 41.7619 0C39.4104 0 37.3798 1.37489 36.4298 3.36389C34.3508 2.62937 31.9431 3.09314 30.2803 4.75611C28.6173 6.41908 28.1535 8.82665 28.8881 10.9056C26.8986 11.8556 25.5242 13.8862 25.5242 16.2382C25.5242 18.5897 26.8986 20.6202 28.8882 21.5703C28.1535 23.6493 28.6174 26.057 30.2803 27.7198C31.9433 29.3828 34.3508 29.8466 36.4298 29.112C37.3798 31.1015 39.4104 32.4759 41.7619 32.4759C44.1139 32.4759 46.1445 31.1015 47.0945 29.1119C49.1734 29.8466 51.5811 29.3827 53.2441 27.7198C54.9071 26.0568 55.3707 23.6493 54.6362 21.5703C56.6252 20.6202 58.0001 18.5897 58.0001 16.2382Z" fill="#CAF1FD"/>
<path d="M54.6366 21.57C55.3711 23.6498 54.9074 26.0574 53.2444 27.7204C51.7563 29.2085 49.6716 29.736 47.76 29.3037C48.8453 29.0574 49.8386 28.5084 50.6244 27.7204C52.2877 26.0574 52.7511 23.6498 52.0166 21.57C54.0055 20.6204 55.3809 18.5898 55.3809 16.2383C55.3809 13.8863 54.0057 11.8557 52.0164 10.9061C52.7511 8.8263 52.2877 6.41862 50.6244 4.75565C49.8385 3.96768 48.8453 3.4187 47.76 3.17244C49.6716 2.74004 51.7563 3.26759 53.2445 4.75565C54.9075 6.41862 55.3711 8.8263 54.6366 10.906C56.6256 11.8557 57.9996 13.8863 57.9996 16.2382C57.9996 18.5898 56.6256 20.6199 54.6366 21.57Z" fill="#6ADCFA"/>
<path d="M47.8993 28.2937C47.8993 25.4749 46.2514 23.0412 43.8668 21.9022C44.7479 19.4104 44.192 16.5244 42.1986 14.531C40.2051 12.5379 37.3191 11.9821 34.8277 12.8627C33.6883 10.4781 31.2549 8.83008 28.4358 8.83008C25.617 8.83008 23.1832 10.478 22.0443 12.8627C19.5525 11.9821 16.6665 12.5379 14.673 14.531C12.68 16.5244 12.1242 19.4104 13.0048 21.9022C10.6201 23.0412 8.97217 25.4749 8.97217 28.2937C8.97217 31.1128 10.6201 33.5466 13.0048 34.6856C12.1241 37.177 12.68 40.0631 14.6729 42.0565C16.6665 44.05 19.5525 44.6058 22.0441 43.7247C23.1832 46.1093 25.617 47.7573 28.4358 47.7573C31.2549 47.7573 33.6887 46.1093 34.8277 43.7247C37.3191 44.6058 40.2052 44.05 42.1986 42.0565C44.192 40.063 44.7479 37.177 43.8668 34.6856C46.2514 33.5467 47.8993 31.1128 47.8993 28.2937Z" fill="#6ADCFA"/>
<path d="M43.8674 34.6848C44.7485 37.1774 44.1926 40.0629 42.1992 42.0569C40.4155 43.8406 37.9166 44.473 35.6252 43.9548C36.926 43.6592 38.1165 43.0012 39.0587 42.0569C41.0522 40.0634 41.608 37.1773 40.7273 34.6848C43.1115 33.5462 44.7599 31.1119 44.7599 28.2932C44.7599 25.4744 43.1117 23.0407 40.7273 21.9021C41.608 19.4095 41.0522 16.5235 39.0587 14.53C38.079 13.5502 36.8829 12.918 35.6252 12.6321C37.9166 12.1138 40.4155 12.7463 42.1992 14.53C44.1926 16.5234 44.7485 19.4095 43.8674 21.9021C46.2516 23.0406 47.899 25.4744 47.899 28.2932C47.899 31.112 46.2516 33.5461 43.8674 34.6848Z" fill="#00C2F8"/>
<path d="M13.7583 48.0921C13.7583 50.4005 11.8868 52.2718 9.5784 52.2718C7.26973 52.2718 5.39844 50.4005 5.39844 48.092C5.39844 45.7834 7.26984 43.9121 9.5784 43.9121C11.887 43.9121 13.7583 45.7835 13.7583 48.092V48.0921Z" fill="#6ADCFA"/>
<path d="M13.7582 48.0922C13.7582 50.4011 11.8873 52.2719 9.57838 52.2719C9.15584 52.2719 8.74735 52.2096 8.3623 52.0918C10.0766 51.5715 11.3249 49.9772 11.3249 48.0921C11.3249 46.2071 10.0766 44.6126 8.3623 44.0922C8.75648 43.9722 9.16633 43.9115 9.57838 43.9121C11.8873 43.9121 13.7582 45.7831 13.7582 48.0922Z" fill="#00C2F8"/>
<path d="M5.12201 55.1096C5.12201 56.5239 3.97549 57.6704 2.56072 57.6704C1.14652 57.6704 0 56.5239 0 55.1096C0 53.6952 1.14652 52.5488 2.56072 52.5488C3.97549 52.5488 5.12201 53.6952 5.12201 55.1096Z" fill="#6ADCFA"/>
<path d="M5.12212 55.11C5.12212 56.5243 3.97514 57.6708 2.56083 57.6708C2.19493 57.6708 1.84625 57.5934 1.53076 57.4545C2.43169 57.0588 3.0613 56.1579 3.0613 55.11C3.0613 54.0617 2.43169 53.1612 1.53076 52.7656C1.85531 52.6225 2.20613 52.5487 2.56083 52.5488C3.97514 52.5493 5.12212 53.6958 5.12212 55.1101V55.11Z" fill="#00C2F8"/>
<path d="M23.1028 28.2934C23.1028 29.3208 22.2701 30.154 21.2421 30.154C20.2147 30.154 19.3818 29.3208 19.3818 28.2934C19.3818 27.2659 20.2146 26.4326 21.2421 26.4326C22.2701 26.4326 23.1028 27.2658 23.1028 28.2934ZM30.2961 28.2934C30.2961 29.3208 29.4634 30.154 28.436 30.154C27.4079 30.154 26.5752 29.3208 26.5752 28.2934C26.5752 27.2659 27.4079 26.4326 28.436 26.4326C29.4634 26.4326 30.2961 27.2658 30.2961 28.2934ZM37.49 28.2934C37.49 29.3208 36.6568 30.154 35.6293 30.154C34.6018 30.154 33.7686 29.3208 33.7686 28.2934C33.7686 27.2659 34.6017 26.4326 35.6293 26.4326C36.6568 26.4326 37.49 27.2658 37.49 28.2934Z" fill="#CAF1FD"/>
</g>
<defs>
<clipPath id="clip0_4494_3955">
<rect width="58" height="58" fill="white"/>
</clipPath>
</defs>
</svg>
