<svg width="58" height="58" viewBox="0 0 58 58" fill="none" xmlns="http://www.w3.org/2000/svg">
<path d="M55.2813 29.0003C55.2813 29.0003 50.741 27.4778 48.5751 23.7531C48.5841 19.4484 51.756 15.8596 51.756 15.8596C51.756 15.8596 47.0616 16.8112 43.3279 14.6634C41.1891 10.9296 42.1316 6.23527 42.1316 6.23527C42.1316 6.23527 38.5429 9.40715 34.2382 9.41621C30.5135 7.25027 28.991 2.70996 28.991 2.70996C28.991 2.70996 27.4685 7.25027 23.7438 9.41621C19.4391 9.40715 15.8504 6.23527 15.8504 6.23527C15.8504 6.23527 16.8019 10.9296 14.6541 14.6634C10.9204 16.8021 6.226 15.8596 6.226 15.8596C6.226 15.8596 9.39787 19.4484 9.40693 23.7531C7.241 27.4778 2.70068 29.0003 2.70068 29.0003C2.70068 29.0003 7.241 30.5228 9.40693 34.2475C9.39787 38.5521 6.226 42.1409 6.226 42.1409C6.226 42.1409 10.9204 41.1893 14.6541 43.3371C16.7929 47.0709 15.8504 51.7653 15.8504 51.7653C15.8504 51.7653 19.4391 48.5934 23.7438 48.5843C27.4685 50.7503 28.991 55.2906 28.991 55.2906C28.991 55.2906 30.5135 50.7503 34.2382 48.5843C38.5429 48.5934 42.1316 51.7653 42.1316 51.7653C42.1316 51.7653 41.1801 47.0709 43.3279 43.3371C47.0616 41.1984 51.756 42.1409 51.756 42.1409C51.756 42.1409 48.5841 38.5521 48.5751 34.2475C50.741 30.5228 55.2813 29.0003 55.2813 29.0003Z" fill="url(#paint0_radial_4494_3938)"/>
<path d="M29 43.5C37.0081 43.5 43.5 37.0081 43.5 29C43.5 20.9919 37.0081 14.5 29 14.5C20.9919 14.5 14.5 20.9919 14.5 29C14.5 37.0081 20.9919 43.5 29 43.5Z" fill="url(#paint1_radial_4494_3938)"/>
<defs>
<radialGradient id="paint0_radial_4494_3938" cx="0" cy="0" r="1" gradientUnits="userSpaceOnUse" gradientTransform="translate(16.3126 18.1253) scale(35.2531)">
<stop stop-color="#FEED01"/>
<stop offset="0.23" stop-color="#FDE500"/>
<stop offset="0.59" stop-color="#FACF00"/>
<stop offset="1" stop-color="#F7AF00"/>
</radialGradient>
<radialGradient id="paint1_radial_4494_3938" cx="0" cy="0" r="1" gradientUnits="userSpaceOnUse" gradientTransform="translate(20.7984 20.8438) scale(21.1881)">
<stop stop-color="#FAC533"/>
<stop offset="1" stop-color="#F7931E"/>
</radialGradient>
</defs>
</svg>
