<svg width="64" height="64" viewBox="0 0 64 64" fill="none" xmlns="http://www.w3.org/2000/svg">
<rect width="64" height="64" rx="32" fill="#F3EAFC"/>
<g clip-path="url(#clip0_4465_6303)">
<path d="M45.75 19.1875L42.9942 21.4445C42.952 22.4317 42.5858 23.3776 41.9523 24.1359C41.3187 24.8942 40.453 25.4227 39.489 25.6398C38.5251 25.8569 37.5164 25.7505 36.6189 25.3371C35.7215 24.9236 34.9851 24.2261 34.5238 23.3523L33.0893 24.7797L34.4062 26.0625L32.9062 36.1562L43.7812 36.2188L42.625 26.2188L46.7188 21.625C46.9495 21.4931 47.1407 21.3018 47.2726 21.071C47.4045 20.8402 47.4722 20.5783 47.4688 20.3125C47.4688 19.375 45.75 19.1875 45.75 19.1875Z" fill="#FFDB80"/>
<path d="M32.5832 19.2083L29.9732 21.6713C29.8686 22.7824 29.355 23.8151 28.532 24.5689C27.709 25.3227 26.6354 25.744 25.5193 25.7509C24.4033 25.7579 23.3245 25.35 22.4922 24.6065C21.6599 23.8629 21.1334 22.8368 21.015 21.727L19 19.75C18.5417 18.6668 16.9582 19.75 16.9582 19.75L16.4167 21L21.5 26.2918V35.2083H29.5417V26.0833L34.0832 21.5C34.0832 21.5 34.375 21.0833 34.375 20.125C34.375 19.1668 32.5832 19.2083 32.5832 19.2083Z" fill="#FC785E"/>
<path d="M38.5025 17.75C37.938 17.7498 37.3818 17.8864 36.8815 18.1481C36.3813 18.4097 35.9519 18.7887 35.63 19.2525C35.9243 19.7785 36.0478 20.3831 35.9833 20.9824C35.9188 21.5817 35.6695 22.1461 35.27 22.5975C35.5136 23.1828 35.9115 23.691 36.4212 24.0679C36.931 24.4448 37.5335 24.6763 38.1645 24.7376C38.7954 24.7989 39.4312 24.6878 40.004 24.4161C40.5768 24.1444 41.0651 23.7223 41.4168 23.1949C41.7686 22.6675 41.9705 22.0544 42.0011 21.4212C42.0318 20.788 41.8899 20.1584 41.5908 19.5994C41.2916 19.0405 40.8464 18.5733 40.3025 18.2475C39.7586 17.9218 39.1365 17.7499 38.5025 17.75ZM38.5025 23.75C38.0081 23.75 37.5247 23.6034 37.1136 23.3287C36.7025 23.054 36.382 22.6635 36.1928 22.2067C36.0036 21.7499 35.9541 21.2472 36.0506 20.7623C36.147 20.2773 36.3851 19.8319 36.7348 19.4822C37.0844 19.1326 37.5298 18.8945 38.0148 18.798C38.4997 18.7016 39.0024 18.7511 39.4592 18.9403C39.916 19.1295 40.3065 19.45 40.5812 19.8611C40.8559 20.2722 41.0025 20.7555 41.0025 21.25C41.0013 21.9127 40.7375 22.5478 40.2689 23.0164C39.8003 23.4849 39.1652 23.7487 38.5025 23.75Z" fill="#2D4356"/>
<path d="M41.0025 21.25C41.0027 21.7448 40.8562 22.2286 40.5815 22.6401C40.3067 23.0516 39.9161 23.3724 39.459 23.5619C39.0019 23.7513 38.4989 23.801 38.0136 23.7045C37.5283 23.608 37.0825 23.3698 36.7326 23.0199C36.3827 22.67 36.1445 22.2242 36.048 21.7389C35.9515 21.2536 36.0012 20.7506 36.1906 20.2935C36.3801 19.8364 36.7009 19.4458 37.1124 19.171C37.5239 18.8963 38.0077 18.7498 38.5025 18.75C39.1652 18.7511 39.8005 19.0148 40.2691 19.4834C40.7377 19.952 41.0014 20.5873 41.0025 21.25Z" fill="#E1EBF4"/>
<path d="M48.0001 20.6727C48.0016 20.4204 47.9531 20.1703 47.8574 19.9369C47.7617 19.7034 47.6207 19.4913 47.4426 19.3127C47.079 18.9533 46.5883 18.752 46.077 18.7524C45.5658 18.7529 45.0755 18.9551 44.7126 19.3152L42.9951 21.0477C42.9976 21.1152 43.0051 21.1827 43.0051 21.2502C43.004 21.7464 42.9204 22.2389 42.7576 22.7077L45.4226 20.0202C45.596 19.8491 45.8299 19.7533 46.0734 19.7536C46.317 19.7539 46.5507 19.8501 46.7237 20.0216C46.8968 20.193 46.9953 20.4257 46.9979 20.6693C47.0005 20.9128 46.9069 21.1476 46.7376 21.3227L42.1901 25.8477C42.1347 25.9024 42.093 25.9694 42.0682 26.0432C42.0435 26.117 42.0364 26.1956 42.0476 26.2727L43.4276 35.7502H33.5751L34.9551 26.2727C34.9662 26.1956 34.9591 26.117 34.9344 26.0432C34.9096 25.9694 34.8679 25.9024 34.8126 25.8477L33.4151 24.4552L32.7051 25.1627L33.9276 26.3777C33.9276 26.3777 32.5026 36.1702 32.5026 36.1777C32.4932 36.2485 32.4989 36.3206 32.5194 36.3891C32.5399 36.4577 32.5746 36.521 32.6214 36.5751C32.6682 36.6292 32.7259 36.6728 32.7907 36.703C32.8556 36.7331 32.9261 36.7492 32.9976 36.7502H34.4976V44.5002C34.4976 44.9646 34.6821 45.41 35.0105 45.7385C35.3389 46.0669 35.7844 46.2514 36.2488 46.2514C36.7133 46.2514 37.1587 46.0669 37.4871 45.7385C37.8156 45.41 38.0001 44.9646 38.0001 44.5002V36.7502H39.0026V44.5002C39.0026 44.9646 39.1871 45.41 39.5155 45.7385C39.8439 46.0669 40.2894 46.2514 40.7538 46.2514C41.2183 46.2514 41.6637 46.0669 41.9921 45.7385C42.3206 45.41 42.5051 44.9646 42.5051 44.5002V36.7502H44.0051C44.0765 36.749 44.1469 36.7328 44.2116 36.7026C44.2764 36.6723 44.334 36.6288 44.3807 36.5747C44.4275 36.5207 44.4623 36.4574 44.4828 36.3889C44.5034 36.3205 44.5093 36.2485 44.5001 36.1777L43.0751 26.3777L47.4426 22.0327C47.8014 21.6712 48.0019 21.182 48.0001 20.6727ZM37.0001 44.5002C37.0001 44.6991 36.921 44.8898 36.7804 45.0305C36.6397 45.1711 36.449 45.2502 36.2501 45.2502C36.0512 45.2502 35.8604 45.1711 35.7197 45.0305C35.5791 44.8898 35.5001 44.6991 35.5001 44.5002V36.7502H37.0001V44.5002ZM41.5051 44.5002C41.5051 44.6994 41.4259 44.8905 41.285 45.0314C41.1441 45.1723 40.9531 45.2514 40.7538 45.2514C40.5546 45.2514 40.3635 45.1723 40.2226 45.0314C40.0817 44.8905 40.0026 44.6994 40.0026 44.5002V36.7502H41.5051V44.5002Z" fill="#2D4356"/>
<path d="M41.505 36.75V44.5C41.505 44.6992 41.4259 44.8903 41.285 45.0312C41.1441 45.1721 40.953 45.2512 40.7537 45.2512C40.5545 45.2512 40.3634 45.1721 40.2225 45.0312C40.0816 44.8903 40.0025 44.6992 40.0025 44.5V36.75H41.505ZM37 36.75V44.5C37 44.6989 36.921 44.8897 36.7803 45.0303C36.6397 45.171 36.4489 45.25 36.25 45.25C36.0511 45.25 35.8603 45.171 35.7197 45.0303C35.579 44.8897 35.5 44.6989 35.5 44.5V36.75H37Z" fill="#E1EBF4"/>
<path d="M34.4325 19.3127C34.0696 18.9522 33.5786 18.75 33.067 18.7505C32.5554 18.751 32.0648 18.954 31.7025 19.3152L29.985 21.0477C29.9875 21.1152 29.995 21.1827 29.995 21.2502C29.994 21.7464 29.9104 22.239 29.7475 22.7077L32.4125 20.0202C32.586 19.8492 32.8198 19.7534 33.0634 19.7537C33.307 19.754 33.5406 19.8502 33.7137 20.0216C33.8868 20.1931 33.9853 20.4258 33.9879 20.6694C33.9904 20.9129 33.8969 21.1477 33.7275 21.3227L29.18 25.8477C29.1329 25.894 29.0956 25.9493 29.0703 26.0103C29.0449 26.0713 29.0321 26.1367 29.0325 26.2027V34.7502H21.95V26.2027C21.9505 26.1367 21.9376 26.0713 21.9123 26.0103C21.887 25.9493 21.8496 25.894 21.8025 25.8477C21.8025 25.8477 17.2575 21.3252 17.2575 21.3227C17.0858 21.1495 16.9894 20.9154 16.9894 20.6715C16.9894 20.4275 17.0858 20.1935 17.2575 20.0202C17.4321 19.8475 17.6677 19.7505 17.9133 19.75C18.1589 19.7495 18.3948 19.8457 18.57 20.0177L21.235 22.7077C21.0722 22.239 20.9886 21.7464 20.9875 21.2502C20.9875 21.1827 20.995 21.1152 20.9975 21.0477L19.2775 19.3127C18.9148 18.953 18.4246 18.7512 17.9138 18.7512C17.4029 18.7512 16.9128 18.953 16.55 19.3127C16.1971 19.6775 15.9998 20.1652 15.9998 20.6727C15.9998 21.1803 16.1971 21.668 16.55 22.0327L20.95 26.4102V35.2502C20.9504 35.3827 21.0032 35.5097 21.0969 35.6034C21.1906 35.697 21.3175 35.7498 21.45 35.7502H21.4875V44.5002C21.4875 44.965 21.6722 45.4108 22.0008 45.7394C22.3295 46.0681 22.7752 46.2527 23.24 46.2527C23.7048 46.2527 24.1506 46.0681 24.4792 45.7394C24.8079 45.4108 24.9925 44.965 24.9925 44.5002V35.7502H25.9925V44.5002C25.9925 44.9647 26.177 45.4101 26.5055 45.7386C26.8339 46.067 27.2793 46.2515 27.7438 46.2515C28.2082 46.2515 28.6537 46.067 28.9821 45.7386C29.3105 45.4101 29.495 44.9647 29.495 44.5002V35.7502H29.5325C29.6651 35.7502 29.7923 35.6976 29.8861 35.6038C29.9799 35.51 30.0325 35.3829 30.0325 35.2502V26.4102L34.4325 22.0327C34.787 21.6694 34.9829 21.1803 34.9775 20.6727C34.9811 20.4213 34.9348 20.1716 34.8413 19.9382C34.7477 19.7047 34.6088 19.4921 34.4325 19.3127ZM23.99 44.5002C23.99 44.6992 23.911 44.8899 23.7704 45.0306C23.6297 45.1712 23.4389 45.2502 23.24 45.2502C23.0411 45.2502 22.8504 45.1712 22.7097 45.0306C22.569 44.8899 22.49 44.6992 22.49 44.5002V35.7502H23.99V44.5002ZM28.495 44.5002C28.495 44.6995 28.4159 44.8906 28.275 45.0315C28.1341 45.1723 27.943 45.2515 27.7438 45.2515C27.5445 45.2515 27.3535 45.1723 27.2126 45.0315C27.0717 44.8906 26.9925 44.6995 26.9925 44.5002V35.7502H28.495V44.5002Z" fill="#2D4356"/>
<path d="M28.495 35.75V44.5C28.495 44.6992 28.4158 44.8903 28.275 45.0312C28.1341 45.1721 27.943 45.2512 27.7437 45.2512C27.5445 45.2512 27.3534 45.1721 27.2125 45.0312C27.0716 44.8903 26.9925 44.6992 26.9925 44.5V35.75H28.495ZM23.99 35.75V44.5C23.99 44.6989 23.911 44.8897 23.7703 45.0303C23.6297 45.171 23.4389 45.25 23.24 45.25C23.0411 45.25 22.8503 45.171 22.7097 45.0303C22.569 44.8897 22.49 44.6989 22.49 44.5V35.75H23.99Z" fill="#E1EBF4"/>
<path d="M25.4925 17.75C24.8004 17.7505 24.1239 17.9562 23.5487 18.3411C22.9734 18.726 22.5252 19.2728 22.2607 19.9123C21.9962 20.5519 21.9272 21.2556 22.0626 21.9343C22.1979 22.6131 22.5314 23.2365 23.021 23.7258C23.5106 24.215 24.1342 24.5481 24.8131 24.6829C25.492 24.8178 26.1956 24.7483 26.835 24.4833C27.4744 24.2184 28.0208 23.7698 28.4053 23.1942C28.7898 22.6187 28.995 21.9421 28.995 21.25C28.9939 20.3217 28.6244 19.4317 27.9677 18.7755C27.3111 18.1193 26.4208 17.7505 25.4925 17.75ZM25.4925 23.75C24.998 23.75 24.5147 23.6034 24.1036 23.3287C23.6924 23.054 23.372 22.6635 23.1828 22.2067C22.9936 21.7499 22.9441 21.2472 23.0405 20.7623C23.137 20.2773 23.3751 19.8319 23.7247 19.4822C24.0744 19.1326 24.5198 18.8945 25.0048 18.798C25.4897 18.7016 25.9924 18.7511 26.4492 18.9403C26.906 19.1295 27.2965 19.45 27.5712 19.8611C27.8459 20.2722 27.9925 20.7555 27.9925 21.25C27.9912 21.9127 27.7274 22.5478 27.2589 23.0164C26.7903 23.485 26.1552 23.7487 25.4925 23.75Z" fill="#2D4356"/>
<path d="M27.9925 21.25C27.9927 21.7448 27.8462 22.2286 27.5715 22.6401C27.2967 23.0516 26.9061 23.3724 26.449 23.5619C25.9919 23.7513 25.4889 23.801 25.0036 23.7045C24.5183 23.608 24.0725 23.3698 23.7226 23.0199C23.3727 22.67 23.1345 22.2242 23.038 21.7389C22.9415 21.2536 22.9912 20.7506 23.1806 20.2935C23.3701 19.8364 23.6909 19.4458 24.1024 19.171C24.5139 18.8963 24.9977 18.7498 25.4925 18.75C26.1552 18.7511 26.7905 19.0148 27.2591 19.4834C27.7277 19.952 27.9914 20.5873 27.9925 21.25Z" fill="#E1EBF4"/>
<path opacity="0.5" d="M27.9925 21.2498C27.9925 21.3323 27.9875 21.4148 27.98 21.4948C27.9164 20.879 27.6267 20.3087 27.167 19.8941C26.7074 19.4794 26.1103 19.2499 25.4912 19.2499C24.8722 19.2499 24.2751 19.4794 23.8154 19.8941C23.3558 20.3087 23.0661 20.879 23.0025 21.4948C22.995 21.4148 22.99 21.3323 22.99 21.2498C22.99 20.5864 23.2535 19.9502 23.7226 19.4811C24.1917 19.0121 24.8279 18.7485 25.4912 18.7485C26.1546 18.7485 26.7908 19.0121 27.2599 19.4811C27.729 19.9502 27.9925 20.5864 27.9925 21.2498Z" fill="white"/>
<path opacity="0.5" d="M27.9925 21.2499C27.9925 21.9133 27.729 22.5495 27.2599 23.0185C26.7908 23.4876 26.1546 23.7511 25.4912 23.7511C24.8279 23.7511 24.1917 23.4876 23.7226 23.0185C23.2535 22.5495 22.99 21.9133 22.99 21.2499C22.99 21.1674 22.995 21.0849 23.0025 21.0049C23.0661 21.6207 23.3558 22.191 23.8154 22.6056C24.2751 23.0202 24.8722 23.2497 25.4912 23.2497C26.1103 23.2497 26.7074 23.0202 27.167 22.6056C27.6267 22.191 27.9164 21.6207 27.98 21.0049C27.9875 21.0849 27.9925 21.1674 27.9925 21.2499Z" fill="#9FA5AA"/>
<path opacity="0.5" d="M40.9925 21.2498C40.9925 21.3323 40.9875 21.4148 40.98 21.4948C40.9164 20.879 40.6267 20.3087 40.167 19.8941C39.7074 19.4794 39.1103 19.2499 38.4912 19.2499C37.8722 19.2499 37.2751 19.4794 36.8154 19.8941C36.3558 20.3087 36.0661 20.879 36.0025 21.4948C35.995 21.4148 35.99 21.3323 35.99 21.2498C35.99 20.5864 36.2535 19.9502 36.7226 19.4811C37.1917 19.0121 37.8279 18.7485 38.4912 18.7485C39.1546 18.7485 39.7908 19.0121 40.2599 19.4811C40.729 19.9502 40.9925 20.5864 40.9925 21.2498Z" fill="white"/>
<path opacity="0.5" d="M40.9925 21.2499C40.9925 21.9133 40.729 22.5495 40.2599 23.0185C39.7908 23.4876 39.1546 23.7511 38.4912 23.7511C37.8279 23.7511 37.1917 23.4876 36.7226 23.0185C36.2535 22.5495 35.99 21.9133 35.99 21.2499C35.99 21.1674 35.995 21.0849 36.0025 21.0049C36.0661 21.6207 36.3558 22.191 36.8154 22.6056C37.2751 23.0202 37.8722 23.2497 38.4912 23.2497C39.1103 23.2497 39.7074 23.0202 40.167 22.6056C40.6267 22.191 40.9164 21.6207 40.98 21.0049C40.9875 21.0849 40.9925 21.1674 40.9925 21.2499Z" fill="#9FA5AA"/>
<path opacity="0.5" d="M21.9501 34.25H29.0326V34.75H21.9501V34.25Z" fill="#A54B3F"/>
<path opacity="0.5" d="M28.495 44V44.5C28.495 44.6992 28.4158 44.8903 28.275 45.0312C28.1341 45.1721 27.943 45.2512 27.7437 45.2512C27.5445 45.2512 27.3534 45.1721 27.2125 45.0312C27.0716 44.8903 26.9925 44.6992 26.9925 44.5V44C26.9925 44.1992 27.0716 44.3903 27.2125 44.5312C27.3534 44.6721 27.5445 44.7512 27.7437 44.7512C27.943 44.7512 28.1341 44.6721 28.275 44.5312C28.4158 44.3903 28.495 44.1992 28.495 44ZM23.99 44V44.5C23.99 44.6989 23.911 44.8897 23.7703 45.0303C23.6297 45.171 23.4389 45.25 23.24 45.25C23.0411 45.25 22.8503 45.171 22.7097 45.0303C22.569 44.8897 22.49 44.6989 22.49 44.5V44C22.49 44.1989 22.569 44.3897 22.7097 44.5303C22.8503 44.671 23.0411 44.75 23.24 44.75C23.4389 44.75 23.6297 44.671 23.7703 44.5303C23.911 44.3897 23.99 44.1989 23.99 44ZM37 44V44.5C37 44.6989 36.921 44.8897 36.7803 45.0303C36.6397 45.171 36.4489 45.25 36.25 45.25C36.0511 45.25 35.8603 45.171 35.7197 45.0303C35.579 44.8897 35.5 44.6989 35.5 44.5V44C35.5 44.1989 35.579 44.3897 35.7197 44.5303C35.8603 44.671 36.0511 44.75 36.25 44.75C36.4489 44.75 36.6397 44.671 36.7803 44.5303C36.921 44.3897 37 44.1989 37 44ZM41.505 44V44.5C41.505 44.6992 41.4258 44.8903 41.285 45.0312C41.1441 45.1721 40.953 45.2512 40.7537 45.2512C40.5545 45.2512 40.3634 45.1721 40.2225 45.0312C40.0816 44.8903 40.0025 44.6992 40.0025 44.5V44C40.0025 44.1992 40.0816 44.3903 40.2225 44.5312C40.3634 44.6721 40.5545 44.7512 40.7537 44.7512C40.953 44.7512 41.1441 44.6721 41.285 44.5312C41.4258 44.3903 41.505 44.1992 41.505 44Z" fill="#9FA5AA"/>
<path opacity="0.45" d="M43.4276 35.75H33.5751L33.6476 35.25H43.3551L43.4276 35.75Z" fill="#AD9359"/>
</g>
<defs>
<clipPath id="clip0_4465_6303">
<rect width="32" height="32" fill="white" transform="translate(16 16)"/>
</clipPath>
</defs>
</svg>
