<svg width="64" height="64" viewBox="0 0 64 64" fill="none" xmlns="http://www.w3.org/2000/svg">
<rect width="64" height="64" rx="32" fill="#F3EAFC"/>
<g clip-path="url(#clip0_4465_6292)">
<path d="M23.5615 16C21.493 16 19.811 17.682 19.811 19.7504C19.811 21.8189 21.493 23.5634 23.5615 23.5634C25.6299 23.5634 27.3119 21.8189 27.3119 19.7504C27.3119 17.682 25.6299 16 23.5615 16ZM44.1888 19.7504C44.1888 17.682 42.5068 16 40.4384 16C38.37 16 36.688 17.682 36.688 19.7504C36.688 21.8189 38.37 23.5634 40.4384 23.5634C42.5068 23.5634 44.1888 21.8189 44.1888 19.7504ZM26.949 44.4458C29.1315 46.2771 29.6687 46.7929 30.2529 47.2895C30.8096 47.7629 31.5045 48.0001 32.1995 48.0001C32.9009 48.0001 33.6022 47.7583 34.159 47.2767C35.1761 46.3963 36.2782 45.3803 37.2695 44.5113C36.7374 44.3325 36.2362 44.0472 35.8181 43.6286C34.7048 42.5167 34.3956 40.8322 35.0994 39.3579C33.1875 38.3458 30.8158 38.3484 28.903 39.3621C29.6033 40.8347 29.2946 42.5172 28.1809 43.6296C27.829 43.9813 27.4101 44.2589 26.949 44.4458Z" fill="#A156E8"/>
<path d="M32 34.8149C33.0356 34.8149 33.8752 33.9753 33.8752 32.9397C33.8752 31.904 33.0356 31.0645 32 31.0645C30.9643 31.0645 30.1248 31.904 30.1248 32.9397C30.1248 33.9753 30.9643 34.8149 32 34.8149Z" fill="#A156E8"/>
<path d="M32 28.0171C30.7163 25.7042 28.5005 23.7017 25.358 23.7017C21.0362 23.7017 17.7775 27.2049 17.7775 31.8499C17.7775 35.9531 20.5681 38.9616 24.9785 42.7677C25.6277 42.9628 26.3553 42.8021 26.856 42.3027C27.6244 41.5363 27.5621 40.2886 26.78 39.5778C22.7549 35.9208 21.528 34.2187 21.528 32.3124H23.4032C23.4032 33.4937 24.5554 34.9873 27.7167 37.8885C30.3245 36.3583 33.6766 36.3616 36.2834 37.8887C39.4446 34.9874 40.597 33.4937 40.597 32.3124H42.4722C42.4722 34.2187 41.2452 35.9208 37.2201 39.5778C36.4424 40.2847 36.3722 41.5327 37.1433 42.3018C37.7755 42.9323 38.7597 43.0034 39.5005 42.5216C44.1902 38.2491 46.2227 35.5985 46.2227 31.8498C46.2227 27.2048 42.9639 23.7017 38.6422 23.7017C35.4986 23.7017 33.2837 25.7042 32 28.0171ZM35.7504 32.9395C35.7504 35.008 34.0684 36.69 32 36.69C29.9316 36.69 28.2495 35.008 28.2495 32.9395C28.2495 30.8711 29.9316 29.1891 32 29.1891C34.0684 29.1891 35.7504 30.8711 35.7504 32.9395Z" fill="#A156E8"/>
</g>
<defs>
<clipPath id="clip0_4465_6292">
<rect width="32" height="32" fill="white" transform="translate(16 16)"/>
</clipPath>
</defs>
</svg>
