<svg width="74" height="70" viewBox="0 0 74 70" fill="none" xmlns="http://www.w3.org/2000/svg">
<rect width="73.8583" height="70" rx="8" fill="url(#paint0_linear_4486_6814)"/>
<g clip-path="url(#clip0_4486_6814)">
<path d="M57.625 16.2812L53.4914 19.6667C53.428 21.1476 52.8787 22.5664 51.9284 23.7038C50.978 24.8413 49.6796 25.6341 48.2336 25.9597C46.7876 26.2854 45.2746 26.1258 43.9284 25.5056C42.5822 24.8854 41.4777 23.8391 40.7856 22.5284L38.6339 24.6696L40.6094 26.5938L38.3594 41.7344L54.6719 41.8281L52.9375 26.8281L59.0781 19.9375C59.4243 19.7396 59.7111 19.4526 59.9089 19.1064C60.1068 18.7603 60.2083 18.3674 60.2031 17.9688C60.2031 16.5625 57.625 16.2812 57.625 16.2812Z" fill="#FFDB80"/>
<path d="M37.8749 16.3124L33.9599 20.0069C33.8029 21.6736 33.0325 23.2226 31.798 24.3533C30.5635 25.4841 28.953 26.116 27.279 26.1264C25.605 26.1368 23.9867 25.525 22.7383 24.4097C21.4898 23.2944 20.7002 21.7551 20.5225 20.0905L17.5 17.125C16.8126 15.5002 14.4374 17.125 14.4374 17.125L13.6251 19L21.25 26.9377V40.3124H33.3126V26.6249L40.1249 19.75C40.1249 19.75 40.5625 19.1249 40.5625 17.6875C40.5625 16.2502 37.8749 16.3124 37.8749 16.3124Z" fill="#FC785E"/>
<path d="M46.7538 14.125C45.907 14.1247 45.0727 14.3296 44.3223 14.7221C43.5719 15.1146 42.9278 15.683 42.445 16.3788C42.8865 17.1678 43.0717 18.0746 42.975 18.9736C42.8782 19.8726 42.5043 20.7192 41.905 21.3962C42.2704 22.2742 42.8672 23.0365 43.6318 23.6018C44.3965 24.1672 45.3002 24.5144 46.2467 24.6064C47.1932 24.6984 48.1469 24.5317 49.006 24.1242C49.8652 23.7166 50.5977 23.0835 51.1253 22.2924C51.6528 21.5012 51.9558 20.5817 52.0017 19.6318C52.0477 18.682 51.8349 17.7375 51.3862 16.8991C50.9374 16.0607 50.2695 15.3599 49.4537 14.8713C48.6379 14.3828 47.7047 14.1248 46.7538 14.125ZM46.7538 23.125C46.0121 23.125 45.2871 22.9051 44.6704 22.493C44.0537 22.081 43.5731 21.4953 43.2892 20.8101C43.0054 20.1248 42.9311 19.3708 43.0758 18.6434C43.2205 17.916 43.5777 17.2478 44.1021 16.7233C44.6266 16.1989 45.2948 15.8418 46.0222 15.6971C46.7496 15.5524 47.5036 15.6266 48.1888 15.9105C48.8741 16.1943 49.4597 16.6749 49.8718 17.2916C50.2838 17.9083 50.5038 18.6333 50.5038 19.375C50.5019 20.369 50.1062 21.3217 49.4033 22.0246C48.7005 22.7274 47.7478 23.1231 46.7538 23.125Z" fill="#2D4356"/>
<path d="M50.5038 19.375C50.5041 20.1172 50.2843 20.8429 49.8722 21.4601C49.4601 22.0774 48.8742 22.5586 48.1885 22.8428C47.5029 23.127 46.7484 23.2015 46.0204 23.0568C45.2924 22.912 44.6237 22.5547 44.0989 22.0299C43.5741 21.505 43.2167 20.8363 43.072 20.1084C42.9273 19.3804 43.0018 18.6259 43.286 17.9402C43.5702 17.2546 44.0513 16.6686 44.6686 16.2565C45.2859 15.8444 46.0115 15.6246 46.7538 15.625C47.7478 15.6266 48.7007 16.0222 49.4036 16.7251C50.1066 17.428 50.5022 18.3809 50.5038 19.375Z" fill="#E1EBF4"/>
<path d="M61 18.5087C61.0023 18.1303 60.9295 17.7552 60.786 17.4051C60.6425 17.0549 60.431 16.7367 60.1638 16.4687C59.6184 15.9297 58.8823 15.6277 58.1155 15.6284C57.3487 15.6291 56.6132 15.9325 56.0688 16.4725L53.4925 19.0712C53.4963 19.1725 53.5075 19.2737 53.5075 19.375C53.506 20.1193 53.3805 20.8581 53.1363 21.5612L57.1338 17.53C57.3939 17.2734 57.7447 17.1298 58.1101 17.1302C58.4755 17.1306 58.8259 17.275 59.0855 17.5321C59.3451 17.7892 59.4929 18.1383 59.4968 18.5037C59.5006 18.869 59.3603 19.2212 59.1063 19.4837L52.285 26.2712C52.202 26.3534 52.1394 26.4538 52.1023 26.5645C52.0652 26.6753 52.0545 26.7932 52.0713 26.9087L54.1413 41.125H39.3625L41.4325 26.9087C41.4493 26.7932 41.4387 26.6753 41.4015 26.5645C41.3644 26.4538 41.3018 26.3534 41.2188 26.2712L39.1225 24.1825L38.0575 25.2437L39.8913 27.0662C39.8913 27.0662 37.7538 41.755 37.7538 41.7662C37.7397 41.8726 37.7483 41.9807 37.779 42.0835C37.8097 42.1862 37.8619 42.2813 37.932 42.3625C38.0022 42.4436 38.0888 42.509 38.186 42.5542C38.2833 42.5995 38.389 42.6236 38.4963 42.625H40.7463V54.25C40.7463 54.9467 41.023 55.6148 41.5157 56.1075C42.0083 56.6001 42.6765 56.8769 43.3732 56.8769C44.0698 56.8769 44.738 56.6001 45.2306 56.1075C45.7233 55.6148 46 54.9467 46 54.25V42.625H47.5038V54.25C47.5038 54.9467 47.7805 55.6148 48.2732 56.1075C48.7658 56.6001 49.434 56.8769 50.1307 56.8769C50.8273 56.8769 51.4955 56.6001 51.9881 56.1075C52.4808 55.6148 52.7575 54.9467 52.7575 54.25V42.625H55.0075C55.1147 42.6233 55.2203 42.599 55.3174 42.5536C55.4145 42.5083 55.501 42.4429 55.5711 42.3619C55.6412 42.2808 55.6933 42.1858 55.7242 42.0832C55.755 41.9805 55.7638 41.8725 55.75 41.7662L53.6125 27.0662L60.1638 20.5487C60.702 20.0065 61.0028 19.2727 61 18.5087ZM44.5 54.25C44.5 54.5484 44.3815 54.8345 44.1705 55.0455C43.9596 55.2565 43.6734 55.375 43.375 55.375C43.0767 55.375 42.7905 55.2565 42.5795 55.0455C42.3686 54.8345 42.25 54.5484 42.25 54.25V42.625H44.5V54.25ZM51.2575 54.25C51.2575 54.5488 51.1388 54.8355 50.9275 55.0468C50.7161 55.2581 50.4295 55.3769 50.1307 55.3769C49.8318 55.3769 49.5452 55.2581 49.3338 55.0468C49.1225 54.8355 49.0038 54.5488 49.0038 54.25V42.625H51.2575V54.25Z" fill="#2D4356"/>
<path d="M51.2575 42.625V54.25C51.2575 54.5489 51.1388 54.8355 50.9274 55.0468C50.7161 55.2582 50.4295 55.3769 50.1306 55.3769C49.8318 55.3769 49.5451 55.2582 49.3338 55.0468C49.1225 54.8355 49.0038 54.5489 49.0038 54.25V42.625H51.2575ZM44.5 42.625V54.25C44.5 54.5484 44.3815 54.8345 44.1705 55.0455C43.9595 55.2565 43.6734 55.375 43.375 55.375C43.0766 55.375 42.7905 55.2565 42.5795 55.0455C42.3685 54.8345 42.25 54.5484 42.25 54.25V42.625H44.5Z" fill="#E1EBF4"/>
<path d="M40.6488 16.4689C40.1044 15.928 39.3679 15.6248 38.6005 15.6255C37.8331 15.6262 37.0972 15.9308 36.5538 16.4726L33.9775 19.0714C33.9813 19.1726 33.9925 19.2739 33.9925 19.3751C33.991 20.1194 33.8655 20.8583 33.6213 21.5614L37.6188 17.5301C37.8789 17.2736 38.2297 17.1299 38.5951 17.1303C38.9605 17.1307 39.311 17.2751 39.5706 17.5322C39.8301 17.7893 39.9779 18.1384 39.9818 18.5038C39.9857 18.8691 39.8454 19.2213 39.5913 19.4839L32.77 26.2714C32.6994 26.3408 32.6434 26.4237 32.6054 26.5152C32.5674 26.6066 32.5481 26.7048 32.5488 26.8039V39.6251H21.925V26.8039C21.9257 26.7048 21.9065 26.6066 21.8685 26.5152C21.8305 26.4237 21.7745 26.3408 21.7038 26.2714C21.7038 26.2714 14.8863 19.4876 14.8863 19.4839C14.6287 19.224 14.4841 18.8729 14.4841 18.507C14.4841 18.1411 14.6287 17.79 14.8863 17.5301C15.1482 17.2711 15.5015 17.1255 15.8699 17.1248C16.2383 17.124 16.5922 17.2683 16.855 17.5264L20.8525 21.5614C20.6083 20.8583 20.4829 20.1194 20.4813 19.3751C20.4813 19.2739 20.4925 19.1726 20.4963 19.0714L17.9163 16.4689C17.3722 15.9293 16.637 15.6266 15.8707 15.6266C15.1044 15.6266 14.3691 15.9293 13.825 16.4689C13.2956 17.016 12.9996 17.7475 12.9996 18.5089C12.9996 19.2702 13.2956 20.0017 13.825 20.5489L20.425 27.1151V40.3751C20.4256 40.5739 20.5048 40.7643 20.6454 40.9048C20.7859 41.0453 20.9763 41.1245 21.175 41.1251H21.2313V54.2501C21.2313 54.9473 21.5083 55.6159 22.0012 56.1089C22.4942 56.6019 23.1629 56.8789 23.86 56.8789C24.5572 56.8789 25.2259 56.6019 25.7189 56.1089C26.2118 55.6159 26.4888 54.9473 26.4888 54.2501V41.1251H27.9888V54.2501C27.9888 54.9468 28.2656 55.615 28.7582 56.1076C29.2508 56.6002 29.919 56.877 30.6157 56.877C31.3124 56.877 31.9805 56.6002 32.4732 56.1076C32.9658 55.615 33.2425 54.9468 33.2425 54.2501V41.1251H33.2988C33.4977 41.1251 33.6885 41.0461 33.8291 40.9055C33.9698 40.7648 34.0488 40.574 34.0488 40.3751V27.1151L40.6488 20.5489C41.1804 20.0038 41.4744 19.2702 41.4663 18.5089C41.4717 18.1317 41.4022 17.7572 41.2619 17.407C41.1216 17.0568 40.9132 16.738 40.6488 16.4689ZM24.985 54.2501C24.985 54.5485 24.8665 54.8346 24.6555 55.0456C24.4446 55.2566 24.1584 55.3751 23.86 55.3751C23.5617 55.3751 23.2755 55.2566 23.0646 55.0456C22.8536 54.8346 22.735 54.5485 22.735 54.2501V41.1251H24.985V54.2501ZM31.7425 54.2501C31.7425 54.549 31.6238 54.8356 31.4125 55.0469C31.2012 55.2583 30.9145 55.377 30.6157 55.377C30.3168 55.377 30.0302 55.2583 29.8189 55.0469C29.6075 54.8356 29.4888 54.549 29.4888 54.2501V41.1251H31.7425V54.2501Z" fill="#2D4356"/>
<path d="M31.7426 41.125V54.25C31.7426 54.5489 31.6239 54.8355 31.4126 55.0468C31.2012 55.2582 30.9146 55.3769 30.6157 55.3769C30.3169 55.3769 30.0302 55.2582 29.8189 55.0468C29.6076 54.8355 29.4889 54.5489 29.4889 54.25V41.125H31.7426ZM24.9851 41.125V54.25C24.9851 54.5484 24.8666 54.8345 24.6556 55.0455C24.4446 55.2565 24.1585 55.375 23.8601 55.375C23.5617 55.375 23.2756 55.2565 23.0646 55.0455C22.8536 54.8345 22.7351 54.5484 22.7351 54.25V41.125H24.9851Z" fill="#E1EBF4"/>
<path d="M27.2388 14.125C26.2006 14.1257 25.1859 14.4343 24.3231 15.0116C23.4602 15.5889 22.7879 16.4091 22.3911 17.3685C21.9943 18.3279 21.8909 19.3834 22.0939 20.4015C22.2969 21.4197 22.7972 22.3548 23.5316 23.0886C24.2659 23.8225 25.2014 24.3221 26.2197 24.5244C27.238 24.7267 28.2934 24.6225 29.2525 24.225C30.2116 23.8275 31.0313 23.1546 31.608 22.2914C32.1847 21.4281 32.4926 20.4132 32.4926 19.375C32.4909 17.9825 31.9367 16.6475 30.9517 15.6632C29.9667 14.6789 28.6313 14.1257 27.2388 14.125ZM27.2388 23.125C26.4971 23.125 25.7721 22.9051 25.1554 22.493C24.5387 22.081 24.0581 21.4953 23.7743 20.8101C23.4904 20.1248 23.4162 19.3708 23.5609 18.6434C23.7056 17.916 24.0627 17.2478 24.5872 16.7233C25.1116 16.1989 25.7798 15.8417 26.5072 15.6971C27.2346 15.5524 27.9886 15.6266 28.6739 15.9105C29.3591 16.1943 29.9448 16.6749 30.3568 17.2916C30.7689 17.9083 30.9888 18.6333 30.9888 19.375C30.9869 20.369 30.5912 21.3217 29.8884 22.0246C29.1855 22.7274 28.2328 23.1231 27.2388 23.125Z" fill="#2D4356"/>
<path d="M30.9889 19.375C30.9892 20.1172 30.7695 20.8429 30.3573 21.4601C29.9452 22.0774 29.3593 22.5586 28.6736 22.8428C27.988 23.127 27.2335 23.2015 26.5055 23.0568C25.7775 22.912 25.1088 22.5547 24.584 22.0299C24.0592 21.505 23.7018 20.8363 23.5571 20.1084C23.4124 19.3804 23.4869 18.6259 23.7711 17.9402C24.0553 17.2546 24.5364 16.6686 25.1537 16.2565C25.771 15.8444 26.4966 15.6246 27.2389 15.625C28.2329 15.6266 29.1858 16.0222 29.8888 16.7251C30.5917 17.428 30.9873 18.3809 30.9889 19.375Z" fill="#E1EBF4"/>
<path opacity="0.5" d="M30.9889 19.3749C30.9889 19.4987 30.9814 19.6224 30.9701 19.7424C30.8747 18.8188 30.4402 17.9633 29.7507 17.3413C29.0612 16.7194 28.1656 16.3752 27.237 16.3752C26.3084 16.3752 25.4128 16.7194 24.7233 17.3413C24.0338 17.9633 23.5993 18.8188 23.5039 19.7424C23.4926 19.6224 23.4851 19.4987 23.4851 19.3749C23.4851 18.3799 23.8804 17.4256 24.584 16.7219C25.2876 16.0183 26.2419 15.623 27.237 15.623C28.232 15.623 29.1863 16.0183 29.89 16.7219C30.5936 17.4256 30.9889 18.3799 30.9889 19.3749Z" fill="white"/>
<path opacity="0.5" d="M30.9889 19.3748C30.9889 20.3699 30.5936 21.3242 29.89 22.0278C29.1863 22.7314 28.232 23.1267 27.237 23.1267C26.2419 23.1267 25.2876 22.7314 24.584 22.0278C23.8804 21.3242 23.4851 20.3699 23.4851 19.3748C23.4851 19.2511 23.4926 19.1273 23.5039 19.0073C23.5993 19.931 24.0338 20.7865 24.7233 21.4084C25.4128 22.0304 26.3084 22.3746 27.237 22.3746C28.1656 22.3746 29.0612 22.0304 29.7507 21.4084C30.4402 20.7865 30.8747 19.931 30.9701 19.0073C30.9814 19.1273 30.9889 19.2511 30.9889 19.3748Z" fill="#9FA5AA"/>
<path opacity="0.5" d="M50.4889 19.3749C50.4889 19.4987 50.4814 19.6224 50.4701 19.7424C50.3747 18.8188 49.9402 17.9633 49.2507 17.3413C48.5612 16.7194 47.6656 16.3752 46.737 16.3752C45.8084 16.3752 44.9128 16.7194 44.2233 17.3413C43.5338 17.9633 43.0993 18.8188 43.0039 19.7424C42.9926 19.6224 42.9851 19.4987 42.9851 19.3749C42.9851 18.3799 43.3804 17.4256 44.084 16.7219C44.7876 16.0183 45.7419 15.623 46.737 15.623C47.732 15.623 48.6863 16.0183 49.39 16.7219C50.0936 17.4256 50.4889 18.3799 50.4889 19.3749Z" fill="white"/>
<path opacity="0.5" d="M50.4889 19.3748C50.4889 20.3699 50.0936 21.3242 49.39 22.0278C48.6863 22.7314 47.732 23.1267 46.737 23.1267C45.7419 23.1267 44.7876 22.7314 44.084 22.0278C43.3804 21.3242 42.9851 20.3699 42.9851 19.3748C42.9851 19.2511 42.9926 19.1273 43.0039 19.0073C43.0993 19.931 43.5338 20.7865 44.2233 21.4084C44.9128 22.0304 45.8084 22.3746 46.737 22.3746C47.6656 22.3746 48.5612 22.0304 49.2507 21.4084C49.9402 20.7865 50.3747 19.931 50.4701 19.0073C50.4814 19.1273 50.4889 19.2511 50.4889 19.3748Z" fill="#9FA5AA"/>
<path opacity="0.5" d="M21.925 38.875H32.5488V39.625H21.925V38.875Z" fill="#A54B3F"/>
<path opacity="0.5" d="M31.7426 53.5V54.25C31.7426 54.5489 31.6239 54.8355 31.4126 55.0468C31.2012 55.2582 30.9146 55.3769 30.6157 55.3769C30.3169 55.3769 30.0302 55.2582 29.8189 55.0468C29.6076 54.8355 29.4889 54.5489 29.4889 54.25V53.5C29.4889 53.7989 29.6076 54.0855 29.8189 54.2968C30.0302 54.5082 30.3169 54.6269 30.6157 54.6269C30.9146 54.6269 31.2012 54.5082 31.4126 54.2968C31.6239 54.0855 31.7426 53.7989 31.7426 53.5ZM24.9851 53.5V54.25C24.9851 54.5484 24.8666 54.8345 24.6556 55.0455C24.4446 55.2565 24.1585 55.375 23.8601 55.375C23.5617 55.375 23.2756 55.2565 23.0646 55.0455C22.8536 54.8345 22.7351 54.5484 22.7351 54.25V53.5C22.7351 53.7984 22.8536 54.0845 23.0646 54.2955C23.2756 54.5065 23.5617 54.625 23.8601 54.625C24.1585 54.625 24.4446 54.5065 24.6556 54.2955C24.8666 54.0845 24.9851 53.7984 24.9851 53.5ZM44.5001 53.5V54.25C44.5001 54.5484 44.3816 54.8345 44.1706 55.0455C43.9596 55.2565 43.6735 55.375 43.3751 55.375C43.0767 55.375 42.7906 55.2565 42.5796 55.0455C42.3686 54.8345 42.2501 54.5484 42.2501 54.25V53.5C42.2501 53.7984 42.3686 54.0845 42.5796 54.2955C42.7906 54.5065 43.0767 54.625 43.3751 54.625C43.6735 54.625 43.9596 54.5065 44.1706 54.2955C44.3816 54.0845 44.5001 53.7984 44.5001 53.5ZM51.2576 53.5V54.25C51.2576 54.5489 51.1389 54.8355 50.9276 55.0468C50.7162 55.2582 50.4296 55.3769 50.1307 55.3769C49.8319 55.3769 49.5452 55.2582 49.3339 55.0468C49.1226 54.8355 49.0039 54.5489 49.0039 54.25V53.5C49.0039 53.7989 49.1226 54.0855 49.3339 54.2968C49.5452 54.5082 49.8319 54.6269 50.1307 54.6269C50.4296 54.6269 50.7162 54.5082 50.9276 54.2968C51.1389 54.0855 51.2576 53.7989 51.2576 53.5Z" fill="#9FA5AA"/>
<path opacity="0.45" d="M54.1413 41.125H39.3625L39.4713 40.375H54.0325L54.1413 41.125Z" fill="#AD9359"/>
</g>
<defs>
<linearGradient id="paint0_linear_4486_6814" x1="7.95397" y1="-0.480769" x2="11.9077" y2="79.6865" gradientUnits="userSpaceOnUse">
<stop stop-color="#8A2CE2"/>
<stop offset="1" stop-color="#4C187C"/>
</linearGradient>
<clipPath id="clip0_4486_6814">
<rect width="48" height="48" fill="white" transform="translate(13 11.5)"/>
</clipPath>
</defs>
</svg>
