<svg width="74" height="70" viewBox="0 0 74 70" fill="none" xmlns="http://www.w3.org/2000/svg">
<rect width="73.8583" height="70" rx="8" fill="url(#paint0_linear_4486_6802)"/>
<g clip-path="url(#clip0_4486_6802)">
<path d="M24.3423 11.5C21.2397 11.5 18.7167 14.023 18.7167 17.1256C18.7167 20.2283 21.2397 22.8451 24.3423 22.8451C27.445 22.8451 29.968 20.2283 29.968 17.1256C29.968 14.023 27.445 11.5 24.3423 11.5ZM55.2834 17.1256C55.2834 14.023 52.7604 11.5 49.6577 11.5C46.5551 11.5 44.0321 14.023 44.0321 17.1256C44.0321 20.2283 46.5551 22.8451 49.6577 22.8451C52.7604 22.8451 55.2834 20.2283 55.2834 17.1256ZM29.4237 54.1687C32.6973 56.9156 33.5032 57.6894 34.3794 58.4343C35.2145 59.1444 36.2569 59.5001 37.2994 59.5001C38.3515 59.5001 39.4035 59.1375 40.2386 58.4151C41.7642 57.0944 43.4175 55.5705 44.9044 54.2669C44.1063 53.9988 43.3545 53.5708 42.7273 52.9429C41.0573 51.275 40.5935 48.7483 41.6492 46.5368C38.7814 45.0186 35.2238 45.0226 32.3546 46.5432C33.4051 48.752 32.9421 51.2758 31.2714 52.9443C30.7437 53.472 30.1153 53.8883 29.4237 54.1687Z" fill="white"/>
<path d="M37 39.7218C38.5535 39.7218 39.8128 38.4625 39.8128 36.909C39.8128 35.3555 38.5535 34.0962 37 34.0962C35.4465 34.0962 34.1872 35.3555 34.1872 36.909C34.1872 38.4625 35.4465 39.7218 37 39.7218Z" fill="white"/>
<path d="M37 29.5254C35.0745 26.0561 31.7507 23.0523 27.037 23.0523C20.5543 23.0523 15.6663 28.3072 15.6663 35.2746C15.6663 41.4294 19.8522 45.9422 26.4678 51.6513C27.4416 51.944 28.533 51.7029 29.2841 50.9539C30.4366 49.8043 30.3432 47.9326 29.1701 46.8665C23.1323 41.3809 21.292 38.8279 21.292 35.9684H24.1048C24.1048 37.7403 25.8331 39.9807 30.5752 44.3326C34.4868 42.0372 39.515 42.0422 43.4252 44.3328C48.167 39.9809 49.8955 37.7403 49.8955 35.9684H52.7083C52.7083 38.8279 50.8679 41.3809 44.8303 46.8665C43.6637 47.9268 43.5583 49.7987 44.715 50.9525C45.6633 51.8982 47.1396 52.0048 48.2509 51.2822C55.2854 44.8734 58.3341 40.8976 58.3341 35.2745C58.3341 28.307 53.446 23.0522 46.9633 23.0522C42.2479 23.0523 38.9256 26.0561 37 29.5254ZM42.6257 36.9091C42.6257 40.0117 40.1027 42.5347 37 42.5347C33.8974 42.5347 31.3744 40.0117 31.3744 36.9091C31.3744 33.8064 33.8974 31.2834 37 31.2834C40.1027 31.2834 42.6257 33.8064 42.6257 36.9091Z" fill="white"/>
</g>
<defs>
<linearGradient id="paint0_linear_4486_6802" x1="7.95397" y1="-0.480769" x2="11.9077" y2="79.6865" gradientUnits="userSpaceOnUse">
<stop stop-color="#8A2CE2"/>
<stop offset="1" stop-color="#4C187C"/>
</linearGradient>
<clipPath id="clip0_4486_6802">
<rect width="48" height="48" fill="white" transform="translate(13 11.5)"/>
</clipPath>
</defs>
</svg>
