<svg width="58" height="58" viewBox="0 0 58 58" fill="none" xmlns="http://www.w3.org/2000/svg">
<path d="M36.6906 42.8897C24.7723 42.8897 15.1105 33.228 15.1105 21.3096C15.1093 17.4515 16.1428 13.6637 18.1033 10.3408C20.0638 7.01794 22.8795 4.28163 26.2571 2.41699C12.859 3.82429 2.41675 15.1554 2.41675 28.9263C2.41675 43.6488 14.3517 55.5836 29.0741 55.5836C42.845 55.5836 54.176 45.1414 55.5834 31.7434C53.7187 35.1209 50.9823 37.9366 47.6594 39.897C44.3365 41.8574 40.5487 42.8909 36.6906 42.8897Z" fill="#F39C12"/>
<path d="M36.6906 42.8897C24.7724 42.8897 15.1105 33.2281 15.1105 21.3096C15.1094 17.4515 16.1429 13.6637 18.1034 10.3408C20.0638 7.01798 22.8795 4.28166 26.2571 2.41699C25.0278 2.55528 23.8097 2.7796 22.6118 3.0883C13.9635 6.88243 7.91187 15.5008 7.91187 25.55C7.91187 39.1025 18.8982 50.0887 32.4505 50.0887C42.4997 50.0887 51.118 44.0373 54.9121 35.3889C55.2208 34.1909 55.4452 32.9728 55.5834 31.7435C53.7187 35.121 50.9824 37.9367 47.6595 39.8971C44.3366 41.8575 40.5487 42.8909 36.6906 42.8897Z" fill="#F1C40F"/>
<path d="M41.0268 22.3737L35.665 25.1926L36.689 19.2221L32.3511 14.9936L38.3459 14.1226L41.0268 8.69043L43.7077 14.1226L49.7026 14.9936L45.3647 19.2221L46.3888 25.1926L41.0268 22.3737Z" fill="#F39C12"/>
<path d="M45.3647 19.2221L49.7025 14.9936L43.7078 14.1225L41.0268 8.69043L38.3459 14.1225L37.8037 14.2018C38.5819 15.6936 39.6755 16.9982 41.0085 18.0249C42.3416 19.0516 43.8822 19.7758 45.5233 20.1472L45.3647 19.2221Z" fill="#F1C40F"/>
</svg>
